<?xml version="1.0" standalone="no"?>
<!DOCTYPE svg PUBLIC "-//W3C//DTD SVG 1.1//EN"
"http://www.w3.org/Graphics/SVG/1.1/DTD/svg11.dtd">
<svg height="150" version="1.1" width="150" xmlns="http://www.w3.org/2000/svg">
<polygon points="0.00136738165747,87.0167922974,0.00136459700298,87.0063934326,0.00125435146037,87.0182266235,-0.124402046204,87.0643692017,-0.0628073364496,87.0514221191,0.00105507252738,87.0451202393,-0.249869927764,87.1203613281,-0.126710996032,87.1055984497,0.000694447022397,87.0964279175,-0.374962717295,87.1376571655,-0.19028955698,87.1218261719,0.000580271531362,87.1099319458,-0.515603244305,87.108581543,-0.261663675308,87.0921478271,0.000695228984114,87.0775527954,-0.747611880302,86.790725708,-0.378798395395,86.7750091553,0.00208688341081,86.7580795288,-0.98698580265,86.2771224976,-0.499211579561,86.2622299194,0.0040914802812,86.2440643311,-1.1817471981,85.6680450439,-0.59642457962,85.6567687988,0.00668792240322,85.6392822266,-1.34983348846,84.8566131592,-0.679217457771,84.8529891968,0.010224154219,84.837928772,-1.48363757133,83.6845016479,-0.744355738163,83.6904373169,0.0142574058846,83.6920623779,-1.5366755724,82.2138290405,-0.765731155872,82.2034072876,0.0212707389146,82.2741394043,-1.5393371582,80.8472061157,-0.747802555561,80.8753509521,0.0270289592445,80.9404220581,-1.56884503365,79.8472366333,-0.762348651886,79.8915328979,-0.00468220282346,79.8857879639,-1.55997228622,79.056968689,-0.777393341064,79.0874786377,-0.00397368706763,79.1094665527,-1.49967908859,78.3990631104,-0.749168515205,78.4462203979,0.0197876952589,78.484588623,-1.41662478447,77.7354125977,-0.691364824772,77.8063354492,0.0550014153123,77.8662796021,-1.34585094452,77.1056213379,-0.638520300388,77.1967010498,0.089117012918,77.2762374878,-1.29883241653,76.6931762695,-0.603740751743,76.7958374023,0.111001752317,76.8870697021,-1.25547468662,76.3174591064,-0.572039425373,76.4299926758,0.130362853408,76.5312423706,-1.21176803112,75.9436645508,-0.540532827377,76.0643157959,0.149046778679,76.1750488281,-1.16964364052,75.5774002075,-0.508818149567,75.6990737915,0.168520331383,75.8185195923,0.00137853622437,87.0586013794,0.001371909515,87.034324646,-0.234566524625,87.1142959595,-0.182333722711,87.0846862793,-0.469466298819,87.1753997803,-0.365272313356,87.1420211792,-0.704108774662,87.1929550171,-0.547899246216,87.1591186523,-0.968373417854,87.1578598022,-0.753421902657,87.1284942627,-1.40712738037,86.8145828247,-1.09346592426,86.8043823242,-1.86740028858,86.2786254883,-1.44596493244,86.2845840454,-2.24881577492,85.6404800415,-1.73656666279,85.6641693115,-2.58387708664,84.7811965942,-1.99283254147,84.8325805664,-2.8581366539,83.5405426025,-2.20121669769,83.6366119385,-2.97563576698,82.1272201538,-2.28851747513,82.2052230835,-3.02238321304,80.7893447876,-2.31642127037,80.8442230225,-3.03770637512,79.7187423706,-2.34345698357,79.7992858887,-2.98361682892,78.9316864014,-2.31692743301,78.9816207886,-2.85635471344,78.2186965942,-2.22108244896,78.3204040527,-2.7225754261,77.5033798218,-2.11039495468,77.6358108521,-2.61627483368,76.8308792114,-2.02065515518,76.9848556519,-2.54566979408,76.3970565796,-1.96084940434,76.5616226196,-2.48017573357,76.0050354004,-1.90512979031,76.1770935059,-2.41735553741,75.6344985962,-1.84907662868,75.8007583618,-2.36800146103,75.3549880981,-1.80025613308,75.4659347534,0.00149575527757,87.105506897,0.00138765154406,87.0866241455,-0.31639918685,87.184135437,-0.279591500759,87.1471939087,-0.632594585419,87.2536697388,-0.559438288212,87.2114868164,-0.948573410511,87.2726821899,-0.839043319225,87.2288742065,-1.30544281006,87.2250595093,-1.15429675579,87.1876602173,-1.90372097492,86.8218231201,-1.67982459068,86.8192138672,-2.53363251686,86.2429580688,-2.23482704163,86.2627182007,-3.05366110802,85.557975769,-2.69308543205,85.6036834717,-3.5112528801,84.6261825562,-3.09557151794,84.7120361328,-3.8865032196,83.2824630737,-3.42569899559,83.4232177734,-4.04392337799,81.8369140625,-3.56634092331,81.9945831299,-4.08642482758,80.5262908936,-3.61328244209,80.6692428589,-4.06456327438,79.4732894897,-3.61307621002,79.6102218628,-3.93617868423,78.6539535522,-3.5209467411,78.8165817261,-3.76313352585,77.880027771,-3.36645317078,78.0725097656,-3.60016036034,77.1187362671,-3.21481013298,77.333656311,-3.47301387787,76.4059295654,-3.09498143196,76.6412353516,-3.39383983612,75.9560012817,-3.01605415344,76.1966400146,-3.32865810394,75.5849609375,-2.94729495049,75.8028259277,-3.27601575851,75.3301315308,-2.88729357719,75.4723358154,-3.22487473488,75.1062850952,-2.83938932419,75.237953186,0.00141691591125,87.1605682373,0.00146256841253,87.131942749,-0.359634399414,87.266418457,-0.343309134245,87.2286148071,-0.719160497189,87.3527603149,-0.686357319355,87.3071746826,-1.07847654819,87.3835296631,-1.02919626236,87.3320999146,-1.48515617847,87.3342971802,-1.41686093807,87.2824707031,-2.17048978806,86.8779525757,-2.06910610199,86.8476028442,-2.888682127,86.2599411011,-2.75381493568,86.2482757568,-3.48216128349,85.5230255127,-3.31932377815,85.5377960205,-4.00752449036,84.505569458,-3.81848692894,84.5647659302,-4.44309949875,83.0335769653,-4.23016500473,83.1611251831,-4.61248540878,81.5300521851,-4.3971529007,81.6918334961,-4.63731479645,80.236289978,-4.4317483902,80.3958358765,-4.53361034393,79.1106491089,-4.37053775787,79.3171463013,-4.38185071945,78.2086486816,-4.22431993484,78.4562606812,-4.20906209946,77.3689346313,-4.04505491257,77.6464614868,-4.0502243042,76.5711288452,-3.87831425667,76.861114502,-3.94470095634,75.8507766724,-3.75473880768,76.1281280518,-3.88533186913,75.5106430054,-3.68472456932,75.7002487183,-3.83157753944,75.2490234375,-3.63028812408,75.419960022,-3.77431321144,74.9907302856,-3.57724905014,75.1787490845,-3.71275377274,74.7319869995,-3.5211148262,74.9415206909,0.00142536649946,87.160446167,0.00138170854189,87.1757507324,-0.359943658113,87.2671432495,-0.365340083838,87.2868804932,-0.719425678253,87.3545227051,-0.73039317131,87.378074646,-1.07870829105,87.3863754272,-1.095241189,87.4131393433,-1.48521590233,87.3372421265,-1.50826859474,87.365524292,-2.17055606842,86.8688812256,-2.20471453667,86.8963012695,-2.8890414238,86.2152252197,-2.93420958519,86.2582244873,-3.48306560516,85.42212677,-3.53722429276,85.491394043,-4.00962877274,84.3081207275,-4.07194757462,84.424911499,-4.44003725052,82.6860809326,-4.51504993439,82.8808059692,-4.57935619354,81.110168457,-4.67846345901,81.3408355713,-4.57207012177,79.7873458862,-4.69211339951,80.036239624,-4.43586778641,78.5919876099,-4.55893182755,78.865776062,-4.3214673996,77.654876709,-4.41742897034,77.9336929321,-4.18813610077,76.7961807251,-4.25896787643,77.0750732422,-4.06475687027,76.0065689087,-4.11973571777,76.2822647095,-3.96053934097,75.3793487549,-4.02395200729,75.6381607056,-3.89623379707,75.0256652832,-3.96256732941,75.3046798706,-3.83886766434,74.7163085938,-3.9036860466,75.0210342407,-3.77971148491,74.4072113037,-3.84189534187,74.7367553711,-3.71877861023,74.0983047485,-3.77782082558,74.4517364502,0.00151908386033,87.1037750244,0.00147966691293,87.1311340332,-0.316004037857,87.1777267456,-0.343420386314,87.2284698486,-0.632268190384,87.2500076294,-0.686445653439,87.3082580566,-0.948317289352,87.271812439,-1.02926754951,87.3345031738,-1.30553984642,87.2243881226,-1.41685843468,87.2847518921,-1.90409612656,86.790145874,-2.0691576004,86.8284606934,-2.53452110291,86.1158218384,-2.75440311432,86.1607284546,-3.0560631752,85.2796173096,-3.32112908363,85.3423690796,-3.51575279236,84.0809631348,-3.82235169411,84.1830291748,-3.87860655785,82.3057403564,-4.22406816483,82.4864196777,-3.96893763542,80.6613693237,-4.33367347717,80.8800964355,-3.95975422859,79.3706665039,-4.31352233887,79.5536117554,-3.89551210403,78.2415161133,-4.21046495438,78.3679504395,-3.84119510651,77.3639373779,-4.12746477127,77.4468383789,-3.75597310066,76.4995346069,-4.02069234848,76.5831451416,-3.62158536911,75.6898269653,-3.89210033417,75.8009567261,-3.51332330704,74.9444961548,-3.78172254562,75.1206741333,-3.46010613441,74.5374526978,-3.72300982475,74.7413101196,-3.41323328018,74.1871414185,-3.67077732086,74.4113006592,-3.36440038681,73.8377838135,-3.61649084091,74.0821914673,-3.31413292885,73.4895935059,-3.56056284904,73.7542419434,0.00177718885243,86.9676589966,0.00160003849305,87.0379333496,-0.234075173736,87.0326004028,-0.279067277908,87.1041564941,-0.469067692757,87.1084594727,-0.558991372585,87.1780700684,-0.703796505928,87.1404342651,-0.838677704334,87.2047576904,-0.968203544617,87.1151123047,-1.15405404568,87.16822052,-1.40685379505,86.7370605469,-1.68000221252,86.7621765137,-1.8671091795,86.0931091309,-2.23533368111,86.0972824097,-2.24898195267,85.2767715454,-2.695084095,85.2629165649,-2.58283400536,84.0508117676,-3.09901237488,84.0406265259,-2.85672569275,82.0938415527,-3.41856193542,82.1696243286,-2.99160599709,80.3486633301,-3.51034832001,80.4670333862,-3.01798534393,79.1434020996,-3.52339625359,79.2418823242,-3.01706933975,78.2205276489,-3.49358010292,78.2032546997,-3.01122522354,77.5226898193,-3.46496868134,77.4004440308,-2.96933746338,76.7509078979,-3.39963269234,76.5654907227,-2.85768198967,75.7851638794,-3.26943540573,75.6975021362,-2.75376057625,74.8554458618,-3.16435146332,74.8747558594,-2.70922923088,74.3968811035,-3.11625337601,74.4441299438,-2.6730465889,74.0191650391,-3.07480239868,74.0799484253,-2.63536024094,73.6438522339,-3.03159689903,73.7167282104,-2.64792108536,73.2686386108,-2.9870672226,73.3543014526,0.00203205831349,86.8662567139,0.00192242721096,86.9091110229,-0.123723000288,86.931137085,-0.181638941169,86.9728927612,-0.249378815293,87.0118026733,-0.364765614271,87.0503845215,-0.374630212784,87.0523300171,-0.547559380531,87.0868377686,-0.515223324299,87.0413208008,-0.753101408482,87.0704193115,-0.747048616409,86.7016372681,-1.09291219711,86.7159194946,-0.986356973648,86.1116409302,-1.44518089294,86.0985031128,-1.17392003536,85.3670501709,-1.73171424866,85.3125305176,-1.30537128448,84.2485580444,-1.96826660633,84.1237716675,-1.47626018524,82.5951538086,-2.19920969009,82.285194397,-1.54009664059,80.9763412476,-2.30357646942,80.5175094604,0.00197919667698,86.8559494019,0.00210117781535,86.8403396606,0.00172566843685,86.8960571289,-0.0621325038373,86.9056854248,0.00123241357505,86.9766693115,-0.126187771559,86.9876480103,0.0009403367294,87.0170593262,-0.189896821976,87.0296096802,0.000869137991685,87.0076522827,-0.261330902576,87.0209732056,0.00204596994445,86.6885681152,-0.378482848406,86.6928634644,0.00400257017463,86.154083252,-0.498946398497,86.1310501099,0.00595946889371,85.5136032104,-0.595616042614,85.4419403076,0.00890548620373,84.6236419678,-0.672811508179,84.4510726929,0.0203435607255,83.3192367554,-0.738444685936,82.9652481079,0.045211546123,82.0516281128,-0.754065155983,81.5277709961,0.127014517784,86.9236068726,0.0655443370342,86.9020080566,0.251715093851,86.9936141968,0.128621965647,86.9786605835,0.376407980919,87.0220413208,0.191753029823,87.0145568848,0.516901552677,87.001991272,0.263057082891,87.0014266968,0.75115942955,86.6910018921,0.382577240467,86.6885452271,0.994352936745,86.2002334595,0.506903588772,86.1792831421,1.18991363049,85.6343078613,0.608198344707,85.5831222534,1.33686447144,84.9084091187,0.693154394627,84.7842025757,1.44352781773,83.9708709717,0.766205191612,83.6653137207,1.55099952221,83.0237579346,0.829340994358,82.5630874634,0.236906513572,87.0162353516,0.184732988477,86.9611434937,0.471005231142,87.0705032349,0.366931468248,87.0225448608,0.705242991447,87.0786972046,0.549194514751,87.0409927368,0.969674348831,87.0343856812,0.754713714123,87.0106811523,1.41024518013,86.6980209351,1.09702455997,86.6936264038,1.86971902847,86.2108917236,1.45248770714,86.2089614868,2.23992919922,85.6720123291,1.73757123947,85.6614608765,2.52194786072,85.0290603638,1.95385372639,84.9889526367,2.76951479912,84.2729263306,2.15297293663,84.1810302734,2.86076784134,83.4694824219,2.28527855873,83.359992981,0.318208456039,87.1508712769,0.281580388546,87.0829544067,0.633661270142,87.1915283203,0.560657560825,87.1299133301,0.94929265976,87.1796112061,0.839901506901,87.1274414062,1.30604839325,87.1041412354,1.15529799461,87.0671386719,1.90273177624,86.7101516724,1.68136453629,86.7040100098,2.52638292313,86.2026596069,2.23223257065,86.2075958252,3.0316016674,85.6364059448,2.67661595345,85.6648788452,3.44319844246,84.9039077759,3.02227330208,84.9850006104,3.78197646141,83.9556503296,3.29890322685,84.1388931274,3.98075246811,82.9156188965,3.47015738487,83.185585022,4.09805679321,81.7987289429,3.61898255348,82.0951461792,3.00942182541,82.4498825073,4.12687110901,80.84765625,3.68641042709,81.1028900146,3.12290024757,81.3580093384,4.07142114639,80.3843994141,3.64620947838,80.5132827759,3.11456084251,80.6460418701,3.94893121719,79.9957427979,3.53293085098,80.077003479,3.04981780052,80.1250915527,3.8056538105,79.6195678711,3.38350009918,79.6550750732,2.91067075729,79.6356658936,3.68415522575,79.2771987915,3.22115373611,79.2701034546,2.67921805382,79.1909103394,3.60072350502,79.0653610229,3.10198831558,79.0394897461,2.47879338264,78.9105682373,3.51619267464,78.8727874756,2.97757744789,78.8347473145,2.28663825989,78.6788253784,3.40954709053,78.6793441772,2.81114840508,78.6279678345,2.06241893768,78.447845459,3.23491692543,78.4905548096,2.59447383881,78.4190444946,1.96240878105,78.2718658447,0.00151669920888,87.1396102905,0.00152085954323,87.1216583252,0.361980378628,87.2177124023,0.3455337286,87.1911697388,0.720590829849,87.2699890137,0.687719285488,87.2368469238,1.07938742638,87.2638702393,1.03008699417,87.2264938354,1.48495364189,87.1805419922,1.41691768169,87.1450576782,2.16597032547,86.7344436646,2.06573867798,86.721282959,2.87556815147,86.2106323242,2.74273109436,86.2056121826,3.45408582687,85.6170578003,3.29329013824,85.6200485229,3.95214748383,84.8424682617,3.75807595253,84.858581543,4.36875867844,83.7832717896,4.14829540253,83.8391799927,4.56350135803,82.6269073486,4.34938907623,82.7308883667,4.65166759491,81.4727172852,4.44374847412,81.6010665894,4.64698219299,80.5836410522,4.44816827774,80.7048950195,4.57951784134,80.1082611084,4.38496780396,80.26171875,4.46106243134,79.6899414062,4.26521921158,79.8720321655,4.33516120911,79.3010559082,4.13376140594,79.5043945312,4.24104833603,78.9437332153,4.03100252151,79.1683044434,4.17329549789,78.7154541016,3.95892262459,78.9530105591,4.09351682663,78.5158081055,3.8849799633,78.7569503784,3.96812224388,78.3360748291,3.78453445435,78.5660629272,3.82291579247,78.1592636108,3.63120102882,78.3845443726,0.00150801695418,87.1398162842,0.00151239044499,87.1459960938,0.361657530069,87.2161483765,0.367304235697,87.228477478,0.720329880714,87.2672271729,0.731465935707,87.2845535278,1.079179883,87.2606506348,1.09581065178,87.2815246582,1.48504459858,87.1755065918,1.50789737701,87.1984558105,2.16641688347,86.72315979,2.2000079155,86.7415771484,2.87608551979,86.1893005371,2.92058825493,86.2098464966,3.45575380325,85.5898590088,3.50896716118,85.6117401123,3.96022772789,84.8111038208,4.01808929443,84.8324661255,4.37696075439,83.7392196655,4.4247713089,83.764175415,4.56351232529,82.5389480591,4.60062408447,82.5864334106,4.64705133438,81.3293380737,4.70262813568,81.3992614746,4.63821554184,80.3554000854,4.71201324463,80.4686584473,4.56960725784,79.7590408325,4.6446852684,79.9317321777,4.45433950424,79.2775192261,4.5263466835,79.4744720459,4.33512401581,78.8227844238,4.40339326859,79.0497131348,4.23983240128,78.4024963379,4.31372976303,78.6575546265,4.1298122406,78.1661300659,4.23840379715,78.4172058105,4.00675153732,77.9680938721,4.12533807755,78.2310638428,3.8850903511,77.7688674927,3.99440431595,78.0532455444,3.76774191856,77.56640625,3.86136460304,77.8720016479,0.00150376185775,87.1225509644,0.318567663431,87.1544570923,0.345417022705,87.1895294189,0.633996427059,87.1914138794,0.687656641006,87.2335739136,0.94960218668,87.1765670776,1.03007936478,87.2221908569,1.30603468418,87.0960388184,1.41707754135,87.1378097534,1.90250480175,86.6827468872,2.06612420082,86.6997833252,2.52652049065,86.1443557739,2.74332022667,86.1631317139,3.0366871357,85.5435791016,3.29663085938,85.561958313,3.47956252098,84.7685394287,3.77778720856,84.7849960327,3.84187054634,83.7160644531,4.17469596863,83.7229766846,4.0084233284,82.5029983521,4.35534286499,82.5148239136,4.08043766022,81.2523193359,4.43260669708,81.2830505371,4.070997715,80.186920166,4.42175865173,80.2598114014,4.00825119019,79.495300293,4.35543298721,79.610206604,3.91021633148,78.9798049927,4.24686288834,79.1113815308,3.80287981033,78.4808197021,4.13055801392,78.6348114014,3.67977643013,78.024017334,4.01199054718,78.2016143799,3.58097195625,77.7378311157,3.89462709427,77.9449157715,3.49202108383,77.4764022827,3.78116297722,77.7149734497,3.40990543365,77.211265564,3.67352104187,77.4812545776,3.33536815643,76.9428024292,3.57178592682,77.2443618774,0.236710488796,87.0924530029,0.281751573086,87.1214904785,0.470864027739,87.1289596558,0.560845673084,87.1566696167,0.705153048038,87.1210784912,0.840091466904,87.1438827515,0.96950262785,87.060218811,1.15521001816,87.0727233887,1.41011667252,86.6989593506,1.68096411228,86.6887130737,1.86998784542,86.1706542969,2.23221349716,86.1532974243,2.24823260307,85.5665283203,2.68362379074,85.5524902344,2.57738041878,84.7887496948,3.0755918026,84.7792663574,2.84685063362,83.7300872803,3.3959672451,83.7272644043,2.97174143791,82.4895324707,3.54367947578,82.5048904419,3.02621626854,81.1987991333,3.60786986351,81.2336730957,3.0158495903,80.0712051392,3.59881472588,80.1309280396,2.96286249161,79.3331375122,3.54024028778,79.409942627,2.89636588097,78.7815170288,3.45596075058,78.8754959106,2.83065414429,78.2400283813,3.36605858803,78.3544692993,2.78285050392,77.7197113037,3.27225637436,77.865524292,2.74942231178,77.3835372925,3.20767331123,77.5529785156,2.71760773659,77.0768280029,3.15266156197,77.2675476074,2.68568921089,76.7679748535,3.10451984406,76.9792175293,2.65529751778,76.4575119019,3.0693860054,76.6884689331,0.126525998116,87.052520752,0.184466227889,87.0675048828,0.251255720854,87.0952682495,0.366663783789,87.1055755615,0.375997811556,87.0988998413,0.548939704895,87.1027526855,0.516779303551,87.0557403564,0.754593670368,87.0517272949,0.751540362835,86.7250137329,1.09724199772,86.710609436,0.995323300362,86.2065200806,1.45318222046,86.1887893677,1.19485187531,85.6014099121,1.74515020847,85.5840301514,1.3688904047,84.8036956787,2.00102376938,84.7931289673,1.51241624355,83.6869430542,2.2114136219,83.7012939453,1.58003890514,82.3783569336,2.30973672867,82.4267120361,1.60994946957,81.0505218506,2.35236287117,81.1213302612,1.59235870838,79.9299468994,2.33845686913,79.9921417236,1.55779016018,79.1762313843,2.29365730286,79.2490921021,1.53876960278,78.5875473022,2.24920558929,78.6782684326,1.52317643166,78.0097579956,2.20792245865,78.1173477173,1.51798927784,77.4557418823,2.18304419518,77.5784683228,1.51279127598,77.091003418,2.164539814,77.2266998291,1.50651943684,76.7571258545,2.1457490921,76.905090332,1.49937832355,76.4220581055,2.12587547302,76.581817627,1.49189698696,76.0857925415,2.10550093651,76.2569885254,0.0649220943451,87.0453720093,0.128089532256,87.0928115845,0.191338211298,87.1020812988,0.262877106667,87.0652084351,0.382789641619,86.7411956787,0.507647335529,86.2250900269,0.610165476799,85.620223999,0.700014829636,84.8199996948,0.774588882923,83.6901626587,0.811829984188,82.3425140381,0.82745885849,80.9841384888,0.802906990051,79.924041748,0.784873425961,79.1327438354,0.790231287479,78.5257720947,0.80044823885,77.9299697876,0.814947426319,77.3589859009,0.823353886604,76.9816970825,0.829957306385,76.6362838745,0.835883319378,76.2900772095,0.841766238213,75.943069458,-0.0477400235832,87.0275344849,0.00135884457268,87.0109329224,-0.0311558824033,87.0221252441,-0.0946863666177,87.0573959351,-0.0620520636439,87.0337677002,-0.015810130164,87.0198974609,0.00135588936973,87.0043029785,0.00125413958449,87.0173416138,-0.0314522124827,87.0480117798,-0.144266992807,87.0893096924,-0.0954719781876,87.0822906494,-0.19005201757,87.1125488281,-0.188124641776,87.0960845947,-0.0485183447599,87.078956604,0.00083299545804,87.0746078491,-0.0637447759509,87.1006851196,-0.239545926452,87.1237716675,-0.15924410522,87.1164703369,-0.284848570824,87.1293563843,-0.313579440117,87.1318740845,-0.0805673748255,87.110748291,0.000619868107606,87.1058654785,-0.0956960245967,87.1154937744,-0.33431199193,87.1373443604,-0.22280010581,87.1292953491,-0.39163300395,87.0990600586,-0.438667982817,87.1455459595,-0.112526319921,87.1225662231,0.000518012326211,87.116027832,-0.131532877684,87.083366394,-0.477554351091,86.9682388306,-0.317745953798,86.9647445679,-0.567092478275,86.7804031372,-0.626328527927,86.9809417725,-0.160055115819,86.9514389038,0.00132145732641,86.9487533569,-0.18964625895,86.7636566162,-0.66281992197,86.5330429077,-0.441805839539,86.5310211182,-0.747337520123,86.2674484253,-0.872467398643,86.5464782715,-0.22123709321,86.5156555176,0.00307417381555,86.5131835938,-0.249013721943,86.2502593994,-0.826509952545,85.9747467041,-0.551207363605,85.9724197388,-0.893188774586,85.6611251831,-1.09072959423,85.9859390259,-0.27489310503,85.9577865601,0.00531254522502,85.9542999268,-0.29640135169,85.6455688477,-0.959445178509,85.2886428833,-0.639940559864,85.2878570557,-1.01804816723,84.8546218872,-1.26976752281,85.2959213257,-0.317629158497,85.2744293213,0.00828555412591,85.271156311,-0.336091220379,84.8434066772,-1.07458865643,84.3133850098,-0.715984880924,84.3176116943,-1.1157463789,83.6881408691,-1.42576003075,84.3137283325,-0.353550463915,84.3069992065,0.012580380775,84.3053588867,-0.368253171444,83.6891708374,-1.13836669922,82.9560546875,-0.761904418468,82.9574508667,-1.15338265896,82.2016601562,-1.51785433292,82.9625167847,-0.382124781609,82.96900177,0.0135318953544,82.9942169189,-0.375169575214,82.2327270508,-1.15441179276,81.4871902466,-0.758076608181,81.5014038086,-1.14473628998,80.8537063599,-1.53937268257,81.4947662354,-0.365268349648,81.5421981812,0.0290703121573,81.5821838379,-0.358153939247,80.9095840454,-1.15471553802,80.323348999,-0.749856770039,80.3494644165,-1.16209089756,79.8738632202,-1.55531394482,80.3083114624,-0.356826871634,80.367477417,0.0130008086562,80.3756942749,-0.38281801343,79.8885879517,-1.16276979446,79.4614257812,-0.773608028889,79.4687042236,-1.16776990891,79.07862854,-1.57087993622,79.431678772,-0.400374412537,79.4644241333,-0.00906625296921,79.4696350098,-0.39307948947,79.0972747803,-1.15756320953,78.7451553345,-0.769110143185,78.7568283081,-1.1283493042,78.4263076782,-1.53523123264,78.7217330933,-0.381650269032,78.7721328735,0.00569316279143,78.7884140015,-0.366330355406,78.4658355713,-1.09555375576,78.1032104492,-0.722648918629,78.1289749146,-1.0577147007,77.773979187,-1.45953297615,78.0698165894,-0.346819370985,78.1547775269,0.0357124917209,78.1775054932,-0.320454776287,77.8371810913,-1.02579259872,77.4471359253,-0.663731515408,77.484588623,-0.995838582516,77.1540908813,-1.37916970253,77.4027328491,-0.298559784889,77.5210647583,0.0723790898919,77.5551452637,-0.276619762182,77.2371826172,-0.974612772465,76.9330291748,-0.620134055614,76.9789505005,-0.954879701138,76.7472305298,-1.32087647915,76.881401062,-0.261936545372,77.0227508545,0.100673399866,77.0650024414,-0.248035639524,76.8420562744,-0.937025725842,76.56199646,-0.588319301605,76.6130447388,-0.917358756065,76.3763580322,-1.27755630016,76.5054321289,-0.236064851284,76.6619720459,0.120320424438,76.7093811035,-0.222389534116,76.4812164307,-0.899497389793,76.1912841797,-0.556717634201,76.2472610474,-0.879778027534,76.0061645508,-1.23415112495,76.129989624,-0.210650593042,76.301109314,0.139297068119,76.3533477783,-0.197221785784,76.1202087402,-0.861514508724,75.8222808838,-0.525133371353,75.8818817139,-0.842055499554,75.6377029419,-1.18950974941,75.760559082,-0.185376018286,75.9399795532,0.158142849803,75.9970474243,-0.171011522412,75.7588806152,-0.10841742903,87.0663833618,0.00136939471122,87.0461883545,-0.0916798487306,87.0528335571,-0.210739716887,87.0991439819,-0.118179358542,87.0794677734,-0.0777524411678,87.0426635742,0.00136240653228,87.0248260498,-0.154543489218,87.0736618042,-0.318209320307,87.1331863403,-0.27498742938,87.1172485352,-0.420319497585,87.1580200195,-0.353269428015,87.1491165161,-0.234200507402,87.1060714722,-0.309813469648,87.1301269531,-0.527502298355,87.169708252,-0.457862377167,87.1535720825,-0.629587054253,87.1751708984,-0.588059842587,87.1875762939,-0.389703571796,87.1416778564,-0.464546352625,87.1472625732,-0.736563384533,87.1822891235,-0.64044034481,87.1665496826,-0.865892529488,87.1419219971,-0.822639763355,87.199508667,-0.544519901276,87.1551818848,-0.638887107372,87.116317749,-1.05403208733,87.0063552856,-0.914919674397,86.9985122681,-1.25736510754,86.8082504272,-1.17594528198,87.0194091797,-0.778472721577,86.9838485718,-0.92614454031,86.7947616577,-1.47175431252,86.5551147461,-1.27682042122,86.5575408936,-1.66476762295,86.281036377,-1.64596951008,86.5595932007,-1.08220005035,86.5459060669,-1.22237157822,86.2789230347,-1.84512579441,85.9801330566,-1.59982585907,85.9889450073,-2.00152873993,85.6524734497,-2.06883192062,85.9751434326,-1.35301458836,85.983039856,-1.46516335011,85.6651687622,-2.15738320351,85.2651290894,-1.86990368366,85.2838973999,-2.29851841927,84.8074798584,-2.42299127579,85.2494277954,-1.57735383511,85.2857971191,-1.67757022381,84.8449707031,-2.43741607666,84.2332763672,-2.11057853699,84.2731170654,-2.54003667831,83.5916442871,-2.73781561852,84.1962890625,-1.77606272697,84.2920227051,-1.84745430946,83.6647262573,-2.60312986374,82.8918075562,-2.25627589226,82.9320068359,-2.64175891876,82.1744308472,-2.93236422539,82.8387145996,-1.8893944025,82.9522781372,-1.91660118103,82.2159500122,-2.66279506683,81.4754638672,-2.30404663086,81.4966506958,-2.68196392059,80.8257751465,-3.00311040878,81.4354858398,-1.92513465881,81.5004882812,-1.93329739571,80.8483505249,-2.70185852051,80.259765625,-2.33455634117,80.286529541,-2.70227861404,79.7641372681,-3.03696036339,80.2162399292,-1.95372879505,80.3019485474,-1.96631634235,79.8247451782,-2.6841711998,79.3387756348,-2.33828210831,79.3653793335,-2.66480970383,78.9590148926,-3.01887989044,79.3033447266,-1.97041273117,79.3956604004,-1.94693315029,79.019493103,-2.62506151199,78.6116104126,-2.27637910843,78.6442184448,-2.55510640144,78.2737960815,-2.92795324326,78.573387146,-1.90956175327,78.6870193481,-1.86687612534,78.364074707,-2.49184036255,77.9272613525,-2.16555023193,77.9823150635,-2.43049788475,77.5741653442,-2.7879011631,77.8620147705,-1.8210080862,78.0315933228,-1.77099859715,77.6902389526,-2.37858104706,77.2239074707,-2.06257414818,77.2914581299,-2.3318798542,76.9122161865,-2.6656036377,77.1472396851,-1.72899878025,77.3521575928,-1.69041669369,77.0497131348,-2.29709029198,76.6787109375,-1.98877966404,76.7543945312,-2.2662320137,76.4837341309,-2.57856678963,76.594078064,-1.66205084324,76.8224945068,-1.63671183586,76.6316757202,-2.23632216454,76.2895202637,-1.93336200714,76.3694229126,-2.20510625839,76.0950317383,-2.5132625103,76.2003479004,-1.6125934124,76.4419403076,-1.58708655834,76.2514572144,-2.17525458336,75.901222229,-1.87750554085,75.9853439331,-2.14311933517,75.7195739746,-2.44751095772,75.8120803833,-1.56281733513,76.0620956421,-1.53601956367,75.8759307861,-2.10956573486,75.5628890991,-1.82081604004,75.6312255859,-2.09452557564,75.4108734131,-2.38849186897,75.4884567261,-1.50795602798,75.6987686157,-1.49050295353,75.5207977295,-0.153875932097,87.1263427734,0.0013930691639,87.1017074585,-0.140822485089,87.1095657349,-0.300599634647,87.165184021,-0.159869894385,87.1427841187,-0.131482511759,87.0947418213,0.00137849722523,87.0725326538,-0.258929610252,87.1307067871,-0.453078985214,87.2036590576,-0.420827567577,87.1840057373,-0.59972268343,87.2314605713,-0.476080387831,87.2240524292,-0.390509754419,87.1668167114,-0.517498910427,87.1932983398,-0.752018511295,87.2442626953,-0.70059043169,87.2239837646,-0.898598670959,87.2490539551,-0.792106509209,87.2673950195,-0.64913213253,87.2056503296,-0.775752782822,87.2106628418,-1.05075418949,87.2540740967,-0.980148911476,87.2342681885,-1.23701322079,87.2032089233,-1.10797333717,87.2776489258,-0.907416701317,87.2167434692,-1.06755805016,87.1715698242,-1.50788211823,87.0415039062,-1.4025374651,87.0372543335,-1.80186283588,86.8164825439,-1.58759832382,87.0582962036,-1.30027449131,87.024520874,-1.55219709873,86.8152923584,-2.11295080185,86.5412750244,-1.96739268303,86.5531845093,-2.3960518837,86.2489089966,-2.22986841202,86.543586731,-1.81958734989,86.5519485474,-2.06144952774,86.2693862915,-2.65594005585,85.9287643433,-2.47637462616,85.9496536255,-2.88645505905,85.5774078369,-2.80705022812,85.9185256958,-2.28556895256,85.9594955444,-2.48253273964,85.6214447021,-3.11211824417,85.1611251831,-2.90209126472,85.1985626221,-3.31776714325,84.6664962769,-3.2908513546,85.135345459,-2.67658019066,85.2210998535,-2.85251879692,84.7463684082,-3.5160048008,84.0424423218,-3.2798101902,84.1026153564,-3.67080330849,83.3522567749,-3.72021627426,83.9885025024,-3.02380776405,84.1460494995,-3.15544581413,83.482635498,-3.76666045189,82.6329879761,-3.51570296288,82.7093200684,-3.81987452507,81.9167480469,-3.98818826675,82.5553665161,-3.23819613457,82.7750778198,-3.28452372551,82.0654220581,-3.84966301918,81.2349243164,-3.5965924263,81.3080825806,-3.86475992203,80.5986480713,-4.07404279709,81.1561889648,-3.31381773949,81.3779525757,-3.33219742775,80.7352523804,-3.8693022728,80.0378189087,-3.62122416496,80.1031341553,-3.85584902763,79.5451812744,-4.08649206161,79.9672012329,-3.3423345089,80.1637268066,-3.34085202217,79.6687088013,-3.81299686432,79.1257629395,-3.57861423492,79.1946640015,-3.74460864067,78.7403106689,-4.01156997681,79.0462036133,-3.31680226326,79.2579803467,-3.26896214485,78.8836364746,-3.6656794548,78.3597640991,-3.4479675293,78.4437255859,-3.57935929298,77.9818191528,-3.85176944733,78.2649841309,-3.20411372185,78.518157959,-3.12697935104,78.1524658203,-3.49797320366,77.6065063477,-3.28841018677,77.7029495239,-3.42104244232,77.2318954468,-3.67878818512,77.498260498,-3.05402302742,77.7893981934,-2.98369050026,77.4243545532,-3.3541226387,76.8590240479,-3.15030908585,76.966583252,-3.29634618759,76.5296783447,-3.53108668327,76.739944458,-2.92313361168,77.0630645752,-2.8700003624,76.7413253784,-3.25269365311,76.2845535278,-3.05232548714,76.3983612061,-3.2162232399,76.0808410645,-3.42973947525,76.1577148438,-2.82979083061,76.5009994507,-2.79445338249,76.301574707,-3.18172287941,75.8781356812,-2.98155260086,75.9952316284,-3.14624238014,75.6922149658,-3.3585627079,75.7614364624,-2.76089596748,76.1020507812,-2.72585678101,75.9077453613,-3.10819911957,75.5416793823,-2.91313672066,75.6281967163,-3.09013676643,75.4017715454,-3.29974794388,75.4484024048,-2.69023442268,75.7215805054,-2.66251087189,75.5518798828,-3.06821393967,75.2835998535,-2.86195206642,75.3480377197,-3.04279017448,75.1751022339,-3.25119638443,75.2169342041,-2.6334373951,75.418258667,-2.61537456512,75.2976303101,-0.180821359158,87.2004928589,0.00144054670818,87.1472702026,-0.173370480537,87.1817779541,-0.354198426008,87.2493133545,-0.181266307831,87.2150192261,-0.171083137393,87.1632843018,0.0014818366617,87.1152877808,-0.332967936993,87.2067337036,-0.533312082291,87.29662323,-0.516394257545,87.2734069824,-0.706772148609,87.3318405151,-0.540772080421,87.3152694702,-0.501727104187,87.2494430542,-0.663730502129,87.2803726196,-0.885679364204,87.3505477905,-0.859266579151,87.3242645264,-1.05913496017,87.3596191406,-0.900145351887,87.373008728,-0.832203388214,87.2955551147,-0.994281232357,87.301864624,-1.2378590107,87.3676528931,-1.20198190212,87.3389511108,-1.45895755291,87.3086929321,-1.25934708118,87.3926467896,-1.16252493858,87.3076629639,-1.368688941,87.2517700195,-1.78011190891,87.1181335449,-1.72420060635,87.1009902954,-2.13144230843,86.8605422974,-1.80822515488,87.1430053711,-1.66846954823,87.0742950439,-1.99714756012,86.8304748535,-2.49920749664,86.5634918213,-2.42362141609,86.5582427979,-2.83461642265,86.2522506714,-2.54244637489,86.5790710449,-2.34161925316,86.5438156128,-2.65621304512,86.2412872314,-3.14050626755,85.9096984863,-3.05064225197,85.9126052856,-3.41543269157,85.5291595459,-3.19995045662,85.9125213623,-2.94317245483,85.9102630615,-3.20033454895,85.5437088013,-3.68231844902,85.0772857666,-3.57735037804,85.0975723267,-3.92965173721,84.5336151123,-3.7531452179,85.0639419556,-3.45024657249,85.1101455688,-3.68025016785,84.591545105,-4.16840171814,83.8420791626,-4.04789686203,83.8951797485,-4.354575634,83.0965576172,-4.25079154968,83.7997894287,-3.90079474449,83.9375228882,-4.07440471649,83.2197875977,-4.46589994431,82.3369522095,-4.33948850632,82.4151077271,-4.52286672592,81.6118927002,-4.5555267334,82.2630157471,-4.18032598495,82.4849853516,-4.2368683815,81.7646636963,-4.55182647705,80.9373855591,-4.42685890198,81.0173492432,-4.55264663696,80.3194503784,-4.64107751846,80.856880188,-4.26614999771,81.0883560181,-4.27593135834,80.4627838135,-4.52373933792,79.7409973145,-4.41329336166,79.8277816772,-4.46967506409,79.2194900513,-4.5970249176,79.6468505859,-4.26875305176,79.9029922485,-4.2364025116,79.3998565674,-4.4005613327,78.7615814209,-4.30551528931,78.869392395,-4.3189663887,78.3378753662,-4.46166658401,78.641418457,-4.17708539963,78.9611129761,-4.09696388245,78.559753418,-4.23164415359,77.9212493896,-4.13602638245,78.0479812622,-4.14164733887,77.51222229,-4.29638624191,77.7842254639,-4.00993061066,78.1604156494,-3.9190132618,77.7680969238,-4.05552959442,77.1142807007,-3.95813512802,77.2522125244,-3.977196455,76.7180480957,-4.12524080276,76.966796875,-3.83296513557,77.3793716431,-3.75290751457,76.9942474365,-3.9129755497,76.3218154907,-3.81014466286,76.4697265625,-3.86099362373,75.985168457,-3.99053668976,76.1804885864,-3.68356347084,76.6077957153,-3.6257994175,76.2696609497,-3.82096242905,75.7672729492,-3.7144920826,75.8835449219,-3.79745745659,75.6021118164,-3.91091918945,75.6495056152,-3.58403635025,76.0184020996,-3.54855775833,75.8252487183,-3.77240610123,75.4629592896,-3.65533304214,75.5516357422,-3.74574375153,75.3382568359,-3.8590130806,75.3781051636,-3.51059675217,75.6586380005,-3.48924684525,75.4997940063,-3.71908211708,75.2136611938,-3.60451102257,75.2969284058,-3.69063568115,75.0908126831,-3.80363726616,75.1197128296,-3.46572518349,75.3706130981,-3.43909478188,75.2569580078,-3.66196107864,74.9664306641,-3.54973435402,75.0598373413,-3.63151979446,74.8439025879,-3.74408888817,74.8610687256,-3.41301250458,75.1424255371,-3.38494133949,75.0287017822,-0.187495917082,87.2288513184,0.00139702449087,87.1711273193,-0.184353157878,87.232925415,-0.36577335,87.2815475464,-0.181961908937,87.2154464722,-0.186042234302,87.2282180786,0.00139282119926,87.1711425781,-0.365115225315,87.2809143066,-0.550743460655,87.3327941895,-0.549335300922,87.3382568359,-0.729309201241,87.3714675903,-0.541329324245,87.3165740967,-0.549556851387,87.3317337036,-0.728735566139,87.370300293,-0.914100348949,87.3934020996,-0.914241552353,87.4005279541,-1.09266114235,87.4054489136,-0.900660097599,87.3752670288,-0.912986934185,87.3919525146,-1.0921485424,87.403717041,-1.27715420723,87.4162902832,-1.27894580364,87.4242706299,-1.50516736507,87.3558502197,-1.25977039337,87.3962249756,-1.2762118578,87.4141387939,-1.50481295586,87.3541641235,-1.83718109131,87.1553268433,-1.8366240263,87.1691131592,-2.20001220703,86.8837203979,-1.80805075169,87.1424713135,-1.83670079708,87.1558456421,-2.19952464104,86.8886184692,-2.58053183556,86.5682983398,-2.58278250694,86.5879516602,-2.92557859421,86.2378387451,-2.54294037819,86.5543670654,-2.5790348053,86.5820236206,-2.92507648468,86.2607498169,-3.24072504044,85.8698806763,-3.25031995773,85.8974151611,-3.52486109734,85.4583587646,-3.20029258728,85.8429641724,-3.2405269146,85.9053497314,-3.52472138405,85.508934021,-3.79938578606,84.9672241211,-3.81248903275,85.0115280151,-4.05736923218,84.3669509888,-3.75394892693,84.923210144,-3.80030584335,85.0365447998,-4.0569357872,84.4657440186,-4.30450725555,83.5996551514,-4.31984329224,83.6820220947,-4.49616098404,82.7835617065,-4.25180053711,83.5260314941,-4.30527114868,83.736000061,-4.49809789658,82.9580688477,-4.60150623322,81.9756317139,-4.62539243698,82.0864944458,-4.64883232117,81.2261734009,-4.53894710541,81.8691329956,-4.61019515991,82.1731872559,-4.66558361053,81.4375762939,-4.66858291626,80.5432128906,-4.70361709595,80.6633758545,-4.65227460861,79.9135665894,-4.5926451683,80.4242172241,-4.69318151474,80.7611160278,-4.68546295166,80.1405105591,-4.59069108963,79.29737854,-4.63520717621,79.4264755249,-4.51339483261,78.729057312,-4.51039934158,79.1660766602,-4.63562202454,79.5387496948,-4.56457138062,78.992225647,-4.4486207962,78.2426986694,-4.48880004883,78.3801116943,-4.384308815,77.7925033569,-4.37747955322,78.1022338867,-4.49246168137,78.5149078369,-4.41584348679,78.073890686,-4.31229782104,77.3597869873,-4.33893346786,77.4993667603,-4.23747777939,76.9326095581,-4.25623607635,77.2202682495,-4.33335494995,77.6438903809,-4.24905109406,77.2228317261,-4.16977262497,76.5256347656,-4.18514060974,76.6678924561,-4.10814380646,76.1407394409,-4.12488889694,76.3896560669,-4.16978168488,76.8186569214,-4.09906673431,76.4282913208,-4.05477046967,75.7995300293,-4.06645774841,75.9307937622,-4.00909757614,75.5143356323,-4.00821208954,75.6622009277,-4.04289388657,76.0617446899,-4.00073289871,75.744682312,-3.97422003746,75.319152832,-3.99105906487,75.4461135864,-3.94523072243,75.1709594727,-3.92508602142,75.1808853149,-3.96918511391,75.549446106,-3.94168019295,75.4147186279,-3.91582202911,75.021774292,-3.93350791931,75.1627578735,-3.88635540009,74.8739624023,-3.86749339104,74.8705673218,-3.91402792931,75.2797241211,-3.88501000404,75.1445922852,-3.85593342781,74.7247619629,-3.87316679955,74.8787994385,-3.82520627975,74.5767593384,-3.80946183205,74.5615081787,-3.85571789742,75.0090408325,-3.82500243187,74.8735809326,-3.79369735718,74.427192688,-3.81006026268,74.5939483643,-3.7622988224,74.279624939,-3.74924397469,74.2523574829,-3.79381990433,74.7373733521,-3.7614133358,74.601890564,-0.1709061414,87.1620941162,0.00150311517064,87.113899231,-0.173654168844,87.1812973022,-0.332849979401,87.2059860229,-0.159081548452,87.135345459,-0.182166352868,87.2007827759,0.00145333225373,87.1468811035,-0.354792624712,87.2498168945,-0.50147241354,87.2493362427,-0.516587555408,87.2738647461,-0.663609623909,87.2810897827,-0.475381821394,87.2189178467,-0.534367859364,87.2977905273,-0.707270860672,87.3334579468,-0.832005083561,87.2969512939,-0.859450280666,87.3259124756,-0.994164586067,87.3041381836,-0.791575193405,87.2650985718,-0.886635780334,87.352684021,-1.05956017971,87.3624420166,-1.1622877121,87.3112411499,-1.20210707188,87.342414856,-1.36881434917,87.2536697388,-1.1075502634,87.2787704468,-1.23862063885,87.371383667,-1.4588572979,87.3116836548,-1.66923928261,87.068069458,-1.72408878803,87.0971984863,-1.99757635593,86.8057250977,-1.58847427368,87.048034668,-1.77896630764,87.1167526245,-2.13118195534,86.846534729,-2.34273743629,86.4820480347,-2.42406320572,86.5095672607,-2.65710663795,86.1330718994,-2.23073959351,86.470489502,-2.49939870834,86.526222229,-2.8347659111,86.1857223511,-2.94460964203,85.7425918579,-3.05157279968,85.7770614624,-3.20203089714,85.3048400879,-2.80879282951,85.7237472534,-3.14008069038,85.8068847656,-3.41605520248,85.3804244995,-3.45094227791,84.7769622803,-3.57941603661,84.8245697021,-3.68337702751,84.1253662109,-3.29399108887,84.7454071045,-3.68175792694,84.8707580566,-3.93176841736,84.2422866821,-3.89965367317,83.289604187,-4.04977798462,83.3647460938,-4.06618356705,82.3910293579,-3.72151899338,83.2263717651,-4.16807889938,83.4370117188,-4.34927892685,82.5821762085,-4.14181184769,81.5401077271,-4.30728435516,81.649055481,-4.16468763351,80.7696075439,-3.94839668274,81.4407958984,-4.44027853012,81.7532272339,-4.47305202484,80.9921646118,-4.16788911819,80.0935440063,-4.33623170853,80.1928100586,-4.14823770523,79.4587554932,-3.97367072105,79.9882736206,-4.47963857651,80.303314209,-4.45710992813,79.6657028198,-4.11144304276,78.8585357666,-4.26602697372,78.9376144409,-4.06483507156,78.2947769165,-3.93124890327,78.7833023071,-4.40133142471,79.0468902588,-4.33490037918,78.4711914062,-4.03150320053,77.8234558105,-4.16859960556,77.8869018555,-3.99599218369,77.3898620605,-3.86966347694,77.7856063843,-4.2848315239,77.9854354858,-4.23612308502,77.538772583,-3.95287680626,76.9521255493,-4.07780313492,77.0089035034,-3.89999294281,76.5228805542,-3.80516314507,76.9300994873,-4.17857170105,77.1025695801,-4.1165599823,76.6781616211,-3.8344643116,76.1186828613,-3.95714306831,76.1832504272,-3.76728963852,75.730506897,-3.69006729126,76.0899047852,-4.05491876602,76.2775192261,-3.99175810814,75.8930053711,-3.70386815071,75.3432846069,-3.83051490784,75.4309844971,-3.65734052658,75.0184631348,-3.55971574783,75.2879333496,-3.9308116436,75.5347671509,-3.88320684433,75.2435455322,-3.62511706352,74.7952270508,-3.74827885628,74.9064483643,-3.601801157,74.6254425049,-3.4825258255,74.7127456665,-3.84867358208,75.0387115479,-3.82147359848,74.8783416748,-3.57663965225,74.4541015625,-3.69688391685,74.575843811,-3.55227041245,74.2848205566,-3.43664288521,74.3619842529,-3.79378676414,74.7177810669,-3.7664744854,74.55834198,-3.52609205246,74.1139068604,-3.64367437363,74.2462921143,-3.50067853928,73.9451828003,-3.38879108429,74.0121154785,-3.73806977272,74.3982162476,-3.70965480804,74.2390136719,-3.47349596024,73.7747573853,-3.5883409977,73.9176254272,-3.44791221619,73.6075210571,-3.33898997307,73.6632537842,-3.68021082878,74.0791320801,-3.65119242668,73.9205093384,-0.131359413266,87.0264205933,0.00167363532819,87.0020294189,-0.139945372939,87.0622711182,-0.25867447257,87.0677337646,-0.117522276938,86.9910736084,-0.150949165225,87.1012573242,0.00148391257972,87.0761795044,-0.29918435216,87.1427612305,-0.390205830336,87.1101379395,-0.420029401779,87.1457366943,-0.517216682434,87.1426315308,-0.352713704109,87.0748138428,-0.450582385063,87.1840896606,-0.598576903343,87.2151031494,-0.648807048798,87.1610794067,-0.699953913689,87.195274353,-0.775466263294,87.1719741821,-0.587658345699,87.1278991699,-0.750129163265,87.2310333252,-0.897729158401,87.238571167,-0.907022356987,87.184753418,-0.9796256423,87.2153396606,-1.06743860245,87.1399154663,-0.822334825993,87.154876709,-1.04933774471,87.2471694946,-1.23733854294,87.1942825317,-1.30090296268,86.9810256958,-1.40331673622,87.0059127808,-1.55213177204,86.746307373,-1.17602288723,86.9666366577,-1.51074850559,87.0199432373,-1.80298364162,86.7715682983,-1.81930994987,86.4344024658,-1.96781659126,86.4490127563,-2.06136155128,86.0906524658,-1.64551615715,86.4354934692,-2.11492943764,86.449508667,-2.39737606049,86.0997467041,-2.285582304,85.7021408081,-2.47757029533,85.7071304321,-2.48365139961,85.263381958,-2.06875514984,85.712638855,-2.65851211548,85.7037582397,-2.88879728317,85.2624588013,-2.67842841148,84.721572876,-2.90518331528,84.7230682373,-2.85315847397,84.0359573364,-2.42248797417,84.7439346313,-3.11450338364,84.7205352783,-3.32056736946,84.0520553589,-3.0149037838,83.1084213257,-3.27859592438,83.1412200928,-3.14814853668,82.1092071533,-2.7357211113,83.109375,-3.51162004471,83.1789474487,-3.66115951538,82.2328796387,-3.21548175812,81.181678772,-3.48402118683,81.264213562,-3.25246906281,80.3757629395,-2.92824482918,81.1522064209,-3.72650361061,81.3468170166,-3.75022125244,80.5629806519,-3.27670359612,79.7416610718,-3.52508592606,79.8158721924,-3.27847838402,79.1930160522,-3.00772047043,79.6579742432,-3.76152563095,79.9062042236,-3.75273132324,79.3039703369,-3.27734398842,78.678565979,-3.51243257523,78.699005127,-3.26375937462,78.2090988159,-3.01942300797,78.6563415527,-3.73487234116,78.7396392822,-3.70644235611,78.2147750854,-3.2611989975,77.8191680908,-3.48229980469,77.7880554199,-3.24657273293,77.4552078247,-3.01596045494,77.8596801758,-3.68922996521,77.7766723633,-3.66489386559,77.3692855835,-3.23089575768,77.0645751953,-3.44154715538,76.9897232056,-3.18970274925,76.6515274048,-2.99799370766,77.1584472656,-3.63532137871,76.9446182251,-3.58856511116,76.5147476196,-3.12615346909,76.2120513916,-3.33594346046,76.1366500854,-3.06494021416,75.7388534546,-2.91832828522,76.2839660645,-3.52153658867,76.0969314575,-3.45391464233,75.6799926758,-3.00262975693,75.267326355,-3.20848107338,75.2545776367,-2.96169996262,74.8630447388,-2.80011487007,75.2819824219,-3.39117121696,75.2589187622,-3.34766340256,74.8990478516,-2.93479466438,74.604888916,-3.13604521751,74.626701355,-2.91670060158,74.4183731079,-2.72675299644,74.5866012573,-3.31848573685,74.6597900391,-3.29753303528,74.480506897,-2.89697670937,74.233253479,-3.0954978466,74.2620773315,-2.87797141075,74.0474853516,-2.69132661819,74.2077255249,-3.27524185181,74.3016357422,-3.25335788727,74.1227416992,-2.85751414299,73.8631210327,-3.05318808556,73.8983612061,-2.83760857582,73.6781616211,-2.65439033508,73.831199646,-3.23013162613,73.9442520142,-3.20732331276,73.7658309937,-2.81642818451,73.4946365356,-3.00913310051,73.53565979,-2.79617762566,73.3097839355,-2.61595773697,73.4571304321,-3.18317079544,73.5877838135,-3.16011834145,73.4097137451,-0.0764823704958,86.908416748,0.00196596072055,86.8858413696,-0.0906632095575,86.9315490723,-0.153748884797,86.9501495361,-0.061170373112,86.8885955811,-0.10672749579,86.9604263306,0.00183647254016,86.9370651245,-0.209788545966,87.0012817383,-0.23342974484,86.9941329956,-0.274250686169,87.015586853,-0.309339106083,87.029258728,-0.187521800399,86.9754104614,-0.316991657019,87.0441513062,-0.419652819633,87.0776748657,-0.389552384615,87.0519714355,-0.457448333502,87.0717773438,-0.464356869459,87.0678787231,-0.313277959824,87.0352325439,-0.52681607008,87.0980987549,-0.629171729088,87.1118087769,-0.544748783112,87.0871353149,-0.640243768692,87.1045074463,-0.638429820538,87.0529403687,-0.438549309969,87.0721740723,-0.736239254475,87.1281661987,-0.865744352341,87.0902481079,-0.777106583118,86.9135055542,-0.914456486702,86.9323348999,-0.925216913223,86.7045135498,-0.625654816628,86.9090423584,-1.0543050766,86.9444656372,-1.25702106953,86.7230987549,-1.08079910278,86.4175643921,-1.27595245838,86.4272155762,-1.2214101553,86.1002120972,-0.871875703335,86.425163269,-1.47091448307,86.423828125,-1.66411578655,86.0915298462,-1.35217142105,85.7399291992,-1.59902310371,85.7330856323,-1.45783650875,85.3321380615,-1.09042072296,85.7653884888,-1.84447729588,85.7151870728,-1.99930989742,85.2898178101,-1.55105412006,84.8123092651,-1.85283887386,84.7909622192,-1.63963615894,84.1709289551,-1.24112522602,84.8698272705,-2.14942789078,84.7607269287,-2.28834819794,84.0769348145,-1.75967407227,83.3184432983,-2.09712266922,83.2359619141,-1.84598481655,82.4251556396,-1.39921653271,83.4454803467,-2.43432998657,83.1460800171,-2.54113221169,82.1591262817,-1.90463554859,81.5557022095,-2.26443958282,81.3832168579,-1.92858183384,80.7307128906,-1.52241373062,81.7684631348,-2.61169719696,81.2290267944,-2.65436148643,80.3423995972,-0.0150901814923,86.8576126099,0.00211099768057,86.834602356,-0.0303777363151,86.8627319336,-0.0308056268841,86.8997573853,0.00198490638286,86.8536911011,-0.0468077734113,86.8741378784,0.00206082267687,86.8514251709,-0.0940051004291,86.9169082642,-0.0480149649084,86.9458999634,-0.0949044600129,86.9508514404,-0.0632622763515,86.9811630249,0.00144142273348,86.9407119751,-0.143780991435,86.9625930786,-0.189632833004,86.9985580444,-0.0802862122655,87.0051040649,-0.158881604671,87.0117721558,-0.0953729748726,87.0224151611,0.00107005098835,87.0000152588,-0.239483729005,87.0226669312,-0.284624904394,87.0400238037,-0.112422846258,87.0429458618,-0.222605347633,87.0500717163,-0.131352156401,87.0123672485,0.000800956098828,87.0365371704,-0.334577918053,87.0607528687,-0.391384333372,87.029335022,-0.160042136908,86.8819274902,-0.317393541336,86.8929672241,-0.189744144678,86.687286377,0.00131810246967,86.8822174072,-0.477106004953,86.8959197998,-0.56681317091,86.6940383911,-0.222258925438,86.424987793,-0.441823810339,86.4284744263,-0.24942587316,86.1389923096,0.00262301415205,86.4355392456,-0.663167476654,86.420173645,-0.747439682484,86.117729187,-0.276967346668,85.8214645386,-0.551667869091,85.8061981201,-0.298392683268,85.474647522,0.00422000093386,85.8496398926,-0.828165411949,85.7791748047,-0.890252113342,85.4006958008,-0.325489968061,85.0517196655,-0.638432919979,85.0015869141,-0.340131253004,84.5357055664,0.00493303593248,85.1134643555,-0.948383569717,84.9285736084,-0.993269443512,84.34034729,-0.364794880152,83.8487548828,-0.713749945164,83.7285919189,-0.364417225122,83.1379852295,0.00845234841108,83.9890213013,-1.0642323494,83.5633468628,-1.11308836937,82.768661499,-0.371809452772,82.4375839233,-0.755560338497,82.2266616821,-0.355028748512,81.7930755615,0.0270186234266,82.6680374146,-1.14965081215,81.9783630371,-1.14883947372,81.2487792969,0.0506237484515,86.8714370728,0.0342985913157,86.8609848022,0.0973442718387,86.9112701416,0.0649497434497,86.8850479126,0.0190162379295,86.8566818237,0.0342225693166,86.8978881836,0.146548226476,86.9530258179,0.0977581366897,86.9446182251,0.19201657176,86.9849090576,0.190272808075,86.9627761841,0.0508240349591,86.9427185059,0.0656989067793,86.9766387939,0.241570234299,87.0044174194,0.160997614264,86.999786377,0.286451250315,87.0172729492,0.315309852362,87.0110702515,0.082404717803,86.9990386963,0.0972381308675,87.0148544312,0.336149394512,87.0326080322,0.22419321537,87.03150177,0.393072754145,86.9999084473,0.440083235502,87.034942627,0.113996624947,87.0335693359,0.133037731051,87.0025863647,0.479681134224,86.8723144531,0.320043802261,86.8772735596,0.570565342903,86.6872177124,0.62830811739,86.8769454956,0.162507772446,86.874168396,0.193422332406,86.6852798462,0.667242765427,86.4458847046,0.447122693062,86.4460144043,0.754125118256,86.1881942749,0.877399265766,86.4557418823,0.226035028696,86.4341888428,0.256179302931,86.1636734009,0.832737445831,85.9068527222,0.559974372387,85.8936309814,0.902019262314,85.6091537476,1.09893751144,85.9269866943,0.281899631023,85.8663101196,0.307260751724,85.5461654663,0.961906433105,85.2566680908,0.651285409927,85.21875,1.01617741585,84.848236084,1.26881432533,85.2953033447,0.326717764139,85.1604690552,0.351312607527,84.7009353638,1.05002939701,84.3415298462,0.726041138172,84.2384796143,1.10237979889,83.8219223022,1.38895440102,84.4494552612,0.363936543465,84.1016769409,0.396189689636,83.4877929688,1.13876986504,83.2935943604,0.794282078743,83.1007003784,1.19165408611,82.8035583496,1.49218070507,83.4892654419,0.41055187583,82.8747406006,0.443597465754,82.3103713989,0.110083475709,86.9535675049,0.0942238718271,86.9259643555,0.212725758553,86.9871673584,0.120798557997,86.983215332,0.0800971388817,86.9038314819,0.15692281723,86.9405136108,0.319380253553,87.0208511353,0.276816695929,86.9961242676,0.421689867973,87.0447158813,0.355035841465,87.048034668,0.236050233245,86.977973938,0.311590015888,87.0062026978,0.528558969498,87.054725647,0.459317058325,87.0350875854,0.630710363388,87.0579147339,0.589308559895,87.0782318115,0.391524732113,87.0213546753,0.466083288193,87.0297164917,0.737565994263,87.0624389648,0.641651988029,87.048500061,0.867406845093,87.0199127197,0.823587596416,87.0799407959,0.546264588833,87.0402145386,0.640073359013,87.0034790039,1.05747795105,86.8832473755,0.917201161385,86.8815917969,1.26102054119,86.6930465698,1.17866408825,86.8949966431,0.779739737511,86.8726959229,0.929142177105,86.6888122559,1.4758399725,86.4549102783,1.28162264824,86.4597930908,1.66933059692,86.2078857422,1.64910936356,86.4613876343,1.08570969105,86.4503555298,1.22862386703,86.2020187378,1.84848237038,85.941368103,1.60632407665,85.942779541,1.99669981003,85.6663818359,2.06947398186,85.9478530884,1.35831975937,85.9292907715,1.4686756134,85.6469192505,2.12623047829,85.3517837524,1.85040187836,85.3408889771,2.24424338341,85.0169372559,2.3881289959,85.3632507324,1.56366145611,85.3145141602,1.64870965481,84.9494018555,2.36310982704,84.6463775635,2.05657458305,84.5925369263,2.47380566597,84.2534866333,2.6581492424,84.6624526978,1.72249317169,84.5196838379,1.79788291454,84.0838012695,2.54232478142,83.8568878174,2.22270560265,83.7696456909,2.58641767502,83.4377746582,2.83359408379,83.8618240356,1.85373163223,83.6382522583,1.92784011364,83.2156829834,0.153622761369,87.0896911621,0.14287866652,87.0520401001,0.301492989063,87.1190567017,0.161709070206,87.121673584,0.134396404028,87.0172042847,0.261322170496,87.048866272,0.452416747808,87.1459960938,0.422063320875,87.1114883423,0.600082278252,87.1619033813,0.477137714624,87.1765518188,0.392339974642,87.0793838501,0.519007623196,87.0994262695,0.751396656036,87.1621246338,0.70135819912,87.1327362061,0.898839354515,87.153755188,0.792730510235,87.1899108887,0.650323271751,87.1046600342,0.776820600033,87.1022186279,1.05034506321,87.1450653076,0.980694949627,87.1220626831,1.23821020126,87.0836105347,1.10836172104,87.1683425903,0.908261716366,87.1001968384,1.06893599033,87.0488433838,1.51180517673,86.9175949097,1.40492010117,86.9135284424,1.80320322514,86.7035522461,1.58847332001,86.9347915649,1.30341720581,86.8991546631,1.55485284328,86.6983108521,2.11358141899,86.4532699585,1.96786701679,86.4605789185,2.39182710648,86.2019271851,2.22672176361,86.4605636597,1.82177376747,86.4552383423,2.06132793427,86.2071151733,2.64833712578,85.9340667725,2.47068166733,85.9446563721,2.86753106117,85.6491851807,2.79534292221,85.9314422607,2.28282046318,85.9428710938,2.4696366787,85.6694717407,3.07085132599,85.3155517578,2.86097311974,85.3441696167,3.2466981411,84.9421920776,3.24802184105,85.2949676514,2.63828039169,85.3565368652,2.78409099579,85.0136413574,3.41712999344,84.5080184937,3.17504072189,84.5764923096,3.55216598511,84.0429611206,3.62831711769,84.4484024048,2.93276190758,84.6272659302,3.0446574688,84.2227401733,3.66139912605,83.5553131104,3.39439725876,83.6775894165,3.74090409279,83.0454483032,3.89736390114,83.4456787109,3.12419342995,83.7876281738,3.18054819107,83.321975708,3.81527495384,82.4982147217,3.551197052,82.6470489502,3.87618255615,81.9376525879,4.04907512665,82.3571243286,3.25989532471,82.805847168,2.93587350845,82.9762954712,3.32304883003,82.2710189819,3.91254806519,81.4125518799,3.66386461258,81.5658874512,3.92079854012,80.969291687,4.12320899963,81.2772827148,3.3691136837,81.7356262207,3.0771355629,81.8826370239,3.40905070305,81.235786438,3.89472985268,80.6776885986,3.67362928391,80.7711029053,3.87040615082,80.4491043091,4.10624647141,80.5787200928,3.40220737457,80.8694610596,3.13060259819,80.9598617554,3.38495016098,80.5815200806,3.81682896614,80.2388076782,3.59558582306,80.2883758545,3.75047707558,80.0403137207,4.01583147049,80.1886825562,3.34368920326,80.3377075195,3.08909320831,80.3743896484,3.29305672646,80.104019165,3.67324519157,79.8399276733,3.4594578743,79.8642501831,3.60159945488,79.6448898315,3.87566518784,79.80519104,3.22243022919,79.8714981079,2.99235224724,79.8783111572,3.14630222321,79.6468658447,3.52271342278,79.4482421875,3.29678177834,79.4467926025,3.46408605576,79.2852554321,3.73846268654,79.4352493286,3.04202628136,79.4206008911,2.79874849319,79.3987197876,2.94949483871,79.2319717407,3.41243171692,79.1650772095,3.15532588959,79.1407928467,3.36864185333,79.0684204102,3.63957381248,79.1605529785,2.85682296753,79.0868682861,2.57471251488,79.035697937,2.79328274727,78.9792404175,3.31842970848,78.9694595337,3.04149150848,78.9363861084,3.26660084724,78.8712387085,3.5591480732,78.96900177,2.71396446228,78.8678817749,2.38502073288,78.7930297852,2.63860487938,78.7629013062,3.19973182678,78.7690353394,2.89749288559,78.7301940918,3.13181233406,78.6722564697,3.4678542614,78.7750473022,2.53918552399,78.6516723633,2.1768887043,78.5636901855,2.44537067413,78.5461883545,3.03159928322,78.5713424683,2.70512509346,78.5233764648,2.93859505653,78.4759063721,3.32476234436,78.5837249756,2.33873462677,78.4376983643,1.85162103176,78.2514266968,2.22317695618,78.3260345459,0.18475317955,87.1716842651,0.00151878211182,87.1319046021,0.176228642464,87.1582336426,0.356891304255,87.2063369751,0.184481933713,87.1806564331,0.173514544964,87.1440048218,0.00152297934983,87.1093292236,0.335004329681,87.1742019653,0.536062657833,87.2371902466,0.518267989159,87.2199249268,0.708509683609,87.2552032471,0.54293179512,87.2500762939,0.503203034401,87.2012023926,0.664941966534,87.2161712646,0.887620985508,87.2556991577,0.860475122929,87.236366272,1.06031548977,87.2467269897,0.901559591293,87.2719497681,0.833106577396,87.2143325806,0.995052278042,87.2038726807,1.2391679287,87.2352600098,1.20272898674,87.2146530151,1.45865666866,87.1630477905,1.2602442503,87.2532196045,1.16296899319,87.191696167,1.36904418468,87.1235809326,1.77690696716,86.9702758789,1.72282242775,86.9612121582,2.12671756744,86.7260513306,1.8059951067,86.9856643677,1.66842913628,86.9438095093,1.99496626854,86.7131347656,2.48993349075,86.467666626,2.41675019264,86.4672241211,2.82172513008,86.2068481445,2.53386592865,86.475112915,2.33660316467,86.4590377808,2.64680409431,86.2018356323,3.12110424042,85.9247436523,3.03382730484,85.9264221191,3.38750123978,85.6168441772,3.1805331707,85.9274978638,2.92827939987,85.9258956909,3.17571997643,85.6252288818,3.63831782341,85.2619628906,3.53447079659,85.2683868408,3.87177658081,84.8467102051,3.71147656441,85.2610473633,3.40625119209,85.2765808105,3.61591601372,84.8758621216,4.09745407104,84.3439178467,3.97182703018,84.3702087402,4.27981376648,83.8024520874,4.18209981918,84.3355102539,3.81746244431,84.4025726318,3.98288917542,83.8884277344,4.40215158463,83.2369613647,4.26945543289,83.2910690308,4.47900438309,82.6671218872,4.48861169815,83.2092971802,4.1029753685,83.3580551147,4.18410682678,82.8124694824,4.53523826599,82.081413269,4.40827131271,82.155090332,4.56701469421,81.5277786255,4.6191034317,82.0334396362,4.24679422379,82.2462768555,4.28666973114,81.6906585693,4.57440853119,81.0356216431,4.45489883423,81.1044235229,4.56383419037,80.6432113647,4.6590590477,80.9785614014,4.30126142502,81.1851730347,4.30186080933,80.7674789429,4.53942918777,80.3837356567,4.42495727539,80.4490127563,4.49806070328,80.1887893677,4.6208820343,80.3151321411,4.28185415268,80.5076370239,4.2427239418,80.3238143921,4.44322109222,79.9865341187,4.32967662811,80.06615448,4.37916755676,79.787109375,4.52448892593,79.8973999023,4.18642139435,80.1305007935,4.12056016922,79.9397277832,4.31355953217,79.5958938599,4.19771671295,79.6851196289,4.25111627579,79.411605835,4.39627742767,79.4923095703,4.04929876328,79.7525177002,3.98319745064,79.5722427368,4.19798183441,79.227432251,4.0775680542,79.3248825073,4.15343236923,79.0676727295,4.28384065628,79.1106491089,3.92188644409,79.3919296265,3.87323641777,79.237449646,4.11739969254,78.9470825195,3.99306440353,79.0507125854,4.08430862427,78.8467483521,4.20610380173,78.8184509277,3.83300733566,79.1214599609,3.79736185074,79.0260391235,4.05062389374,78.7456054688,3.92358827591,78.8545150757,4.01063680649,78.6472930908,4.13773822784,78.6137466431,3.75978636742,78.929145813,3.72100710869,78.833114624,3.96035647392,78.5533752441,3.84065103531,78.6604690552,3.89792370796,78.4617996216,4.03556394577,78.4244155884,3.67857789993,78.7361373901,3.62354922295,78.6409759521,3.82511234283,78.372177124,3.71085548401,78.4744186401,3.74898433685,78.2830429077,3.89632248878,78.2477645874,3.5445086956,78.5475082397,3.46281528473,78.4569015503,0.18852044642,87.1870880127,0.00151020032354,87.1444168091,0.186808109283,87.189201355,0.367104053497,87.2250061035,0.183756753802,87.1798019409,0.190034508705,87.1878738403,0.00151456275489,87.1443481445,0.367797374725,87.2260284424,0.551098227501,87.2585678101,0.550847291946,87.2627944946,0.729841709137,87.2791824341,0.542347669601,87.2477874756,0.552366614342,87.2600326538,0.730440557003,87.2807846069,0.913807570934,87.2819137573,0.915033400059,87.2881774902,1.09276175499,87.2746276855,0.90104585886,87.2688064575,0.914961874485,87.2836914062,1.09327769279,87.2766189575,1.27660989761,87.2645339966,1.27930057049,87.2721099854,1.5045671463,87.189453125,1.25985431671,87.2493591309,1.2775632143,87.2666931152,1.5046749115,87.192237854,1.8349083662,86.9860687256,1.8345041275,86.9984664917,2.19520926476,86.7320556641,1.80662882328,86.977897644,1.83444678783,86.9902420044,2.19478726387,86.7379074097,2.57122302055,86.4648132324,2.57396554947,86.4774246216,2.91197896004,86.1994171143,2.53480625153,86.4583282471,2.57010316849,86.4737091064,2.91149449348,86.2102279663,3.22111344337,85.9120330811,3.23035120964,85.9240722656,3.49721860886,85.6007080078,3.18123722076,85.9025802612,3.2205092907,85.924621582,3.49610757828,85.6144714355,3.76254916191,85.2395477295,3.77349901199,85.2530517578,4.00604534149,84.8203277588,3.71688818932,85.231010437,3.75898575783,85.2555465698,4.00186729431,84.8360519409,4.23717594147,84.3045272827,4.24573469162,84.321434021,4.41737413406,83.7488708496,4.19144535065,84.3001937866,4.23235559464,84.3225708008,4.41375684738,83.7696914673,4.52837276459,83.1577224731,4.53296804428,83.1809158325,4.59679174423,82.5601730347,4.49265575409,83.1460037231,4.52680110931,83.188117981,4.59710073471,82.6017227173,4.65376472473,81.944694519,4.66042232513,81.977432251,4.6910982132,81.3616333008,4.61626911163,81.9200668335,4.65527772903,81.9985580444,4.69333696365,81.4312973022,4.70240211487,80.8379821777,4.71859788895,80.8859634399,4.69268655777,80.4102172852,4.65213489532,80.797706604,4.70584106445,80.9279403687,4.6968255043,80.5252685547,4.66573619843,80.0952987671,4.68655824661,80.1692810059,4.62467718124,79.8435974121,4.61015748978,80.0245513916,4.67155456543,80.2431564331,4.62936306,80.0213241577,4.56994867325,79.6041793823,4.58936023712,79.6996383667,4.50751876831,79.3726577759,4.51557540894,79.5126419067,4.57431745529,79.7997589111,4.51076889038,79.5829086304,4.44451761246,79.1500473022,4.46261692047,79.2593307495,4.38638067245,78.9313735962,4.3925242424,79.0487213135,4.44674491882,79.3762969971,4.38631486893,79.1762084961,4.3385591507,78.712387085,4.35464382172,78.8405914307,4.29614019394,78.5234375,4.28657484055,78.5970840454,4.33651638031,78.9760971069,4.29504728317,78.8018035889,4.25271272659,78.3895339966,4.27806568146,78.5227508545,4.20364284515,78.2856826782,4.18702697754,78.268371582,4.26130580902,78.6706466675,4.22659683228,78.5663299561,4.14517402649,78.1889801025,4.18603372574,78.321395874,4.08220529556,78.0968704224,4.06871986389,78.0662689209,4.18349409103,78.4682388306,4.13049602509,78.3740386963,4.01836299896,78.00390625,4.06079959869,78.1420593262,3.95491313934,77.9109573364,3.94519376755,77.868598938,4.06777524948,78.2848434448,3.99950671196,78.1974639893,3.89193224907,77.8160400391,3.92782044411,77.9628982544,3.82965803146,77.7213287354,3.82581686974,77.6673965454,3.92978239059,78.1091918945,3.85974645615,78.020111084,0.173678979278,87.1439056396,0.00150172796566,87.1107559204,0.175922945142,87.1577301025,0.335119664669,87.1726989746,0.162458181381,87.1275024414,0.183366090059,87.1707305908,0.00150586431846,87.1323928833,0.356274873018,87.2045440674,0.503459095955,87.1985702515,0.51807308197,87.2173614502,0.665087759495,87.2126083374,0.477833509445,87.1782836914,0.534957945347,87.2345352173,0.708010315895,87.2520294189,0.833307981491,87.2100448608,0.860316693783,87.2325592041,0.99524050951,87.1988754272,0.793280363083,87.1882324219,0.886649429798,87.2521362305,1.0599271059,87.24269104,1.1633143425,87.1858901978,1.20268809795,87.2098007202,1.36909198761,87.1148605347,1.10885035992,87.1637191772,1.23845732212,87.2308502197,1.45899951458,87.1565322876,1.66798901558,86.9280319214,1.723269701,86.9479598999,1.99492907524,86.6870346069,1.58763122559,86.9191894531,1.7788118124,86.9585418701,2.12785196304,86.7089157104,2.33639359474,86.4200363159,2.41743445396,86.4349060059,2.64716529846,86.1494827271,2.22611093521,86.4189147949,2.49225282669,86.4415740967,2.82289433479,86.1742095947,2.92893457413,85.8605422974,3.03466963768,85.8752059937,3.18003964424,85.5486373901,2.79539513588,85.8560409546,3.12282633781,85.8858337402,3.39051294327,85.5741043091,3.42139816284,85.1876754761,3.54583907127,85.2028961182,3.64333367348,84.7728424072,3.26654887199,85.1845550537,3.64779567719,85.2131118774,3.88533639908,84.7956314087,3.85413599014,84.2721099854,3.99741101265,84.2809677124,4.02346801758,83.7173690796,3.67984485626,84.2706069946,4.11360883713,84.2846679688,4.2951335907,83.7276611328,4.13060951233,83.124961853,4.28641605377,83.1293106079,4.1973323822,82.5078353882,3.94442772865,83.1227645874,4.40997219086,83.1320343018,4.48027324677,82.5227966309,4.24488544464,81.8798522949,4.4047460556,81.8885803223,4.27208900452,81.2667312622,4.05424118042,81.8705749512,4.53070354462,81.8992462158,4.55893754959,81.3023757935,4.27483987808,80.7056045532,4.43587684631,80.7304611206,4.26177215576,80.2208251953,4.08374357224,80.6814193726,4.56145191193,80.7593612671,4.54699134827,80.3044662476,4.23374271393,79.8464889526,4.39398479462,79.8992614746,4.19736146927,79.548210144,4.04443693161,79.8031158447,4.51820611954,79.9590682983,4.47936916351,79.6811599731,4.14861297607,79.2860794067,4.30436229706,79.3528518677,4.09380674362,79.0413894653,3.96164631844,79.2281951904,4.42690038681,79.429649353,4.36716270447,79.1906280518,4.03789377213,78.7960739136,4.18873786926,78.8716506958,3.9807510376,78.5533981323,3.85797357559,78.7296829224,4.30673074722,78.9563522339,4.24909687042,78.724357605,3.91724991798,78.3147735596,4.07108163834,78.4021987915,3.85612034798,78.1099777222,3.74021887779,78.236869812,4.19550180435,78.4949035645,4.14220571518,78.2969055176,3.79854941368,77.9603347778,3.95263171196,78.0586166382,3.74549102783,77.8388595581,3.62751173973,77.8671951294,4.08366680145,78.1587295532,4.0243139267,78.052772522,3.69261050224,77.7155914307,3.83693265915,77.8300170898,3.64258027077,77.5923614502,3.53541684151,77.6075515747,3.96320557594,77.9456787109,3.90401768684,77.8399276733,3.59286522865,77.4670181274,3.72623181343,77.5982284546,3.54606962204,77.3419189453,3.44973349571,77.3442153931,3.84483170509,77.7314910889,3.78846025467,77.6239471436,3.49974751472,77.2144012451,3.62177824974,77.3623886108,3.4560675621,77.088684082,3.37175130844,77.0771560669,3.73223042488,77.5133743286,3.67873096466,77.4055099487,0.13401928544,87.0827789307,0.14340801537,87.0965194702,0.261073321104,87.1067428589,0.120722681284,87.0686187744,0.156456515193,87.1125564575,0.302782148123,87.1378631592,0.392229944468,87.1294021606,0.42257219553,87.143913269,0.518897414207,87.1423339844,0.354994535446,87.1150894165,0.454825669527,87.160736084,0.601130485535,87.1730041504,0.650319039822,87.1405792236,0.701780736446,87.1540756226,0.7768034935,87.1317596436,0.589246630669,87.1283874512,0.753198981285,87.1695785522,0.899646282196,87.1584320068,0.908344745636,87.1231002808,0.981057286263,87.1334762573,1.06859064102,87.064666748,0.8235476017,87.1143417358,1.05166375637,87.1464385986,1.23775005341,87.0810317993,1.30198228359,86.9059753418,1.40378248692,86.9110183716,1.55427861214,86.6912994385,1.17806386948,86.91040802,1.50841426849,86.9084625244,1.80170547962,86.6813430786,1.8205602169,86.4311218262,1.96697628498,86.4286346436,2.06110024452,86.1593093872,1.64891552925,86.4445571899,2.11047530174,86.4162521362,2.39084815979,86.1441345215,2.2821149826,85.8680801392,2.47042012215,85.8643569946,2.47685837746,85.5571136475,2.06982421875,85.8804779053,2.64640522003,85.8543930054,2.87265706062,85.5440216064,2.6658821106,85.1958236694,2.8872294426,85.1941452026,2.83849859238,84.7826004028,2.41912841797,85.2060241699,3.0913336277,85.1833877563,3.29095625877,84.7707443237,3.00316929817,84.2823181152,3.25289487839,84.2817077637,3.13380885124,83.7302474976,2.72622966766,84.288230896,3.48021554947,84.273399353,3.63260149956,83.7204284668,3.21678233147,83.1292037964,3.48666334152,83.1300430298,3.26989388466,82.5013961792,2.92300415039,83.1242141724,3.72924542427,83.1264572144,3.78996634483,82.5040512085,3.30733919144,81.8550033569,3.58443570137,81.863571167,3.32920718193,81.2203369141,3.00648188591,81.8385391235,3.83302617073,81.8687744141,3.85803246498,81.2437438965,3.33069682121,80.6232452393,3.61061525345,80.6443557739,3.31970667839,80.1031265259,3.0278968811,80.5968170166,3.86021232605,80.6642379761,3.84879803658,80.1585083008,3.29503750801,79.6990814209,3.57368206978,79.7314529419,3.26381754875,79.3724746704,2.9925494194,79.6626281738,3.82239842415,79.7659759521,3.7882039547,79.4504013062,3.2262737751,79.0921859741,3.49946308136,79.1330718994,3.1879119873,78.8295135498,2.92972564697,79.0479507446,3.74409937859,79.1786727905,3.69672060013,78.9254608154,3.14760875702,78.5659713745,3.41144752502,78.6157608032,3.10955262184,78.2984619141,2.86179041862,78.5127716064,3.64774680138,78.6706924438,3.59701418877,78.4152145386,3.07095217705,78.033493042,3.31675887108,78.0957717896,3.03952264786,77.7924880981,2.80387163162,77.965927124,3.53865695,78.164276123,3.48493051529,77.9429244995,3.01305699348,77.6143569946,3.23683547974,77.6948242188,2.9921412468,77.4666519165,2.76471209526,77.5361938477,3.44032168388,77.7795410156,3.40251064301,77.6432342529,2.9699640274,77.3184356689,3.17913198471,77.4106750488,2.95032167435,77.1698303223,2.73307752609,77.230430603,3.36532282829,77.5070037842,3.33067250252,77.3691558838,2.92942118645,77.0201339722,3.12689352036,77.1237335205,2.91192579269,76.8704071045,2.70111083984,76.9225997925,3.29678916931,77.2311553955,3.26636171341,77.0918426514,2.89474201202,76.7186508179,3.08542227745,76.8337783813,2.88207745552,76.5699005127,2.66966152191,76.6124649048,3.23859071732,76.9523468018,3.2134783268,76.8110809326,0.080246374011,87.0353775024,0.0942074358463,87.0443115234,0.156659588218,87.0590209961,0.0645695030689,87.0279159546,0.110929913819,87.0563659668,0.212864130735,87.0793838501,0.23588873446,87.0831832886,0.276700556278,87.0904998779,0.311200499535,87.0991134644,0.189826473594,87.0776519775,0.3198967278,87.102355957,0.42170420289,87.1162490845,0.390902459621,87.1020050049,0.459049105644,87.1071090698,0.465592205524,87.0993423462,0.314763814211,87.0998840332,0.528681635857,87.1163711548,0.630630493164,87.1106262207,0.545435190201,87.0982666016,0.641342818737,87.0997772217,0.640098631382,87.0510406494,0.439557671547,87.0996398926,0.737480521202,87.1057434082,0.867084920406,87.0541610718,0.780922651291,86.909866333,0.917221188545,86.9119033813,0.93009608984,86.7143096924,0.628664314747,86.9209518433,1.05639839172,86.9076156616,1.2607626915,86.7026596069,1.08826184273,86.461730957,1.28232514858,86.460647583,1.23033618927,86.1943664551,0.878552019596,86.4771499634,1.47567462921,86.448135376,1.66966724396,86.177772522,1.36204254627,85.9015579224,1.60770440102,85.8988189697,1.47616577148,85.5895690918,1.10123121738,85.916343689,1.84918129444,85.8861465454,2.0052292347,85.573348999,1.58865785599,85.2197113037,1.87785315514,85.2188186646,1.69114565849,84.7946014404,1.28531265259,85.23412323,2.15795516968,85.208770752,2.29783916473,84.7891616821,1.78859329224,84.27003479,2.11679410934,84.2773742676,1.86792802811,83.6895065308,1.44794285297,84.2769088745,2.42970561981,84.2800369263,2.53801321983,83.7159500122,1.91703593731,83.0557556152,2.27084469795,83.076965332,1.95103132725,82.3988342285,1.55302035809,83.0454788208,2.60511064529,83.1015625,2.65024065971,82.4603652954,1.9740588665,81.7317199707,2.33726239204,81.7658920288,1.98729121685,81.0847320557,1.59828436375,81.7022399902,2.68171977997,81.8052062988,2.69957137108,81.162940979,1.98500490189,80.4807891846,2.35143947601,80.5180664062,1.97202134132,79.9552078247,1.60880589485,80.4506607056,2.70055627823,80.5606918335,2.68761968613,80.0330886841,1.95256090164,79.5458984375,2.31765413284,79.5824356079,1.93198180199,79.2104415894,1.57223880291,79.5172271729,2.66540026665,79.6234130859,2.63791942596,79.2915344238,1.9131526947,78.9134292603,2.2702665329,78.9552993774,1.89956247807,78.6306762695,1.54677915573,78.8738098145,2.60838341713,79.0025024414,2.58170962334,78.7304611206,1.88329815865,78.3484039307,2.22678780556,78.3997421265,1.8711848259,78.061088562,1.52942752838,78.300453186,2.55257248878,78.4571990967,2.52829504013,78.1788406372,1.86145162582,77.7735290527,2.19337844849,77.8332519531,1.85605204105,77.5143814087,1.51924777031,77.7179260254,2.50822854042,77.8990631104,2.49402976036,77.647857666,1.84895575047,77.3195343018,2.17300581932,77.3869934082,1.84408569336,77.1558380127,1.51509952545,77.2576293945,2.48013114929,77.4598922729,2.46927833557,77.3031158447,1.83690285683,76.9923248291,2.15478754044,77.0661773682,1.83148813248,76.8279266357,1.50928890705,76.9243545532,2.45614266396,77.1460037231,2.44463920593,76.9883422852,1.82386636734,76.6636962891,2.1354765892,76.7437286377,1.81791496277,76.498588562,1.50260519981,76.589881897,2.43094587326,76.8302841187,2.41880321503,76.6717071533,1.80986511707,76.3336257935,2.11509418488,76.4196014404,1.80437397957,76.16771698,1.49505722523,76.254196167,2.40456700325,76.5126800537,2.39279031754,76.3533935547,0.0182877071202,87.0183105469,0.0336670428514,87.0191116333,0.0335391499102,87.0449295044,0.050226137042,87.0229949951,0.0967891439795,87.0483398438,0.0501215681434,87.0741195679,0.0971509367228,87.0728683472,0.0651082023978,87.0942077637,0.145919904113,87.0751266479,0.191423028708,87.0934143066,0.0817675366998,87.1024475098,0.160427629948,87.100151062,0.0967999249697,87.1055297852,0.240723222494,87.099281311,0.285876661539,87.0998687744,0.113476790488,87.110710144,0.223697781563,87.1059036255,0.132895961404,87.0697784424,0.335183054209,87.1022949219,0.392846912146,87.0588531494,0.162809610367,86.9359207153,0.320157676935,86.9340438843,0.193847060204,86.7465744019,0.480061262846,86.92237854,0.571105122566,86.7302093506,0.227584943175,86.4973373413,0.447963088751,86.4949798584,0.257365643978,86.2314300537,0.669069707394,86.4797592163,0.755831956863,86.2127914429,0.285724699497,85.9388656616,0.562161207199,85.9351654053,0.309947192669,85.6269378662,0.837473630905,85.920173645,0.906910657883,85.6080169678,0.334351956844,85.2562484741,0.656839549541,85.2524642944,0.356640487909,84.8262252808,0.976098120213,85.2378921509,1.03851783276,84.8086471558,0.378594249487,84.2916030884,0.741290092468,84.2890472412,0.394482702017,83.6895217896,1.09864032269,84.2760925293,1.14723432064,83.685508728,0.39974874258,83.0121994019,0.794652819633,83.0313568115,0.417772680521,82.3111419678,1.17716562748,83.036605835,1.19820761681,82.3607406616,0.432729274035,81.6143722534,0.823938667774,81.6427001953,0.425569981337,80.9616546631,1.20921945572,81.6695556641,1.22405862808,81.0148468018,0.405536979437,80.3912124634,0.819245874882,80.4145278931,0.395913273096,79.904335022,1.22979533672,80.4320602417,1.20274174213,79.9264373779,0.39718568325,79.4881896973,0.790626943111,79.5001983643,0.391631394625,79.1211471558,1.17631649971,79.5068283081,1.17250657082,79.1514129639,0.394341170788,78.8025970459,0.785363197327,78.8179855347,0.405448228121,78.5042953491,1.16948163509,78.8437423706,1.1678173542,78.5539627075,0.414738625288,78.2038421631,0.793979287148,78.2301864624,0.428539156914,77.8974456787,1.16390347481,78.2634811401,1.16484665871,77.9674758911,0.439925402403,77.5918579102,0.807124137878,77.6291351318,0.453084647655,77.3168411255,1.16558337212,77.6716918945,1.16968083382,77.4050064087,0.460767239332,77.1089096069,0.819346725941,77.1542663574,0.468413174152,76.9334335327,1.17009544373,77.2035522461,1.17140316963,77.0337677002,0.474143862724,76.7584991455,0.826298236847,76.8092422485,0.481445878744,76.5827026367,1.17068994045,76.8642807007,1.17158019543,76.6940155029,0.486819624901,76.4074020386,0.83257162571,76.4634170532,0.493784487247,76.2314071655,1.17053580284,76.5240325928,1.17100560665,76.3532714844,0.499187976122,76.0559921265,0.838264405727,76.1168746948,0.506933391094,75.8793487549,1.1696318388,76.1827926636" style="fill:none; stroke:#00C; stroke-width:1.5px"/>
</svg>