<?xml version="1.0" standalone="no"?>
<!DOCTYPE svg PUBLIC "-//W3C//DTD SVG 1.1//EN"
"http://www.w3.org/Graphics/SVG/1.1/DTD/svg11.dtd">
<svg height="150" version="1.1" width="150" xmlns="http://www.w3.org/2000/svg">
<polygon points="0.00215494695533,-0.00226591541981,0.00215055843461,-0.0022613009133,0.00197681521152,-0.00207861082558,-0.196053390974,0.206149112216,-0.0989822246882,0.104079290051,0.00166275839529,-0.00174838173069,-0.393786502196,0.414064441462,-0.199692217321,0.209975319033,0.0010944248728,-0.00115078201297,-0.590928481145,0.621358198224,-0.299889865572,0.315332620584,0.000914488184728,-0.000961579529317,-0.812573165217,0.854416420893,-0.412373046943,0.433608095768,0.00109565721786,-0.00115207781733,-1.17821087947,1.23888255949,-0.59697337929,0.627714376915,0.00328885723139,-0.00345821612719,-1.55545603435,1.63555386101,-0.786740459448,0.827253466282,0.00644803367559,-0.00678007358689,-1.86239336516,1.95829685433,-0.939944839038,0.988347067791,0.0105399380937,-0.0110826896186,-2.1272916382,2.23683599891,-1.07042359727,1.12554479765,0.016112919085,-0.0169426498979,-2.33816231897,2.45856541363,-1.17307931028,1.2334867414,0.022469186444,-0.0236262316843,-2.42174840358,2.54645574314,-1.20676624111,1.26890837246,0.0335219606107,-0.0352481657436,-2.42594297222,2.55086631007,-1.17851137719,1.23919853126,0.042596719878,-0.0447902275117,-2.47244637966,2.59976439906,-1.20143552994,1.26330315764,-0.0073789922978,0.00775897169482,-2.4584632317,2.58506119232,-1.22514544806,1.28823401217,-0.00626239557992,0.00658487610304,-2.36344320422,2.48514813186,-1.1806640831,1.24146209024,0.0311847342825,-0.0327905845193,-2.23255244756,2.34751718781,-1.08956743424,1.14567444181,0.0866803586389,-0.0911439424292,-2.12101528448,2.2302364459,-1.0062862623,1.05810472636,0.140445379391,-0.147677579727,-2.04691568458,2.1523211053,-0.951474877308,1.00047084255,0.174934983868,-0.18394321792,-1.97858537786,2.0804721462,-0.901514665857,0.947937942276,0.205447420261,-0.216026884735,-1.90970517628,2.00804497555,-0.851861339697,0.895727730274,0.234892650607,-0.24698838999,-1.84331857034,1.93823980763,-0.801880086831,0.843172705061,0.265582306915,-0.279258402615,0.00217252617312,-0.00228439987511,0.00216208270469,-0.00227341862284,-0.369668859678,0.388704866863,-0.287351741529,0.302148848921,-0.739862909335,0.777961968233,-0.575656734337,0.605300036563,-1.10965146555,1.16679269538,-0.863470565081,0.90793476987,-1.52612354936,1.60471090691,-1.18736727697,1.24851046343,-2.21758486193,2.33177885003,-1.72326508211,1.8120041945,-2.94295930055,3.09450626731,-2.27879152221,2.39613733226,-3.54405712609,3.72655747782,-2.73676995903,2.87769925626,-4.07210235004,4.28179426096,-3.14063626219,3.30236255556,-4.50432609402,4.73627526053,-3.46904260035,3.64768009749,-4.68950069733,4.93098538458,-3.60662565444,3.79234795717,-4.76317308134,5.00845150992,-3.65060108607,3.83858789287,-4.78732186327,5.03384382745,-3.69320844995,3.88338931249,-4.70207857931,4.94421096151,-3.65139878117,3.83942666508,-4.5015178165,4.73332237145,-3.50035034825,3.68060003018,-4.29068621264,4.5116340459,-3.32591062435,3.49717757553,-4.12316009677,4.33548121382,-3.1844837545,3.34846796373,-4.0118889573,4.21848019434,-3.09023192657,3.24936266106,-3.90867254692,4.10994868025,-3.0024197112,3.15702857721,-3.80967005578,4.00584808013,-2.91408183617,3.06414176499,-3.73188971109,3.92406245568,-2.83714239663,2.9832403479,0.0023572594116,-0.00247864590635,0.00218689160674,-0.0022995050532,-0.498634350288,0.524311403754,-0.440626689706,0.46331665293,-0.996947537182,1.04828510588,-0.881655702553,0.927056346531,-1.49491941165,1.57189991979,-1.32230371548,1.39039542072,-2.0573334398,2.16327532026,-1.81913240231,1.91280817882,-3.0001994661,3.15469400113,-2.64734638453,2.78367083674,-3.99291861807,4.19853298215,-3.52201135851,3.70337646885,-4.81246597932,5.06028273358,-4.24421098567,4.46276558852,-5.53361503864,5.81856718669,-4.878515359,5.12973330986,-6.12499680261,6.44040200942,-5.39878502836,5.67679413813,-6.37308561466,6.70126609395,-5.6204319199,5.90985468194,-6.44006645273,6.77169609384,-5.69441015592,5.98764240906,-6.40561338892,6.73546887797,-5.6940851412,5.98730065779,-6.20328364423,6.52272021274,-5.54889223367,5.83463107713,-5.93057036396,6.23596362904,-5.3054156248,5.57861670005,-5.67373020166,5.96589754564,-5.06643135819,5.32732599729,-5.47335167254,5.75520057335,-4.87758540358,5.12875546661,-5.34857607732,5.62399968948,-4.7531986988,4.99796349901,-5.24585188577,5.5159857409,-4.64483653506,4.88402125225,-5.16288934098,5.42875106024,-4.55027641282,4.78459177972,-5.08229282824,5.34400424986,-4.47478094043,4.70520868651,0.00223301125346,-0.0023479996198,0.00230495804176,-0.00242365129032,-0.566771573842,0.595957336909,-0.541043511543,0.568904414357,-1.13337246799,1.19173520501,-1.08167577613,1.1373764047,-1.69964233557,1.78716500042,-1.62197828228,1.70550165577,-2.34055559214,2.46108192781,-2.2329246176,2.34790852265,-3.42061803651,3.59676192262,-3.26084079772,3.42875699414,-4.55246472005,4.78689277329,-4.33991861655,4.56340166037,-5.48776767249,5.77035892167,-5.23114130601,5.50051764345,-6.31572220653,6.6409487712,-6.01780544336,6.32769085744,-7.00217359559,7.36274880604,-6.66659607994,7.00989080859,-7.269120025,7.6434415763,-6.92976332079,7.28660978191,-7.30825029493,7.68458684988,-6.98428463484,7.34393865764,-7.1448156072,7.51273613302,-6.88781876151,7.24250529784,-6.90564760393,7.26125223214,-6.65738444873,7.00020482669,-6.63333861943,6.97492076332,-6.37486887464,6.70314118247,-6.38301565992,6.71170748446,-6.11209127572,6.4268319156,-6.21671445503,6.53684263985,-5.91734057382,6.22205257411,-6.12315079412,6.43846094118,-5.807000517,6.10603058315,-6.03843579999,6.34938356923,-5.72121053198,6.01582286391,-5.94818916797,6.25448970904,-5.63762275655,5.9279307565,-5.85117358765,6.15247833523,-5.54915713007,5.8349096143,0.00224632909287,-0.00236200325809,0.00217752563757,-0.00228965678575,-0.567258955028,0.596469815669,-0.575763538309,0.605412340379,-1.13379038432,1.19217464184,-1.15107478012,1.21034909336,-1.70000755443,1.78754902614,-1.72606283893,1.81494602111,-2.3406497149,2.4611808974,-2.37697997358,2.49938197383,-3.42072249211,3.59687175714,-3.47455507553,3.65347643623,-4.55303095958,4.78748817119,-4.6242144447,4.8623372324,-5.48919285266,5.77185749115,-5.57454510109,5.86160493266,-6.31903848394,6.64443581951,-6.41725079478,6.74770554918,-6.9973475966,7.35767429341,-7.11556503343,7.48197930813,-7.21690950929,7.5885424929,-7.3730991867,7.75277511941,-7.20542690814,7.57646859802,-7.39461102836,7.77539470807,-6.99077666306,7.35076499127,-7.18472140359,7.5546968686,-6.8104855469,7.16118982834,-6.96171771648,7.32020966136,-6.60035995769,6.94024387348,-6.71198842548,7.05762062182,-6.40591848945,6.73578968957,-6.49256328199,6.82689623444,-6.24167521017,6.56308874294,-6.34161141414,6.6681711372,-6.14033186153,6.45652674344,-6.24487125092,6.56644936303,-6.04992478871,6.3614641806,-6.15207635316,6.46887601479,-5.95669666323,6.26343529568,-6.05469630547,6.36648140544,-5.8606685265,6.16246221362,-5.95371704847,6.26030224639,0.00239402446407,-0.00251730416617,0.00233190469646,-0.00245198555638,-0.498011608925,0.523656594477,-0.541218841018,0.56908877238,-0.996433149716,1.04774423016,-1.08181498764,1.13752278487,-1.49451577342,1.5714754963,-1.62209062841,1.70561978714,-2.05748636581,2.16343612115,-2.23292067233,2.34790437423,-3.00079069231,3.15531567239,-3.26092195746,3.42884233319,-3.99431899944,4.20000547581,-4.34084556606,4.56437634291,-4.81625155545,5.06426324703,-5.233986406,5.50350925117,-5.54070674722,5.82602408106,-6.02389618173,6.33409523689,-6.11255193243,6.42731629371,-6.65698766774,6.99978761357,-6.2549106364,6.5770057242,-6.82972190975,7.18141676296,-6.24043789978,6.56178771756,-6.79796440159,7.14802390972,-6.13919449786,6.45533081151,-6.63554947104,6.97724546219,-6.05359275836,6.36532103145,-6.50474400726,6.83970420316,-5.91928577756,6.22409794564,-6.33647430278,6.66276949156,-5.70749528632,6.00140135504,-6.13381766467,6.44967709961,-5.53687796104,5.82199813248,-5.95986602647,6.26676786451,-5.45300950815,5.7338108942,-5.86733677658,6.16947384361,-5.37913948513,5.65613695247,-5.78502012811,6.08291831953,-5.30218050713,5.5752149908,-5.69946648327,5.99295911075,-5.22296070417,5.49191578352,-5.61132587151,5.90027971983,0.00280078914739,-0.00294501509701,0.00252160621007,-0.00265145570286,-0.368894507399,0.387890639503,-0.439800532334,0.462447952787,-0.739234719747,0.777301430177,-0.880951378735,0.926315753732,-1.10915934065,1.16627522863,-1.32172751885,1.38978955299,-1.52585583492,1.60442940657,-1.81874989943,1.91240597905,-2.21715370078,2.33132548634,-2.6476263105,2.78396517744,-2.94250052254,3.09402386464,-3.52280980509,3.70421603124,-3.54431901657,3.72683285429,-4.24736081045,4.46607761276,-4.07045848944,4.28006575016,-4.88393803242,5.13543522252,-4.50210246726,4.73393712866,-5.38753726444,5.66496717337,-4.71466923644,4.95744997144,-5.53218948273,5.81706822213,-4.75624218929,5.00116371329,-5.55275258198,5.83869021313,-4.75479859788,4.99964578449,-5.50576334328,5.78928127512,-4.74558846963,4.98996138295,-5.46067271661,5.74186871769,-4.6795747852,4.92054834004,-5.35770542156,5.63359914707,-4.50360955867,4.73552182737,-5.15251892895,5.41784662638,-4.33983294793,4.56331158026,-4.98691021209,5.24370992929,-4.26965306319,4.48951779958,-4.91110926343,5.1640056294,-4.21263045085,4.42955882182,-4.84578393389,5.09531638805,-4.15323804906,4.36710802288,-4.77769353688,5.02371969276,-4.17303351238,4.38792284872,-4.70751628232,4.9499286777,0.00320245474391,-0.00336736436482,0.00302967985745,-0.003185692478,-0.194983237721,0.205023851684,-0.286256789465,0.300997512569,-0.393012525657,0.413250609191,-0.574858193824,0.604460375401,-0.590404465352,0.620807198366,-0.86293494833,0.907371571665,-0.811974424218,0.853786847874,-1.18686218905,1.24797936614,-1.17732319475,1.23794916366,-1.72239242697,1.81108660219,-1.55446502124,1.63451181593,-2.27755590265,2.39483808477,-1.85005802307,1.94532630682,-2.72912271951,2.86965822402,-2.05722071793,2.16315679381,-3.10192118448,3.26165385443,-2.32653580957,2.44634019998,-3.46587962468,3.64435424517,-2.42713989061,2.55212486348,-3.63035811693,3.817302517,0.00311914660384,-0.00327976629254,0.00331138472645,-0.00348190367008,0.00271959472585,-0.00285963958867,-0.0979187114582,0.102961011468,0.00194224185088,-0.00204225711822,-0.198867633359,0.209108273322,0.00148193868254,-0.00155825075122,-0.299270928571,0.314681811575,0.00136973189505,-0.00144026590275,-0.411848608443,0.433056651436,0.00322437900084,-0.00339041760598,-0.596476087974,0.627191477704,0.00630791437356,-0.0066327388758,-0.786322543115,0.82681402945,0.00939192015462,-0.0098755547775,-0.938670612233,0.98700722499,0.0140347431718,-0.0147574588262,-1.06032803873,1.1149293708,0.0320607593398,-0.0337117202719,-1.16376369314,1.22369141885,0.0712518579806,-0.0749209549168,-1.18838102232,1.24957641134,0.200170557273,-0.210478290983,0.10329564446,-0.108614828315,0.396694421152,-0.417122102991,0.202703840398,-0.2131420249,0.59320616743,-0.623753173404,0.302196248966,-0.317757770625,0.814619255026,-0.856567873595,0.414569009871,-0.435917139268,1.18380169635,-1.24476127411,0.602928710516,-0.63397637646,1.56706638695,-1.64776208587,0.798862804177,-0.840000048178,1.87526338466,-1.97182961233,0.958499892112,-1.00785760877,2.10685290874,-2.2153447821,1.09238773543,-1.14863997371,2.27495071236,-2.39209874085,1.2075133053,-1.26969390654,2.44432246099,-2.5701922461,1.30701318169,-1.37431750464,0.37335660262,-0.392582509222,0.291132902721,-0.30612472008,0.742288214301,-0.780512163684,0.57827150598,-0.608049455229,1.1114389526,-1.16867222863,0.865511864211,-0.910081185197,1.5281737723,-1.60686670558,1.18940312787,-1.25065114997,2.22249840824,-2.3369454182,1.72887337088,-1.81790128072,2.9466135557,-3.09834869743,2.28907119314,-2.40694635232,3.53005218523,-3.71183135597,2.73835313769,-2.87936396032,3.97450399766,-4.17917010538,3.07920697621,-3.23776998359,4.364661067,-4.58941821723,3.39301207482,-3.56773439872,4.50847275587,-4.74063545372,3.60152123243,-3.78698068421,0.501485696956,-0.527309579818,0.443761109169,-0.466612478554,0.998628596003,-1.05005273042,0.883577234695,-0.9290768275,1.49605292398,-1.57309180206,1.32365619005,-1.39181754063,2.0582878183,-2.16427884425,1.82071032062,-1.91446735164,2.99864052264,-3.15305478026,2.64977328639,-2.78622271132,3.98149350508,-4.18651953576,3.51792256055,-3.69907711924,4.77770105167,-5.02372759452,4.2182556479,-4.43547368701,5.42636356106,-5.7057928206,4.7629998654,-5.00826937427,5.96026618911,-6.26718863342,5.19895921214,-5.46667834056,6.27353041061,-6.59658431911,5.4688499368,-5.75046702182,6.4583980347,-6.79097165612,5.70339333748,-5.99708817735,4.74274637555,-4.98697293593,6.50380841574,-6.83872043358,5.80965737148,-6.1088242517,4.9215845068,-5.17502029286,6.41642116181,-6.74683319447,5.74630204448,-6.04220645769,4.90844188825,-5.16120089839,6.22338120216,-6.54385268948,5.56777878298,-5.85449018466,4.80640905751,-5.05391391207,5.99758088545,-6.30642484089,5.3322810038,-5.60686550515,4.58711805305,-4.82333057116,5.80610325092,-6.10508711257,5.07642866083,-5.33783810858,4.22235646952,-4.43978567944,5.67461769852,-5.96683074393,4.88862801369,-5.14036671322,3.90649400892,-4.10765795896,5.54139998672,-5.82675301876,4.69256072036,-4.93420298274,3.60366407517,-3.78923387211,5.3733301757,-5.65002849407,4.43027421305,-4.65841009613,3.25030205436,-3.41767556078,5.09811897878,-5.36064536413,4.08880247081,-4.29935435035,3.09268945121,-3.25194673532,0.00239026633454,-0.00251335251268,0.00239682287989,-0.00252024668573,0.570468757241,-0.59984490586,0.544549396535,-0.572590834036,1.13562662358,-1.19410543779,1.0838221884,-1.13963334594,1.70107784859,-1.78867443483,1.6233820453,-1.70697770522,2.34023640138,-2.4607463004,2.23301404362,-2.34800255364,3.41349551729,-3.58927263102,3.25553385208,-3.42317676864,4.53179754094,-4.76516134287,4.32245085984,-4.54503440582,5.44352170836,-5.72383452248,5.19011317553,-5.45737677946,6.22844992891,-6.54918242907,5.92259980053,-6.22758262341,6.88501499286,-7.23955714982,6.53757237318,-6.87422305772,7.19192282812,-7.56226912872,6.85448915901,-7.20745939564,7.33086981683,-7.7083711585,7.00319635869,-7.36382423607,7.32348578287,-7.70060688553,7.01016181878,-7.37114838081,7.21716426072,-7.58881036269,6.91056002303,-7.26641761504,7.03048256601,-7.39251553994,6.72184031691,-7.06797983399,6.83206652464,-7.18388211322,6.51466728921,-6.85013848208,6.68374783966,-7.02792579398,6.35272278459,-6.67985468495,6.57697167263,-6.91565121443,6.23912732017,-6.56040964997,6.45124320187,-6.78344838693,6.12259620252,-6.43787779102,6.25362560708,-6.57565452261,5.96429749892,-6.27142753454,6.02478518154,-6.33503001553,5.72264923878,-6.01733565656,0.00237658339662,-0.00249896497523,0.00238347586929,-0.00250621237409,0.569959958901,-0.599309907073,0.578858974792,-0.608667175604,1.13521537663,-1.19367301378,1.15276542029,-1.21212679264,1.70075076729,-1.78833051056,1.72696029288,-1.81588968924,2.34037974603,-2.46089702654,2.37639494708,-2.49876682153,3.4141992775,-3.59001263119,3.46713760075,-3.64567700041,4.5326128958,-4.76601868422,4.60274769179,-4.83976505432,5.44615038237,-5.72659855941,5.53001282342,-5.81477947628,6.24118411856,-6.56257236269,6.3323719782,-6.65845591878,6.89794118543,-7.2531489735,6.97328899216,-7.33237679705,7.19194011214,-7.56228730277,7.25042698157,-7.62378593919,7.32359474735,-7.7007214611,7.41118189472,-7.79281888713,7.30966983901,-7.68607949303,7.42597250701,-7.80837113837,7.20154551842,-7.57238733709,7.31986590789,-7.69680060597,7.01988746171,-7.38137484335,7.13336832557,-7.50069937643,6.83200790927,-7.18382047947,6.9395979282,-7.29695082001,6.68183156788,-7.02591084424,6.79829129501,-7.14836763644,6.50844353903,-6.84359424141,6.67958013639,-7.02354347585,6.31450405886,-6.63966789531,6.50139241032,-6.83618001656,6.12277016994,-6.43806071685,6.29504525819,-6.61920706848,5.93783303404,-6.24360028853,6.08537919846,-6.39874430648,0.00236987750946,-0.00249191377007,0.50205179558,-0.527904829552,0.544365472017,-0.57239743837,0.999156791898,-1.05060812563,1.08372346283,-1.13952953652,1.49654072788,-1.5736047253,1.62337002163,-1.7069650624,2.05826621328,-2.16425612668,2.23326597699,-2.34826746027,2.99828281857,-3.15267865631,3.25614142296,-3.42381562623,3.98171030681,-4.18674750164,4.32337931231,-4.54601066872,4.78571557662,-5.03215482547,5.19537803833,-5.46291275508,5.48367211121,-5.76605246047,5.95366406919,-6.26024653896,6.05465722855,-6.36644031627,6.57917876685,-6.91797196242,6.31713874469,-6.64243825365,6.86387212746,-7.21732553775,6.43063088074,-6.76177463938,6.98563729727,-7.3453609751,6.41575384834,-6.74613151786,6.968541147,-7.32738446276,6.31686746073,-6.64215299998,6.86401415702,-7.21747488109,6.16236785988,-6.47969748012,6.69291137621,-7.03756120459,5.9932091556,-6.30182798988,6.50961885239,-6.84483007725,5.79920241804,-6.097830923,6.32276056009,-6.64834956305,5.64348992988,-5.93410005848,6.13779975259,-6.45386424418,5.50330638226,-5.78669779349,5.95898416571,-6.26584059254,5.37389491226,-5.65062231161,5.78934413904,-6.08746499434,5.25642670013,-5.52710510273,5.62901306012,-5.91887770587,0.373047674245,-0.392257672657,0.444030890178,-0.466896151869,0.742065682543,-0.780278172707,0.883873693213,-0.929388552076,1.11129720485,-1.16852318162,1.32395556055,-1.39213232714,1.52790314588,-1.60658214331,1.82057167272,-1.9143215641,2.22229588461,-2.33673246567,2.64914223179,-2.78555916071,2.94703720206,-3.09879415936,3.51789250138,-3.69904551219,3.54313806711,-3.72559109213,4.22929976097,-4.44708651398,4.0618638226,-4.27102850305,4.8470280076,-5.09662452502,4.48653971016,-4.7175729712,5.35192880147,-5.62752506134,4.68336336725,-4.9245320142,5.58471824985,-5.87230194522,4.76921384635,-5.01480334264,5.68588011628,-5.97867311713,4.75287631426,-4.99762451335,5.67160952755,-5.96366766793,4.66937045005,-4.90981853517,5.57929820661,-5.86660279818,4.5645740548,-4.79962567526,5.44647652431,-5.72694149596,4.4610145942,-4.69073344566,5.30479377582,-5.57796282911,4.38567768391,-4.61151707967,5.1569646795,-5.42252130976,4.33299599078,-4.55612255568,5.05518397,-5.31549942762,4.28285730303,-4.50340198852,4.9684873254,-5.22433836059,4.23255479284,-4.45050916291,4.89261761641,-5.14456175955,4.18465851882,-4.40014648202,4.83724788242,-5.0863407747,0.199400666902,-0.209668755296,0.290712497113,-0.305682665789,0.395970464942,-0.416360866834,0.577849644382,-0.607605869972,0.592559754473,-0.623073473571,0.865110292549,-0.909658934701,0.814426594563,-0.856365292129,1.189213943,-1.25045222307,1.18440203424,-1.24539252626,1.72921604537,-1.81826160114,1.56859564699,-1.64937009478,2.2901657225,-2.4080972442,1.88304589043,-1.98001287632,2.7502973349,-2.89192322103,2.15732468961,-2.26841559494,3.1535453586,-3.31593640273,2.38351652695,-2.50625512541,3.48511260587,-3.664577624,2.49008754018,-2.61831398681,3.64006647585,-3.82751080548,2.53722557175,-2.66787937974,3.70724382571,-3.89814743648,2.50950313079,-2.63872937849,3.68532843976,-3.87510352311,2.45502427532,-2.58144514773,3.61472584801,-3.80086526823,2.42504852419,-2.54992580265,3.54467146028,-3.727203447,2.40047421719,-2.52408604775,3.4796106514,-3.65879234773,2.39229943932,-2.51549031169,3.44040335486,-3.61756608108,2.38410756529,-2.50687659912,3.41124107989,-3.58690210192,2.37422336025,-2.49648340938,3.3816275417,-3.55576362186,2.36296920876,-2.48464972812,3.3503073944,-3.52283065126,2.35117887691,-2.47225225602,3.31819781827,-3.48906760039,0.102315011159,-0.107583697543,0.201864743495,-0.212259718908,0.301542509088,-0.317070366572,0.414285373466,-0.435618897076,0.603263447502,-0.634328350645,0.800034923755,-0.841232525765,0.96160002534,-1.0111173826,1.10319954752,-1.16000853741,1.22072571748,-1.28358668864,1.27941642563,-1.3452996604,1.30404699962,-1.37119857975,1.26535409055,-1.33051318883,1.23693380729,-1.30062941006,1.24537761469,-1.30950802925,1.26147918233,-1.32643874317,1.28432940833,-1.35046563594,1.29757770364,-1.36439614896,1.30798446847,-1.3753388076,1.31732366327,-1.38515892194,1.32659494313,-1.39490762408,-0.0752366524048,0.0791109453516,0.00214149280024,-0.00225176844631,-0.0491006103223,0.0516290341979,-0.149222491277,0.156906666834,-0.097791940451,0.102827712419,-0.0249162270637,0.02619928206,0.00213683550098,-0.00224687132056,0.00197648130234,-0.00207825972182,-0.0495676164424,0.0521200886835,-0.227359870747,0.23906771148,-0.150460588374,0.158208519438,-0.299515511545,0.314938989289,-0.29647803289,0.311745096416,-0.0764632600903,0.0804007168988,0.00131277249208,-0.00138037338931,-0.100459597438,0.105632739748,-0.37751622749,0.396956332954,-0.250963290185,0.263886583208,-0.448911653211,0.472028248596,-0.494190525404,0.519638745198,-0.126971440731,0.133509803904,0.000976891041276,-0.00102719580564,-0.150813677889,0.158579791211,-0.526864321459,0.55399507036,-0.351125384079,0.36920649954,-0.617200285565,0.648982862763,-0.691325811492,0.726925464451,-0.177337650526,0.186469609308,0.000816369796311,-0.000858408558574,-0.207291338699,0.217965755301,-0.752609404452,0.791364840987,-0.500756809164,0.526543158129,-0.893718445593,0.939740257564,-0.987072443832,1.03790149703,-0.252241415287,0.265230525049,0.00208257177255,-0.00218981329475,-0.298876049771,0.314266598587,-1.04458163891,1.09837211399,-0.696270966893,0.732125269416,-1.17777849717,1.23842791176,-1.3749789271,1.44578312943,-0.348662129416,0.366616400183,0.00484479330827,-0.0050942747504,-0.392437150962,0.412645605717,-1.30255155615,1.36962612879,-0.868684045501,0.913416717183,-1.40763511037,1.48012093483,-1.71895271911,1.80746976742,-0.43322217794,0.455530847648,0.00837239046988,-0.00880352466192,-0.467118442675,0.491172592214,-1.51205294801,1.58991574339,-1.0085245429,1.06045826667,-1.60440926376,1.68702792496,-2.00111040126,2.10415709015,-0.500572743744,0.526349614305,0.0130577513156,-0.0137301570143,-0.529668324941,0.556943465313,-1.69351515046,1.78072229742,-1.12836780483,1.18647282796,-1.75837832034,1.84892558031,-2.24694928479,2.36265538664,-0.557183498554,0.585875526037,0.0198262519465,-0.0208471999236,-0.580354465234,0.610239675959,-1.79402717531,1.88641016432,-1.2007354332,1.26256700958,-1.81769181682,1.91129341072,-2.39208677072,2.51526669178,-0.602215650753,0.63322659786,0.0213258065401,-0.022423973713,-0.591254482187,0.621700986609,-1.81931369665,1.91299880887,-1.19470293446,1.2562238688,-1.80406543357,1.89696534022,-2.42599895742,2.55092517821,-0.575650487667,0.605293468222,0.045813822594,-0.0481729941424,-0.564438419005,0.593504036836,-1.81979238886,1.91350215121,-1.1817487493,1.24260261105,-1.83141570448,1.92572400662,-2.45112184418,2.57734176186,-0.56234700561,0.591304926622,0.0204888319786,-0.0215438993518,-0.60330816051,0.634375366139,-1.8324856229,1.92684902022,-1.2191799249,1.28196129586,-1.84036563308,1.93513480959,-2.47565331686,2.60313647671,-0.630976447996,0.663468425297,-0.0142881061227,0.0150238686401,-0.619479897515,0.65137986277,-1.82428022224,1.91822108447,-1.21209141011,1.27450775974,-1.77824010169,1.86981013921,-2.41947217328,2.54406229892,-0.601467835081,0.632440273604,0.00897223080077,-0.0094342536234,-0.577324172598,0.607053339148,-1.7265554335,1.81546398172,-1.13887010145,1.19751593776,-1.66692237052,1.7527601288,-2.30017429733,2.41862120813,-0.546575525179,0.574721297678,0.0562816715294,-0.0591798823891,-0.505025821216,0.531032001908,-1.61661422423,1.69986137687,-1.04601827914,1.09988273366,-1.56940771413,1.65022397911,-2.17352451315,2.28544962441,-0.470520059937,0.494749374923,0.114066982353,-0.119940833608,-0.435943330848,0.458392125656,-1.53595655988,1.61505026589,-0.977310166287,1.02763651339,-1.50485791105,1.58235019977,-2.08165637703,2.18885076117,-0.412803080877,0.434060274194,0.158657851915,-0.166827899053,-0.390895726358,0.411024805832,-1.47672065362,1.55276402118,-0.927171196737,0.974915649916,-1.44572617859,1.52017349326,-2.01338524929,2.11706402846,-0.372030171499,0.391187773857,0.189620893983,-0.199385375371,-0.350478337062,0.368526132995,-1.41757727323,1.49057506693,-0.877368044425,0.922547896501,-1.38650022943,1.45789771839,-1.94498017039,2.04513644682,-0.331978165448,0.349073299585,0.219527438582,-0.230831950144,-0.310814822238,0.326820155212,-1.35771754535,1.42763287707,-0.827592321101,0.870208984523,-1.32705080916,1.39538696482,-1.87462688184,1.97116033294,-0.292146295815,0.307190297603,0.249227749127,-0.26206167089,-0.269508339193,0.283386604962,-0.170862178322,0.179660684252,0.00215811945952,-0.00226925129133,-0.144484321409,0.151924506073,-0.332118621595,0.349220988487,-0.186246646999,0.195837372368,-0.122535201089,0.12884512119,0.00214710632735,-0.00225767104061,-0.243555279344,0.256097098667,-0.501487059012,0.527311012013,-0.433370829906,0.45568715441,-0.662409223231,0.696519823576,-0.55674059554,0.585409815841,-0.369092028992,0.388098332422,-0.488255484115,0.513398080415,-0.831325669433,0.874134580711,-0.721575523734,0.7587328782,-0.992207770422,1.043301266,-0.926762298154,0.974485695201,-0.614159566156,0.645785562255,-0.732109241577,0.769809027257,-1.16079882616,1.22057387677,-1.00931218696,1.06128647027,-1.36461715708,1.4348877826,-1.2964522697,1.36321276108,-0.858144832467,0.902334789962,-1.00686433762,1.05871256953,-1.66111869718,1.74665759672,-1.44188226889,1.51613164238,-1.98156461688,2.0836048004,-1.85324974282,1.9486823834,-1.22684651502,1.29002267515,-1.45957227554,1.53473259159,-2.3194347075,2.4388734284,-2.01222552911,2.11584458878,-2.62361711582,2.75871963517,-2.5939919297,2.72756890736,-1.70551044825,1.79333529012,-1.92641600563,2.02561632495,-2.90785545582,3.05759475871,-2.52127110615,2.65110334285,-3.15434117501,3.3167731995,-3.26040869722,3.42830264273,-2.13230494336,2.24210746299,-2.30904757506,2.42795141312,-3.39996250532,3.57504273993,-2.946904566,3.09865469323,-3.62238680203,3.80892072119,-3.81855178765,4.0151871746,-2.48585596118,2.61386450369,-2.64379357906,2.77993508043,-3.8412847829,4.03909079986,-3.32619994382,3.49748179343,-4.00301135857,4.20914544584,-4.3147042372,4.53688887275,-2.799014412,2.94314897206,-2.91152511629,3.06145338745,-4.10244407151,4.31369842193,-3.55581401713,3.73891978708,-4.16332214754,4.37771139954,-4.62130622046,4.85927924986,-2.97762127555,3.13095315221,-3.02049823257,3.1760380476,-4.19647440097,4.41257082012,-3.63109907536,3.8180816309,-4.22668386211,4.44433591004,-4.73279979774,4.97651416154,-3.03394670313,3.19017904385,-3.04681089867,3.20370567798,-4.25803707449,4.4773036484,-3.67918134045,3.86863988043,-4.25869912761,4.47799979378,-4.78614617417,5.03260759653,-3.07901008868,3.23756295738,-3.09884763483,3.2584220331,-4.23016245902,4.44799363644,-3.68505302266,3.87481392347,-4.19964940031,4.41590931527,-4.75765196415,5.00264608416,-3.10530340419,3.26521024072,-3.06830038382,3.22630175889,-4.13700760275,4.35004179372,-3.58749600163,3.77223322759,-4.02676072934,4.23411778463,-4.61435466274,4.85196972339,-3.009404334,3.16437287144,-2.94213323711,3.09363766594,-3.92705560521,4.12927836961,-3.41283346417,3.58857648564,-3.8303819479,4.02762652605,-4.39363735088,4.61988662774,-2.86984676849,3.01762882336,-2.79103351574,2.9347571015,-3.74856277861,3.94159409872,-3.25054666081,3.41793276319,-3.67496328808,3.86420462049,-4.20090061306,4.41722495892,-2.72484323371,2.86515836715,-2.66403917838,2.80122322191,-3.62013612203,3.80655414298,-3.1342490653,3.29564645154,-3.57150452568,3.75541827452,-4.06373350268,4.27299446185,-2.61933556346,2.75421760532,-2.57940215021,2.71222783075,-3.52436762133,3.70585406685,-3.04691272409,3.20381274687,-3.47517241564,3.65412556611,-3.960816181,4.16477743795,-2.54139233567,2.67226071014,-2.50119440176,2.6299927935,-3.42812719174,3.60465775996,-2.9588848342,3.11125188241,-3.37748313428,3.5514057992,-3.85719397188,4.05581922862,-2.46294693195,2.58977577961,-2.42071455616,2.545368658,-3.32460380214,3.49580345882,-2.86954411027,3.01731057983,-3.30090102307,3.47088011097,-3.76418189665,3.95801751941,-2.37648737901,2.49886401323,-2.34898192766,2.46994217541,-0.242503232042,0.254990876447,0.00219542959122,-0.00230848269909,-0.221931443812,0.233359749033,-0.473734793733,0.498129650646,-0.251949512612,0.264923590916,-0.207211963716,0.217882292922,0.00217246471182,-0.00228433524887,-0.408064253465,0.429077422027,-0.714037060813,0.750806223981,-0.663209924247,0.697361756495,-0.945142538395,0.993812421401,-0.750286488517,0.788922307067,-0.615430082533,0.64712150356,-0.81556067051,0.857557767038,-1.18515557994,1.24618487561,-1.10410667677,1.16096237906,-1.41616092293,1.48908578203,-1.24833290032,1.31261549659,-1.0230101486,1.07568980508,-1.22255998411,1.28551541038,-1.65595284175,1.74122572684,-1.54468132654,1.62422431227,-1.94949073601,2.04987928291,-1.74612827112,1.83604471781,-1.43005783867,1.50369831603,-1.68243515426,1.76907173953,-2.37637089975,2.49874153589,-2.21035131167,2.32417280987,-2.83967450557,2.98590284717,-2.50200092674,2.63084085029,-2.04918834535,2.15471079617,-2.44620980083,2.57217677404,-3.3299385525,3.50141292085,-3.1005439111,3.2602056587,-3.77609622256,3.97054537061,-3.51419672701,3.69515942482,-2.86760773642,3.01527449288,-3.24877429728,3.41606913223,-4.18567113695,4.40121124467,-3.90268213102,4.10364978934,-4.54895493676,4.78320225458,-4.42381562564,4.65161892535,-3.60197888322,3.78746190161,-3.91238710828,4.11385452202,-4.90459243639,5.15715321995,-4.57359706475,4.80911332289,-5.22868810238,5.4979381127,-5.1862697355,5.45333542243,-4.21819928696,4.43541442378,-4.49547254262,4.72696579767,-5.54110390394,5.82644168927,-5.16886923618,5.43503888867,-5.78506108372,6.08296138414,-5.86293423608,6.16484459536,-4.76541812524,5.01081216181,-4.97287521206,5.22895220039,-5.93612867936,6.24180816853,-5.54062821765,5.82594150763,-6.01999224763,6.32999027067,-6.28524897621,6.60890632937,-5.10328690078,5.366079407,-5.17629760741,5.44284978205,-6.06693790054,6.37935337845,-5.66810725905,5.95998505098,-6.09073010563,6.40437075729,-6.42055279409,6.75117758413,-5.22246397646,5.49139347694,-5.25142973964,5.52185082498,-6.09788869585,6.41189797736,-5.70692604088,6.00080279645,-6.07668683933,6.38960433645,-6.44017241129,6.7718075087,-5.26740543452,5.53864918436,-5.2650690859,5.53619252603,-6.00915328836,6.31859316185,-5.63977424131,5.93019303144,-5.90137577538,6.2052656723,-6.32209775549,6.64765262749,-5.22716748435,5.49633919082,-5.15177308591,5.41706237634,-5.7769860647,6.07447054399,-5.43387947961,5.71369576953,-5.64094842745,5.93142768201,-6.07025755961,6.38284398255,-5.04957417828,5.30960076104,-4.92801303505,5.18177985658,-5.51268672053,5.79656116998,-5.18242253808,5.44929011453,-5.39144645889,5.66907767083,-5.79764497754,6.09619328248,-4.81303635198,5.06088247744,-4.70219468284,4.94433304376,-5.28598312591,5.5581835294,-4.9647799031,5.22044002548,-5.19492940529,5.46244101979,-5.56487243743,5.85143417756,-4.6067590874,4.84398301576,-4.52302289484,4.75593484853,-5.12613449659,5.39010353416,-4.81036108627,5.05806944958,-5.0686583666,5.32966768495,-5.4051526868,5.68348969757,-4.45965404123,4.68930283135,-4.40396342565,4.63074444119,-5.01428697264,5.27249644941,-4.69882542615,4.94079028802,-4.95837091332,5.21370100634,-5.29298052385,5.56554125663,-4.35107808167,4.57513577941,-4.29585751629,4.51707164457,-4.8984160294,5.15065876039,-4.59100432738,4.82741696824,-4.86995037559,5.12072727472,-5.20029045743,5.46807813799,-4.23971789193,4.45804112403,-4.19602651941,4.412099875,-4.83540074671,5.08439852119,-4.5103390543,4.74259785673,-4.79533375805,5.04226829278,-5.12377485212,5.38762238037,-4.15020770946,4.36392163668,-4.12174130416,4.33398936084,-0.28496830804,0.29964268111,0.00227025258518,-0.00238715868476,-0.273225976915,0.287295681526,-0.55820466476,0.586949276947,-0.285669532006,0.300380014432,-0.269621201965,0.283505279575,0.00233532414668,-0.00245558109035,-0.524746136621,0.551767810114,-0.840481691188,0.883762089559,-0.813819775164,0.855727224713,-1.11384885225,1.17120622547,-0.852238394352,0.896124201266,-0.790704840646,0.831421992317,-1.04601668225,1.09988105453,-1.39580053518,1.4676769411,-1.35417488485,1.42390778813,-1.66916065112,1.75511366911,-1.41859843943,1.49164881784,-1.31152421699,1.3790608346,-1.56695338328,1.6476432631,-1.95082367212,2.05128085824,-1.89428257004,1.99182818598,-2.29926744989,2.4176676628,-1.9846881399,2.08688916847,-1.83209973836,1.92644326465,-2.15700718968,2.26808174542,-2.80539578492,2.94985895221,-2.71728147494,2.85720721747,-3.35908053754,3.53205556525,-2.84970130377,2.99644597288,-2.62945122407,2.76485416939,-3.14743658473,3.30951305905,-3.93866595781,4.14148659447,-3.81954486733,4.01623139267,-4.46725901005,4.69729941617,-4.00680895836,4.2131386021,-3.69031224937,3.88034397277,-4.18610135876,4.40166362064,-4.94933099509,5.20419557974,-4.80770836493,5.05528012701,-5.38260568263,5.65978164096,-5.04301301397,5.30270173119,-4.63833962222,4.87718978247,-5.04361833041,5.30333821825,-5.8032085533,6.10204335321,-5.63778244586,5.92809866898,-6.19299739786,6.51190427864,-5.91482913056,6.2194118047,-5.43747117412,5.71747241747,-5.79994901256,6.09861596322,-6.56925924229,6.90754163439,-6.37934769027,6.70785063361,-6.86266299753,7.21605414398,-6.69910281279,7.04407146767,-6.14751975944,6.46408478039,-6.42112316675,6.75177732799,-7.03810632181,7.40053187917,-6.83888619777,7.19105296375,-7.12788403086,7.49493266931,-7.1793550911,7.54905421917,-6.58805148097,6.92730157478,-6.67716037359,7.02099910795,-7.17352361303,7.54292245056,-6.97657896781,7.33583618918,-7.17481615714,7.54428155391,-7.31418021677,7.69082213158,-6.72330720418,7.06952225825,-6.73872229563,7.08573114606,-7.12925923767,7.49637869206,-6.95520013796,7.31335646173,-7.04405578211,7.40678770547,-7.24475481708,7.61782168798,-6.72740952876,7.07383583104,-6.67642617847,7.02022710564,-6.93513489363,7.29225796257,-6.78534556399,7.13475526818,-6.80654403885,7.15704535329,-7.03143469007,7.39351669339,-6.58294442878,6.92193153619,-6.45667564452,6.78916057189,-6.66892716821,7.01234193568,-6.51823681509,6.85389181982,-6.52709525111,6.86320641882,-6.77095849599,7.11962734164,-6.31951417023,6.64493600115,-6.17623152267,6.49427504882,-6.39137661675,6.72049898671,-6.23788625238,6.55910467371,-6.26792625498,6.59069157886,-6.50123910858,6.83601882059,-6.04062260427,6.35168298245,-5.91445451821,6.21901790178,-6.16671629389,6.48426983567,-6.00465831593,6.31386672191,-6.0847945477,6.39812954927,-6.28895001094,6.61279794798,-5.80517066531,6.1041065037,-5.71413648316,6.00838453868,-6.02170674727,6.33179305805,-5.85391310483,6.15535892317,-5.98466371064,6.29284249933,-6.16347554013,6.48086220009,-5.64831931053,5.9391781269,-5.59240625712,5.88038584454,-5.94518362717,6.25132939866,-5.76068047047,6.0573252972,-5.90316467146,6.20714668714,-6.08167327912,6.39484755173,-5.53258100336,5.81747990401,-5.49893427666,5.78210054739,-5.86114684296,6.16296516088,-5.68058669727,5.97310711481,-5.81631622807,6.11582600448,-5.9944028802,6.30308318504,-5.46186493826,5.7431223325,-5.41989633164,5.69899256279,-5.77112603042,6.06830874869,-5.59426053188,5.88233560472,-5.72315160258,6.01786388946,-5.90055666313,6.20440438006,-5.37879155029,5.65577110082,-5.33455234948,5.60925381322,-0.29548718417,0.310703224184,0.00220166305191,-0.00231503715032,-0.290534302624,0.305495295218,-0.576446351036,0.60613031438,-0.286765775675,0.301532708899,-0.293196229582,0.308294297452,0.00219503880739,-0.00230807179195,-0.57540916893,0.605039722836,-0.867952950239,0.912647974351,-0.865733738425,0.910314484769,-1.14936648018,1.20855282493,-0.853116591654,0.897047621122,-0.866082894417,0.910681620463,-1.14846245078,1.20760224276,-1.44059103987,1.51477392184,-1.44081357163,1.51500791281,-1.72199677321,1.81067057434,-1.41940966116,1.49250181323,-1.43883633609,1.51292886002,-1.72118893314,1.80982113474,-2.01275156451,2.11639771224,-2.01557505948,2.11936660239,-2.37209254117,2.49424286429,-1.9853552655,2.08759064754,-2.01126645387,2.1148361262,-2.37153400431,2.49365556571,-2.89533487411,3.04442943272,-2.89445695862,3.04350630918,-3.46714436406,3.64568411199,-2.84942645028,2.99615696587,-2.89457794676,3.04363352758,-3.46637597665,3.64487615666,-4.06683034819,4.27625077866,-4.07037732969,4.27998041111,-4.61061229666,4.84803464508,-4.00758749075,4.21395722482,-4.06447107945,4.27377001996,-4.60982098913,4.84720258937,-5.10727237036,5.37027010736,-5.12239363347,5.38617003621,-5.55506112588,5.84111763492,-5.04355220025,5.30326868273,-5.10696013078,5.36994178908,-5.55484094249,5.84088611325,-5.98770269225,6.29603797256,-6.00835296308,6.31775162402,-6.39427582325,6.72354748713,-5.91609574864,6.22074364696,-5.98915267124,6.29756261786,-6.39359272871,6.72282921681,-6.7837569371,7.13308483534,-6.80792600898,7.15849848763,-7.08579669054,7.45067805173,-6.70069294263,7.04574348086,-6.78496080668,7.13435069788,-7.08884919878,7.45388774813,-7.25181721797,7.62524776547,-7.28946106217,7.66483007019,-7.32640152191,7.70367276983,-7.15322616165,7.52157978691,-7.26551067073,7.63964635922,-7.35280098384,7.73143166558,-7.35752778759,7.73640187492,-7.41274046244,7.79445771291,-7.33182644977,7.70937705302,-7.23785248124,7.61056391805,-7.39629434162,7.77716470313,-7.38413014889,7.76437411829,-7.23477291976,7.6073257753,-7.30492875716,7.68109427034,-7.11295664936,7.47923660597,-7.10823585745,7.47427271803,-7.30558254401,7.68178172378,-7.1936091473,7.56404228448,-7.01087497247,7.37189825819,-7.07419610717,7.43848009917,-6.90952147886,7.2653255913,-6.89875879472,7.25400868538,-7.07996671543,7.44454786348,-6.95921904836,7.31758232494,-6.79603460318,7.14599473681,-6.83801147606,7.19013319846,-6.67812076392,7.02200895334,-6.70768320153,7.05309370142,-6.82921992168,7.18088892515,-6.69635991395,7.04118732393,-6.5714197448,6.90981339144,-6.59563916577,6.93527998555,-6.47429482427,6.80768704697,-6.50068451698,6.83543567043,-6.5714340229,6.90982840479,-6.4599896675,6.79264524966,-6.39018026197,6.71924102593,-6.40859901552,6.73860824867,-6.31820133619,6.64355556304,-6.31680583944,6.64208820552,-6.37146317121,6.69956010318,-6.30501888924,6.62969428922,-6.26323552223,6.58575929798,-6.28977325633,6.61366358618,-6.21754934835,6.53772052579,-6.18580198516,6.50433833993,-6.25530065407,6.57741582573,-6.21195383473,6.53183687257,-6.17120224857,6.48898679349,-6.19907460961,6.51829443491,-6.12476384408,6.44015705475,-6.09503795976,6.40890044332,-6.16837480833,6.48601375491,-6.1226435457,6.43792757213,-6.07681985114,6.38974419767,-6.10397905848,6.41830196172,-6.02839491156,6.33882562771,-6.00358219781,6.31273518935,-6.07648018257,6.38938703795,-6.02807365423,6.33848782731,-5.97873792194,6.28661156359,-6.00452530412,6.31372686069,-5.92925489973,6.23458042531,-5.90868090403,6.21294697675,-5.97893105207,6.28681463892,-5.92785940298,6.2331130678,-0.269342262305,0.283211975985,0.00236885835258,-0.00249084213195,-0.273673060031,0.287765787078,-0.52456023947,0.551572340235,-0.250707106252,0.263617207146,-0.287087972353,0.301871497016,0.00229040216983,-0.00240834586733,-0.559141101695,0.587933935471,-0.790303456854,0.830999939365,-0.814124406017,0.856047542458,-1.04582618229,1.09968074482,-0.749185571587,0.78776469869,-0.842145559923,0.885511638806,-1.11463480548,1.17203265118,-1.31121169561,1.37873222,-1.35446439219,1.42421220358,-1.56676955269,1.64744996621,-1.2474955647,1.31173504257,-1.39730781445,1.46926183735,-1.66983078263,1.75581830888,-1.83172587749,1.92605015191,-1.89447983331,1.99203560728,-2.15720482869,2.26828956181,-1.74546152126,1.83534363383,-1.95202397217,2.05254296744,-2.2991094514,2.41750152822,-2.63066429926,2.76612971158,-2.71710525308,2.85702192111,-3.14811235234,3.31022362514,-2.50338139391,2.63229240427,-2.80359035631,2.94796055349,-3.35867022993,3.53162412895,-3.69207446794,3.88219693635,-3.82024111274,4.01696349107,-4.18750963065,4.40314441115,-3.51556967938,3.69660307704,-3.93896730095,4.14180345519,-4.46749459876,4.69754713646,-4.64060458033,4.87957137404,-4.80917487645,5.05682215618,-5.04629171743,5.30614927068,-4.42656190613,4.65450662488,-4.94866029996,5.20349034734,-5.38358673864,5.66081321621,-5.43856758218,5.71862528479,-5.64103785347,5.931521713,-5.80487683697,6.10379754474,-5.19121784985,5.45853833872,-5.80232518958,6.10111450089,-6.19633321373,6.51541187153,-6.14572146987,6.46219388834,-6.38231227545,6.71096787938,-6.40816691502,6.73815389726,-5.86498727707,6.1670033572,-6.56875049092,6.90700668499,-6.85431556733,7.2072768649,-6.52735451141,6.86347902967,-6.78813355157,7.1376868225,-6.56340597133,6.90138695067,-6.22253879405,6.54296690178,-6.99772784504,7.35807412266,-7.04937775732,7.41238373449,-6.56845140223,6.90669219479,-6.83375359529,7.18565605917,-6.5374814442,6.87412744638,-6.26236981827,6.58484901481,-7.05975793859,7.42329844064,-7.02425355548,7.38596576804,-6.47949430839,6.81315427725,-6.72311332256,7.06931839275,-6.40604173203,6.7359192785,-6.19551447722,6.51455097438,-6.93634853243,7.29353409741,-6.83165546555,7.18344988675,-6.35351183768,6.68068437014,-6.56957110613,6.90786955758,-6.2975476837,6.62183835578,-6.09845794129,6.41249653596,-6.75274865364,7.10047978793,-6.6759858117,7.01976406229,-6.22959931625,6.55039100383,-6.42647895853,6.75740891496,-6.14625614728,6.46275609883,-5.99680761342,6.30561174941,-6.58528678924,6.92439451593,-6.48755843097,6.82163365984,-6.04298525466,6.35416729695,-6.23632280005,6.55746071178,-5.93712025608,6.24285080625,-5.81542046495,6.11488411425,-6.39041397198,6.71948677078,-6.29087492474,6.61482198474,-5.83717014975,6.13775379373,-6.03676112874,6.34762266119,-5.76384419762,6.0606519397,-5.60999086883,5.89887597151,-6.19482537085,6.51382638265,-6.11980182736,6.4349395202,-5.71306111652,6.0072537963,-5.90715991027,6.21134765979,-5.67631604136,5.96861654252,-5.48834217828,5.7709630115,-6.06537858134,6.37771376249,-6.0225123329,6.33264012711,-5.63666236622,5.9269209111,-5.82616323489,6.12618008049,-5.59825727365,5.88653815773,-5.41603222594,5.69492947592,-5.97887882427,6.28675972166,-5.9358356025,6.24149999975,-5.55700106926,5.84315747521,-5.74230680567,6.03800548504,-5.51695023739,5.80104423559,-5.34061941626,5.61563330211,-5.89107074203,6.19442998379,-5.84628972477,6.14734297903,-5.47411141794,5.75599944165,-5.6551032884,5.94631144405,-5.43379230803,5.71360410907,-5.26213455988,5.53310688732,-5.79988701553,6.09855077367,-5.75415500142,6.05046380072,-0.207017964681,0.217678303954,0.00263759231748,-0.0027734144864,-0.220549144915,0.231906268993,-0.407662165161,0.428654628285,-0.185211108754,0.194748509335,-0.237890747059,0.250140872683,0.00233859572282,-0.0024590211355,-0.471504356699,0.495784357804,-0.614951108521,0.646617864899,-0.661952042114,0.69603910003,-0.815115888798,0.857090081401,-0.555864793578,0.584488914672,-0.710102503943,0.746669058071,-0.943336827974,0.991913726365,-1.0224978277,1.07515110234,-1.10310354606,1.15990759238,-1.22210843908,1.28504061316,-0.926129552724,0.9738203667,-1.18217803175,1.2430539993,-1.41479060073,1.48764489542,-1.42943636542,1.50304484017,-1.54385667213,1.62335719248,-1.68224690874,1.76887380035,-1.29597169879,1.36270744329,-1.65372057298,1.73887850794,-1.95000343265,2.05041838074,-2.05017879485,2.15575224862,-2.21157941644,2.3254641556,-2.44610684819,2.57206851988,-1.85337204604,1.9488109846,-2.38088822868,2.50349148357,-2.84144085727,2.98776015671,-2.86717056343,3.01481480778,-3.10121197605,3.26090812549,-3.24863564938,3.41592334469,-2.59327746092,2.72681764718,-3.33305681517,3.50469175768,-3.77818308012,3.97273969038,-3.60199992463,3.78748402655,-3.90456646494,4.10563115658,-3.91415007832,4.11570827578,-3.26028770907,3.42817542433,-4.1897246154,4.40547345599,-4.55264620226,4.78708360089,-4.22111202008,4.43847714738,-4.57847003118,4.81423722154,-4.49648065187,4.72802581927,-3.81775860143,4.01435314345,-4.90835133501,5.16110568213,-5.23310116359,5.50257842341,-4.7513857554,4.99605719852,-5.16695559457,5.43302670455,-4.96137495115,5.21685973637,-4.31140336511,4.53341802306,-5.53419367758,5.8191756225,-5.769862794,6.06698046222,-5.06748981654,5.32843896071,-5.49069881684,5.77344100459,-5.12578054992,5.38973136109,-4.61481419223,4.85245291623,-5.87284286419,6.17526346584,-5.91022106052,6.21456644322,-5.16397334963,5.42989088965,-5.55541544829,5.84149020308,-5.16677035496,5.43283192608,-4.740065098,4.98415358665,-5.92803637632,6.23329915433,-5.91417684667,6.21872593161,-5.16498258611,5.43095209651,-5.53547419802,5.82052208302,-5.14357369709,5.408440762,-4.75850789888,5.00354609504,-5.88603169871,6.18913145616,-5.84122700985,6.14201956085,-5.13953862989,5.40419791001,-5.48798597717,5.77058846791,-5.11648813471,5.37996043523,-4.75305103316,4.99780822935,-5.81410086759,6.11349656455,-5.77574800283,6.07316872843,-5.09178175525,5.35398180684,-5.42376118882,5.70305643984,-5.02686297592,5.2857200509,-4.72473605091,4.96803517404,-5.72914276996,6.02416357054,-5.65545648359,5.94668282694,-4.92671147319,5.18041127112,-5.2573333597,5.52805845052,-4.83024146673,5.07897356535,-4.59918605644,4.83602001343,-5.54982181336,5.8356085253,-5.44325192735,5.72355084917,-4.73204230678,4.97571766377,-5.05645697566,5.31683798638,-4.66753834393,4.90789208518,-4.41288573739,4.64012620519,-5.34437042435,5.61957746744,-5.27580358957,5.54747980034,-4.6251365096,4.8633067788,-4.94230053206,5.19680308475,-4.59662088242,4.8333227464,-4.29726992132,4.51855678105,-5.22982058143,5.49912890848,-5.19679983685,5.46440776877,-4.56553669957,4.80063789119,-4.87839925548,5.12961122761,-4.53558499577,4.76914383175,-4.24143915488,4.459851023,-5.16166969035,5.42746860399,-5.12718130703,5.39120424984,-4.50334503801,4.73524368528,-4.81172051202,5.05949887863,-4.47197454161,4.70225777287,-4.18322882977,4.39864317148,-5.09057750994,5.35271554921,-5.05463238432,5.31491943817,-4.43859496575,4.66715932394,-4.74229135493,4.98649448414,-4.40668077419,4.63360171893,-4.12266036314,4.33495574653,-5.01656883902,5.27489581995,-4.98023895608,5.2366951386,-0.120533612935,0.126740461745,0.00309828718698,-0.00325783272512,-0.142882132672,0.15023981302,-0.24230300982,0.254780343832,-0.0964024261797,0.101366645451,-0.168198901049,0.17686026217,0.00289421822162,-0.00304325527849,-0.330619608594,0.34764478418,-0.367877333425,0.386821086405,-0.432209747678,0.454466282538,-0.48750790328,0.512612003088,-0.295527975397,0.310746115945,-0.499568063111,0.525293197889,-0.661358561468,0.695415058244,-0.613921300304,0.645535026961,-0.72092300501,0.758046758184,-0.731810622556,0.769495030924,-0.493715402722,0.51913915619,-0.830244197026,0.872997418148,-0.991553232097,1.04261302238,-0.858505542451,0.902714074617,-1.00900238969,1.06096072006,-1.00614366914,1.0579547904,-0.691138787123,0.726728809308,-1.16028800822,1.22003675438,-1.36438363494,1.4346422353,-1.2246935273,1.28775881986,-1.44115230084,1.51536408481,-1.45811036683,1.53319540224,-0.986010697752,1.03678507659,-1.66154891898,1.74710997269,-1.98102242469,2.08303468816,-1.70330260256,1.79101375196,-2.01085764922,2.11440627025,-1.92490083583,2.02402313185,-1.37404643543,1.44480261933,-2.31811116488,2.43748173028,-2.62258984384,2.75763946407,-2.13097614039,2.24071023363,-2.52000599103,2.64977308093,-2.29750072244,2.41580995817,-1.7184659485,1.80695793068,-2.9068334442,3.05652011885,-3.15084435473,3.31309631132,-2.44440850535,2.57028272129,-2.92001100653,3.07037625652,-2.58401078386,2.71707378487,-1.95597111632,2.05669336881,-3.38742520321,3.56185983252,-3.60635887934,3.79206744456,-2.77318644994,2.91599100543,-3.30499395417,3.47518380654,-2.90920924547,3.05901826143,-2.20511763525,2.31866962657,-3.83642120995,4.03397677842,-4.00473788187,4.21096087604,-3.00164080308,3.1562095594,-3.56867971562,3.75244800156,-3.03937933365,3.19589142635,-2.39927222632,2.52282216065,-4.11594589709,4.3278955207,-4.18318336529,4.39859536581,-0.0237816124594,0.0250062407552,0.00332686049985,-0.00349817636463,-0.0478742785705,0.0503395527936,-0.0485486195446,0.0510486187906,0.00312814490598,-0.00328922796003,-0.0737674578616,0.0775660949961,0.00324778640164,-0.00341503036514,-0.148148838949,0.155777727044,-0.075669950576,0.0795665561059,-0.149566199045,0.15726807375,-0.0996991944902,0.104833180037,0.00227163317123,-0.00238861036376,-0.226593949125,0.238262348912,-0.298854890936,0.314244350184,-0.126528338106,0.133043883817,-0.250392001658,0.263285876318,-0.150304562519,0.158044459069,0.00168636394,-0.00177320283713,-0.377418206431,0.396853264324,-0.44855916253,0.471657606495,-0.177174579554,0.186298141036,-0.350818451821,0.36888376188,-0.207006528108,0.217666278458,0.00126227955238,-0.00132728032807,-0.527283411978,0.554435741843,-0.616808389197,0.648570785788,-0.252220960965,0.265209017436,-0.500201419118,0.525959168408,-0.299030314346,0.314428806979,0.00207728463249,-0.00218425389472,-0.751902826197,0.790621877659,-0.893278266691,0.939277411757,-0.350272502231,0.36830969875,-0.696299288263,0.732155049188,-0.393086687254,0.413328589721,0.00413378103316,-0.00434664907272,-1.04512937327,1.09894805379,-1.17793950157,1.23859720705,-0.436491112168,0.458968114841,-0.869409786473,0.914179830009,-0.470256713468,0.494472467492,0.00665057785016,-0.006993047724,-1.30516050383,1.37236942359,-1.40300703219,1.47525453491,-0.512961112087,0.539375918635,-1.00614855375,1.05795992654,-0.536035278861,0.563638283963,0.00777429674088,-0.00817463224316,-1.49462022902,1.57158533082,-1.56535883849,1.64596660762,-0.574904315856,0.604508872476,-1.12484562214,1.18276927133,-0.574309144382,0.603883052794,0.0133206134325,-0.0140065551513,-1.67719396305,1.76356065446,-1.75418938778,1.8445209397,-0.585959043574,0.616132860685,-1.19073737907,1.25205410811,-0.559513224768,0.588325220931,0.0425804309807,-0.0447730998216,-1.81181055325,1.90510929294,-1.81053191151,1.90376480785,0.0797813046538,-0.0838896233526,0.0540534126109,-0.0568368798245,0.153411259447,-0.161311134593,0.102358585207,-0.107629515425,0.0299689437868,-0.0315121871905,0.0539336045276,-0.0567109022534,0.23095501737,-0.242847989296,0.154063496367,-0.161996958293,0.302611582089,-0.318194491225,0.299863469868,-0.315304865639,0.0800969493733,-0.0842215221195,0.103539241117,-0.108870968922,0.380706467763,-0.400310853866,0.253726760761,-0.266792358023,0.451437421544,-0.47468408075,0.496917596209,-0.522506245845,0.129867030733,-0.136554501601,0.153243984889,-0.161135246273,0.529760005395,-0.55703986683,0.353320877333,-0.37151504918,0.619469282872,-0.651368701529,0.693556201558,-0.729270707907,0.179654801206,-0.188906081094,0.209662936391,-0.220459477834,0.755961142287,-0.794889175739,0.504378140138,-0.530350968652,0.899191562053,-0.945495210812,0.990192209452,-1.04118191421,0.256106718659,-0.269294871268,0.304827013024,-0.320524005232,1.05155188967,-1.1057012961,0.704650147094,-0.740935933445,1.18847552082,-1.24967577602,1.38275138184,-1.45395582482,0.356223512451,-0.374567154781,0.403729862729,-0.424519832904,1.31236587362,-1.37994583213,0.882500552968,-0.927944702311,1.42155165849,-1.49475411219,1.73188811729,-1.82107127076,0.444264224449,-0.467141501631,0.484232487544,-0.509167920623,1.51593180149,-1.59399433748,1.02640364049,-1.079258044,1.60146102325,-1.68392786553,1.99960819447,-2.10257752759,0.514896076919,-0.541410524006,0.553656713048,-0.582167129578,1.65481059346,-1.74002465876,1.144216124,-1.20313725243,1.73731304515,-1.82677555395,2.18894486496,-2.30166404345,0.573551606449,-0.60308650563,0.624381467126,-0.656533837506,1.79466255092,-1.88707825843,1.25176152386,-1.31622067626,1.8780062835,-1.97471375606,2.35162600699,-2.47272241095,0.647015783771,-0.68033370273,0.699094508832,-0.735094208955,0.173487811186,-0.182421523436,0.148493615227,-0.156140257492,0.335248555667,-0.352512097746,0.190374416199,-0.20017770003,0.126230364888,-0.132730566541,0.247305019315,-0.260039930577,0.503332409957,-0.529251388853,0.436253691729,-0.458718468496,0.664568880324,-0.698790691681,0.55952440302,-0.588336974804,0.372007133967,-0.391163550012,0.491055260526,-0.516342030625,0.832990947192,-0.875885611539,0.723868051731,-0.761143459364,0.993978067389,-1.04516272397,0.928730234133,-0.97655496956,0.617029652835,-0.648803443342,0.734531399724,-0.772355913844,1.16237890497,-1.22223532135,1.01122169544,-1.06329430842,1.36700366693,-1.4373971852,1.29794602235,-1.36478343415,0.860894400679,-0.905225946514,1.00873382984,-1.06067833079,1.66654926113,-1.75236780623,1.44547781473,-1.51991233997,1.98732545592,-2.08966229243,1.85753448896,-1.95318777149,1.22884328901,-1.29212227253,1.46429644911,-1.53970003531,2.32587356858,-2.44564385706,2.01979367546,-2.12380245497,2.63080820751,-2.76628103036,2.59894023192,-2.73277202119,1.71104152254,-1.79915118572,1.93626940002,-2.03597711747,2.9131453053,-3.06315700769,2.5315120759,-2.66187166882,3.14673094583,-3.30877108344,3.26142056387,-3.42936661521,2.14066571233,-2.2508987677,2.31458278248,-2.4337716547,3.35086687062,-3.52341893756,2.91617038455,-3.06633786266,3.53685119269,-3.71898047665,3.76361002103,-3.95741619519,2.46427723788,-2.59117458933,2.59831030454,-2.73210965585,3.72418066241,-3.91595643143,3.24109155037,-3.40799076414,3.89863353719,-4.09939271417,4.18915273978,-4.40487213178,2.71459061603,-2.85437779344,2.83340228499,-2.97930764012,4.00661733119,-4.21293710713,3.50290838321,-3.68328979053,4.07610623086,-4.28600432064,4.46564783879,-4.69560527804,2.92141796334,-3.07185566422,3.03821040786,-3.19466230701,0.24210424359,-0.254571342183,0.225171915768,-0.236767088296,0.475142689888,-0.499610046068,0.254847991111,-0.267971325854,0.211804158762,-0.222710961925,0.411834846981,-0.433042181331,0.7129933972,-0.749708817166,0.665157429387,-0.699409547934,0.945709247596,-0.994408313153,0.751952799559,-0.790674424387,0.618314447315,-0.650154397998,0.817938350486,-0.860057885061,1.18417555722,-1.24515438685,1.10531665211,-1.16223466178,1.41654023202,-1.48948462355,1.2493163047,-1.31364954113,1.02488734347,-1.07766366564,1.22424282769,-1.28728491158,1.65530807265,-1.74054775551,1.54554186408,-1.62512916298,1.95137713651,-2.05186282314,1.74674035088,-1.83668831646,1.43138955362,-1.50509860732,1.68460674108,-1.77135515169,2.38255350644,-2.5052425144,2.21410626502,-2.32812112363,2.84178691341,-2.98812403293,2.50337989095,-2.63229082392,2.05414115645,-2.15991865106,2.45039516386,-2.57657766131,3.33093238366,-3.50245792909,3.10129144497,-3.26099168664,3.76943811745,-3.963544408,3.50923771621,-3.68994505098,2.87105345611,-3.01889764906,3.2485826701,-3.41586763725,4.17368917792,-4.3886122776,3.89371022165,-4.0942158737,4.51913136016,-4.75184292021,4.40536530997,-4.6322185152,3.5976473575,-3.78290732504,3.89206335513,-4.0924842022,4.8395571778,-5.08876898668,4.50879626764,-4.74097562465,5.11668577372,-5.38016825162,5.11877187979,-5.38236178121,4.15784010727,-4.37194706295,4.38763265687,-4.61357272348,5.38528057261,-5.66259427374,5.00375611981,-5.2614233129,5.59809269972,-5.8863651091,5.71810429298,-6.0125566699,4.62193295405,-4.85993825695,4.79827655033,-5.04536262343,5.77024041226,-6.06737752584,5.34945455643,-5.62492340565,5.895537534,-6.19912679211,6.14211286708,-6.45839946143,4.92362251821,-5.17716325116,5.01243570379,-5.27054984993,6.01274347992,-6.32236822944,5.59656569412,-5.88475947073,6.10873178826,-6.42329943215,6.38120459521,-6.70980315941,5.13748408594,-5.40203756782,4.62683673113,-4.86509455283,5.23701186099,-5.50669050122,6.16604259284,-6.48356144255,5.77412593512,-6.07146313274,6.17904506054,-6.49723346913,6.498037056,-6.83265187909,5.30960850262,-5.58302548909,4.84946092129,-5.09918272101,5.37254788592,-5.64920592048,6.13796169635,-6.45403452718,5.7895147248,-6.08764436437,6.09962837004,-6.41372723565,6.4713046888,-6.80454293521,5.36176303314,-5.63786570436,4.93372314924,-5.1877840117,5.33456625185,-5.60926843148,6.01519255041,-6.32494341421,5.6665208866,-5.95831698867,5.91062422907,-6.21499037284,6.3288137245,-6.65471443368,5.26954038674,-5.54089407541,4.8683057635,-5.11899797375,5.18974532649,-5.45698998813,5.78890940836,-6.08700787731,5.45198787227,-5.73273664943,5.67599816569,-5.96828229791,6.1079164334,-6.42244209079,5.07844037047,-5.33995341072,4.71584530129,-4.95868659745,4.95846522395,-5.21380017348,5.55167646386,-5.83755868057,5.19561588148,-5.4631628459,5.45928172874,-5.74040610124,5.89168996084,-6.19508108911,4.79412988847,-5.04100243024,4.41073237394,-4.63786195481,4.64830348404,-4.88766673091,5.37787624871,-5.654808666,4.97268621506,-5.22875347103,5.30886491402,-5.58224360958,5.73584446087,-6.03121036338,4.50225576901,-4.73409832464,4.05765929685,-4.26660746628,4.40211854438,-4.62880455821,5.22973228263,-5.49903606276,4.79328710463,-5.04011624745,5.14805176124,-5.41314942297,5.60909623292,-5.89793526655,4.27711562672,-4.49736464599,3.7587115043,-3.95226543055,4.15835148882,-4.37248477796,5.04266846079,-5.30233943532,4.56635017573,-4.8014932571,4.9356296518,-5.18978868914,5.46522029258,-5.74665046997,4.00166996831,-4.20773498102,3.43070251073,-3.60736569437,3.8538209578,-4.052272522,4.77769729428,-5.02372364364,4.26318508229,-4.4827167516,4.63112579828,-4.86960448444,5.23971230126,-5.50952999999,3.68576617636,-3.87556380084,2.91809172882,-3.06835814608,3.50365122034,-3.68407087987,0.291164723165,-0.306158179111,0.00239354891868,-0.00251680413269,0.277730342837,-0.292031998666,0.562448549228,-0.591411699204,0.290737248957,-0.305708692223,0.273453017548,-0.28753441356,0.00240016362294,-0.00252375945953,0.527955422192,-0.555142357058,0.844816504631,-0.888320123156,0.816772712416,-0.858832222745,1.11658714827,-1.17408552938,0.855642031215,-0.899703107573,0.793030856432,-0.833867785715,1.04792590892,-1.10188859636,1.39886046427,-1.47089444049,1.35607950872,-1.42591049013,1.67102112558,-1.75706994825,1.42082723261,-1.49399238217,1.31294761241,-1.38055752741,1.56816852504,-1.64892097829,1.95288648234,-2.05344989237,1.89545994997,-1.9930661948,2.29879326655,-2.41716906152,1.98610204789,-2.0883758853,1.8327995533,-1.92717911639,2.15756704163,-2.26867042681,2.8003449058,-2.94454797931,2.71510951238,-2.85492341022,3.35163450655,-3.52422610272,2.84618682374,-2.99275051556,2.62938753621,-2.76478720194,3.14399894344,-3.30589839726,3.92405044016,-4.12611845432,3.80871605302,-4.00484495123,4.44694277169,-4.67593699811,3.99328646711,-4.19891977348,3.68240706463,-3.87203171249,4.17127317251,-4.38607186058,4.91875406065,-5.17204409357,4.78120858052,-5.02741574271,5.33858666521,-5.61349587504,5.0124120322,-5.27052495937,4.61486867446,-4.85251020402,5.00482660183,-5.26254891913,5.73386506483,-6.02912903883,5.57020568484,-5.85704205924,6.10178812107,-6.41599820253,5.84916075079,-6.15036184783,5.36813595193,-5.64456679503,5.69856057517,-5.99200655314,6.45744816507,-6.78997287319,6.25946422421,-6.58179379789,6.74484083873,-7.09216476203,6.59084698334,-6.93024103086,6.01619089044,-6.32599316352,6.27689778861,-6.60012509941,6.93764107654,-7.29489320076,6.72851645753,-7.07499976082,7.05875847134,-7.42224750607,7.07389927291,-7.4381679795,6.46614954195,-6.79912232534,6.59400995901,-6.93356688319,7.14738115696,-7.51543379513,6.94728555973,-7.30503432424,7.19745972637,-7.56809114819,7.27954980389,-7.65440843409,6.69280316322,-7.03744741919,6.7556456057,-7.10352591783,7.20911216181,-7.58034362292,7.02076894674,-7.38230172022,7.19244736056,-7.56282067182,7.34251849487,-7.72061968236,6.77864161865,-7.12770610481,6.77958622792,-7.1286993565,7.15398590706,-7.52237865522,6.97358206903,-7.33268496583,7.08879058341,-7.45382611438,7.28235282105,-7.65735579194,6.74805641794,-7.0955459267,6.68638853734,-7.03070247373,7.00236522277,-7.36295030101,6.82342301165,-7.17479350466,6.90141903085,-7.25680590972,7.13044056287,-7.49762084931,6.59765763872,-6.93740239927,6.49386258941,-6.82826244937,6.79802301696,-7.14808554348,6.61545867642,-6.95612009704,6.69961457008,-7.04460957777,6.9283836051,-7.2851590181,6.38155703892,-6.71017375213,6.27738361987,-6.60063594843,6.61587649882,-6.9565594351,6.42610847931,-6.75701935801,6.54566805787,-6.88273562772,6.75118708001,-7.09883780144,6.18075956018,-6.49903625651,6.10408877443,-6.41841732747,6.48888178572,-6.82302516042,6.29293360183,-6.61698667289,6.43673138834,-6.76818929112,6.62867644289,-6.97001850914,6.04068911017,-6.35175291306,5.98451303907,-6.29268406897,6.38364539943,-6.71236965225,6.18344158921,-6.50185639596,6.32062711083,-6.64610625235,6.52093462517,-6.85672855297,5.92529535618,-6.23041698604,5.86418056422,-6.16615510287,6.24138701792,-6.56278571031,6.05273532067,-6.36441944021,6.14299510358,-6.45932712849,6.35991143398,-6.68741351207,5.79731357524,-6.0958448147,5.71059025313,-6.00465569641,6.02824687017,-6.33866996296,5.84818194922,-6.14933264312,5.90827172365,-6.21251672572,6.14047163665,-6.45667371625,5.58602507207,-5.87367606192,5.45727903685,-5.73830028122,0.297101807538,-0.312400992186,0.00238002431242,-0.00250258308015,0.294403222488,-0.309563444162,0.578543494459,-0.608335449688,0.289594390098,-0.304506982128,0.299487918171,-0.314909975,0.00238689935577,-0.00250981215217,0.579636145118,-0.609484366125,0.868512050714,-0.913235865568,0.86811658482,-0.912820035255,1.1502056945,-1.20943525439,0.854721469277,-0.898735141525,0.870510985208,-0.915337734702,1.15114945835,-1.21042761713,1.44012963168,-1.51428875355,1.44206149666,-1.51632009944,1.72215533531,-1.81083730155,1.42001760778,-1.49314106591,1.44194877479,-1.51620157299,1.72296843573,-1.81169227238,2.01189375108,-2.11549572592,2.01613415995,-2.11995449361,2.37114661681,-2.49324822979,1.98548752583,-2.08772971858,2.01339614573,-2.11707548602,2.3713164511,-2.49342680965,2.8917531367,-3.04066325462,2.89111607026,-3.0399933826,3.4595750905,-3.63772506054,2.8471855395,-2.99380065995,2.8910257049,-3.0398983639,3.45891003146,-3.63702575446,4.05215997255,-4.26082495564,4.05648210479,-4.26536965501,4.58917973605,-4.82549842003,3.99476838396,-4.20047800127,4.05039512381,-4.25896922644,4.58841623325,-4.82469560084,5.07636516084,-5.33777133868,5.09092356608,-5.35307942543,5.5114975048,-5.79531071588,5.01352159114,-5.27169165478,5.07541303678,-5.33677018522,5.50974655842,-5.79346960495,5.92964942628,-6.2349952679,5.94690601735,-6.25314048289,6.31339111826,-6.63849764411,5.85768928747,-6.15932955942,5.92403362272,-6.22909027992,6.3068066581,-6.63157411879,6.67764507763,-7.0215087717,6.69113337658,-7.0356916473,6.96163129638,-7.32011879108,6.60557522287,-6.94572769747,6.67004837507,-7.01352087882,6.95593057567,-7.31412451316,7.1365613604,-7.50405683581,7.14380336481,-7.51167176545,7.24438734378,-7.61743529173,7.08027256743,-7.44486946526,7.13408448518,-7.50145241451,7.24487430226,-7.61794732602,7.33417482206,-7.71184635416,7.34466697371,-7.72287879659,7.39301112929,-7.77371242259,7.27508301192,-7.64971162577,7.33655926535,-7.71435358377,7.39653932381,-7.77742230063,7.41082569361,-7.79244434353,7.43634968236,-7.81928268381,7.39551430628,-7.77634450007,7.33160626638,-7.70914553134,7.41624536112,-7.79814309548,7.40203714515,-7.78320323093,7.35304145717,-7.73168452202,7.38585629646,-7.7661891534,7.28833384347,-7.66364480564,7.26545130388,-7.63958393528,7.36221100555,-7.74132625404,7.29571862891,-7.67140986879,7.20208357748,-7.57295310337,7.2326755415,-7.60512039307,7.10369617201,-7.4694992626,7.11639316344,-7.48285008249,7.20896862929,-7.58019269924,7.10881825378,-7.47488510472,7.00440849453,-7.36509879055,7.03293238798,-7.39509151489,6.9127866557,-7.26875890762,6.92246871284,-7.27893953992,7.00791865356,-7.36878970436,6.91268295158,-7.26864986328,6.83742156494,-7.18951291001,6.86277045905,-7.2161671392,6.77057073276,-7.11921961064,6.75549606135,-7.10336867273,6.83420222834,-7.18612779446,6.76884834259,-7.11740852641,6.70213052221,-7.04725508825,6.74208591623,-7.08926797547,6.62479805909,-6.96594040892,6.59861201722,-6.93840592326,6.71567292767,-7.06149485655,6.66097276158,-7.00397791884,6.53265319077,-6.86905056323,6.59704668619,-6.93675998588,6.43341661388,-6.76470382317,6.41216403253,-6.74235684535,6.59304430833,-6.93255150656,6.5095211601,-6.84472735432,6.33280332722,-6.65890948001,6.39968196413,-6.72923201591,6.23280850788,-6.553765452,6.21749110872,-6.53765928712,6.41067535236,-6.74079150597,6.30308646065,-6.62766235069,6.13355276827,-6.44939856244,6.19011134225,-6.5088696063,6.03541072074,-6.34620271426,6.02935718059,-6.33983744854,6.19320330314,-6.51212078696,6.08282905402,-6.39606284298,0.27371216043,-0.287806900942,0.00236667216475,-0.00248854336692,0.277248574262,-0.291525421536,0.528137186208,-0.555333480967,0.256028564829,-0.269212692926,0.288978717335,-0.303859605447,0.00237319091599,-0.00249539779965,0.561477074579,-0.590390198706,0.793434400726,-0.834292110423,0.816465545321,-0.858509238155,1.04815567367,-1.10213019279,0.753049348517,-0.791827439864,0.84307551535,-0.886489482059,1.11580016175,-1.17325801718,1.3132650184,-1.38089127815,1.35582982977,-1.42564795404,1.56846517142,-1.64923290041,1.25018285407,-1.31456071326,1.39732932554,-1.46928445615,1.67040904583,-1.7564263496,1.83334381206,-1.92775140163,1.89539551063,-1.99299843718,2.15764237742,-2.26874964199,1.74751042912,-1.8374980497,1.95176659057,-2.05227233204,2.29933358005,-2.41773719833,2.62869392097,-2.76405786915,2.7158143998,-2.85566459566,3.14394032807,-3.3058367635,2.5020527788,-2.63089537245,2.80334687707,-2.94770453635,3.35342227541,-3.5261059323,3.68207678955,-3.87168442997,3.80979442558,-4.00597885431,4.17184241795,-4.38667041918,3.50827507144,-3.68893283505,3.92770563466,-4.12996187216,4.44878539853,-4.67787451056,4.61590120679,-4.85359590635,4.78253606841,-5.02881158926,5.0116342513,-5.26970712684,4.40544759693,-4.63230503951,4.92146802754,-5.17489781552,5.34333300741,-5.61848662897,5.39200706232,-5.6696671424,5.58812169885,-5.87588065399,5.74176987383,-6.03744090402,5.14796985002,-5.41306329375,5.74880183982,-6.04483497937,6.12315793317,-6.43846844786,6.07398715055,-6.38676562785,6.29978370986,-6.62418952556,6.34084866282,-6.66736910819,5.7993102553,-6.09794431331,6.48290752661,-6.81674325831,6.76898436031,-7.11755154833,6.50970001214,-6.84491541629,6.7552458188,-7.103105544,6.61485298424,-6.95548321488,6.21628385749,-6.53638986879,6.9499660858,-7.30785288334,7.06075815731,-7.42435016538,6.68979499225,-7.0342843432,6.9417298745,-7.29919255037,6.73266687678,-7.0793639049,6.38934612013,-6.71836393017,7.1402345904,-7.50791921789,7.18473042134,-7.55470635072,6.73700215989,-7.08392243235,6.99079094117,-7.35078000462,6.71640787426,-7.06226764903,6.43584088556,-6.76725293213,7.18869297081,-7.5588729507,7.16590361463,-7.53491006221,6.67223442787,-7.01581950187,6.92477049343,-7.28135985013,6.61489882447,-6.95553141564,6.37389495768,-6.7021171139,7.12053907381,-7.4872094855,7.05933335288,-7.42285199099,6.53807285828,-6.87474931518,6.78352848745,-7.13284462172,6.45170010118,-6.78392881416,6.24341976898,-6.56492313738,6.97664434649,-7.33590493452,6.8824997922,-7.23691242952,6.36358316102,-6.6912743138,6.60130832435,-6.94124107606,6.27352815618,-6.59658194858,6.08003505461,-6.39312496725,6.7872610843,-7.13676942773,6.69643205595,-7.04126318086,6.17345255283,-6.49135297661,6.41588610867,-6.7462705889,6.07711443096,-6.3900539468,5.89445765849,-6.19799130867,6.61196805585,-6.95244972781,6.52797523317,-6.86413171535,5.98638459785,-6.29465200321,6.22921305597,-6.54998485317,5.90276638752,-6.20672789366,5.71683504473,-6.01122206201,6.43571989742,-6.76712571373,6.3421817868,-6.66877088106,5.8194284789,-6.1190985199,6.04687528639,-6.35825764491,5.7405825368,-6.03619242537,5.57169661944,-5.85860976915,6.24587710574,-6.5675070141,6.1525990069,-6.46942558245,5.66223332241,-5.95380863741,5.87241452108,-6.17481306531,5.58848503901,-5.87626270426,5.43666258258,-5.7166221877,6.05932391397,-6.3713473115,5.97048442662,-6.27793305656,5.51548297439,-5.79950141624,5.70779925963,-6.00172098138,5.44664485564,-5.72711849546,5.31376530945,-5.58739634966,5.88186812857,-6.184753484,5.79755480004,-6.09609846132,0.211209832703,-0.222086031191,0.22600615154,-0.237644282835,0.411442668809,-0.43262980804,0.190254837082,-0.200051963215,0.246570143174,-0.25926721217,0.477174360691,-0.501746337261,0.618141043505,-0.649972064802,0.665959398525,-0.700252814275,0.817764664872,-0.859875255548,0.55945930614,-0.588268525776,0.716789775844,-0.753700689397,0.9473611866,-0.996145318351,1.0248806741,-1.07765665283,1.10598255655,-1.16293485681,1.22421586838,-1.28725656401,0.928632635781,-0.976452345404,1.18701596047,-1.24814105597,1.41781192259,-1.4908217995,1.43152040493,-1.50523619678,1.54611289429,-1.62572959825,1.68406248232,-1.77078286645,1.29788299203,-1.36471715811,1.65738628819,-1.74273298826,1.95065195914,-2.05110030294,2.05187976787,-2.15754081283,2.21231342368,-2.32623596037,2.44949019511,-2.57562609142,1.8565885646,-1.95219313699,2.37720955046,-2.49962337271,2.83942651746,-2.98564208896,2.86914094172,-3.01688665021,3.09988768195,-3.25951563719,3.24822383882,-3.41549032804,2.59863475566,-2.7324508145,3.32603724859,-3.49731072024,3.76789533079,-3.96192217592,3.59653554412,-3.7817382591,3.89329803534,-4.09378246197,3.9034445066,-4.10445142327,3.26197252529,-3.42994699975,4.17064456021,-4.38541087805,4.52720976083,-4.76033731615,4.20133947688,-4.41768642191,4.55017533887,-4.78448550099,4.47337717741,-4.70373263706,3.8124640552,-4.00878595586,4.87183658821,-5.1227106174,5.18643506091,-5.45350926124,4.73289260542,-4.97661174833,5.12645162079,-5.39043698859,4.93877609493,-5.19309715759,4.29644517297,-4.51768956249,5.48470126188,-5.76713460701,5.72485633299,-6.01965640455,5.06953947588,-5.33059416674,5.49486276272,-5.77781937183,5.15324147614,-5.41860638096,4.60655506082,-4.84376848288,5.8771638692,-6.17980697995,5.97285797346,-6.28042882862,5.21225400522,-5.48065774574,5.6489486743,-5.93983989961,5.24671721399,-5.51689562899,4.73811313095,-4.98210110354,6.0407187936,-6.35178412503,6.08012786228,-6.39322255403,5.24906483481,-5.51936413996,5.69020675739,-5.98322255756,5.23174474375,-5.50115215507,4.77186243455,-5.01758831924,6.08356324914,-6.39683484529,6.06557471739,-6.37791999852,5.19286697081,-5.46027238075,5.63200131689,-5.92201984219,5.14366537755,-5.40853716352,4.71615603791,-4.95901333538,6.02396982668,-6.33417267417,5.97008050659,-6.27750833677,5.08449766802,-5.34632262732,5.51503471708,-5.79903007604,5.02404079604,-5.28275254356,4.61714791067,-4.85490680894,5.90057319567,-6.20442176394,5.82590585329,-6.12590944509,4.96052427677,-5.21596525672,5.37632519578,-5.65317774198,4.90054910292,-5.15290167601,4.51008430287,-4.74232998694,5.74872481321,-6.0447539863,5.66877194235,-5.96068396197,4.83971611563,-5.08893610898,5.22709909975,-5.49626728477,4.79018424729,-5.03685360923,4.41880626574,-4.64635160969,5.57680292015,-5.86397901756,5.49213188755,-5.77494787092,4.74847527672,-4.99299684546,5.10114255507,-5.36382463874,4.71551277177,-4.95833694441,4.35709216917,-4.58145956087,5.42182988745,-5.70102568658,5.36224097387,-5.63836825652,4.68056222878,-4.92158663179,5.01020381077,-5.26820302612,4.64960654886,-4.88903689673,4.3072371648,-4.52903728528,5.30363424352,-5.57674358698,5.24902650937,-5.51932384096,4.61666809125,-4.85440228133,4.9278777688,-5.18163762484,4.58909594612,-4.82541031536,4.25685875521,-4.47606465186,5.19562752941,-5.46317509364,5.14767489446,-5.41275314952,4.56201489261,-4.79693472965,4.8625205014,-5.11291480099,4.54205598258,-4.77594804044,4.20729570048,-4.42394935979,5.10390874976,-5.36673327795,5.06433247697,-5.3251190347,0.126465554373,-0.132977867051,0.148467712681,-0.1561130211,0.24689017935,-0.25960372853,0.101759339307,-0.106999411506,0.17482176884,-0.183824172912,0.335466625518,-0.35274139705,0.371752617378,-0.390895927154,0.436070659593,-0.458526011164,0.49044139601,-0.515696555306,0.299160061916,-0.314565235868,0.504146355793,-0.530107248629,0.664591471666,-0.698814446358,0.616048972566,-0.647772263184,0.723445767426,-0.760699429632,0.733757470152,-0.771542130959,0.496057058667,-0.521601395134,0.833184265199,-0.876088884409,0.993852194634,-1.04503036943,0.859587296662,-0.903851533497,1.01073445516,-1.06278197782,1.00877365823,-1.06072021013,0.692727930651,-0.728399785393,1.16224420234,-1.22209368223,1.36649632459,-1.43686371738,1.23070752087,-1.29408250255,1.44550937686,-1.51994552738,1.46579978312,-1.54128078313,0.990753564365,-1.04177217596,1.66484791237,-1.75057884694,1.98691909357,-2.08923500456,1.71506362673,-1.80338040718,2.02090079209,-2.1249665823,1.93896796159,-2.0388146408,1.38456808264,-1.45586607618,2.3256129932,-2.4453698634,2.63133875178,-2.76683889487,2.14653269779,-2.25706787214,2.53368742012,-2.66415903186,2.3263870167,-2.44618374506,1.73550291979,-1.82487221663,2.91424678584,-3.0643152087,3.16017302882,-3.32290536319,2.50367071337,-2.63259662217,2.95943266249,-3.11182792098,2.6651880021,-2.80243120403,2.02560899673,-2.12991723478,3.40086390454,-3.57599055648,3.62131632,-3.80779511496,2.81876215639,-2.9639136217,3.33599547432,-3.50778174236,2.94379100008,-3.095380795,2.28190865766,-2.39941498383,3.82913336532,-4.02631364801,3.99982245687,-4.20579233243,3.02118339367,-3.1767584909,3.57877395907,-3.7630620456,3.07475897123,-3.23309292967,2.44750722955,-2.57354101354,4.10556571583,-4.31698081455,4.17668908262,-4.39176666166,3.11104958938,-3.2712523243,3.68344598453,-3.87312413131,3.13190332319,-3.29317991601,2.51884176198,-2.6485489002,4.22629910479,-4.44393133974,4.25443260483,-4.47351356746,3.12830016862,-3.28939121788,3.70578858637,-3.89661725995,3.10783851905,-3.26787590069,2.53542333692,-2.66598433927,4.25598478498,-4.47514567674,4.23559715611,-4.45370819193,3.07716952841,-3.23562761791,3.65254403537,-3.84063089386,3.04473756774,-3.20152558138,2.47779484452,-2.6053882818,4.20058010721,-4.41688794869,4.15727123757,-4.37134889944,3.01506353548,-3.17032349212,3.57786279062,-3.76210395675,2.99364581658,-3.14780287304,2.43767130705,-2.56319859262,4.11072349286,-4.32240419004,4.06868650164,-4.27820251428,2.96801380271,-3.12085094491,3.50934179607,-3.6900544904,2.94892360256,-3.10077769958,2.41032573289,-2.53444486483,4.02276736923,-4.22991878742,3.9845069364,-4.18968814299,2.9335844105,-3.08464861959,3.45668978637,-3.63469117838,2.92507484867,-3.07570085997,2.39428278062,-2.51757578467,3.95288281579,-4.15643554605,3.93050602165,-4.13290646439,2.91389133621,-3.06394145528,3.42458321615,-3.60093128822,2.90621629196,-3.05587118651,2.3877452879,-2.51070164537,3.90860228362,-4.10987479876,3.89149861856,-4.09189038466,2.89489638604,-3.04396836481,3.39587182866,-3.57074141488,2.88636296475,-3.03499551709,2.37858795106,-2.50107275371,3.87079724715,-4.07012300121,3.85266818881,-4.05106039146,2.87435132229,-3.02236533805,3.36543842674,-3.5387408524,2.86497211123,-3.01250314682,2.36805465592,-2.48999704913,3.83108796255,-4.02836889674,3.81195154643,-4.00824705557,2.85228582838,-2.99916358695,3.33331645121,-3.50496476362,2.84363198255,-2.99006411345,2.35615930486,-2.47748914988,3.78951576118,-3.98465594507,3.77095610529,-3.96514056426,0.0288208040259,-0.0303049242544,0.053058113725,-0.0557903282668,0.0528565588023,-0.0555783943228,0.0791546826047,-0.0832307335549,0.152536396834,-0.160391221145,0.0789898855792,-0.0830574503471,0.153106569884,-0.160990755116,0.102608311116,-0.107892100909,0.22996480271,-0.241806783775,0.301676178438,-0.317210919193,0.128862855,-0.135498616085,0.252828484876,-0.265847825642,0.152553387307,-0.160409086539,0.379371605986,-0.39890725371,0.450531889189,-0.473731918228,0.178835559791,-0.188044653043,0.352540090514,-0.370694055935,0.209439512252,-0.220224548523,0.528237085965,-0.555438525038,0.619113363568,-0.650994454248,0.25658240495,-0.269795052908,0.504557602749,-0.530539672646,0.305496369578,-0.321227830137,0.756560212058,-0.795519094461,0.900042236431,-0.946389690459,0.358666124921,-0.377135548981,0.705974582099,-0.742328569905,0.405599495844,-0.426485742318,1.05443108804,-1.10872875808,1.19116544037,-1.25250421233,0.450292402183,-0.473480098898,0.885946930206,-0.931568549899,0.488466227044,-0.513619675499,1.31982994011,-1.38779425889,1.42926033144,-1.50285974136,0.526927304804,-0.554061297017,1.0351567755,-1.08846191955,0.562053271204,-0.590996066435,1.53829741737,-1.61751166527,1.63666875998,-1.72094861601,0.596651652286,-0.627376082658,1.168247957,-1.22840659877,0.621691312733,-0.653705154273,1.73141975793,-1.82057879334,1.80800224488,-1.90110487666,0.629990413439,-0.662431615132,1.25234579889,-1.31683503838,0.658395526215,-0.692299442218,1.85517296579,-1.95070464226,1.88833442483,-1.9855737425,0.681966608566,-0.717084311669,1.29849929886,-1.3653652015,0.670683806931,-0.705220504932,1.90568870819,-2.00382168042,1.9290747388,-2.02841196894,0.639112477731,-0.672023417885,1.29110361697,-1.35758868079,0.623945844067,-0.656075782144,1.93811559638,-2.03791838326,1.89548005204,-1.99308733202,0.625951119165,-0.658184318391,1.2460011545,-1.31016367809,0.617197749323,-0.648980195918,1.85383476932,-1.9492975357,1.84783045105,-1.94298402653,0.621468264333,-0.65347062005,1.23770567029,-1.30144101996,0.638972608677,-0.671876346309,1.8430632553,-1.93797134521,1.84044040526,-1.93521343214,0.653613958427,-0.687271648771,1.25128433461,-1.31571891427,0.675363126589,-0.710140785008,1.83427226453,-1.92872766453,1.83575869026,-1.93029063338,0.693307461965,-0.729009159529,1.272000172,-1.33750150861,0.714045984627,-0.750815607325,1.83691972552,-1.93151145587,1.84337718571,-1.93830144138,0.726153487644,-0.763546583238,1.29126255481,-1.35775580309,0.738203220702,-0.776216814342,1.84403059681,-1.93898849973,1.84609152834,-1.94115555842,0.747234590856,-0.785713252685,1.30221789941,-1.36927529048,0.75874231959,-0.797813569085,1.84496750342,-1.93997365212,1.84637051496,-1.94144891139,0.767211160645,-0.806718511031,1.31210454675,-1.3796710483,0.778187546665,-0.818260123354,1.84472458779,-1.93971822761,1.84546498261,-1.94049674887,0.786703261231,-0.827214352552,1.32107617432,-1.38910466762,0.798909771623,-0.840049434201,1.84329997123,-1.93822025076" style="fill:none; stroke:#00C; stroke-width:1.5px"/>
</svg>