<?xml version="1.0" standalone="no"?>
<!DOCTYPE svg PUBLIC "-//W3C//DTD SVG 1.1//EN"
"http://www.w3.org/Graphics/SVG/1.1/DTD/svg11.dtd">
<svg height="150" version="1.1" width="150" xmlns="http://www.w3.org/2000/svg">
<polygon points="0.00410214497242,261.050376892,0.00409379100893,261.019180298,0.00376305438112,261.054679871,-0.373206138611,261.193107605,-0.188422009349,261.154266357,0.00316521758214,261.135360718,-0.749609783292,261.361083984,-0.380132988095,261.316795349,0.00208334106719,261.289283752,-1.12488815188,261.412971497,-0.57086867094,261.365478516,0.00174081459409,261.329795837,-1.54680973291,261.325744629,-0.784991025925,261.276443481,0.00208568695234,261.232658386,-2.24283564091,260.372177124,-1.13639518619,260.325027466,0.00626065023243,260.274238586,-2.96095740795,258.831367493,-1.49763473868,258.786689758,0.0122744408436,258.732192993,-3.54524159431,257.004135132,-1.78927373886,256.970306396,0.0200637672096,256.91784668,-4.04950046539,254.569839478,-2.03765237331,254.55896759,0.0306724626571,254.513786316,-4.450912714,251.053504944,-2.23306721449,251.071311951,0.0427722176537,251.076187134,-4.61002671719,246.641487122,-2.29719346762,246.610221863,0.0638122167438,246.822418213,-4.61801147461,242.541618347,-2.24340766668,242.626052856,0.0810868777335,242.821266174,-4.70653510094,239.5417099,-2.28704595566,239.674598694,-0.0140466084704,239.657363892,-4.67991685867,237.170906067,-2.33218002319,237.262435913,-0.0119210612029,237.328399658,-4.49903726578,235.197189331,-2.24750554562,235.338661194,0.0593630857766,235.453765869,-4.24987435341,233.206237793,-2.07409447432,233.419006348,0.165004245937,233.598838806,-4.03755283356,231.316864014,-1.91556090117,231.590103149,0.267351038754,231.828712463,-3.8964972496,230.079528809,-1.81122225523,230.387512207,0.333005256951,230.661209106,-3.76642405987,228.952377319,-1.71611827612,229.289978027,0.391088560224,229.593727112,-3.63530409336,227.830993652,-1.62159848213,228.192947388,0.447140336037,228.525146484,-3.50893092155,226.732200623,-1.5264544487,227.097221375,0.505560994148,227.455558777,0.0041356086731,261.175804138,0.004115728545,261.102973938,-0.703699573874,261.342887878,-0.547001168132,261.254058838,-1.40839889646,261.526199341,-1.09581694007,261.426063538,-2.11232632399,261.578865051,-1.64369773865,261.477355957,-2.90512025356,261.473579407,-2.26026570797,261.385482788,-4.22138214111,260.443748474,-3.28039777279,260.413146973,-5.60220086575,258.835876465,-4.33789479733,258.853752136,-6.74644732475,256.921440125,-5.20969998837,256.992507935,-7.75163125992,254.343589783,-5.9784976244,254.497741699,-8.5744099617,250.621627808,-6.60365009308,250.909835815,-8.92690730095,246.381660461,-6.86555242538,246.61566925,-9.06714963913,242.368034363,-6.94926381111,242.532669067,-9.11311912537,239.156227112,-7.0303709507,239.397857666,-8.95085048676,236.795059204,-6.95078229904,236.944862366,-8.56906414032,234.656089783,-6.66324734688,234.961212158,-8.16772627831,232.510139465,-6.33118486404,232.907432556,-7.84882450104,230.492637634,-6.06196546555,230.954566956,-7.63700938225,229.191169739,-5.88254821301,229.684867859,-7.4405272007,228.015106201,-5.71538937092,228.531280518,-7.25206661224,226.903495789,-5.54722988605,227.402275085,-7.10400438309,226.064964294,-5.40076839924,226.39780426,0.00448726583272,261.316520691,0.00416295463219,261.259872437,-0.949197560549,261.552406311,-0.838774502277,261.441581726,-1.89778375626,261.761009216,-1.67831486464,261.634460449,-2.84572023153,261.81804657,-2.51712995768,261.68662262,-3.91632843018,261.675178528,-3.46289026737,261.562980652,-5.71116292477,260.46546936,-5.03947377205,260.457641602,-7.60089755058,258.728874207,-6.70448112488,258.788154602,-9.16098332405,256.673927307,-8.07925629616,256.811050415,-10.5337586403,253.878547668,-9.28671455383,254.136108398,-11.6595096588,249.847389221,-10.2770969868,250.26965332,-12.131770134,245.510742188,-10.6990227699,245.98374939,-12.2592744827,241.578872681,-10.8398473263,242.007728577,-12.1936898232,238.419868469,-10.8392286301,238.830665588,-11.8085360527,235.961860657,-10.5628402233,236.449745178,-11.2894005775,233.640083313,-10.0993595123,234.217529297,-10.800481081,231.356208801,-9.64443039894,232.000968933,-10.4190416336,229.217788696,-9.28494429588,229.923706055,-10.1815195084,227.868003845,-9.04816246033,228.589920044,-9.98597431183,226.754882812,-8.84188485146,227.408477783,-9.82804727554,225.990394592,-8.66188073158,226.417007446,-9.67462420464,225.318855286,-8.51816797256,225.713859558,0.00425074773375,261.481704712,0.0043877052376,261.395828247,-1.07890319824,261.799255371,-1.02992740273,261.685844421,-2.15748149157,262.058280945,-2.05907195807,261.921524048,-3.23542964458,262.150588989,-3.08758878708,261.996299744,-4.45546853542,262.002891541,-4.25058281422,261.847412109,-6.51146936417,260.633857727,-6.20731830597,260.542808533,-8.666046381,258.779823303,-8.26144480705,258.744827271,-10.4464838505,256.569076538,-9.95797133446,256.613388062,-12.0225734711,253.516708374,-11.4554607868,253.694297791,-13.3292984962,249.100730896,-12.6904950142,249.483375549,-13.8374562263,244.590156555,-13.1914587021,245.075500488,-13.9119443893,240.708869934,-13.2952451706,241.187507629,-13.6008310318,237.331947327,-13.1116132736,237.951438904,-13.1455521584,234.625946045,-12.6729598045,235.368782043,-12.6271862984,232.106803894,-12.1351647377,232.93938446,-12.1506729126,229.713386536,-11.63494277,230.583343506,-11.834102869,227.552330017,-11.264216423,228.384384155,-11.6559956074,226.531929016,-11.054173708,227.100746155,-11.4947326183,225.747070312,-10.8908643723,226.259880066,-11.3229396343,224.972190857,-10.7317471504,225.536247253,-11.1382613182,224.195960999,-10.5633444786,224.824562073,0.00427609949838,261.481338501,0.00414512562566,261.527252197,-1.07983097434,261.801429749,-1.09602025151,261.860641479,-2.15827703476,262.063568115,-2.19117951393,262.134223938,-3.23612487316,262.159126282,-3.28572356701,262.23941803,-4.45564770699,262.011726379,-4.52480578423,262.096572876,-6.51166820526,260.606643677,-6.61414361,260.688903809,-8.66712427139,258.645675659,-8.80262875557,258.774673462,-10.4491968155,256.26638031,-10.6116728783,256.474182129,-12.0288863182,252.924362183,-12.2158427238,253.274734497,-13.3201117516,248.058242798,-13.5451498032,248.642417908,-13.7380685806,243.330505371,-14.035390377,244.022506714,-13.7162103653,239.362037659,-14.0763401985,240.108718872,-13.3076033592,235.77596283,-13.6767954826,236.597328186,-12.9644021988,232.964630127,-13.252286911,233.801078796,-12.5644083023,230.388542175,-12.7769036293,231.225219727,-12.1942706108,228.019706726,-12.3592071533,228.846794128,-11.8816180229,226.138046265,-12.0718560219,226.914482117,-11.6887013912,225.07699585,-11.8877019882,225.914039612,-11.516602993,224.148925781,-11.7110581398,225.063102722,-11.3391344547,223.221633911,-11.5256860256,224.210266113,-11.1563358307,222.294914246,-11.3334624767,223.355209351,0.00455725158099,261.311325073,0.00443900073878,261.3934021,-0.948012113571,261.533180237,-1.03026115894,261.685409546,-1.89680457115,261.750022888,-2.05933696032,261.92477417,-2.84495186806,261.815437317,-3.08780264854,262.003509521,-3.91661953926,261.673164368,-4.25057530403,261.854255676,-5.71228837967,260.370437622,-6.20747280121,260.48538208,-7.60356330872,258.347465515,-8.26320934296,258.482185364,-9.1681895256,255.838851929,-9.9633872509,256.027107239,-10.5472583771,252.242889404,-11.4670550823,252.549087524,-11.6358196735,246.917221069,-12.6722044945,247.459259033,-11.9068129063,241.984107971,-13.0010204315,242.640289307,-11.8792626858,238.111999512,-12.9405670166,238.660835266,-11.6865363121,234.72454834,-12.6313948631,235.103851318,-11.5235853195,232.091812134,-12.3823943138,232.340515137,-11.267919302,229.498603821,-12.0620770454,229.749435425,-10.8647561073,227.069480896,-11.6763010025,227.402870178,-10.5399699211,224.833488464,-11.3451676369,225.3620224,-10.3803184032,223.612358093,-11.1690294743,224.223930359,-10.2396998405,222.561424255,-11.0123319626,223.233901978,-10.0932011604,221.51335144,-10.8494725227,222.246574402,-9.94239878654,220.468780518,-10.6816885471,221.26272583,0.00533156655729,260.90297699,0.00480011547916,261.113800049,-0.702225521207,261.097801208,-0.837201833725,261.312469482,-1.40720307827,261.325378418,-1.67697411776,261.534210205,-2.11138951778,261.421302795,-2.516033113,261.614273071,-2.90461063385,261.345336914,-3.46216213703,261.50466156,-4.22056138515,260.211181641,-5.04000663757,260.286529541,-5.60132753849,258.279327393,-6.70600104332,258.291847229,-6.746945858,255.830314636,-8.085252285,255.788749695,-7.74850201607,252.152435303,-9.29703712463,252.121879578,-8.57017707825,246.281524658,-10.2556858063,246.508872986,-8.97481799126,241.04598999,-10.53104496,241.401100159,-9.0539560318,237.430206299,-10.5701887608,237.725646973,-9.05120801926,234.661582947,-10.4807403088,234.609764099,-9.03367567062,232.568069458,-10.394906044,232.201332092,-8.90801239014,230.252723694,-10.198898077,229.696472168,-8.57304596901,227.355491638,-9.80830621719,227.092506409,-8.26128172874,224.566337585,-9.49305438995,224.624267578,-8.12768769264,223.190643311,-9.34876012802,223.332389832,-8.01913976669,222.057495117,-9.22440719604,222.239845276,-7.90608072281,220.931556702,-9.0947906971,221.150184631,-7.94376325607,219.805915833,-8.96120166779,220.062904358,0.00609617494047,260.598770142,0.00576728163287,260.727333069,-0.371169000864,260.793411255,-0.544916823506,260.918678284,-0.74813644588,261.03540802,-1.09429684281,261.151153564,-1.12389063835,261.156990051,-1.64267814159,261.260513306,-1.5456699729,261.123962402,-2.25930422544,261.211257935,-2.24114584923,260.104911804,-3.27873659134,260.147758484,-2.95907092094,258.334922791,-4.33554267883,258.295509338,-3.52176010609,256.101150513,-5.19514274597,255.937591553,-3.91611385345,252.745674133,-5.90479981899,252.371315002,-4.42878055573,247.785461426,-6.59762907028,246.855583191,-4.62028992176,242.929023743,-6.91072940826,241.552528381,0.00593759003095,260.567848206,0.00630353344604,260.521018982,0.00517700531054,260.688171387,-0.186397511512,260.717056274,0.00369724072516,260.930007935,-0.378563314676,260.962944031,0.0028210101882,261.051177979,-0.569690465927,261.088829041,0.00260741397506,261.022956848,-0.783992707729,261.062919617,0.00613790983334,260.065704346,-1.13544854522,260.078590393,0.0120077105239,258.462249756,-1.49683919549,258.39315033,0.0178784066811,256.540809631,-1.78684812784,256.325820923,0.0267164586112,253.870925903,-2.01843452454,253.353218079,0.0610306821764,249.957710266,-2.21533405781,248.895744324,0.135634638369,246.154884338,-2.26219546795,244.583312988,0.381043553352,260.770820618,0.196633011103,260.70602417,0.755145281553,260.98084259,0.38586589694,260.93598175,1.12922394276,261.066123962,0.57525908947,261.043670654,1.55070465803,261.005973816,0.789171248674,261.00428009,2.25347828865,260.073005676,1.1477317214,260.065635681,2.98305881023,258.600700378,1.52071076632,258.537849426,3.56974089146,256.902923584,1.82459503412,256.74936676,4.01059341431,254.725227356,2.07946318388,254.352607727,4.33058345318,251.912612915,2.29861557484,250.995941162,4.65299856663,249.071273804,2.48802298307,247.68926239,0.710719540715,261.048706055,0.55419896543,260.883430481,1.41301569343,261.211509705,1.10079440475,261.067634583,2.11572897434,261.236091614,1.64758354425,261.12297821,2.90902304649,261.103157043,2.26414114237,261.032043457,4.23073554039,260.094062805,3.29107367992,260.080879211,5.60915708542,258.632675171,4.35746312141,258.62688446,6.71978759766,257.016036987,5.21271371841,256.984382629,7.56584358215,255.087181091,5.86156117916,254.96685791,8.30854439735,252.818778992,6.45891880989,252.54309082,8.58230352402,250.408447266,6.85583567619,250.079978943,0.954625368118,261.452613831,0.844741165638,261.24886322,1.90098381042,261.574584961,1.68197268248,261.38973999,2.84787797928,261.538833618,2.5197045207,261.382324219,3.91814517975,261.312423706,3.46589398384,261.201416016,5.70819532871,260.130455017,5.04409360886,260.112030029,7.57914876938,258.607978821,6.69669771194,258.622787476,9.09480500221,256.909217834,8.02984786034,256.994636536,10.3295953274,254.711723328,9.06681990623,254.955001831,11.3459293842,251.866950989,9.89670968056,252.416679382,11.9422574043,248.746856689,10.4104721546,249.556755066,12.2941703796,245.396186829,10.8569476604,246.285438538,9.02826547623,247.349647522,12.380613327,242.54296875,11.0592312813,243.308670044,9.36870074272,244.074028015,12.2142634392,241.153198242,10.9386284351,241.539848328,9.34368252754,241.93812561,11.8467936516,239.987228394,10.5987925529,240.231010437,9.14945340157,240.375274658,11.4169614315,238.858703613,10.1505002975,238.96522522,8.73201227188,238.906997681,11.0524656773,237.831596375,9.66346120834,237.810310364,8.03765416145,237.572731018,10.8021705151,237.196083069,9.30596494675,237.118469238,7.43638014793,236.731704712,10.5485780239,236.618362427,8.93273234367,236.504241943,6.85991477966,236.036476135,10.2286412716,236.038032532,8.43344521523,235.883903503,6.18725681305,235.343536377,9.70475077629,235.471664429,7.78342151642,235.257133484,5.88722634315,234.815597534,0.00455009762663,261.418830872,0.0045625786297,261.364974976,1.08594113588,261.653137207,1.0366011858,261.573509216,2.16177248955,261.809967041,2.06315785646,261.710540771,3.23816227913,261.791610718,3.09026098251,261.679481506,4.45486092567,261.541625977,4.25075304508,261.435173035,6.49791097641,260.203330994,6.19721603394,260.163848877,8.62670445442,258.631896973,8.22819328308,258.616836548,10.3622574806,256.851173401,9.87987041473,256.860145569,11.8564424515,254.527404785,11.2742278576,254.575744629,13.1062760353,251.349815369,12.4448862076,251.517539978,13.6905040741,247.880722046,13.0481672287,248.1926651,13.9550027847,244.418151855,13.3312454224,244.803199768,13.940946579,241.750923157,13.3445048332,242.114685059,13.738553524,240.324783325,13.1549034119,240.78515625,13.383187294,239.069824219,12.7956576347,239.616096497,13.0054836273,237.903167725,12.4012842178,238.513183594,12.7231450081,236.831199646,12.0930075645,237.50491333,12.5198864937,236.146362305,11.8767678738,236.859031677,12.2805504799,235.547424316,11.6549398899,236.270851135,11.9043667316,235.008224487,11.353603363,235.698188782,11.4687473774,234.477790833,10.8936030865,235.153633118,0.00452405086253,261.419448853,0.00453717133496,261.437988281,1.08497259021,261.648445129,1.10191270709,261.685432434,2.16098964214,261.801681519,2.19439780712,261.853660583,3.23753964901,261.781951904,3.28743195534,261.844573975,4.45513379574,261.526519775,4.52369213104,261.595367432,6.49925065041,260.16947937,6.60002374649,260.224731445,8.62825655937,258.567901611,8.76176476479,258.62953949,10.3672614098,256.769577026,10.5269014835,256.835220337,11.8806831837,254.433311462,12.0542678833,254.497398376,13.1308822632,251.217658997,13.2743139267,251.292526245,13.6905369759,247.616844177,13.8018722534,247.759300232,13.9411540031,243.988014221,14.107884407,244.197784424,13.9146466255,241.066200256,14.1360397339,241.405975342,13.7088217735,239.277122498,13.9340558052,239.795196533,13.3630185127,237.832557678,13.5790400505,238.423416138,13.0053720474,236.468353271,13.2101798058,237.149139404,12.7194972038,235.207489014,12.9411892891,235.972663879,12.3894367218,234.498390198,12.7152113914,235.251617432,12.020254612,233.904281616,12.3760142326,234.693191528,11.6552710533,233.306602478,11.9832129478,234.159736633,11.3032257557,232.69921875,11.5840938091,233.616004944,0.00451128557324,261.367652893,0.955702990294,261.463371277,1.03625106812,261.568588257,1.90198928118,261.574241638,2.06296992302,261.700721741,2.84880656004,261.529701233,3.09023809433,261.666572571,3.91810405254,261.288116455,4.25123262405,261.41342926,5.70751440525,260.048240662,6.19837260246,260.099349976,7.57956147194,258.433067322,8.22996068001,258.489395142,9.11006140709,256.630737305,9.88989257812,256.685874939,10.4386875629,254.305618286,11.3333616257,254.354988098,11.525611639,251.148193359,12.5240879059,251.168930054,12.0252699852,247.508995056,13.066028595,247.544471741,12.2413129807,243.756958008,13.2978200912,243.849151611,12.212993145,240.560760498,13.2652759552,240.779434204,12.0247535706,238.485900879,13.0662989616,238.830619812,11.7306489944,236.939414978,12.740588665,237.334144592,11.408639431,235.442459106,12.3916740417,235.904434204,11.0393292904,234.072052002,12.0359716415,234.60484314,10.7429158688,233.213493347,11.6838812828,233.834747314,10.4760632515,232.429206848,11.3434889317,233.144920349,10.229716301,231.633796692,11.0205631256,232.443763733,10.0061044693,230.828407288,10.7153577805,231.733085632,0.710131466389,261.277359009,0.845254719257,261.364471436,1.41259208322,261.386878967,1.68253701925,261.47000885,2.11545914412,261.363235474,2.52027440071,261.431648254,2.90850788355,261.180656433,3.46563005447,261.218170166,4.23035001755,260.096878052,5.04289233685,260.066139221,5.60996353626,258.511962891,6.69664049149,258.459892273,6.74469780922,256.699584961,8.05087137222,256.657470703,7.73214125633,254.366249084,9.22677540779,254.337799072,8.54055190086,251.190261841,10.1879017353,251.181793213,8.91522431374,247.468597412,10.6310384274,247.514671326,9.07864880562,243.5963974,10.8236095905,243.701019287,9.0475487709,240.213615417,10.7964441776,240.392784119,8.88858747482,237.999412537,10.6207208633,238.229827881,8.6890976429,236.344551086,10.3678822517,236.626487732,8.49196243286,234.720085144,10.0981757641,235.063407898,8.34855151176,233.159133911,9.81676912308,233.596572876,8.24826693535,232.150611877,9.6230199337,232.658935547,8.15282320976,231.230484009,9.4579846859,231.802642822,8.05706763268,230.303924561,9.31355953217,230.937652588,7.96589255333,229.372535706,9.2081580162,230.065406799,0.379577994347,261.157562256,0.553398683667,261.202514648,0.753767162561,261.285804749,1.09999135137,261.316726685,1.12799343467,261.296699524,1.64681911469,261.308258057,1.55033791065,261.167221069,2.2637810111,261.155181885,2.2546210885,260.175041199,3.29172599316,260.131828308,2.98596990108,258.619560242,4.35954666138,258.566368103,3.58455562592,256.804229736,5.23545062542,256.752090454,4.1066712141,254.411087036,6.00307130814,254.379386902,4.53724873066,251.060829163,6.63424086571,251.103881836,4.74011671543,247.135070801,6.929210186,247.280136108,4.8298484087,243.151565552,7.05708861351,243.363990784,4.77707612514,239.789840698,7.01537060738,239.976425171,4.67337048054,237.528694153,6.88097190857,237.747276306,4.61630880833,235.762641907,6.74761676788,236.034805298,4.56952929497,234.029273987,6.62376737595,234.352043152,4.55396783352,232.367225647,6.54913258553,232.735404968,4.53837382793,231.273010254,6.49361944199,231.680099487,4.51955831051,230.271377563,6.43724727631,230.715270996,4.49813497066,229.266174316,6.37762641907,229.745452881,4.47569096088,228.257377625,6.31650280952,228.770965576,0.194766283035,261.136116028,0.384268596768,261.278434753,0.574014633894,261.306243896,0.78863132,261.195625305,1.14836892486,260.223587036,1.52294200659,258.675270081,1.8304964304,256.860671997,2.10004448891,254.459999084,2.32376664877,251.070487976,2.43548995256,247.027542114,2.48237657547,242.952415466,2.40872097015,239.772125244,2.35462027788,237.398231506,2.37069386244,235.577316284,2.40134471655,233.789909363,2.44484227896,232.076957703,2.47006165981,230.945091248,2.48987191916,229.908851624,2.50764995813,228.870231628,2.52529871464,227.829208374,-0.14322007075,261.082603455,0.00407653371803,261.032798767,-0.0934676472098,261.066375732,-0.284059099853,261.172187805,-0.186156190932,261.101303101,-0.0474303904921,261.059692383,0.0040676681092,261.012908936,0.00376241875347,261.052024841,-0.0943566374481,261.144035339,-0.432800978422,261.267929077,-0.286415934563,261.246871948,-0.570156052709,261.337646484,-0.564373925328,261.288253784,-0.14555503428,261.236869812,0.00249898637412,261.223823547,-0.191234327853,261.302055359,-0.718637779355,261.371315002,-0.47773231566,261.349411011,-0.854545712471,261.388069153,-0.940738320351,261.395622253,-0.241702124476,261.332244873,0.00185960432282,261.317596436,-0.28708807379,261.346481323,-1.00293597579,261.412033081,-0.66840031743,261.387886047,-1.17489901185,261.297180176,-1.31600394845,261.436637878,-0.337578959763,261.367698669,0.00155403697863,261.348083496,-0.394598633051,261.250099182,-1.43266305327,260.904716492,-0.953237861395,260.894233704,-1.70127743483,260.341209412,-1.87898558378,260.942825317,-0.480165347457,260.854316711,0.00396437197924,260.846260071,-0.568938776851,260.290969849,-1.98845976591,259.599128723,-1.32541751862,259.593063354,-2.24201256037,258.802345276,-2.61740219593,259.639434814,-0.663711279631,259.546966553,0.00922252144665,259.539550781,-0.747041165829,258.750778198,-2.47952985764,257.924240112,-1.65362209082,257.917259216,-2.67956632376,256.983375549,-3.27218878269,257.957817078,-0.82467931509,257.87335968,0.0159376356751,257.86289978,-0.889204055071,256.936706543,-2.87833553553,255.86592865,-1.91982167959,255.863571167,-3.05414450169,254.563865662,-3.80930256844,255.887763977,-0.952887475491,255.823287964,0.0248566623777,255.813468933,-1.00827366114,254.530220032,-3.22376596928,252.940155029,-2.14795464277,252.952835083,-3.3472391367,251.064422607,-4.27728009224,252.941184998,-1.06065139174,252.92099762,0.0377411423251,252.91607666,-1.10475951433,251.067512512,-3.41510009766,248.868164062,-2.28571325541,248.8723526,-3.46014797688,246.604980469,-4.55356299877,248.887550354,-1.14637434483,248.90700531,0.0405956860632,248.982650757,-1.12550872564,246.698181152,-3.46323537827,244.46157074,-2.27422982454,244.504211426,-3.43420886993,242.56111908,-4.61811804771,244.484298706,-1.09580504894,244.626594543,0.0872109364718,244.746551514,-1.07446181774,242.728752136,-3.46414661407,240.970046997,-2.24957031012,241.04839325,-3.48627269268,239.621589661,-4.66594183445,240.924934387,-1.0704806149,241.102432251,0.0390024259686,241.127082825,-1.14845404029,239.665763855,-3.48830938339,238.384277344,-2.32082408667,238.406112671,-3.50330972672,237.23588562,-4.71263980865,238.295036316,-1.20112323761,238.3932724,-0.0271987589076,238.408905029,-1.17923846841,237.291824341,-3.4726896286,236.235466003,-2.30733042955,236.270484924,-3.3850479126,235.278923035,-4.60569369793,236.16519928,-1.14495080709,236.316398621,0.0170794883743,236.365242004,-1.09899106622,235.397506714,-3.28666126728,234.309631348,-2.16794675589,234.386924744,-3.1731441021,233.321937561,-4.37859892845,234.209449768,-1.04045811296,234.464332581,0.107137475163,234.532516479,-0.961364328861,233.511543274,-3.07737779617,232.341407776,-1.99119454622,232.453765869,-2.98751574755,231.462272644,-4.13750910759,232.208198547,-0.895679354668,232.563194275,0.217137269676,232.665435791,-0.829859286547,231.711547852,-2.92383831739,230.799087524,-1.86040216684,230.936851501,-2.86463910341,230.241691589,-3.96262943745,230.644203186,-0.785809636116,231.068252563,0.302020199597,231.195007324,-0.744106918573,230.526168823,-2.81107717752,229.68598938,-1.76495790482,229.839134216,-2.7520762682,229.129074097,-3.83266890049,229.516296387,-0.708194553852,229.985916138,0.360961273313,230.128143311,-0.667168602347,229.443649292,-2.69849216938,228.573852539,-1.6701529026,228.741783142,-2.6393340826,228.018493652,-3.70245337486,228.389968872,-0.631951779127,228.903327942,0.417891204357,229.060043335,-0.591665357351,228.360626221,-2.58454352617,227.466842651,-1.57540011406,227.645645142,-2.52616649866,226.913108826,-3.56852924824,227.281677246,-0.556128054857,227.81993866,0.474428549409,227.991142273,-0.513034567237,227.276641846,-0.32525228709,261.199150085,0.00410818413366,261.138565063,-0.275039546192,261.158500671,-0.632219150662,261.297431946,-0.354538075626,261.23840332,-0.233257323503,261.127990723,0.00408721959684,261.074478149,-0.463630467653,261.220985413,-0.95462796092,261.399559021,-0.824962288141,261.351745605,-1.26095849276,261.474060059,-1.05980828404,261.447349548,-0.702601522207,261.318214417,-0.929440408945,261.390380859,-1.58250689507,261.509124756,-1.3735871315,261.460716248,-1.88876116276,261.525512695,-1.76417952776,261.562728882,-1.16911071539,261.425033569,-1.39363905787,261.44178772,-2.2096901536,261.546867371,-1.92132103443,261.499649048,-2.59767758846,261.425765991,-2.46791929007,261.598526001,-1.63355970383,261.465545654,-1.91666132212,261.348953247,-3.16209626198,261.019065857,-2.74475902319,260.995536804,-3.77209532261,260.424751282,-3.52783584595,261.058227539,-2.33541816473,260.951545715,-2.77843362093,260.384284973,-4.41526293755,259.665344238,-3.83046126366,259.672622681,-4.99430286884,258.843109131,-4.93790853024,259.678779602,-3.24660015106,259.637718201,-3.66711473465,258.836769104,-5.53537738323,257.94039917,-4.79947757721,257.966835022,-6.00458621979,256.957420349,-6.20649576187,257.925430298,-4.05904376507,257.949119568,-4.39549005032,256.995506287,-6.47214961052,255.795387268,-5.60971105099,255.8516922,-6.8955552578,254.422439575,-7.26897382736,255.748283386,-4.73206150532,255.857391357,-5.03271067142,254.534912109,-7.31224822998,252.699829102,-6.33173561096,252.819351196,-7.62011003494,250.774932861,-8.21344685555,252.588867188,-5.32818818092,252.876068115,-5.54236292839,250.994178772,-7.80938959122,248.675422668,-6.76882767677,248.796020508,-7.92527675629,246.523292542,-8.79709267616,248.516143799,-5.66818320751,248.856834412,-5.74980354309,246.647850037,-7.9883852005,244.426391602,-6.91213989258,244.489952087,-8.04589176178,242.477325439,-9.00933122635,244.30645752,-5.77540397644,244.501464844,-5.79989218712,242.545051575,-8.10557556152,240.779296875,-7.00366902351,240.859588623,-8.10683584213,239.292411804,-9.11088109016,240.648719788,-5.86118638515,240.905845642,-5.89894902706,239.474235535,-8.0525135994,238.016326904,-7.01484632492,238.096138,-7.99442911148,236.877044678,-9.05663967133,237.91003418,-5.91123819351,238.186981201,-5.84079945087,237.058479309,-7.87518453598,235.834831238,-6.82913732529,235.932655334,-7.66531920433,234.821388245,-8.78385972977,235.720161438,-5.72868525982,236.061058044,-5.60062837601,235.092224121,-7.47552108765,233.781784058,-6.4966506958,233.94694519,-7.29149365425,232.722496033,-8.3637034893,233.586044312,-5.46302425861,234.094779968,-5.31299579144,233.070716858,-7.13574314117,231.671722412,-6.18772244453,231.87437439,-6.99563956261,230.73664856,-7.99681091309,231.441719055,-5.18699634075,232.056472778,-5.07125008106,231.149139404,-6.89127087593,230.036132812,-5.96633899212,230.263183594,-6.79869604111,229.451202393,-7.73570036888,229.782234192,-4.98615252972,230.467483521,-4.91013550758,229.895027161,-6.70896649361,228.868560791,-5.80008602142,229.108268738,-6.61531877518,228.285095215,-7.5397875309,228.601043701,-4.8377802372,229.325820923,-4.76125967503,228.754371643,-6.52576375008,227.703666687,-5.63251662254,227.956031799,-6.42935800552,227.158721924,-7.34253287315,227.43624115,-4.68845200539,228.186286926,-4.60805869102,227.627792358,-6.32869720459,226.688667297,-5.46244812012,226.893676758,-6.28357672691,226.232620239,-7.16547560692,226.465370178,-4.52386808395,227.096305847,-4.47150886059,226.562393188,-0.461627796292,261.37902832,0.00417920749169,261.305122375,-0.422467455268,261.328697205,-0.901798903942,261.495552063,-0.479609683156,261.428352356,-0.394447535276,261.284225464,0.0041354916757,261.217597961,-0.776788830757,261.392120361,-1.35923695564,261.610977173,-1.26248270273,261.552017212,-1.79916805029,261.694381714,-1.42824116349,261.672157288,-1.17152926326,261.500450134,-1.55249673128,261.57989502,-2.25605553389,261.732788086,-2.10177129507,261.671951294,-2.69579601288,261.747161865,-2.37631952763,261.802185059,-1.94739639759,261.616950989,-2.32725834846,261.631988525,-3.15226256847,261.76222229,-2.94044673443,261.702804565,-3.71103966236,261.60962677,-3.32392001152,261.832946777,-2.72225010395,261.650230408,-3.20267415047,261.514709473,-4.52364635468,261.124511719,-4.20761239529,261.111763,-5.40558850765,260.449447632,-4.76279497147,261.174888611,-3.90082347393,261.073562622,-4.6565912962,260.445877075,-6.33885240555,259.623825073,-5.90217804909,259.659553528,-7.18815565109,258.74672699,-6.68960523605,259.630760193,-5.45876204967,259.655845642,-6.18434858322,258.808158875,-7.96782016754,257.78629303,-7.42912387848,257.848960876,-8.65936517715,256.732223511,-8.42115068436,257.755577087,-6.85670685768,257.878486633,-7.44759821892,256.864334106,-9.33635473251,255.483375549,-8.70627379417,255.595687866,-9.95330142975,253.999488831,-9.8725540638,255.406036377,-8.02974057198,255.663299561,-8.55755639076,254.239105225,-10.5480144024,252.127326965,-9.8394305706,252.307846069,-11.0124099255,250.056770325,-11.1606488228,251.965507507,-9.07142329216,252.438148499,-9.4663374424,250.447906494,-11.2999813557,247.898963928,-10.5471088886,248.127960205,-11.4596235752,245.750244141,-11.9645648003,247.666099548,-9.7145884037,248.325233459,-9.85357117653,246.196266174,-11.5489890575,243.704772949,-10.7897772789,243.924247742,-11.5942797661,241.795944214,-12.2221283913,243.468566895,-9.94145321846,244.133857727,-9.99659228325,242.205757141,-11.6079068184,240.113456726,-10.8636724949,240.309402466,-11.5675470829,238.635543823,-12.2594761848,239.901603699,-10.0270035267,240.49118042,-10.0225560665,239.006126404,-11.438990593,237.377288818,-10.7358427048,237.583992004,-11.233825922,236.220932007,-12.0347099304,237.13861084,-9.95040678978,237.77394104,-9.80688643456,236.650909424,-10.9970383644,235.079292297,-10.3439025879,235.331176758,-10.738077879,233.945457458,-11.555308342,234.794952393,-9.61234116554,235.554473877,-9.38093805313,234.457397461,-10.493919611,232.819519043,-9.8652305603,233.108848572,-10.263127327,231.69568634,-11.0363645554,232.494781494,-9.16206908226,233.36819458,-8.95107150078,232.27306366,-10.0623679161,230.577072144,-9.45092725754,230.899749756,-9.88903856277,229.589035034,-10.5932600498,230.219833374,-8.76940083504,231.189193726,-8.61000108719,230.223976135,-9.75808095932,228.853660583,-9.15697646141,229.195083618,-9.6486697197,228.242523193,-10.2892184258,228.473144531,-8.48937249184,229.502998352,-8.38336014748,228.904724121,-9.54516863823,227.634407043,-8.94465780258,227.985694885,-9.43872714043,227.076644897,-10.0756881237,227.284309387,-8.28268790245,228.306152344,-8.17757034302,227.723236084,-9.3245973587,226.625038147,-8.73941016197,226.884590149,-9.2704102993,226.205314636,-9.89924383163,226.345207214,-8.07070326805,227.164741516,-7.98753261566,226.655639648,-9.204641819,225.850799561,-8.58585619926,226.044113159,-9.12837052345,225.525306702,-9.75358915329,225.650802612,-7.90031218529,226.254776001,-7.84612369537,225.89289093,-0.542464077473,261.601478577,0.00432164012454,261.441810608,-0.520111441612,261.545333862,-1.06259527802,261.747940063,-0.543798923492,261.645057678,-0.513249412179,261.489852905,0.00444550998509,261.345863342,-0.998903810978,261.620201111,-1.59993624687,261.88986969,-1.54918277264,261.820220947,-2.12031644583,261.995521545,-1.62231624126,261.945808411,-1.50518131256,261.748329163,-1.99119150639,261.841117859,-2.65703809261,262.051643372,-2.57779973745,261.972793579,-3.17740488052,262.078857422,-2.70043605566,262.119026184,-2.49661016464,261.886665344,-2.98284369707,261.905593872,-3.71357703209,262.102958679,-3.60594570637,262.016853333,-4.37687265873,261.926078796,-3.77804124355,262.177940369,-3.48757481575,261.922988892,-4.10606682301,261.755310059,-5.34033572674,261.354400635,-5.17260181904,261.302970886,-6.39432692528,260.581626892,-5.42467546463,261.429016113,-5.00540864468,261.222885132,-5.99144268036,260.491424561,-7.49762248993,259.690475464,-7.27086424828,259.674728394,-8.50384926796,258.756752014,-7.62733912468,259.737213135,-7.02485775948,259.631446838,-7.96863913536,258.723861694,-9.42151880264,257.729095459,-9.15192675591,257.737815857,-10.2462980747,256.587478638,-9.59985136986,257.737564087,-8.8295173645,257.730789185,-9.60100364685,256.631126404,-11.0469553471,255.2318573,-10.7320511341,255.29271698,-11.7889552116,253.600845337,-11.2594356537,255.191825867,-10.3507397175,255.330436707,-11.0407505035,253.774635315,-12.5052051544,251.526237488,-12.1436905861,251.685539246,-13.063726902,249.289672852,-12.752374649,251.399368286,-11.7023842335,251.812568665,-12.2232141495,249.659362793,-13.3976998329,247.010856628,-13.018465519,247.245323181,-13.5686001778,244.835678101,-13.6665802002,246.789047241,-12.5409779549,247.454956055,-12.7106051445,245.293991089,-13.6554794312,242.812156677,-13.2805767059,243.052047729,-13.6579399109,240.958351135,-13.9232325554,242.570640564,-12.7984499931,243.265068054,-12.827794075,241.38835144,-13.5712180138,239.222991943,-13.239880085,239.483345032,-13.4090251923,237.658470154,-13.7910747528,238.940551758,-12.8062591553,239.708976746,-12.7092075348,238.199569702,-13.2016839981,236.284744263,-12.9165458679,236.608177185,-12.9568991661,235.013626099,-13.384999752,235.924255371,-12.5312561989,236.883338928,-12.2908916473,235.679260254,-12.6949324608,233.763748169,-12.4080791473,234.143943787,-12.4249420166,232.53666687,-12.8891587257,233.352676392,-12.029791832,234.481246948,-11.7570397854,233.304290771,-12.1665887833,231.342842102,-11.8744053841,231.756637573,-11.931589365,230.154144287,-12.3757224083,230.900390625,-11.4988954067,232.138114929,-11.2587225437,230.98274231,-11.7389266491,228.965446472,-11.4304339886,229.409179688,-11.5829808712,227.955505371,-11.9716100693,228.541465759,-11.0506904125,229.823387146,-10.8773982525,228.808982849,-11.4628872871,227.301818848,-11.1434762478,227.650634766,-11.3923723698,226.806335449,-11.7327575684,226.948516846,-10.7521090508,228.055206299,-10.645673275,227.475746155,-11.3172183037,226.388877869,-10.9659991264,226.654907227,-11.2372312546,226.014770508,-11.5770392418,226.134315491,-10.5317902565,226.975914001,-10.4677405357,226.499382019,-11.1572463512,225.640983582,-10.8135330677,225.890785217,-11.0719070435,225.272438049,-11.4109117985,225.359138489,-10.3971755505,226.111839294,-10.3172843456,225.770874023,-10.9858832359,224.899291992,-10.6492030621,225.179512024,-10.8945593834,224.531707764,-11.2322666645,224.583206177,-10.2390375137,225.427276611,-10.1548240185,225.086105347,-0.562487751245,261.686553955,0.00419107347261,261.513381958,-0.553059473634,261.698776245,-1.09732005,261.844642639,-0.54588572681,261.646339417,-0.558126702905,261.684654236,0.00417846359778,261.513427734,-1.09534567595,261.84274292,-1.65223038197,261.998382568,-1.64800590277,262.014770508,-2.18792760372,262.114402771,-1.62398797274,261.94972229,-1.64867055416,261.995201111,-2.18620669842,262.110900879,-2.74230104685,262.180206299,-2.74272465706,262.201583862,-3.27798342705,262.216346741,-2.7019802928,262.125801086,-2.73896080256,262.175857544,-3.27644562721,262.211151123,-3.83146262169,262.24887085,-3.83683741093,262.27281189,-4.51550209522,262.067550659,-3.77931118011,262.188674927,-3.82863557339,262.242416382,-4.51443886757,262.062492371,-5.51154327393,261.46598053,-5.5098720789,261.507339478,-6.60003662109,260.651161194,-5.42415225506,261.42741394,-5.51010239124,261.467536926,-6.59857392311,260.665855408,-7.74159550667,259.70489502,-7.74834752083,259.76385498,-8.77673578262,258.713516235,-7.62882113457,259.663101196,-7.73710441589,259.746070862,-8.77522945404,258.782249451,-9.72217512131,257.609642029,-9.7509598732,257.692245483,-10.574583292,256.375076294,-9.60087776184,257.528892517,-9.72158074379,257.716049194,-10.5741641521,256.526802063,-11.3981573582,254.901672363,-11.4374670982,255.034584045,-12.1721076965,253.100852966,-11.2618467808,254.769630432,-11.4009175301,255.109634399,-12.1708073616,253.397232056,-12.9135217667,250.798965454,-12.9595298767,251.046066284,-13.4884829521,248.35068512,-12.7554016113,250.578094482,-12.915813446,251.208000183,-13.4942936897,248.874206543,-13.8045186996,245.926895142,-13.8761773109,246.259483337,-13.9464969635,243.678520203,-13.6168413162,245.607398987,-13.8305854797,246.519561768,-13.9967508316,244.312728882,-14.0057487488,241.629638672,-14.1108512878,241.990127563,-13.9568238258,239.740699768,-13.7779355049,241.272651672,-14.0795445442,242.283348083,-14.056388855,240.421531677,-13.7720732689,237.89213562,-13.9056215286,238.279426575,-13.5401844978,236.187171936,-13.5311980247,237.49822998,-13.9068660736,238.616249084,-13.6937141418,236.976676941,-13.3458623886,234.728096008,-13.4664001465,235.140335083,-13.152926445,233.377510071,-13.1324386597,234.30670166,-13.4773850441,235.544723511,-13.2475304604,234.221672058,-12.9368934631,232.079360962,-13.0168004036,232.498100281,-12.7124333382,230.797828674,-12.7687082291,231.660804749,-13.0000648499,232.931671143,-12.7471532822,231.668495178,-12.5093178749,229.576904297,-12.5554218292,230.003677368,-12.3244314194,228.422218323,-12.3746666908,229.168968201,-12.5093450546,230.455970764,-12.2972002029,229.284873962,-12.164311409,227.398590088,-12.1993732452,227.792381287,-12.0272927284,226.543006897,-12.0246362686,226.986602783,-12.1286816597,228.18523407,-12.0021986961,227.234046936,-11.9226601124,225.957458496,-11.9731771946,226.338340759,-11.8356921673,225.512878418,-11.7752580643,225.542655945,-11.9075553417,226.648338318,-11.8250405788,226.244155884,-11.7474660873,225.065322876,-11.8005237579,225.488273621,-11.6590662003,224.621887207,-11.6024801731,224.611701965,-11.7420837879,225.839172363,-11.6550300121,225.433776855,-11.5678002834,224.174285889,-11.6195003986,224.636398315,-11.4756188393,223.730278015,-11.4283854961,223.684524536,-11.5671536922,225.027122498,-11.4750072956,224.620742798,-11.3810920715,223.281578064,-11.430180788,223.781845093,-11.2868964672,222.838874817,-11.2477319241,222.757072449,-11.381459713,224.212120056,-11.2842400074,223.805671692,-0.512718424201,261.486282349,0.00450934551191,261.341697693,-0.520962506533,261.543891907,-0.998549938202,261.617958069,-0.477244645357,261.406036377,-0.546499058604,261.602348328,0.0043599967612,261.440643311,-1.06437787414,261.749450684,-1.50441724062,261.748008728,-1.54976266623,261.821594238,-1.99082887173,261.843269348,-1.42614546418,261.65675354,-1.60310357809,261.893371582,-2.12181258202,262.00037384,-2.49601525068,261.890853882,-2.578350842,261.977737427,-2.9824937582,261.912414551,-2.37472558022,261.795295715,-2.659907341,262.058052063,-3.17868053913,262.08732605,-3.48686313629,261.93372345,-3.60632121563,262.027244568,-4.10644304752,261.761009216,-3.32265079021,261.83631134,-3.71586191654,262.114151001,-4.37657189369,261.935050964,-5.00771784782,261.204208374,-5.1722663641,261.291595459,-5.9927290678,260.417175293,-4.76542282104,261.144104004,-5.33689892292,261.350257874,-6.39354586601,260.539604187,-7.02821230888,259.446144104,-7.27218961716,259.528701782,-7.97131991386,258.399215698,-6.69221878052,259.411468506,-7.49819612503,259.578666687,-8.50429773331,258.557167053,-8.83382892609,257.227775574,-9.15471839905,257.331184387,-9.60609269142,255.914520264,-8.42637848854,257.17124176,-9.42024207115,257.420654297,-10.2481656075,256.141273499,-10.3528268337,254.330886841,-10.7382481098,254.473709106,-11.0501310825,252.376098633,-9.8819732666,254.236221313,-11.0452737808,254.61227417,-11.7953052521,252.726860046,-11.6989610195,249.868812561,-12.1493339539,250.094238281,-12.1985507011,247.173088074,-11.1645569801,249.679115295,-12.5042366982,250.311035156,-13.0478367805,247.746528625,-12.4254355431,244.620323181,-12.9218530655,244.947166443,-12.4940629005,242.308822632,-11.8451900482,244.322387695,-13.3208355904,245.259681702,-13.4191560745,242.976493835,-12.5036673546,240.280632019,-13.0086951256,240.578430176,-12.4447131157,238.376266479,-11.9210121632,239.964820862,-13.4389157295,240.909942627,-13.3713297844,238.997108459,-12.3343291283,236.5756073,-12.7980809212,236.812843323,-12.1945052147,234.88433075,-11.7937467098,236.349906921,-13.2039942741,237.140670776,-13.0047011375,235.413574219,-12.0945096016,233.470367432,-12.5057988167,233.660705566,-11.9879765511,232.169586182,-11.6089904308,233.356819153,-12.8544945717,233.956306458,-12.7083692551,232.616317749,-11.8586304188,230.856376648,-12.2334094048,231.02671051,-11.6999788284,229.568641663,-11.4154894352,230.790298462,-12.5357151031,231.30770874,-12.3496799469,230.034484863,-11.5033929348,228.356048584,-11.8714292049,228.549751282,-11.3018689156,227.191520691,-11.0702018738,228.269714355,-12.1647562981,228.832557678,-11.9752743244,227.679016113,-11.1116044521,226.029853821,-11.4915447235,226.292953491,-10.9720215797,225.055389404,-10.6791472435,225.863800049,-11.7924349308,226.604301453,-11.649620533,225.730636597,-10.8753511906,224.385681152,-11.2448365688,224.719345093,-10.805403471,223.876327515,-10.4475774765,224.138237,-11.5460207462,225.116134644,-11.4644207954,224.635025024,-10.7299189568,223.362304688,-11.0906517506,223.727531433,-10.6568112373,222.85446167,-10.3099286556,223.085952759,-11.3813602924,224.153343201,-11.2994234562,223.67502594,-10.5782761574,222.341720581,-10.9310231209,222.738876343,-10.5020356178,221.835548401,-10.1663732529,222.036346436,-11.2142093182,223.194648743,-11.1289644241,222.717041016,-10.4204878807,221.324272156,-10.7650229931,221.752876282,-10.3437366486,220.822563171,-10.0169699192,220.989761353,-11.0406324863,222.23739624,-10.95357728,221.761528015,-0.394078239799,261.07926178,0.00502090598457,261.006088257,-0.419836118817,261.186813354,-0.776023417711,261.203201294,-0.352566830814,260.973220825,-0.452847495675,261.303771973,0.00445173773915,261.228538513,-0.897553056479,261.428283691,-1.17061749101,261.330413818,-1.26008820534,261.437210083,-1.5516500473,261.427894592,-1.05814111233,261.224441528,-1.35174715519,261.552268982,-1.79573071003,261.645309448,-1.94642114639,261.48323822,-2.09986174107,261.585823059,-2.32639878988,261.515922546,-1.7629750371,261.38369751,-2.2503874898,261.693099976,-2.6931874752,261.715713501,-2.72106707096,261.554260254,-2.9388769269,261.646018982,-3.20231580734,261.419746399,-2.46700447798,261.464630127,-3.14801323414,261.741508484,-3.71201562881,261.582847595,-3.90270888805,260.943077087,-4.20995020866,261.017738342,-4.65639531612,260.238922119,-3.52806866169,260.899909973,-4.53224551678,261.059829712,-5.40895092487,260.314704895,-5.45792984962,259.303207397,-5.90344977379,259.347038269,-6.18408465385,258.271957397,-4.93654847145,259.306480408,-6.34478831291,259.348526001,-7.19212818146,258.299240112,-6.856746912,257.106422424,-7.432710886,257.121391296,-7.45095419884,255.790145874,-6.20626544952,257.137916565,-7.97553634644,257.111274719,-8.66639184952,255.787376404,-8.03528523445,254.164718628,-8.71554994583,254.169204712,-8.55947542191,252.107872009,-7.2674639225,254.231803894,-9.34351015091,254.161605835,-9.96170210838,252.156166077,-9.04471135139,249.325263977,-9.83578777313,249.423660278,-9.44444561005,246.32762146,-8.20716333389,249.328125,-10.5348601341,249.536842346,-10.9834785461,246.698638916,-9.64644527435,243.545036316,-10.4520635605,243.792640686,-9.75740718842,241.127288818,-8.78473448753,243.456619263,-11.1795108318,244.04045105,-11.2506637573,241.688941956,-9.83011078835,239.224983215,-10.5752577782,239.447616577,-9.83543515205,237.579048157,-9.02316141129,238.973922729,-11.2845768929,239.718612671,-11.2581939697,237.911911011,-9.83203196526,236.035697937,-10.5372977257,236.097015381,-9.79127812386,234.627296448,-9.0582690239,235.969024658,-11.2046170235,236.218917847,-11.1193270683,234.644325256,-9.78359699249,233.457504272,-10.4468994141,233.36416626,-9.73971819878,232.365623474,-9.04788136482,233.579040527,-11.0676898956,233.33001709,-10.9946815968,232.10785675,-9.69268727303,231.193725586,-10.3246414661,230.969169617,-9.56910824776,229.954582214,-8.99398112297,231.475341797,-10.9059641361,230.833854675,-10.7656953335,229.544242859,-9.37846040726,228.636154175,-10.0078303814,228.409950256,-9.19482064247,227.216560364,-8.75498485565,228.851898193,-10.564609766,228.290794373,-10.361743927,227.039978027,-9.00788927078,225.801979065,-9.62544322014,225.76373291,-8.88509988785,224.589134216,-8.40034461021,225.845947266,-10.1735136509,225.776756287,-10.0429902077,224.697143555,-8.80438399315,223.814666748,-9.40813565254,223.880104065,-8.75010180473,223.255119324,-8.18025898933,223.759803772,-9.95545721054,223.979370117,-9.89259910583,223.441520691,-8.6909301281,222.699760437,-9.28649353981,222.786231995,-8.63391423225,222.142456055,-8.07397985458,222.623176575,-9.82572555542,222.904907227,-9.7600736618,222.368225098,-8.57254242897,221.589363098,-9.15956425667,221.695083618,-8.51282572746,221.034484863,-7.96317100525,221.493598938,-9.69039487839,221.832756042,-9.62196993828,221.297492981,-8.44928455353,220.483909607,-9.02739930153,220.60697937,-8.38853287697,219.929351807,-7.84787321091,220.371391296,-9.54951238632,220.76335144,-9.48035502434,220.229141235,-0.229447111487,260.725250244,0.00589788216166,260.657524109,-0.271989628673,260.794647217,-0.461246654391,260.850448608,-0.183511119336,260.665786743,-0.320182487369,260.881278992,0.00550941762049,260.811195374,-0.629365637898,261.003845215,-0.700289234519,260.982398987,-0.822752058506,261.046760559,-0.928017318249,261.087776184,-0.562565401196,260.926231384,-0.950974971056,261.132453918,-1.2589584589,261.233024597,-1.16865715384,261.155914307,-1.37234500051,261.215332031,-1.39307060838,261.203636169,-0.939833879471,261.105697632,-1.58044821024,261.294296265,-1.88751518726,261.335426331,-1.63424634933,261.261405945,-1.92073130608,261.313522339,-1.91528946161,261.158821106,-1.31564792991,261.216522217,-2.20871776342,261.384498596,-2.59723305702,261.270744324,-2.33131974936,260.740516663,-2.74336946011,260.7970047,-2.77565073967,260.113540649,-1.87696444988,260.727127075,-3.1629152298,260.833396912,-3.77106320858,260.169296265,-3.24239730835,259.252693176,-3.82785737514,259.281646729,-3.66423046589,258.300636292,-2.61562711,259.275489807,-4.41274344921,259.271484375,-4.99234735966,258.274589539,-4.05651426315,257.219787598,-4.79706931114,257.199256897,-4.37350952625,255.996414185,-3.27126216888,257.296165466,-5.53343188763,257.145561218,-5.99792969227,255.86945343,-4.65316236019,254.436927795,-5.55851662159,254.372886658,-4.91890847683,252.512786865,-3.72337567806,254.609481812,-6.44828367233,254.282180786,-6.86504459381,252.230804443,-5.2790222168,249.955329895,-6.29136800766,249.707885742,-5.53795444965,247.275466919,-4.19764959812,250.33644104,-7.30298995972,249.438240051,-7.62339663506,246.477378845,-5.71390664577,244.667106628,-6.79331874847,244.149650574,-5.78574550152,242.192138672,-4.56724119186,245.305389404,-7.83509159088,243.687080383,-7.9630844593,241.027198792,-0.0452705444768,260.57283783,0.00633299304172,260.503807068,-0.0911332089454,260.588195801,-0.0924168806523,260.699272156,0.00595471914858,260.561073303,-0.140423320234,260.622413635,0.0061824680306,260.554275513,-0.282015301287,260.750724792,-0.144044894725,260.83769989,-0.284713380039,260.852554321,-0.189786829054,260.943489075,0.00432426820043,260.822135925,-0.431342974305,260.887779236,-0.568898499012,260.995674133,-0.240858636796,261.015312195,-0.476644814014,261.035316467,-0.286118924618,261.067245483,0.00321015296504,261.000045776,-0.718451187015,261.068000793,-0.853874713182,261.120071411,-0.337268538773,261.128837585,-0.6678160429,261.150215149,-0.394056469202,261.037101746,0.00240286829649,261.109611511,-1.00373375416,261.182258606,-1.17415300012,261.088005066,-0.480126410723,260.645782471,-0.952180624008,260.678901672,-0.569232434034,260.061859131,0.003954307409,260.646652222,-1.43131801486,260.687759399,-1.70043951273,260.082115173,-0.666776776314,259.274963379,-1.32547143102,259.285423279,-0.748277619481,258.416976929,0.00786904245615,259.306617737,-1.98950242996,259.260520935,-2.24231904745,258.353187561,-0.830902040005,257.464393616,-1.65500360727,257.41859436,-0.895178049803,256.423942566,0.0126600028016,257.548919678,-2.48449623585,257.337524414,-2.67075634003,256.202087402,-0.976469904184,255.155158997,-1.91529875994,255.004760742,-1.02039375901,253.607116699,0.0147991077974,255.340393066,-2.84515070915,254.785720825,-2.97980833054,253.02104187,-1.09438464046,251.546264648,-2.14124983549,251.185775757,-1.09325167537,249.413955688,0.0253570452332,251.967063904,-3.19269704819,250.690040588,-3.33926510811,248.305984497,-1.11542835832,247.31275177,-2.26668101549,246.679985046,-1.06508624554,245.379226685,0.0810558702797,248.004112244,-3.44895243645,245.935089111,-3.44651842117,243.746337891,0.151871245354,260.614311218,0.102895773947,260.582954407,0.292032815516,260.733810425,0.194849230349,260.655143738,0.0570487137884,260.570045471,0.10266770795,260.693664551,0.439644679427,260.859077454,0.293274410069,260.833854675,0.576049715281,260.954727173,0.570818424225,260.888328552,0.152472104877,260.828155518,0.197096720338,260.929916382,0.724710702896,261.013252258,0.482992842793,260.999359131,0.859353750944,261.051818848,0.945929557085,261.033210754,0.247214153409,260.997116089,0.291714392602,261.044563293,1.00844818354,261.097824097,0.672579646111,261.09450531,1.17921826243,260.999725342,1.32024970651,261.104827881,0.34198987484,261.100708008,0.399113193154,261.007759094,1.43904340267,260.616943359,0.960131406784,260.631820679,1.71169602871,260.061653137,1.88492435217,260.630836487,0.487523317337,260.622505188,0.580266997218,260.055839539,2.00172829628,259.337654114,1.34136807919,259.338043213,2.26237535477,258.564582825,2.6321977973,259.367225647,0.678105086088,259.302566528,0.768537908792,258.491020203,2.49821233749,257.720558167,1.67992311716,257.680892944,2.70605778694,256.827461243,3.29681253433,257.780960083,0.84569889307,257.598930359,0.921782255173,256.638496399,2.88571929932,255.770004272,1.95385622978,255.65625,3.04853224754,254.544708252,3.806442976,255.885910034,0.980153292418,255.481407166,1.05393782258,254.102806091,3.15008819103,253.024589539,2.17812341452,252.715438843,3.30713939667,251.465766907,4.16686320305,253.348365784,1.09180963039,252.305030823,1.18856906891,250.463378906,3.41630959511,249.880783081,2.38284623623,249.302101135,3.57496225834,248.410675049,4.47654211521,250.467796326,1.23165562749,248.624221802,1.33079239726,246.931114197,0.330250427127,260.860702515,0.282671615481,260.777893066,0.638177275658,260.961502075,0.36239567399,260.949645996,0.240291416645,260.711494446,0.470768451691,260.821540833,0.95814076066,261.062553406,0.830450087786,260.988372803,1.26506960392,261.134147644,1.06510752439,261.144104004,0.708150699735,260.933921814,0.934770047665,261.018608093,1.58567690849,261.164176941,1.37795117497,261.105262756,1.89213109016,261.173744202,1.76792567968,261.234695435,1.17457419634,261.064064026,1.39824986458,261.089149475,2.21269798279,261.187316895,1.92495596409,261.145500183,2.60222053528,261.059738159,2.47076278925,261.239822388,1.6387937665,261.120643616,1.92022007704,261.010437012,3.17243385315,260.649742126,2.75160348415,260.644775391,3.78306162357,260.079139709,3.53599226475,260.684989929,2.33921921253,260.618087769,2.78742653131,260.066436768,4.42751991749,259.364730835,3.84486794472,259.379379272,5.00799179077,258.623657227,4.94732809067,259.384162903,3.25712907314,259.351066589,3.6858716011,258.606056213,5.54544711113,257.824104309,4.81897222996,257.828338623,5.99009943008,256.999145508,6.20842194557,257.843559265,4.07495927811,257.787872314,4.40602684021,256.940757751,6.37869143486,256.055351257,5.55120563507,256.022666931,6.73273015022,255.050811768,7.16438698769,256.089752197,4.69098436832,255.94354248,4.94612896442,254.848205566,7.08932948112,253.93913269,6.16972374916,253.777610779,7.42141699791,252.7604599,7.9744477272,253.987358093,5.16747951508,253.559051514,5.39364874363,252.251403809,7.62697434425,251.570663452,6.66811680794,251.308937073,7.75925302505,250.313323975,8.50078225136,251.585472107,5.5611948967,250.914756775,5.78352034092,249.64704895,0.460868284106,261.269073486,0.42863599956,261.1561203,0.90447896719,261.357170105,0.485127210617,261.365020752,0.403189212084,261.051612854,0.783966511488,261.146598816,1.35725024343,261.437988281,1.26618996263,261.334465027,1.80024683475,261.485710144,1.43141314387,261.529655457,1.17701992393,261.23815155,1.55702286959,261.298278809,2.25418996811,261.486373901,2.10407459736,261.398208618,2.69651806355,261.461265564,2.3781915307,261.569732666,1.95096981525,261.313980103,2.3304618001,261.306655884,3.15103518963,261.435195923,2.94208484888,261.366188049,3.71463060379,261.250831604,3.32508516312,261.505027771,2.7247851491,261.300590515,3.206807971,261.146530151,4.5354155302,260.752784729,4.2147603035,260.740585327,5.40960967541,260.110656738,4.76541996002,260.804374695,3.91025161743,260.697463989,4.66455852985,260.094932556,6.34074425697,259.359809875,5.90360105038,259.381736755,7.17548131943,258.605781555,6.68016529083,259.381690979,5.46532130241,259.365715027,6.1839838028,258.62134552,7.94501137733,257.802200317,7.41204500198,257.833969116,8.60259318352,256.947555542,8.38602876663,257.794326782,6.84846138954,257.828613281,7.40891003609,257.008415222,9.21255397797,255.946655273,8.58291935921,256.03250885,9.74009442329,254.826576233,9.74406552315,255.884902954,7.91484117508,256.069610596,8.35227298737,255.040924072,10.2513899803,253.524055481,9.52512216568,253.729476929,10.6564979553,252.128883362,10.8849513531,253.345207214,8.79828572273,253.881797791,9.13397240639,252.66822052,10.9841973782,250.665939331,10.1831917763,251.03276825,11.2227122784,249.13634491,11.6920917034,250.337036133,9.37258028984,251.362884521,9.54164457321,249.965927124,11.4458248615,247.494644165,10.653591156,247.941146851,11.6285476685,245.812957764,12.1472253799,247.071372986,9.77968597412,248.417541504,8.80762052536,248.928886414,9.9691464901,246.813056946,11.7376441956,244.23765564,10.9915938377,244.697662354,11.7623956203,242.907875061,12.3696269989,243.831848145,10.1073410511,245.206878662,9.23140668869,245.647911072,10.2271521091,243.707359314,11.684189558,242.033065796,11.0208878517,242.313308716,11.6112184525,241.347312927,12.3187394142,241.736160278,10.2066221237,242.608383179,9.39180779457,242.879585266,10.1548504829,241.744560242,11.4504868984,240.716423035,10.7867574692,240.865127563,11.2514312267,240.120941162,12.0474944115,240.566047668,10.0310676098,241.013122559,9.26727962494,241.123168945,9.87917017937,240.312057495,11.0197355747,239.51978302,10.3783736229,239.592750549,10.8047983646,238.934669495,11.6269955635,239.41557312,9.66729068756,239.614494324,8.97705674171,239.634933472,9.43890666962,238.940597534,10.5681402683,238.344726562,9.89034533501,238.340377808,10.3922581673,237.855766296,11.2153880596,238.305747986,9.12607884407,238.261802673,8.39624547958,238.196159363,8.84848451614,237.695915222,10.2372951508,237.495231628,9.46597766876,237.42237854,10.10592556,237.20526123,10.9187214375,237.481658936,8.57046890259,237.260604858,7.72413754463,237.107093811,8.37984824181,236.937721252,9.95528912544,236.908378601,9.12447452545,236.809158325,9.79980254173,236.613716125,10.6774442196,236.90700531,8.14189338684,236.603645325,7.15506219864,236.379089355,7.91581463814,236.288703918,9.59919548035,236.307106018,8.69247865677,236.190582275,9.39543700218,236.016769409,10.4035627842,236.325141907,7.61755657196,235.95501709,6.5306661129,235.691070557,7.3361120224,235.638565063,9.09479784966,235.714027405,8.11537528038,235.570129395,8.8157851696,235.427719116,9.97428703308,235.751174927,7.01620388031,235.313095093,5.55486309528,234.75428009,6.66953086853,234.978103638,0.554259538651,261.515052795,0.00455634633545,261.395713806,0.528685927391,261.474700928,1.07067391276,261.619010925,0.553445801139,261.541969299,0.520543634892,261.432014465,0.00456893804949,261.327987671,1.00501298904,261.522605896,1.6081879735,261.71157074,1.55480396748,261.65977478,2.12552905083,261.765609741,1.62879538536,261.750228882,1.5096091032,261.603607178,1.9948258996,261.648513794,2.66286295652,261.767097473,2.58142536879,261.709098816,3.18094646931,261.740180969,2.70467877388,261.815849304,2.49931973219,261.642997742,2.98515683413,261.611618042,3.71750378609,261.705780029,3.60818696022,261.643959045,4.37597000599,261.489143372,3.78073275089,261.759658813,3.48890697956,261.575088501,4.10713255405,261.370742798,5.33072090149,260.910827637,5.16846728325,260.883636475,6.38015270233,260.178153992,5.41798532009,260.956993103,5.00528740883,260.831428528,5.98489880562,260.139404297,7.46980047226,259.402999878,7.25025057793,259.401672363,8.46517539024,258.620544434,7.60159778595,259.425338745,7.00980949402,259.377113342,7.94041228294,258.605506897,9.36331272125,257.774230957,9.10148191452,257.779266357,10.1625037193,256.850532532,9.5415995121,257.782493591,8.78483819962,257.777687073,9.52715992928,256.875686646,10.9149534702,255.785888672,10.6034123898,255.805160522,11.6153297424,254.540130615,11.1344296932,255.78314209,10.2187535763,255.829742432,10.8477480412,254.627586365,12.2923622131,253.03175354,11.9154810905,253.110626221,12.8394412994,251.407356262,12.5462994576,253.006530762,11.4523873329,253.207717896,11.9486675262,251.665283203,13.2064547539,249.710884094,12.8083662987,249.873207092,13.4370131493,248.001365662,13.4658350945,249.627891541,12.3089261055,250.074165344,12.5523204803,248.437408447,13.605714798,246.244239807,13.2248139381,246.465270996,13.7010440826,244.583335876,13.8573102951,246.100318909,12.7403826714,246.738830566,12.8600091934,245.071975708,13.7232255936,243.106864929,13.3646965027,243.313270569,13.6915025711,241.929634094,13.9771771431,242.935684204,12.9037842751,243.555519104,12.905582428,242.302436829,13.6182875633,241.15120697,13.2748718262,241.347038269,13.4941821098,240.566368103,13.8626461029,240.945396423,12.845562458,241.522911072,12.7281718254,240.971443176,13.3296632767,239.959602356,12.9890298843,240.19846344,13.1375026703,239.361328125,13.5734667778,239.692199707,12.559264183,240.39150238,12.3616805077,239.81918335,12.9406785965,238.78768158,12.5931501389,239.055358887,12.7533488274,238.234817505,13.188832283,238.476928711,12.1478962898,239.257553101,11.9495923519,238.71672821,12.5939455032,237.682296753,12.2327041626,237.974647522,12.4602971077,237.203018188,12.8515219688,237.331947327,11.7656593323,238.175788879,11.6197092533,237.712348938,12.3521990776,236.841247559,11.9791932106,237.152137756,12.2529258728,236.540245056,12.6183114052,236.455352783,11.499022007,237.364379883,11.3920855522,237.078117371,12.1518716812,236.236816406,11.7707648277,236.563545227,12.0319104195,235.941879272,12.4132146835,235.841239929,11.2793591022,236.787437439,11.1630213261,236.499343872,11.8810694218,235.660125732,11.5219531059,235.981407166,11.6937711239,235.385398865,12.1066918373,235.273246765,11.0357336998,236.20841217,10.8706476688,235.922927856,11.4753370285,235.116531372,11.132566452,235.42325592,11.2469530106,234.849128723,11.6889674664,234.743293762,10.6335260868,235.642524719,10.3884458542,235.370704651,0.565561339259,261.561264038,0.00453060097061,261.433250427,0.56042432785,261.567604065,1.10131216049,261.675018311,0.551270261407,261.539405823,0.570103526115,261.563621521,0.00454368826468,261.433044434,1.10339212418,261.678085327,1.6532946825,261.77570343,1.65254187584,261.788383484,2.18952512741,261.837547302,1.6270430088,261.743362427,1.65709984303,261.780097961,2.19132167101,261.842353821,2.7414227128,261.845741272,2.74510020018,261.864532471,3.27828526497,261.823883057,2.70313757658,261.806419373,2.74488562346,261.851074219,3.27983307838,261.829856873,3.82982969284,261.79360199,3.83790171146,261.816329956,4.5137014389,261.568359375,3.77956295013,261.748077393,3.83268964291,261.800079346,4.5140247345,261.576713562,5.50472509861,260.958206177,5.50351238251,260.995399475,6.58562779427,260.196166992,5.41988646984,260.933692932,5.5033403635,260.970726013,6.58436179161,260.213722229,7.71366906166,259.394439697,7.72189664841,259.432273865,8.73593688011,258.598251343,7.60441875458,259.374984741,7.71030950546,259.421127319,8.73448348045,258.630683899,9.66334033012,257.736099243,9.69105362892,257.772216797,10.4916558266,256.802124023,9.54371166229,257.707740784,9.66152787209,257.773864746,10.4883227348,256.843414307,11.2876474857,255.718643188,11.320497036,255.759155273,12.0181360245,254.460983276,11.1506645679,255.693031311,11.2769572735,255.766639709,12.0056018829,254.508155823,12.7115278244,252.913581848,12.7372040749,252.964302063,13.2521224022,251.246612549,12.5743360519,252.90058136,12.6970667839,252.967712402,13.2412705421,251.309074402,13.5851182938,249.473167419,13.5989041328,249.542747498,13.7903752327,247.680519104,13.4779672623,249.438011169,13.5804033279,249.564353943,13.7913022041,247.805168152,13.9612941742,245.834083557,13.9812669754,245.932296753,14.0732946396,244.084899902,13.8488073349,245.7602005,13.9658331871,245.995674133,14.080010891,244.293891907,14.1072063446,242.513946533,14.1557936668,242.65789032,14.0780596733,241.230651855,13.956404686,242.393119812,14.1175231934,242.783821106,14.0904765129,241.575805664,13.9972085953,240.285896301,14.0596747398,240.507843018,13.8740315437,239.530792236,13.8304724693,240.073654175,14.0146636963,240.729469299,13.88808918,240.063972473,13.7098460197,238.812538147,13.7680807114,239.0989151,13.5225563049,238.117973328,13.5467262268,238.53792572,13.7229523659,239.399276733,13.5323066711,238.748725891,13.3335528374,237.450141907,13.3878507614,237.777992249,13.1591420174,236.794120789,13.1775727272,237.14616394,13.3402347565,238.128890991,13.1589446068,237.528625488,13.0156774521,236.137161255,13.0639314651,236.521774292,12.8884205818,235.5703125,12.8597245216,235.791252136,13.0095491409,236.928291321,12.8851418495,236.405410767,12.7581381798,235.16860199,12.8341970444,235.568252563,12.6109285355,234.857048035,12.5610809326,234.805114746,12.7839174271,236.011940002,12.6797904968,235.698989868,12.4355220795,234.566940308,12.5581011772,234.964187622,12.2466158867,234.290611267,12.2061595917,234.198806763,12.5504822731,235.404716492,12.3914880753,235.122116089,12.0550889969,234.01171875,12.1823987961,234.426177979,11.864739418,233.732872009,11.8355813026,233.605796814,12.2033257484,234.854530334,11.9985201359,234.592391968,11.6757967472,233.448120117,11.7834613323,233.888694763,11.4889740944,233.163986206,11.4774506092,233.002189636,11.7893471718,234.327575684,11.5792393684,234.060333252,0.521036937833,261.431716919,0.00450518389698,261.332267761,0.527768835425,261.473190308,1.00535899401,261.518096924,0.487374544144,261.382507324,0.550098270178,261.512191772,0.00451759295538,261.39717865,1.06882461905,261.613632202,1.51037728786,261.595710754,1.55421924591,261.652084351,1.99526327848,261.637825012,1.43350052834,261.534851074,1.60487383604,261.703605652,2.12403094769,261.756088257,2.49992394447,261.630134583,2.58095008135,261.697677612,2.98572152853,261.596626282,2.37984108925,261.564697266,2.65994828939,261.756408691,3.17978131771,261.72807312,3.4899430275,261.557670593,3.60806429386,261.629402161,4.10727596283,261.344581604,3.32655107975,261.491157532,3.71537196636,261.692550659,4.37699854374,261.469596863,5.00396704674,260.784095764,5.16980910301,260.8438797,5.98478722572,260.061103821,4.76289367676,260.757568359,5.3364354372,260.87562561,6.38355588913,260.126747131,7.00918078423,259.260108948,7.25230336189,259.304718018,7.94149589539,258.448448181,6.67833280563,259.256744385,7.47675848007,259.32472229,8.46868300438,258.522628784,8.78680372238,257.581626892,9.10400891304,257.625617981,9.54011893272,256.64591217,8.38618540764,257.568122864,9.36847901344,257.657501221,10.1715388298,256.722312927,10.2641944885,255.563026428,10.6375172138,255.608688354,10.9300010204,254.318527222,9.79964661598,255.553665161,10.9433870316,255.639335632,11.6560091972,254.386894226,11.5624079704,252.816329956,11.9922330379,252.842903137,12.0704040527,251.152107239,11.0395345688,252.811820984,12.3408265114,252.854003906,12.8854007721,251.182983398,12.391828537,249.374885559,12.8592481613,249.387931824,12.5919971466,247.523506165,11.833283186,249.368293762,13.2299165726,249.396102905,13.4408197403,247.568389893,12.7346563339,245.639556885,13.2142381668,245.665740967,12.8162670135,243.800193787,12.1627235413,245.611724854,13.5921106339,245.697738647,13.6768126488,243.90712738,12.8245196342,242.11681366,13.3076305389,242.191383362,12.7853164673,240.662475586,12.2512307167,242.044258118,13.6843557358,242.278083801,13.6409740448,240.913398743,12.7012281418,239.539466858,13.1819543839,239.697784424,12.5920844078,238.644630432,12.1333107948,239.409347534,13.5546183586,239.877204895,13.4381074905,239.043479919,12.4458389282,237.85823822,12.9130868912,238.058555603,12.2814202309,237.124168396,11.8849389553,237.684585571,13.2807011604,238.288948059,13.1014881134,237.571884155,12.1136813164,236.388221741,12.5662136078,236.614952087,11.9422531128,235.660194397,11.5739207268,236.189048767,12.9201922417,236.869056702,12.7472906113,236.173072815,11.751749754,234.944320679,12.213244915,235.206596375,11.5683610439,234.329933167,11.2206566334,234.710609436,12.5865054131,235.484710693,12.4266171455,234.890716553,11.395648241,233.881004333,11.8578951359,234.175849915,11.2364730835,233.516578674,10.8825352192,233.601585388,12.2510004044,234.47618866,12.0729417801,234.158317566,11.0778315067,233.146774292,11.5107979774,233.49005127,10.9277408123,232.777084351,10.6062505245,232.822654724,11.8896167278,233.837036133,11.7120530605,233.51978302,10.778595686,232.401054382,11.1786954403,232.794685364,10.6382088661,232.025756836,10.3492004871,232.032646179,11.5344951153,233.194473267,11.365380764,232.871841431,10.4992425442,231.643203735,10.8653347492,232.087165833,10.3682026863,231.266052246,10.1152539253,231.231468201,11.1966912746,232.540122986,11.036192894,232.216529846,0.402057856321,261.248336792,0.430224046111,261.289558411,0.783219963312,261.320228577,0.362168043852,261.205856323,0.469369545579,261.337669373,0.908346444368,261.413589478,1.1766898334,261.388206482,1.26771658659,261.431739807,1.55669224262,261.427001953,1.06498360634,261.34526825,1.36447700858,261.482208252,1.8033914566,261.519012451,1.95095711946,261.421737671,2.10534220934,261.462226868,2.3304104805,261.395278931,1.76773989201,261.385162354,2.25959694386,261.508735657,2.69893884659,261.475296021,2.72503423691,261.369300842,2.94317185879,261.400428772,3.20577192307,261.194000244,2.4706428051,261.343025208,3.15499126911,261.439315796,3.71325016022,261.243095398,3.90594685078,260.717926025,4.21134746075,260.733055115,4.66283583641,260.073898315,3.53419160843,260.73122406,4.52524280548,260.725387573,5.40511643887,260.044029236,5.46168065071,259.293365479,5.90092885494,259.285903931,6.18330073357,258.477928162,4.94674658775,259.33367157,6.33142590523,259.248756409,7.17254447937,258.432403564,6.84634494781,257.604240417,7.41126036644,257.593070984,7.43057513237,256.671340942,6.20947265625,257.641433716,7.9392156601,257.563179016,8.61797118187,256.632064819,7.99764633179,255.587471008,8.66168832779,255.582435608,8.51549577713,254.347801208,7.25738525391,255.61807251,9.2740008831,255.550163269,9.87286877632,254.312232971,9.00950789452,252.846954346,9.75868463516,252.845123291,9.40142655373,251.190742493,8.17868900299,252.864692688,10.4406466484,252.820198059,10.8978044987,251.1612854,9.6503469944,249.387611389,10.4599900246,249.390129089,9.80968165398,247.504188538,8.76901245117,249.372642517,11.1877362728,249.379371643,11.3698990345,247.512153625,9.92201757431,245.565010071,10.7533071041,245.590713501,9.98762154579,243.661010742,9.01944565773,245.515617371,11.4990785122,245.606323242,11.5740973949,243.731231689,9.99209046364,241.869735718,10.8318457603,241.933067322,9.95912003517,240.309379578,9.08369064331,241.79045105,11.5806369781,241.992713928,11.5463941097,240.475524902,9.88511252403,239.097244263,10.7210462093,239.194358826,9.79145264626,238.117424011,8.97764825821,238.987884521,11.4671952724,239.297927856,11.3646118641,238.351203918,9.6788213253,237.276557922,10.4983892441,237.399215698,9.56373596191,236.488540649,8.78917694092,237.143852234,11.2322981358,237.536018372,11.0901618004,236.776382446,9.44282627106,235.697914124,10.2343425751,235.84728241,9.32865786552,234.895385742,8.58537125587,235.538314819,10.9432404041,236.012077332,10.7910425663,235.245643616,9.21285653114,234.100479126,9.95027661324,234.287315369,9.11856794357,233.377464294,8.41161489487,233.897781372,10.61597085,234.492828369,10.4547915459,233.828773499,9.03917098045,232.843070984,9.71050643921,233.084472656,8.97642374039,232.39995575,8.29413628578,232.608581543,10.3209650517,233.338623047,10.207531929,232.929702759,8.90989208221,231.955307007,9.53739595413,232.232025146,8.85096502304,231.509490967,8.19923257828,231.691291809,10.0959684849,232.521011353,9.99201750755,232.107467651,8.78826355934,231.060401917,9.38068056107,231.371200562,8.73577737808,230.611221313,8.10333251953,230.767799377,9.89036750793,231.693466187,9.79908514023,231.275527954,8.68422603607,230.155952454,9.25626683235,230.501335144,8.64623236656,229.709701538,8.00898456573,229.837394714,9.71577215195,230.857040405,9.64043498039,230.433242798,0.240739122033,261.106132507,0.282622307539,261.13293457,0.469978764653,261.177062988,0.193708509207,261.083747864,0.332789741457,261.1690979,0.638592392206,261.23815155,0.70766620338,261.249549866,0.830101668835,261.271499634,0.933601498604,261.297340393,0.569479420781,261.232955933,0.959690183401,261.307067871,1.26511260867,261.348747253,1.17270737886,261.306015015,1.37714731693,261.321327209,1.39677661657,261.298027039,0.944291442633,261.2996521,1.58604490757,261.349113464,1.89189147949,261.331878662,1.6363055706,261.294799805,1.92402845621,261.299331665,1.92029589415,261.153121948,1.31867301464,261.298919678,2.21244156361,261.317230225,2.60125476122,261.162483215,2.34276795387,260.729598999,2.75166356564,260.735710144,2.79028826952,260.142929077,1.88599294424,260.76285553,3.16919517517,260.722846985,3.78228807449,260.107978821,3.26478552818,259.385192871,3.84697544575,259.381942749,3.69100856781,258.583099365,2.63565605879,259.43144989,4.42702388763,259.344406128,5.00900173187,258.533317566,4.08612763882,257.704673767,4.82311320305,257.696456909,4.42849731445,256.768707275,3.30369365215,257.749031067,5.54754388332,257.658439636,6.01568770409,256.720046997,4.76597356796,255.659133911,5.63355946541,255.656455994,5.07343697548,254.383804321,3.85593795776,255.70236969,6.47386550903,255.626312256,6.8935174942,254.367485046,5.36577987671,252.81010437,6.35038232803,252.832122803,5.60378408432,251.068519592,4.34382855892,252.830726624,7.28911685944,252.840110779,7.6140396595,251.147850037,5.75110781193,249.167266846,6.81253409386,249.230895996,5.85309398174,247.196502686,4.65906107426,249.136436462,7.81533193588,249.3046875,7.95072197914,247.381095886,5.9221765995,245.195159912,7.01178717613,245.297676086,5.96187365055,243.254196167,4.79485309124,245.106719971,8.0451593399,245.415618896,8.09871411324,243.488822937,5.95501470566,241.442367554,7.05431842804,241.554199219,5.91606402397,239.865623474,4.82641768456,241.351982117,8.10166883469,241.6820755,8.06285905838,240.099266052,5.85768270493,238.637695312,6.95296239853,238.747306824,5.79594540596,237.631324768,4.71671640873,238.551681519,7.99620079994,238.870239258,7.91375827789,237.874603271,5.73945808411,236.740287781,6.81079959869,236.865898132,5.6986874342,235.892028809,4.64033746719,236.621429443,7.82515025139,237.007507324,7.74512887001,236.191383362,5.64989447594,235.045211792,6.68036341667,235.199226379,5.61355447769,234.183265686,4.58828258514,234.901359558,7.65771746635,235.37159729,7.58488512039,234.536521912,5.58435487747,233.320587158,6.58013534546,233.499755859,5.56815612316,232.543144226,4.55774331093,233.153778076,7.52468562126,233.697189331,7.48208928108,232.943572998,5.5468672514,231.958602905,6.51901745796,232.160980225,5.53225708008,231.467514038,4.54529857635,231.772888184,7.44039344788,232.379676819,7.40783500671,231.909347534,5.51070857048,230.976974487,6.46436262131,231.198532104,5.49446439743,230.483779907,4.52786672115,230.77306366,7.36842799187,231.438011169,7.3339176178,230.965026855,5.47159910202,229.991088867,6.40642976761,230.231185913,5.45374488831,229.495765686,4.50781559944,229.769645691,7.29283761978,230.490852356,7.25640964508,230.01512146,5.42959535122,229.00087738,6.34528255463,229.258804321,5.41312193871,228.50315094,4.48517167568,228.762588501,7.21370100975,229.538040161,7.17837095261,229.060180664,0.0548631213605,261.054931641,0.101001128554,261.0573349,0.100617449731,261.134788513,0.150678411126,261.068984985,0.290367431939,261.145019531,0.15036470443,261.222358704,0.291452810168,261.218605042,0.195324607193,261.282623291,0.437759712338,261.225379944,0.574269086123,261.28024292,0.245302610099,261.307342529,0.481282889843,261.300453186,0.290399774909,261.316589355,0.722169667482,261.297843933,0.857629984617,261.299606323,0.340430371463,261.332130432,0.671093344688,261.317710876,0.398687884212,261.209335327,1.00554916263,261.306884766,1.17854073644,261.176559448,0.4884288311,260.807762146,0.960473030806,260.802131653,0.581541180611,260.239723206,1.44018378854,260.76713562,1.7133153677,260.190628052,0.682754829526,259.492012024,1.34388926625,259.484939575,0.772096931934,258.694290161,2.00720912218,259.439277649,2.26749587059,258.638374329,0.857174098492,257.816596985,1.6864836216,257.805496216,0.929841578007,256.880813599,2.51242089272,257.760520935,2.72073197365,256.824050903,1.00305587053,255.768745422,1.97051864862,255.757392883,1.06992146373,254.478675842,2.92829436064,255.713676453,3.11555349827,254.425941467,1.13578274846,252.874809265,2.2238702774,252.867141724,1.18344810605,251.068565369,3.29592096806,252.828277588,3.44170296192,251.056526184,1.19924622774,249.036598206,2.3839584589,249.094070435,1.25331804156,246.933425903,3.53149688244,249.109817505,3.59462285042,247.082221985,1.2981878221,244.84311676,2.47181600332,244.928100586,1.27670994401,242.884963989,3.62765836716,245.008666992,3.67217588425,243.044540405,1.21661093831,241.17363739,2.45773762465,241.243583679,1.18773981929,239.713005066,3.68938601017,241.296180725,3.6082252264,239.779312134,1.19155704975,238.464569092,2.37188082933,238.500595093,1.17489418387,237.363441467,3.52894949913,238.520484924,3.51751971245,237.454238892,1.18302351236,236.407791138,2.35608959198,236.453956604,1.21634468436,235.512886047,3.50844490528,236.531227112,3.50345206261,235.661888123,1.24421587586,234.611526489,2.38193786144,234.690559387,1.28561747074,233.692337036,3.49171042442,234.79044342,3.49453997612,233.902427673,1.31977620721,232.77557373,2.42137241364,232.887405396,1.35925394297,231.950523376,3.49675011635,233.015075684,3.50904250145,232.215019226,1.382301718,231.326728821,2.45804017782,231.462799072,1.40523952246,230.800300598,3.51028633118,231.610656738,3.5142095089,231.101303101,1.42243158817,230.275497437,2.47889471054,230.427726746,1.44433763623,229.74810791,3.51206982136,230.592842102,3.51474058628,230.082046509,1.4604588747,229.222206116,2.49771487713,229.39025116,1.48135346174,228.694221497,3.51160740852,229.572097778,3.51301681995,229.059814453,1.49756392837,228.167976379,2.51479321718,228.350624084,1.52080017328,227.638046265,3.5088955164,228.548377991" style="fill:none; stroke:#00C; stroke-width:1.5px"/>
</svg>