<?xml version="1.0" standalone="no"?>
<!DOCTYPE svg PUBLIC "-//W3C//DTD SVG 1.1//EN"
"http://www.w3.org/Graphics/SVG/1.1/DTD/svg11.dtd">
<svg height="150" version="1.1" width="150" xmlns="http://www.w3.org/2000/svg">
<polygon points="10.7535915783,10.7462234743,10.7535842641,10.7462311651,10.753294692,10.7465356486,10.4232443484,11.0935818537,10.5850296255,10.9234654834,10.752771264,10.7470860304,10.093689163,11.4401074024,10.4171796378,11.0999588651,10.7518240415,10.74808203,9.76511919809,11.785596997,10.2501835574,11.2755543676,10.751524147,10.7483973675,9.39571139131,12.1740273682,10.0627115884,11.4726801596,10.7518260954,10.7480798703,8.78631520088,12.8148042658,9.75504436785,11.7961906282,10.7554814287,10.7442363065,8.15757327608,13.4759231017,9.43876590092,12.1287557771,10.7607467228,10.7386998774,7.64601105806,14.0138280906,9.18342526827,12.397245113,10.7675665635,10.7315288506,7.20451393634,14.4780599982,8.96596067122,12.6259079961,10.7768548651,10.7217622502,6.85306280171,14.8476090227,8.7948678162,12.8058112357,10.7874486441,10.7106229472,6.71375266071,14.9940929052,8.73872293149,12.8648472874,10.8058699344,10.6912530571,6.70676171296,15.0014438501,8.78581437135,12.8153308854,10.8209945331,10.6753496208,6.62925603389,15.0829406651,8.74760745009,12.8555052627,10.7377016795,10.7629316195,6.6525612805,15.0584353205,8.70809091989,12.897056687,10.739562674,10.7609747935,6.81092799296,14.8919135531,8.78222652816,12.8191034837,10.8019745571,10.6953490258,7.02907925407,14.6625286463,8.93405427626,12.659457403,10.8944672644,10.5980934293,7.21497452587,14.4670607432,9.0728562295,12.5135078773,10.9840756323,10.5038707005,7.33847385903,14.3372018422,9.16420853782,12.4174514043,11.0415583064,10.4434279701,7.45235770357,14.217453577,9.2474755569,12.3298965705,11.0924123671,10.3899551921,7.56715803953,14.0967416259,9.3302311005,12.2428795505,11.141487751,10.3383526833,7.67780238277,13.9803996794,9.41353318862,12.1552878418,11.1926371782,10.284569329,10.753620877,10.7461926669,10.7536034712,10.746210969,10.1338852339,11.3978414448,10.2710804308,11.2535814149,9.51689515111,12.0466032804,9.79057210944,11.7588333943,8.90058089075,12.6946544923,9.31088239153,12.2632246164,8.20646075107,13.4245181782,8.77105453839,12.8308507724,7.05402523012,14.6362980834,7.87789152981,13.7700069908,5.84506783242,15.9075104455,6.95201412965,14.7435622204,4.84323812318,16.9609291297,6.18871673495,15.5461654271,3.96316274993,17.8863237683,5.51560622968,16.2539375926,3.2427898433,18.6437921009,4.96826233275,16.8294668292,2.93416550446,18.9683089743,4.73895724261,17.0705799286,2.81137819777,19.0974191832,4.66566485655,17.1476464881,2.77113022788,19.1397397124,4.59465258342,17.2223155208,2.91320236781,18.9903516025,4.66433536471,17.1490444418,3.24747030583,18.6388706191,4.91608275292,16.8843333836,3.59885631227,18.2693900765,5.20681562608,16.5786292925,3.87806650539,17.975802023,5.44252707583,16.3307799396,4.0635184045,17.7808003239,5.59961345571,16.1656044351,4.23554575513,17.5999144671,5.745967148,16.0117142953,4.40054990703,17.4264134669,5.89319693971,15.8569029417,4.53018381484,17.2901040928,6.02142933895,15.7220672465,10.7539287657,10.7458689235,10.7536448193,10.7461674916,9.91894274952,11.6238523396,10.0156221838,11.5221944215,9.08842077136,12.4971418431,9.28057382908,12.2950939109,8.25846764725,13.3698331996,8.5461604742,13.0673257012,7.32111093366,14.3554588671,7.71811266281,13.9380136314,5.7496675565,16.0078233352,6.33775602579,15.3894513946,4.09513563655,17.7475549702,4.87998106915,16.9222941148,2.72922336781,19.183804556,3.67631502389,18.1879426475,1.52730826893,20.4476119778,2.61914106833,19.2995555164,0.541671995654,21.484003349,1.75202495273,20.2113235636,0.128190642237,21.9187768233,1.38261346683,20.5997578032,0.016555912119,22.0361601564,1.2593164068,20.7294040151,0.0739776851267,21.9757814633,1.25985809801,20.7288344296,0.41119392628,21.6212003546,1.50184627721,20.4743851286,0.865716060073,21.1432727151,1.90764062533,20.0476945001,1.29378299723,20.6931625761,2.30594773636,19.6288766622,1.62774721243,20.3420009556,2.62069099404,19.2979257777,1.8357065378,20.1233328158,2.82800216866,19.079939165,2.00691352371,19.9433095682,3.00860577489,18.8900354204,2.14518443169,19.7979184337,3.16620597864,18.7243196329,2.27951195293,19.6566737498,3.29203176595,18.5920144775,10.7537216854,10.7460866673,10.7538415967,10.7459605812,9.80538071026,11.7432622282,9.8482608141,11.6981740239,8.86104588669,12.7362253417,8.94720703978,12.6456273412,7.91726277404,13.728608334,8.04670286287,13.5925027596,6.84907401309,14.851803213,7.02845897067,14.6631808711,5.04896993915,16.7446032044,5.31526533714,16.4645949902,3.16255879991,18.7281546222,3.51680230575,18.3556694339,1.60372054586,20.3672648695,2.03143115665,19.9175294057,0.223796322451,21.818247952,0.720324261074,21.2961514291,-0.920289325989,23.0212480101,-0.36099346656,22.4331513476,-1.36520004167,23.4890692938,-0.799605534646,22.8943496365,-1.43041715822,23.5576447498,-0.890474391392,22.9898977627,-1.158026012,23.2712268884,-0.729697935846,22.8208421631,-0.759412673224,22.8520870536,-0.345640747876,22.4170080445,-0.30556436572,22.3748679389,0.125218542267,21.9219019708,0.111640566801,21.9361791408,0.563181207135,21.461386526,0.388809241609,21.6447377331,0.887765710297,21.1200876235,0.544748676471,21.4807682353,1.07166580499,20.9267176386,0.68594033335,21.3323059487,1.21464911337,20.7763714398,0.836351386724,21.1741495151,1.35396207242,20.6298845942,0.99804402058,21.0041305587,1.50140478322,20.4748493572,10.7537438818,10.7460633279,10.7536292094,10.7461839054,9.80456840829,11.7441163594,9.79039410282,11.7590205673,8.86034935947,12.7369577364,8.83154203314,12.7672484889,7.91665407595,13.7292483769,7.87322860179,13.7749100352,6.84891714183,14.8519681623,6.78836671069,14.9156366231,5.04879584648,16.7447862619,4.95907487411,16.8391273937,3.16161506737,18.729146952,3.0429759255,18.8538953873,1.60134524556,20.3697624852,1.45909149818,20.5193415544,0.218269193429,21.8240596992,0.0545820087073,21.9961759153,-0.912245994337,23.012790489,-1.10927505572,23.2199655136,-1.27818251548,23.3975708215,-1.5384986445,23.6712918657,-1.2590448469,23.3774476634,-1.57435171393,23.7089911801,-0.90129443844,23.0012749854,-1.22453567265,23.3411614477,-0.600809244837,22.6853163806,-0.852862860792,22.9503494356,-0.250599929477,22.3170731225,-0.436647375797,22.5127010364,0.0734691842468,21.9763161493,-0.0709388033209,22.1281603907,0.347207983046,21.6884812382,0.180647643107,21.863618562,0.516113564113,21.5108779057,0.341881248459,21.6940822717,0.666792018812,21.352440301,0.496539411399,21.5314600246,0.822172227952,21.1890588261,0.658839490888,21.3608023424,0.982219122507,21.020770356,0.827138252555,21.1838370773,10.7539900408,10.7458044931,10.7538865078,10.7459133574,9.91998065179,11.6227609908,9.8479685983,11.6984812873,9.08927808381,12.4962403836,8.9469750206,12.6458713081,8.25914037764,13.3691258272,8.04651561932,13.5926996452,7.32085605699,14.3557268686,7.02846554611,14.663173957,5.74868217949,16.008859454,5.3151300709,16.464737222,4.09280166761,17.7500091263,3.5152573899,18.3572939049,2.72291407425,19.190438745,2.02668932333,19.9225154186,1.51548875463,20.4600401351,0.710173030454,21.3068253948,0.562413445954,21.4621938228,-0.344979446239,22.4163126893,0.325148939334,21.711676207,-0.632869849575,22.7190279383,0.349270167033,21.6863128626,-0.579940669317,22.6633731829,0.518009170225,21.5088846859,-0.309249118401,22.378742437,0.660678736066,21.3588683857,-0.0912400120953,22.1495070053,0.884523704071,21.1234965761,0.189209495361,21.8546158193,1.23750785613,20.7523355917,0.526970558885,21.4994618327,1.52187006494,20.4533302208,0.81688995588,21.1946131075,1.66165081974,20.3063514903,0.971105372365,21.032456406,1.78476752478,20.1768949208,1.10829978649,20.8881971992,1.91303248811,20.0420249847,1.25088919456,20.7382651846,2.04506549306,19.9031929725,1.39779021415,20.583799533,10.7546679819,10.7450916415,10.754202677,10.7455809072,10.135175821,11.3964843992,10.0169991128,11.520746588,9.51794213375,12.0455023836,9.28174770211,12.2938595896,8.90140109891,12.6937920477,8.54712080191,13.0663159216,8.20690694181,13.424049011,7.71875016761,13.9373432984,7.05474383204,14.6355424772,6.33728948249,15.3899419624,5.84583246243,15.9067064411,4.87865032485,16.9236933854,4.84280163905,16.9613880905,3.67106531591,18.1934626879,3.9659025176,17.8834429169,2.61010327929,19.3090587042,3.24649588789,18.6398952144,1.77077122593,20.1916119556,2.89221793926,19.0124166191,1.52968419545,20.4451137035,2.82292968451,19.0852728555,1.49541236337,20.4811503552,2.8253356702,19.0827429742,1.5737277612,20.3988021252,2.84068588396,19.0666023049,1.64887880565,20.3197811962,2.95070869133,18.9509139001,1.82049096406,20.1393319118,3.24398406889,18.6425363789,2.16246845175,19.7797443773,3.51694508679,18.3555193004,2.43848297986,19.4895165488,3.63391156135,18.232529666,2.56481789428,19.356676049,3.72894924859,18.1325980364,2.67369344352,19.2421939801,3.8279365849,18.0285133715,2.78717743853,19.1228661546,3.79494414604,18.0632047479,2.90413952947,18.9998811295,10.7553374246,10.7443877261,10.7550494664,10.7446905125,10.4250279371,11.0917064195,10.2729053509,11.2516625209,10.0949791239,11.4387510153,9.79190301029,11.757433959,9.76599255775,11.7846786639,9.31177508612,12.2622859528,9.39670929297,12.1729780798,8.77189635158,12.8299656102,8.78779467542,12.8132486061,7.87934595505,13.7684776703,8.15922496459,13.4741863599,6.95407349559,14.741396808,7.66656996155,13.9922105114,6.20146213416,15.5327637067,7.32129880344,14.355261323,5.58013135919,16.1860897574,6.87244031738,14.8272336666,4.97353395886,16.8239237419,6.70476684898,15.0035414391,4.69940313845,17.1121708617,10.7551985777,10.7445337228,10.7555189745,10.7441968272,10.7545326579,10.745233934,10.5868021476,10.9216016858,10.7532370698,10.7465962381,10.4185539444,11.0985137889,10.7524698978,10.7474029154,10.251215119,11.274469686,10.7522828865,10.7475995568,10.0635856526,11.4717610857,10.755373965,10.744349304,9.75587318671,11.7953191295,10.7605131906,10.7389454352,9.43946242814,12.1280233824,10.7656532003,10.733540742,9.18554897961,12.3950120416,10.7733912386,10.7254042353,8.98278660212,12.608215618,10.8034345989,10.6938137995,8.81039384476,12.7894856981,10.8687530966,10.6251317418,8.7693649628,12.8326273522,11.0836175955,10.3992028484,10.9221594074,10.5689752861,11.4111573686,10.054796495,11.087839734,10.3947632918,11.7386769457,9.71041137766,11.2536604149,10.2204037156,12.1076987584,9.32238687734,11.4409483498,10.0234714346,12.7230028273,8.67539787648,11.7548811842,9.6933727059,13.3617773116,8.00372985688,12.081438007,9.3499999197,13.8754389744,7.46361731279,12.3474998202,9.07023731872,14.2614215146,7.0577586965,12.5706462257,8.83560004381,14.5415845206,6.76316876524,12.7625221755,8.6338434891,14.8238707683,6.46634625651,12.9283553028,8.45947082559,11.3722610044,10.095695818,11.2352215045,10.2397921332,11.9871470238,9.44914639386,11.7137858433,9.73658424128,12.6023982543,8.80221295228,12.1925197737,9.23319802467,13.2969562872,8.07188882404,12.7323385465,8.66558141671,14.4541640137,6.85509096966,13.6314556181,7.72016453213,15.6610225928,5.58608550428,14.5651186552,6.73842274613,16.6334203087,4.56361440671,15.3139218962,5.95106006613,17.3741733294,3.78471649104,15.882011627,5.35371669402,18.0244351117,3.10096963795,16.4050201247,4.80377600214,18.2641212598,2.84894091047,16.7525353874,4.43836552632,11.5858094949,9.8711507003,11.4896018486,9.97231253574,12.4143809933,8.99991211597,12.2226287245,9.20153862083,13.24342154,8.1281803299,12.9560936501,8.43030409895,14.1804796972,7.14286859292,13.784517201,7.55922108059,15.7477342044,5.49490869956,15.1662888106,6.10629548114,17.3858225085,3.7724674404,16.6132042676,4.58487146793,18.7128350861,2.3771206758,17.7804260798,3.35754385499,19.7939392684,1.240345299,18.688333109,2.40288437622,20.6837769819,0.304685610964,19.4149320202,1.63886943241,21.2058840177,-0.244307198523,19.8647498947,1.16588829696,21.5139967245,-0.568286093528,20.2556555625,0.754853037753,18.6545772926,2.43837844012,21.5896806929,-0.647867389304,20.4327622858,0.568626247173,18.9526408447,2.12496617857,21.4440352697,-0.494721990782,20.3271700741,0.67965590385,18.9307364804,2.14799850269,21.1223020036,-0.156421149137,20.029631305,0.9925163589,18.7606817625,2.32681014655,20.7459681424,0.239291931845,19.6371350063,1.40522415808,18.3951967551,2.71111571473,20.4268387515,0.574854812381,19.2107144347,1.85360315236,17.7872607825,3.35035720094,20.2076961642,0.805282093453,18.8977133562,2.18272214463,17.2608233482,3.90390340173,19.9856666445,1.03874496873,18.5709345339,2.52632836209,16.756106792,4.43461021314,19.7055502928,1.33328584321,18.1337903551,2.98598317312,16.1671700906,5.05387406537,19.2468649646,1.81559105978,17.5646707847,3.58440941609,15.9044824187,5.33008877447,10.7539837772,10.7458110791,10.7539947048,10.7457995889,11.7007812621,9.75025849023,11.6575823276,9.79568194327,12.6427110393,8.75982427034,12.556370314,8.85061109009,13.5851297476,7.76887594195,13.4556367422,7.90503715796,14.6503940023,6.648756166,14.4716900727,6.8366624106,16.4391591955,4.76787894829,16.1758897535,5.0447053856,18.3029959016,2.80806442855,17.9540847664,3.17494265697,19.8225361806,1.21027579586,19.4001886259,1.65437203423,21.1307498815,-0.165304048456,20.6209996676,0.370695627648,22.2250249881,-1.31592858303,21.6459539553,-0.707038429538,22.7365380469,-1.8537818812,22.1741485983,-1.26243232607,22.9681163614,-2.09728526417,22.4219939312,-1.52304039346,22.9558096381,-2.08434480921,22.4336030313,-1.53524730136,22.7786071012,-1.89801727115,22.2676000384,-1.36069602507,22.4674709433,-1.57085923323,21.9530671948,-1.02996638998,22.1367775411,-1.22313685537,21.6077788153,-0.666897470127,21.8895797328,-0.963209656625,21.3378713077,-0.383091141587,21.7116194544,-0.77608535739,21.1485455336,-0.184016083291,21.5020720031,-0.555747311555,20.9543270042,0.0202036816305,21.1727093451,-0.209424204351,20.6904958315,0.297620775768,20.7913086359,0.191616640782,20.2877487313,0.721107239067,10.7539609723,10.7458350584,10.7539724598,10.7458229794,11.6999332648,9.75115015488,11.714764958,9.73555470733,12.6420256277,8.76054497704,12.6712757005,8.72978867894,13.5845846122,7.76944914906,13.6282671548,7.7235171846,14.65063291,6.64850495576,14.7106582451,6.58538863078,16.4403321292,4.76664561468,16.5285626679,4.67387166599,18.3043548263,2.80663552629,18.421246153,2.68372490947,19.8269173039,1.20566906764,19.966688039,1.05870087286,21.1519735309,-0.187620604482,21.303953297,-0.347426531292,22.2465686424,-1.3385816225,22.3721483203,-1.47062799508,22.7365668536,-1.85381217129,22.8340449693,-1.95630989865,22.9559912456,-2.0845357685,23.1019698245,-2.23803147855,22.932783065,-2.06013248839,23.126620845,-2.26395189728,22.752575864,-1.87064556182,22.9497765131,-2.07800100995,22.4498124362,-1.55229140558,22.6389472093,-1.75116562738,22.1366798488,-1.22303413245,22.315996547,-1.41158470002,21.8863859465,-0.959851407068,22.0804854917,-1.16394606073,21.5974058984,-0.65599040235,21.8826335607,-0.955905793079,21.2741734314,-0.316113158855,21.5856540172,-0.643633360941,20.9546169499,0.0198988052492,21.241742097,-0.282011780804,20.6463883901,0.343999519111,20.8922986641,0.0854261558694,10.7539497958,10.7458468104,11.5867529926,9.87015861741,11.6572757867,9.79600426938,12.4152613198,8.99898645729,12.5562057714,8.85078410579,13.2442345465,8.12732545784,13.4556167027,7.90505822933,14.1804436888,7.14290645554,14.4721099617,6.83622089955,15.747138031,5.49553557282,16.1769023716,5.04364062295,17.3861838447,3.77208749726,17.9556321872,3.17331555213,18.7261926277,2.36307529089,19.4089633972,1.6451454082,19.8894535187,1.13991256588,20.6727734486,0.316255768408,20.8410953809,0.139266139551,21.7152979447,-0.779953270703,21.2785645745,-0.320730422755,22.1897868791,-1.27887589626,21.4677181346,-0.519624398968,22.3927288288,-1.49226829183,21.4429230806,-0.49355252976,22.364235245,-1.46230743794,21.2781124345,-0.320254999975,22.190023595,-1.27912480181,21.0206130998,-0.0494958002039,21.9048522937,-0.979268674311,20.738681926,0.246953350198,21.599364754,-0.658050128745,20.4153373634,0.586948461668,21.2879342668,-0.330582605083,20.1558165498,0.859833235864,20.9796662543,-0.00644040696234,19.9221773038,1.10550367752,20.6816402762,0.306932345765,19.7064915204,1.33229614731,20.3989068984,0.604225009438,19.5107111669,1.53815816211,20.1316884335,0.885203823547,11.3717461237,10.0962372122,11.4900514836,9.97183974688,11.9867761376,9.44953637882,12.223122822,9.20101907987,12.6021620081,8.80246136397,12.9565926009,8.42977945477,13.2965052431,8.07236309448,13.7842861212,7.55946405983,14.4538264744,6.85544589054,15.165237053,6.10740139881,15.6617286701,5.58534306773,16.613154169,4.58492414635,16.6552301119,4.54068151312,17.798832935,3.33818914337,17.5197730377,3.63161916158,18.8283800127,2.25562579163,18.2275661836,2.88737838133,19.6698813358,1.37079156444,18.5556056121,2.54244664301,20.0578637498,0.962830091296,18.6986897439,2.39199442893,20.2264668605,0.785544804782,18.6714605238,2.42062581109,20.2026825459,0.810553886777,18.5322840834,2.56696910806,20.0488303443,0.9723286697,18.3576234247,2.75062387456,19.8274608739,1.20509750674,18.1850243237,2.93211092391,19.5913229597,1.45339528482,18.0594628065,3.06413820056,19.3449411325,1.71246448373,17.9716599846,3.1564624072,19.1753066167,1.8908342873,17.8880955051,3.24433001914,19.030812209,2.04276939902,17.8042579881,3.33248472849,18.904362694,2.17573040075,17.7244308647,3.41642252996,18.812079804,2.2727653755,11.0823344448,10.4005520745,11.2345208285,10.2405288904,11.4099507749,10.0560652219,11.7130827406,9.73732355005,11.7375995908,9.71154421072,12.1918504876,9.2339017755,12.1073776576,9.32272451312,12.7320232383,8.66591296154,12.7240033904,8.67434578957,13.6320267423,7.71956399809,13.3643260783,8.00104984204,14.5669428708,6.736504593,13.8884098174,7.44997853947,15.3338288915,5.93012796494,14.3455411494,6.96930734177,16.005908931,5.22343932878,14.7225275449,6.57290812431,16.5585210098,4.64237062667,14.9001459003,6.38614335532,16.8167774597,4.37081532421,14.9787092862,6.3035343671,16.9287397095,4.25308760586,14.932505218,6.35211770251,16.8922140663,4.29149412815,14.8417071255,6.44759142045,16.77454308,4.41522455296,14.7917475403,6.50012366225,16.6577857671,4.53799425499,14.750790362,6.54318992041,16.5493510857,4.65201275378,14.7371657322,6.55751614718,16.4840055914,4.72072319819,14.7235126088,6.57187233479,16.4354017998,4.77182983013,14.7070389338,6.5891943177,16.3860459028,4.82372729691,14.6882820146,6.60891711981,16.3338456573,4.87861558124,14.6686314615,6.62957957331,16.2803296971,4.93488733268,10.9205250186,10.5706938374,11.0864412392,10.3962338018,11.2525708485,10.221549389,11.4404756224,10.0239685049,11.7554390792,9.69278608226,12.0833915396,9.34794579039,12.3526667089,9.06480436234,12.5886659125,8.81665243765,12.7845428625,8.61068885226,12.8823607094,8.50783389933,12.923411666,8.46466903374,12.8589234842,8.53247801862,12.8115563455,8.58228431657,12.8256293578,8.56748661791,12.8524653039,8.53926876139,12.8905490139,8.4992239401,12.9126295061,8.4760064184,12.9299741141,8.457768654,12.9455394388,8.44140179677,12.9609915719,8.42515395986,10.6246055793,10.8818515756,10.7535691547,10.7462470526,10.6681656495,10.8360483903,10.5012958479,11.0115111114,10.5870134326,10.9213795207,10.7084729549,10.7936654701,10.7535613925,10.7462552145,10.7532941355,10.7465362338,10.6673873059,10.8368668145,10.3710668821,11.1484461858,10.4992323527,11.0136808657,10.2508074808,11.2748983155,10.2558699452,11.2695751607,10.6225612332,10.8840011948,10.7521879542,10.7476993777,10.5825673376,10.9260545662,10.1208062875,11.4115938883,10.3317278497,11.189810972,10.0018139113,11.5367137477,9.92634912433,11.6160645753,10.5383809321,10.9725163398,10.7516281517,10.748288007,10.4986438702,11.014299652,9.87189279757,11.6733251173,10.1647910265,11.3653441659,9.72133285739,11.8316381046,9.59779031418,11.9615424408,10.4544372491,11.0607826822,10.7513606163,10.7485693191,10.4045144355,11.1132762588,9.49565099258,12.0689414016,9.91540531806,11.6275719302,9.26046925734,12.3162337626,9.10487926028,12.4798358284,10.3295976412,11.1920508751,10.753470953,10.7463503112,10.2518732504,11.2737776643,9.00903060181,12.58062019,9.58954838851,11.9702087824,8.78703583806,12.8140465196,8.45836845483,13.1596385491,10.168896451,11.3610273336,10.7580746555,10.7415095421,10.0959380817,11.4377426762,8.57908073976,13.0327102146,9.3021932575,12.2723611953,8.40394148272,13.2168682247,7.88507880148,13.7624496124,10.0279630368,11.5092180794,10.7639539841,10.7353274589,9.97146926221,11.568620987,8.22991175332,13.3998595723,9.06912576184,12.5174304444,8.0759845604,13.5617132083,7.4148159979,14.2569284836,9.91571209376,11.6272493572,10.7717629189,10.727116405,9.86721945843,11.6782391089,7.92747474923,13.7178704957,8.86938699195,12.7274547133,7.8193694661,13.8315426338,7.00508452536,14.6877589777,9.82136083574,11.7264592101,10.7830437532,10.7152546668,9.78274255794,11.7670661266,7.75995470781,13.8940169405,8.74877427801,12.8542783493,7.72051363864,13.9354890179,6.76318871546,14.942111153,9.74630724874,11.8053776631,10.7855430109,10.7126267105,9.76457586302,11.786168311,7.71781050558,13.9383313481,8.75882844257,12.843706448,7.74322427738,13.9116089004,6.7066684043,15.0015419637,9.79058252055,11.758822447,10.826356371,10.6697116764,9.80926930166,11.7391733947,7.71701268523,13.939170252,8.78041875117,12.8210043518,7.69764049253,13.959540011,6.66479692637,15.0455696031,9.81275499065,11.735508211,10.7841480533,10.7140935011,9.74448639915,11.8072922769,7.69585729517,13.9614150337,8.71803345849,12.8866021598,7.68272394486,13.9752246827,6.62391113856,15.0885607945,9.69837258667,11.8557807088,10.7261864898,10.7750397811,9.71753350414,11.8356331046,7.70953296293,13.9470351408,8.72984764981,12.8741795996,7.78626649718,13.866350232,6.71754637786,14.9901038315,9.7475536082,11.8040671227,10.764953718,10.734276244,9.78779304567,11.7617555652,7.87240761084,13.7757733029,8.85188316424,12.7458598963,7.97179604914,13.6712668813,6.91637617112,14.7810353469,9.83904079137,11.7078688295,10.8438027859,10.6513668627,9.90829029797,11.6350533365,8.05564295962,13.5831022948,9.00663620143,12.5831378894,8.13432047646,13.5003732985,7.12745914475,14.5590827073,9.96579990011,11.5745822915,10.9401116373,10.5500986107,10.0234277819,11.5139868761,8.19007240021,13.4417504431,9.12114972286,12.4627275223,8.24190348158,13.387250333,7.28057270495,14.3980846019,10.0619948652,11.4734337903,11.0144297532,10.4719535016,10.0985071227,11.4350413431,8.28879891064,13.3379400353,9.2047146721,12.3748594165,8.34045636902,13.2836224888,7.39435791786,14.2784400474,10.1299497142,11.4019796231,11.0660348233,10.417691041,10.1658694382,11.3642102217,8.38737121129,13.2342917782,9.28771992596,12.2875798275,8.43916628429,13.1798295307,7.50836638269,14.1585607447,10.1967030576,11.3317888326,11.1158790643,10.3652800831,10.2319752963,11.2947002587,8.48713742441,13.1293881284,9.37067946483,12.2003483075,8.5382486514,13.0756449414,7.6256218636,14.0352672216,10.263089507,11.2619838293,11.1653795819,10.3132305485,10.3008194347,11.2223110083,10.4652297028,11.0494344738,10.7535968658,10.7462179145,10.5091927977,11.0032075101,10.196468964,11.3320349808,10.4395889217,11.0763956206,10.5457746649,10.9647418686,10.7535785105,10.7462372149,10.3440745344,11.1768284978,9.91418823498,11.6288516867,10.0277152835,11.5094785907,9.64598462795,11.9108663726,9.82209900743,11.7256830264,10.1348466183,11.396830554,9.93624085981,11.6056634674,9.36445721761,12.2068909679,9.54737412711,12.014554797,9.09632038263,12.4888354433,9.20539616974,12.3741428253,9.72640072307,11.8263092704,9.52981793071,12.0330150454,8.81533528973,12.7842897946,9.06781302173,12.5188107838,8.47563807154,13.1414796377,8.58924621717,13.0220212685,9.31975861256,12.2538913166,9.07189277063,12.5145209492,7.98146883804,13.6610959945,8.34686288519,13.2768860706,7.4473923052,14.2226746673,7.66125042864,13.9978039723,8.7052558083,12.9000377919,8.31737954076,13.3078876526,6.88427548749,14.8147890473,7.39629078481,14.276407648,6.37730480697,15.3478660586,6.42668011716,15.2959481789,7.90748258625,13.7388921502,7.53930665729,14.1260272083,5.90357424031,15.8459912645,6.54788148976,15.1685055714,5.49276470832,16.2779553325,5.31598550464,16.4638377379,7.19615842773,14.4868457717,6.9015873749,14.7965856885,5.08339582446,16.7084045665,5.83849239,15.9144244887,4.71268866329,17.098201202,4.38574702058,17.4419786243,6.60690673136,15.1064408395,6.34367736824,15.383225134,4.34785869516,17.4818179998,5.20633342697,16.5791363224,4.07831440239,17.7652424097,3.55882627133,18.3114814546,6.08497598,15.6552482868,5.89745813951,15.8524223124,3.91259321415,17.9394973699,4.82364330479,16.9815329785,3.81112975409,18.0461856659,3.04782296591,18.8487987498,5.78729787408,15.9682552537,5.71583627905,16.043396746,3.75587599838,18.1042847002,4.69816820774,17.1134693848,3.70552689648,18.1572265167,2.86200033709,19.0441902692,5.69342216145,16.0669650731,5.67198183556,16.0895094633,3.65327154251,18.2121727473,4.61803109924,17.1977331341,3.65216812065,18.2133329896,2.77308970972,19.1376793275,5.61831651887,16.1459382623,5.58525394195,16.1807033885,3.69972923497,18.1633227274,4.60824496224,17.2080232058,3.75058433282,18.1098488588,2.82058005976,19.0877434736,5.57449432635,16.1920170679,5.63616602697,16.1271695982,3.85498732875,18.0000696562,4.77083999728,17.0370553793,4.03873211776,17.8068629744,3.05940889544,18.8366162056,5.73432611,16.0239547857,5.84644460481,15.9060627766,4.20490732465,17.632130616,5.06194422638,16.7309608094,4.36603008683,17.4627108767,3.42727108186,18.4498110462,5.96692205251,15.7793813723,6.09827747377,15.6412618358,4.50239536898,17.3193234979,5.33242223198,16.4465546053,4.62506118653,17.1903410341,3.74849897823,18.1120415982,6.20859461048,15.5252639453,6.30993470271,15.4187053699,4.71643979662,17.094256905,5.52625155783,16.2427440859,4.7974924572,17.0090304575,3.97711082887,17.8716574364,6.38444072757,15.3403626755,6.45099641632,15.2703797179,4.87605396445,16.9264234447,5.67181212652,16.0896879115,4.95804597393,16.8402092769,4.14863969834,17.6912957299,6.51434610722,15.2037678502,6.58134266373,15.1333213225,5.03645468043,16.7577629333,5.81852527633,15.935419804,5.12086144286,16.6690096653,4.32134338019,17.5096987144,6.64508844676,15.066292966,6.71547573974,14.9922810967,5.2089936631,16.576339098,5.96742648288,15.7788509664,5.24849829488,16.5348001849,4.47636350558,17.3466958657,6.78918770165,14.9147733554,6.83503012057,14.8665702923,10.3458279466,11.1749847941,10.7536590493,10.7461525288,10.3801142603,11.1389329151,9.96044201045,11.5802160844,10.3300841456,11.1915393182,10.4046467271,11.1131371549,10.7536207745,10.7461927746,10.0698929109,11.4651290367,9.55993823198,12.0013437066,9.64465012625,11.9122695942,9.17476243601,12.4063540357,9.49952251914,12.0648705118,9.72428319578,11.8285358393,9.39073221582,12.1792629451,8.77474070009,12.8269747927,8.90982220539,12.6849372984,8.38973179511,13.2318096367,8.66944516614,12.9376924943,9.04498308567,12.5428163418,8.71240002649,12.892525684,7.99007859709,13.6520428781,8.17553112243,13.4570405205,7.50084877331,14.1664654715,7.8397862148,13.8100745297,8.36657026889,13.25616386,7.94594140957,13.6984528992,6.78938183376,14.9145692265,7.06608114722,14.6236213498,6.01720915738,15.7265047453,6.57999845543,15.1347347505,7.33468609108,14.3411846603,6.67298366528,15.0369612901,5.20010241249,16.5856882014,5.58242681483,16.1836760978,4.45650629573,17.3675756177,4.89300545498,16.9085990414,5.97065377264,15.7754574881,5.3353761712,16.4434485537,3.77388143841,18.0853520745,4.24552978164,17.5894163156,3.16840843873,18.7220037576,3.37697395727,18.5026982089,4.7467018613,17.0624365027,4.22935481954,17.6064242034,2.57567927268,19.3452553666,3.12733822542,18.7651888715,2.03551982937,19.9132301878,2.10621710749,19.8388923707,3.71966785507,18.142357373,3.25754576231,18.6282763295,1.51482682676,20.4607361488,2.1352179397,19.8083981478,1.10823152713,20.8882689736,0.978442939864,21.0247409923,2.80763645793,19.101353603,2.46187464657,19.464920334,0.856452201063,21.1530136142,1.51561963725,20.4599025127,0.71667958728,21.2999837844,0.274585039646,21.7648438823,2.24452183204,19.6934656783,2.12283732098,19.8214163034,0.638436832431,21.3822556307,1.30315456825,20.6833084183,0.598783157287,21.4239512622,0.0490786765243,22.0019626402,2.04589337257,19.9023224616,1.99761710061,19.9530847083,0.586852173588,21.4364966289,1.23845659853,20.7513379941,0.622188601113,21.3993405607,0.0163793145227,22.0363458478,1.97099094246,19.9810819739,1.97488485684,19.9769875434,0.734744519401,21.2809886031,1.35037626449,20.6336550524,0.914373707694,21.0921094538,0.213170407512,21.8294210458,2.03805419275,19.910565318,2.16371152348,19.7784372939,1.12168989217,20.8741175733,1.69353420065,20.2728262825,1.34841928758,20.6357128034,0.632904067315,21.3880733042,2.3340430362,19.5993346017,2.53664494159,19.386299761,1.56218879911,20.4109352833,2.11262910319,19.8321501909,1.76425590185,20.1984627847,1.08725837077,20.9103221375,2.7282727467,19.1848041291,2.91300886194,18.9905550729,1.94002812349,20.0136392157,2.47536682816,19.4507333758,2.09178432451,19.8540683663,1.47521260428,20.5023902959,3.07206818766,18.8233050263,3.21162850859,18.6765580809,2.20644250568,19.7335058903,2.73273152289,19.1801157493,2.30223605567,19.6327794749,1.74141218867,20.2224828293,3.31724326462,18.5655047189,3.41006095725,18.467907402,2.39285504561,19.5374940823,2.91862428976,18.98465048,2.48604847781,19.4395016772,1.92836579358,20.0259020944,3.49820319721,18.375226299,3.59023747285,18.2784527409,2.58597328434,19.3344312673,3.09832612103,18.7956949471,2.63341604069,19.2845454579,2.08284923762,19.8634635633,3.68380351345,18.1800685401,3.75662246766,18.1034997917,2.69099875548,19.2239975353,3.23276824283,18.6543297612,2.75777706992,19.153780488,2.21037524647,19.7293706339,3.83298715091,18.0232027278,3.88043115973,17.9733156014,10.2750528199,11.2494044685,10.7537837543,10.7460214022,10.2946233718,11.2288261359,9.81965889207,11.7282487949,10.2738841133,11.2506333574,10.3006313301,11.2225087993,10.7538922069,10.7459073648,9.87542310563,11.6696130169,9.34919718135,12.2229368159,9.39363370806,12.1762120412,8.89358524626,12.7020103758,9.32960267608,12.2435403354,9.43215859892,12.1357033205,9.00663886291,12.5831350909,8.42366577471,13.1961282352,8.49304185858,13.1231796469,7.96806558147,13.6751894485,8.38566926761,13.2360813631,8.56412630501,13.0484347243,8.13841102787,13.4960721052,7.49862721313,14.1688014304,7.59286238327,14.0697136433,6.91788758352,14.7794461047,7.4421864335,14.2281486141,7.69650043607,13.9607387744,7.1549880172,14.5301362424,6.07434035846,15.666431587,6.22119754177,15.5120120291,5.15153243744,16.6367592754,6.00049782705,15.7440766215,6.36758129322,15.3580902823,5.50427235878,16.2658550984,4.18555673698,17.6524776574,4.38409188779,17.4437189878,3.30456831658,18.5788323603,4.07198506939,17.7718976702,4.59947958438,17.2172399546,3.77316440207,18.0861060344,2.50111500819,19.4236592996,2.73715272512,19.1754668783,1.77899052895,20.1829694016,2.34497831005,19.5878362186,3.01943396297,18.8786496375,2.34396944932,19.5888970304,1.0779857445,20.9200722553,1.35369592356,20.6301644483,0.428337670231,21.6031737977,0.891951449067,21.1156863412,1.68754804313,20.2791206958,1.0834183124,20.9143599387,-0.198765403822,22.2625693906,0.117753849547,21.929751056,-0.687771662558,22.7767569066,-0.415171354644,22.4901191128,0.50413373427,21.523474634,0.0481280554212,22.0029622133,-0.980177203018,23.0842197986,-0.648143662951,22.7350882729,-1.12980671809,23.2415544488,-1.21559181851,23.3317570319,-0.230085801615,22.2955026246,-0.378600622643,22.4516651799,-1.20587268839,23.3215374176,-0.877631613012,22.9763936486,-1.20802692857,23.3238025899,-1.44030036128,23.568036886,-0.455512006962,22.5325370971,-0.48120382605,22.5595519101,-1.13209872945,23.2439644868,-0.842000229927,22.9389274362,-0.990092970176,23.0946461758,-1.3245913618,23.44636948,-0.462349214606,22.5397263851,-0.377376964122,22.4503785094,-0.808558156049,22.903763271,-0.558909273319,22.6412587803,-0.59424006475,22.6784089222,-0.969057816782,23.0725278223,-0.22157404797,22.2865525603,-0.0111260742055,22.0652676198,-0.364878613677,22.4372365595,-0.113728025146,22.173153033,-0.128492085177,22.1886773647,-0.534930826654,22.6160455694,0.217476382944,21.8248933352,0.456280795554,21.573791748,0.097705638747,21.9508316445,0.353522912693,21.6818411228,0.303456241698,21.7344859648,-0.0853985143025,22.143364701,0.682295659555,21.3361383041,0.89257580298,21.1150298363,0.472139510188,21.5571163928,0.742236140123,21.2731112032,0.608675753839,21.4135492488,0.26841664843,21.7713299133,1.07471555781,20.9235108395,1.22643919473,20.7639742311,0.713822087877,21.3029884301,0.993478158615,21.0089315386,0.77556048227,21.2380708322,0.477540766455,21.5514370001,1.33613448246,20.6486302115,1.42932290479,20.5506430742,0.841360621377,21.1688823311,1.14886588255,20.845542162,0.911392214234,21.0952444786,0.613877868136,21.4080792529,1.52903166107,20.44579984,1.5851095389,20.3868342456,0.981421928394,21.0216086015,1.28235550455,20.7051785247,1.05613961988,20.9430433408,0.759328533,21.2551386417,1.64689176957,20.3218705542,1.71683944726,20.248320938,1.13145661597,20.8638479145,1.42623244686,20.5538926745,1.21141399571,20.7797731491,0.915738894785,21.0906739668,1.78534741618,20.176285168,1.85907941753,20.0987563554,10.2575213597,11.267838707,10.7536694384,10.7461416047,10.2657761623,11.2591588254,9.78925608161,11.7602171906,10.2720570405,11.2525545148,10.2613396174,11.2638238291,10.753658398,10.7461532137,9.79098471845,11.7583995381,9.3034117496,12.2710799573,9.30711043596,12.2671908079,8.83438919971,12.7642547082,9.32813901391,12.2450793685,9.3065285093,12.2678027008,8.83589591537,12.7626704046,8.34901493355,13.2746232031,8.34864404729,13.275013188,7.88000537799,13.7677842906,8.3843172314,13.2375030221,8.35193943985,13.2715481,7.8813517781,13.7663685579,7.39541405916,14.2773295204,7.3907082342,14.2822776707,6.79651243138,14.9070714405,7.4410745575,14.2293177459,7.39788924355,14.274726877,6.79744332615,14.9060926095,5.92444187648,15.8240490545,5.92590506897,15.8225105153,4.9714260599,16.8261401867,6.0009559162,15.7435949431,5.92570342207,15.822722546,4.97270670558,16.8247935944,3.97194941969,17.8770846311,3.96603778385,17.8833006852,3.06564617224,18.8300577418,4.07068751542,17.7732620414,3.97588153425,17.8729500333,3.06696501812,18.8286709823,2.23787938273,19.7004501789,2.21267727755,19.7269500603,1.49156479021,20.4851960582,2.34407966626,19.5887811379,2.23839978203,19.6999029818,1.49193176252,20.4848101887,0.770495512915,21.2433966209,0.736078394862,21.27958604,0.0928736279226,21.9559124785,0.889840418936,21.1179060783,0.76807888127,21.2459376964,0.0940121188089,21.9547153614,-0.55626156184,22.6384747256,-0.596543348293,22.6808308127,-1.0596611509,23.1677967529,-0.417821571053,22.4929058014,-0.558268011125,22.6405844965,-1.06474866463,23.1731462469,-1.33636202995,23.4587462758,-1.39910177029,23.5247167836,-1.46066920318,23.5894546164,-1.17204360276,23.2859663115,-1.35918445121,23.482743932,-1.50466830641,23.6357194426,-1.51254631265,23.6440031249,-1.6045674374,23.7407628549,-1.46971074961,23.598961755,-1.31308746874,23.4342731968,-1.57715723603,23.7119411719,-1.55688358149,23.6906235305,-1.30795486626,23.4288762922,-1.42488126194,23.5518237839,-1.10492774893,23.2153943433,-1.09705976241,23.2071211967,-1.42597090668,23.5529695396,-1.23934857883,23.3567371408,-0.934791620788,23.036497097,-1.04032684528,23.1474668319,-0.765869131441,22.8588759855,-0.747931324539,22.8400144756,-1.04994452571,23.1575797725,-0.848698413931,22.9459705416,-0.576724338628,22.659991228,-0.646685793433,22.7335553308,-0.380201273196,22.4533482556,-0.429472002543,22.505156169,-0.632033202808,22.7181482086,-0.410599856586,22.4853122066,-0.202366241333,22.2663556524,-0.242731942955,22.3087999759,-0.0404913737875,22.0961450783,-0.0844741949691,22.142392784,-0.202390038173,22.2663806747,-0.016649445832,22.0710754161,0.0996995633795,21.9487350432,0.0690016408019,21.9810137478,0.219664439685,21.8225926051,0.221990267602,21.8201470092,0.13089471465,21.9159335053,0.2416351846,21.799490482,0.31127412961,21.7262654966,0.26704457278,21.7727726436,0.387417752748,21.6462008763,0.440330024726,21.5905638999,0.324498909884,21.7123597096,0.396743608787,21.6363947876,0.464662919048,21.5649779891,0.418208983985,21.6138240582,0.542060259873,21.4835950913,0.591603400405,21.4315007389,0.469375319444,21.5600229248,0.545594090495,21.4798792869,0.621966914769,21.3995736628,0.5767015692,21.4471699362,0.702675147406,21.3147093795,0.74402967032,21.2712253156,0.622533029049,21.3989783966,0.703210576288,21.3141463788,0.785436796774,21.2276859393,0.742457826468,21.2728781012,0.867908500443,21.1409673755,0.902198493276,21.1049116279,0.785114913212,21.2280243982,0.87023432836,21.1385217797,10.3010962295,11.22201996,10.7539480973,10.7458485964,10.2938782333,11.2296096451,9.87573293422,11.6692872337,10.3321548229,11.1893620119,10.2715200461,11.2531191617,10.7538173369,10.7459860902,9.81809816384,11.7298898925,9.43282757191,12.1349998989,9.39312598997,12.1767459041,9.00695636285,12.5828012414,9.50135738069,12.0629411645,9.34642406679,12.2258527313,8.89227532419,12.703387752,8.56464717399,13.0478870333,8.49255934635,13.123687006,8.13871741218,13.4957499437,8.67084072551,12.936225071,8.42115364259,13.1987697289,7.96694869561,13.6763638481,7.69712353751,13.9600835865,7.59253361115,14.0700593455,7.15465861885,14.530482603,7.84089746456,13.8089060564,7.49662671305,14.1709049457,6.91815091434,14.7791692137,6.36555950124,15.360216186,6.22149124486,15.5117032018,5.50314607943,16.2670393752,6.57769767682,15.1371540071,6.07734940615,15.6632675892,5.15221628345,16.6360402149,4.59654255344,17.2203282273,4.38293147876,17.4449391518,3.77081728224,18.0885740186,4.89071720103,16.9110051284,4.18505449842,17.6530057587,3.30417566874,18.5792452274,3.01565903279,18.8826189567,2.73470853924,19.178036927,2.33951380429,19.5935821178,3.37239682311,18.5075110415,2.5022328334,19.4224839122,1.7773554356,20.1846886937,1.68572069637,20.2810421413,1.34827024422,20.6358695217,1.07520527171,20.9229959079,2.09797025024,19.8475638979,1.07945801737,20.9185241681,0.422777977113,21.6090197859,0.507130883545,21.5203231472,0.112812874248,21.9349464656,0.0697218083042,21.9802564954,0.975021204879,21.0283389287,-0.197917484867,22.2616778083,-0.673859278878,22.7621281082,-0.128924185678,22.1891317161,-0.56355591929,22.6461447042,-0.189009952212,22.2523115844,0.37910200991,21.6549448363,-0.912879741739,23.0134568711,-0.998962928874,23.1039728908,-0.197419003709,22.261153658,-0.639589325489,22.7260934319,-0.145802407002,22.2068790773,0.312716969545,21.724748358,-1.01626323098,23.1221640677,-0.957089259125,23.0599429467,-0.0491571806547,22.1052571287,-0.455188870935,22.5321973212,0.0732637799504,21.9765321308,0.424142537972,21.6075849573,-0.810580887381,22.9058901623,-0.63609244259,22.7224164779,0.16081360386,21.8844739502,-0.199285176889,22.2631159293,0.254087193832,21.7863972596,0.585903431182,21.4374942266,-0.504581089408,22.5841329799,-0.376643019502,22.4496067705,0.367334472922,21.6673183397,0.039201735788,22.0123481916,0.50623975454,21.5212601647,0.755320644292,21.2593529157,-0.225477982065,22.2906575265,-0.0625973849461,22.1193894331,0.678357908899,21.3402788282,0.356128666586,21.6791011863,0.854799573203,21.1547513438,1.05763255842,20.9414735237,0.0993100466957,21.949144618,0.265208458766,21.7747033079,1.02138308375,20.9795896562,0.688731452096,21.329371102,1.14359300396,20.8510865662,1.40001521861,20.5814599525,0.42529104858,21.6063773044,0.55033028773,21.4748992003,1.22823147247,20.7620896605,0.904733482884,21.1022460996,1.2894732644,20.6976942375,1.60276303619,20.3682716858,0.641035697765,21.3795229375,0.71247944516,21.3044002119,1.35556272297,20.6282015185,1.03972794185,20.9603001342,1.41957121058,20.5608969295,1.72327962343,20.2415491265,0.785201959545,21.2279328694,0.856940662499,21.1524999996,1.48833155124,20.488595792,1.17948865721,20.8133424751,1.55508293768,20.4184070593,1.84896763957,20.1093888369,0.931548763276,21.074049973,1.00618379205,20.9955716317,1.62648097009,20.3433324028,1.32482785267,20.6605190734,1.69367948662,20.2726735151,1.97977573353,19.9718448122,1.08352164078,20.9142512894,1.1597416643,20.8341063345,10.4049700589,11.1127971733,10.7543959872,10.7453776425,10.3824180918,11.1365104483,10.0705630581,11.4644243805,10.4413148187,11.0745808489,10.3535154216,11.1669014545,10.7538976595,10.7459016314,9.9641594055,11.576307263,9.7250814858,11.8276964415,9.64674659648,11.9100651667,9.39147351867,12.178483469,9.82355867737,11.7241481911,9.56649582676,11.9944484301,9.17777195338,12.4031895439,9.04583695383,12.5419185039,8.9114940899,12.6831793206,8.71315260153,12.8917343553,9.20645074546,12.3730339445,8.77970328042,12.8217566655,8.39201566544,13.229408159,8.36760605763,13.2550747336,8.17690554645,13.4555953208,7.94625515211,13.6981230006,8.59004716868,13.0211790722,7.99379904503,13.6481308466,7.49999427891,14.1673639679,7.33303534192,14.3429204144,7.06403430594,14.6257735927,6.67315525302,15.0367808665,7.66104658993,13.9980183077,6.78185295219,14.922485806,6.01426523788,15.7296002612,5.97138239428,15.7746913463,5.58131337325,16.1848468758,5.33560725103,16.4432055745,6.42787089847,15.2946960786,5.19490530806,16.5911529295,4.45302819981,17.3712328173,4.74666679228,17.0624733776,4.2423892251,17.5927185943,4.22641653613,17.609513793,5.31618715154,16.4636257072,3.767125641,18.09245576,3.16225632956,18.7284726681,3.71481329987,18.1474619123,3.11921661469,18.7737287026,3.25586558021,18.6300430321,4.38706899762,17.4405885724,2.56941444164,19.3518428036,2.02816472736,19.920964039,2.83102374101,19.0767619975,2.13840734238,19.8050445076,2.48104174808,19.4447662273,3.56432772481,18.3056967051,1.52634387071,20.4486260375,1.13356201001,20.8616341037,2.30418363909,19.6307316012,1.59883530526,20.3724016743,2.2070324168,19.7328856018,3.05864301296,18.8374215271,0.961928559687,21.0421057764,0.899631565805,21.1076107387,2.14337775061,19.7998181494,1.49097425285,20.4858170051,2.13871607506,19.8047198768,2.84989150333,19.0569226444,0.8699393728,21.1388319239,0.893038588879,21.1145432193,2.14169568982,19.8015868275,1.52420966997,20.4508701384,2.17737717151,19.7640679367,2.81915350187,19.0892434917,0.939947168818,21.0652190936,1.01462165025,20.9866992681,2.18410228352,19.7569965167,1.60335670471,20.3676474465,2.22251977549,19.7166007254,2.82824827807,19.0796803823,1.05983188735,20.9391609409,1.12375332862,20.8719478807,2.26369707458,19.6733030114,1.71039801863,20.2550940664,2.37189504013,19.5595334182,2.87543991515,19.0300586234,1.20142871673,20.7902726176,1.32423919402,20.6611380449,2.53881421135,19.3840187852,1.98777773383,19.9634307509,2.69959755546,19.2149559423,3.08468990593,18.8100333557,1.50029697773,20.4760142088,1.67791345441,20.2892514153,2.86326282204,19.0428627729,2.32257170724,19.611396644,2.97076942679,18.929820142,3.39519043768,18.4835436753,1.84271595941,20.1159624457,1.95699401738,19.9957996672,3.04143915067,18.855511298,2.51283244657,19.4113384746,3.08896519597,18.8055379107,3.58788346446,18.2809279684,2.03363236428,19.9152148475,2.08866693858,19.8573462813,3.14077216739,18.751063152,2.61933457421,19.299352046,3.19069167372,18.6985730529,3.68093474186,18.1830850383,2.14721718275,19.7957810067,2.20469782162,19.7353404164,3.24442493665,18.6420728088,2.73046581331,19.182498131,3.29670909732,18.5870962881,3.77795195038,18.0810719525,2.26570415009,19.671192582,2.3256126928,19.6081990636,3.35234172376,18.5285988732,2.84618107512,19.0608241402,3.40553204301,18.4726695315,3.87889939476,17.9749262442,2.38905193496,19.5414930332,2.44960173986,19.477825231,10.5491106451,10.9612341029,10.755163812,10.7445702788,10.5118631122,11.0003996884,10.3461616503,11.1746339064,10.5893292897,10.9189444091,10.4696684983,11.0447671036,10.754823697,10.7449279079,10.198967319,11.3294079736,10.136871111,11.3947018107,10.0296504205,11.5074438042,9.93748682787,11.6043533385,10.2574533743,11.2679101932,9.91738656148,11.6254886631,9.64773573089,11.9090250971,9.72679783283,11.8258917116,9.54846165832,12.0134112636,9.53031562907,12.0324917182,9.92714099546,11.615231927,9.36625967162,12.2049956969,9.09741127984,12.4876883706,9.31915742925,12.2545234577,9.06832935051,12.5182678668,9.07309388477,12.513257984,9.59810202146,11.9612146822,8.81618665297,12.7833945906,8.4760272751,13.1410703922,8.70884412116,12.8962646998,8.34807949859,13.275606808,8.31981605529,13.3053256704,9.10664883708,12.4779751277,7.9807518017,13.6618499545,7.44829595885,14.2217244803,7.91116232907,13.7350229199,7.39857058463,14.2740104504,7.54183194029,14.1233718864,8.45992260761,13.1580043656,6.88648139186,14.8124695505,6.37901692693,15.3460657735,7.19837309935,14.4845170561,6.54999001496,15.1662884682,6.92083212926,14.7763499303,7.88589008583,13.7615965511,5.90527759301,15.8442001981,5.49859274211,16.2718271855,6.67598582442,15.0338045355,5.88331498912,15.8672937609,6.44331536023,15.2784563081,7.49004813947,14.1778222813,5.10429132798,16.6864330542,4.73940186776,17.0701124076,6.12802258343,15.6099850091,5.24167674305,16.5419730109,5.90131792421,15.8483637691,7.07480394126,14.6144493776,4.35596465008,17.4732946307,4.07543686354,17.7682681267,5.7472653282,16.0103492657,4.80220047396,17.0040800026,5.68436777725,16.0764857106,6.75121295613,14.9547036011,3.89009017152,17.9631592012,3.77802772452,18.0809922764,10.7103639792,10.7916770679,10.7555447675,10.7441697061,10.6702095357,10.8338992547,10.6690856341,10.8350810313,10.7552135748,10.7445179534,10.6270542369,10.879276825,10.7554129773,10.7443082827,10.5030852684,11.0096295451,10.6238834157,10.8826109268,10.5007230016,11.0121134563,10.5838346758,10.9247219667,10.7537860553,10.7460189827,10.3723434181,11.1471039149,10.2519085151,11.2737405836,10.5391194365,10.9717398064,10.3326799972,11.1888097939,10.4994923958,11.0134074318,10.7528106066,10.7470446619,10.1209696559,11.4114221072,10.0024013958,11.5360960108,10.4547090341,11.0604969017,10.1653025803,11.3648062698,10.4049891198,11.1127771308,10.7521037993,10.7477878661,9.87119431337,11.6740595697,9.721986018,11.8309513096,10.3296317317,11.1920150291,9.91633096814,11.626598614,10.2516161428,11.2740480116,10.7534621411,10.7463595768,9.49682862301,12.0677031294,9.26120288885,12.3154623529,10.1662124963,11.3638494979,9.58950118623,11.9702584153,10.0948555212,11.4388809829,10.7568896351,10.7427555849,9.00811771122,12.5815800896,8.78676749738,12.8143286784,10.0225148131,11.5149468581,9.30098368921,12.27363305,9.96623881089,11.5741207792,10.7610842964,10.7383449205,8.57473249362,13.0372823726,8.41165494635,13.2087575582,9.89506481319,11.6489598644,9.07308574375,12.5132665442,9.85660786856,11.6893971399,10.7629571612,10.7363756129,8.25896628497,13.3693088847,8.14106860251,13.4932776794,9.79182614024,11.7575147875,8.87525729644,12.7212821189,9.7928180927,11.7564717547,10.7722010224,10.7266557414,7.95467672826,13.6892677574,7.82635102036,13.8242015662,9.77340159404,11.7768881011,8.76543770154,12.8367568469,9.81747795872,11.7305420349,10.820967385,10.675378167,7.73031574458,13.9251821549,7.73244681415,13.9229413464,10.8829688411,10.6101839611,10.840089021,10.655271867,11.0056854324,10.481148109,10.920597642,10.5706174743,10.7999482396,10.697479688,10.8398893409,10.6554818296,11.1349250289,10.3452533512,11.0067724939,10.4800050695,11.2543526368,10.219675848,11.2497724498,10.2244918906,10.8834949156,10.6096307965,10.9225654019,10.5685483851,11.3845107796,10.0828152436,11.1728779346,10.30534607,11.5023957026,9.95885986542,11.5781959937,9.87915625692,10.9664450512,10.522409164,11.0054066415,10.4814412562,11.6329333423,9.82160022195,11.3388681289,10.1308082514,11.7824488048,9.66438549745,11.9059270026,9.53454882016,11.0494246687,10.4351565315,11.0994382273,10.3825675369,12.0099352371,9.4251847071,11.5906302336,9.86608171891,12.2486526034,9.17417464865,12.4003203491,9.01469680965,11.1768445311,10.3011752146,11.2580450217,10.2157933246,12.5025864828,8.90716450649,11.9244169118,9.51510677759,12.7307925347,8.66720703996,13.0545856364,8.32674029197,11.3437058541,10.1257214087,11.4228831045,10.0424669452,12.937276456,8.45009027978,12.2208342549,9.20342549615,13.1192527642,8.25874314635,13.6364801955,7.7148812154,11.4904403741,9.97143083062,11.5570541459,9.90138679896,13.2765530025,8.09334277087,12.4606727342,8.95123659333,13.4191017054,7.94345355745,14.0826803241,7.24570412068,11.6081601282,9.84764912666,11.6727611884,9.7797214507,13.5080176558,7.84995890207,12.6570268733,8.74477124594,13.6455217419,7.70537407675,14.3982414416,6.91389326092,11.7059193441,9.74485582395,11.7906357785,9.65577693749,13.7411042515,7.60486956928,12.8362692064,8.5562988729,13.8800104725,7.45881040656,14.6693766783,6.62879598174,11.8283596396,9.61611049545,11.9151575147,9.52484298508,11.039146352,10.4459641276,10.9974893587,10.4897662375,11.3087475928,10.1624798371,11.0672906937,10.4163705,10.9603839415,10.5287823891,11.1621750322,10.3166001157,11.5888873499,9.86791435191,11.4770894862,9.98546921917,11.8576148005,9.5853488472,11.6825406717,9.76943837533,11.3700118899,10.09806075,11.5684254342,9.88942994896,12.1383182453,9.29019064743,11.9564467529,9.48142756773,12.4066301123,9.00806212671,12.2978837236,9.12240838407,11.7783827547,9.66866092776,11.9742189995,9.46274014359,12.687298175,8.71294113109,12.4353694924,8.9778428193,13.0283394449,8.35433802467,12.9132433706,8.47536094308,12.1848240011,9.24129008914,12.4312230497,8.98220278202,13.5275821019,7.82938698961,13.1591296912,8.21681276671,14.0622090932,7.26722951262,13.8458908149,7.49468704751,12.7980721483,8.59646287912,13.1904940819,8.18383327448,14.6264559476,6.67392690491,14.1163227924,7.21032924172,15.1346803459,6.13953161607,15.0815670532,6.19537996468,13.6017358709,7.75141469046,13.9771156667,7.35670480422,15.6052421755,5.64473832051,14.9691867932,6.31354721863,15.9945515764,5.2353815276,16.1857009398,5.03438897466,14.3177761872,6.99850205383,14.6076379708,6.69371390884,16.3347781177,4.87763510406,15.6102839743,5.63943689557,16.6447519878,4.55169920559,17.0226833684,4.15430634135,14.8571287298,6.43137568445,15.0805171742,6.19648390691,16.9569677707,4.22340594762,16.1518192506,5.07001539309,17.247722562,3.91767880972,17.731921233,3.40854644703,15.2743176934,5.9927036776,15.4723371416,5.78448726646,17.427695552,3.72843815478,16.5881806387,4.61118368245,17.5435103848,3.6066594656,18.192746398,2.92399120326,15.6190299389,5.63024055963,15.8136840131,5.42556282165,11.1535070726,10.3257144297,11.1252865263,10.3553881862,11.5419044831,9.91731658989,11.1747466519,10.3033811236,11.1030069313,10.3788150635,11.4363914116,10.0282630311,11.9383223287,9.50048530472,11.8585957156,9.58431742011,12.3261820793,9.09265281141,12.0032546659,9.43220929269,11.7805240789,9.66640933667,12.1132305841,9.31657019157,12.7236259287,8.67474268858,12.5921944202,8.81294223037,13.1109003867,8.26752562742,12.8321938412,8.56058409811,12.4581455725,8.9538938906,12.7904047128,8.60452514736,13.5088467878,7.84908707414,13.3259031068,8.04145139503,14.0022952275,7.33022862811,13.6612339181,7.68885280589,13.135649256,8.24150232114,13.5576779018,7.79774141386,14.7209225107,6.57459580934,14.4401771084,6.86979812728,15.4863115224,5.76979327845,14.9222998183,6.3628486268,14.1735685941,7.15013558157,14.8339919398,6.45570389781,16.3015539728,4.91257011818,15.918819075,5.3150138556,17.0323968624,4.14409265333,16.598729527,4.6000915817,15.5350890935,5.71850391823,16.1643044502,5.05688727125,17.7061486299,3.435646204,17.2395170361,3.92630687716,18.2818856003,2.83026179965,18.0922755166,3.029635808,16.7460789292,4.44515445827,17.2367722585,3.92919299634,18.8159286297,2.26871835554,18.2646604461,2.84837395892,19.2778096229,1.78305291397,19.2812864663,1.77939703132,17.6797335121,3.46342156175,18.0627210948,3.06071212753,19.725467621,1.3123428771,19.089593533,1.98096114517,20.0801544995,0.93939148483,20.2801738216,0.72907221684,18.4532215901,2.65010290508,18.7471275839,2.34106229428,20.3670673538,0.6377041236,19.665757594,1.37512765725,20.57589589,0.418122013156,20.9868547785,-0.0139991023867,18.9560375304,2.1213945814,19.1040595063,1.96575025012,20.7712391332,0.212719617606,20.0776094902,0.94206754879,20.9312196471,0.0445009464154,21.385340992,-0.433005265689,19.3124734766,1.74660405363,18.4613945519,2.64150907862,19.4783531017,1.57218249797,21.0267376547,-0.0559357375896,20.3735432252,0.630894778763,21.0484084342,-0.0787224485541,21.58006176,-0.637753131815,19.5993475044,1.44495751818,18.8324348688,2.25136213165,19.7042464765,1.3346567992,20.9799361606,-0.00672421197392,20.399191208,0.603926059379,20.9160472834,0.0604546072519,21.5355078147,-0.590904892015,19.6862717219,1.35355715941,18.9728719154,2.10369331383,19.6409437531,1.40121928086,20.7753209174,0.208427642976,20.1942014777,0.819471685552,20.6010403818,0.391682711938,21.2980228742,-0.341190722801,19.5325673112,1.51517654098,18.8638429392,2.21833671042,19.3995755442,1.65501668645,20.3981823473,0.604986871151,19.8366464538,1.19543891762,20.2099969428,0.802862836811,20.9298607223,0.0459298486779,19.2140672841,1.85007764881,18.6097421688,2.48552233758,19.0141087066,2.06033304421,20.0027941064,1.02073553238,19.4093598025,1.64472859016,19.8488028812,1.18265649793,20.5694832681,0.424864851482,18.7402164808,2.34832928293,18.1012206232,3.02023007532,18.4971724734,2.60388878181,19.7131270812,1.32531889,19.0378103584,2.03541088161,19.59810819,1.44626065071,20.3097407681,0.697982727706,18.253759615,2.8598361256,17.5127654947,3.63898755619,18.0868642406,3.03532573632,19.4662204711,1.5849398954,18.738811841,2.34980625425,19.3300862687,1.72808429505,20.0984937215,0.920107889089,17.8785260445,3.25439225668,17.0145191738,4.16289094909,17.6805858147,3.46252537006,19.1544474346,1.91276760779,18.3605836262,2.74751123816,18.9760494197,2.10035218476,19.8587004876,1.17224921671,17.4194499472,3.73710836496,16.4678375179,4.73772384271,17.1730349297,3.99621246333,18.7128288238,2.3771272606,17.8553084705,3.278805414,18.4685429971,2.63399252593,19.4828538354,1.56745000001,16.8929436273,4.29072699859,15.6134862147,5.63606975653,16.5894187006,4.60988186688,11.2352745386,10.2397363681,10.7539892482,10.7458053264,11.2128839047,10.2632800022,11.6874142487,9.76431383466,11.2345620816,10.240485513,11.2057550292,10.2707759774,10.7540002727,10.7457937342,11.6299257037,9.82476273824,12.1580275077,9.26946646141,12.111287854,9.31861296209,12.6109785805,8.79319078437,12.176070052,9.25049482071,12.0717180941,9.36022035714,12.4965431815,8.91351900606,13.0814341071,8.29850926585,13.0101325145,8.37348251645,13.5350352093,7.82155008626,13.1180453877,8.26001269638,12.9382460207,8.44907078765,13.3636142084,8.00179836952,14.0048108039,7.32758351272,13.9090999166,7.42822300866,14.5813221109,6.72138489747,14.0601700798,7.26937352449,13.8046659222,7.53803480601,14.3459450694,6.96888262198,15.4172415097,5.84242003448,15.2751825206,5.99179431629,16.3360575109,4.8762898288,15.4936447062,5.76208247407,15.1323125604,6.1420213301,15.9899982391,5.2401693379,17.2900840669,3.87313590947,17.0978600884,4.07525841462,18.1615712862,2.95677166982,17.4054774452,3.75180037753,16.8873451077,4.29661381252,17.7021219542,3.43988023236,18.9479234344,2.12992651071,18.7186809675,2.37097376215,19.647644442,1.3941735416,19.1040200537,1.96579173438,18.4414477908,2.6624829933,19.0913776697,1.97908513478,20.3064417747,0.701451601955,20.0336761414,0.988263234608,20.9196468684,0.0566696624571,20.4986012513,0.499396920277,19.6968932532,1.34238867495,20.2476009586,0.763322411439,21.5124136085,-0.566621455317,21.1824403737,-0.219656329815,21.9914013979,-1.07027460338,21.7347449722,-0.800401718103,20.7769848174,0.206678060805,21.2114963143,-0.250208499019,22.3127351276,-1.40815533459,21.9641940959,-1.04166626804,22.5145974522,-1.62041251012,22.5398321215,-1.6469466325,21.5269159033,-0.581870542227,21.7400165984,-0.805944805313,22.6623019283,-1.77572299189,22.3288092662,-1.42505720707,22.7457662106,-1.86348524698,22.8825830065,-2.00734739015,21.9046719387,-0.979079031983,22.0094093428,-1.08920986304,22.7651869363,-1.8839060382,22.4512815779,-1.55383620037,22.7374122676,-1.8547011197,22.9875308248,-2.1176994706,22.0477360311,-1.12951017469,22.0493103799,-1.13116559417,22.6733098451,-1.78729775869,22.3726367817,-1.47114160972,22.5646509723,-1.67304352396,22.8872547018,-2.01225965323,21.9967606966,-1.07590987784,21.8939808956,-0.967837456211,22.4206087046,-1.52158383502,22.1223716861,-1.20798917443,22.2523650514,-1.3446765162,22.6340676048,-1.74603474884,21.7460960645,-0.812337332117,21.5731043157,-0.630437415623,22.0800383616,-1.16347590579,21.7757644607,-0.84353349506,21.9160242835,-0.991015962957,22.2973060085,-1.39193169683,21.3859283982,-0.433622920215,21.2123060331,-0.251059914054,21.7764608314,-0.84426572516,21.4601807989,-0.511698930013,21.6594467631,-0.721226046195,22.0019784667,-1.08139633574,21.0512659336,-0.0817270941872,20.9234812907,0.0526377875478,21.5648029762,-0.621708600696,21.2382226697,-0.278311121489,21.4778856472,-0.530315485204,21.7977940715,-0.86669751524,20.8178151836,0.1637451449,20.7241883985,0.262193218383,21.3894089991,-0.437282753752,21.055735982,-0.0864273266063,21.284378518,-0.32684375391,21.6182243753,-0.677880921619,20.6254922603,0.365971689937,20.5236342737,0.473074828553,21.1523116965,-0.187976183847,20.8378922011,0.142634266313,20.9883251726,-0.0155452141436,21.34985239,-0.395689186788,20.4121892921,0.590258642163,20.2676504219,0.742240505985,20.7970781169,0.185550061729,20.4969699154,0.501112261472,20.5971195394,0.395805457129,20.9841193944,-0.0111228604132,20.0600417868,0.960539896795,19.8454650614,1.18616619796,11.2451696792,10.2293316797,10.7539667072,10.7458290282,11.2406720375,10.2340609264,11.7142391574,9.73610758385,11.2326573168,10.2424883631,11.2491465303,10.2251500417,10.7539781656,10.7458169797,11.7160602419,9.73419272313,12.1975200845,9.22794022405,12.1968609747,9.22863327458,12.6670094908,8.73427457602,12.1745357821,9.25210809746,12.200851642,9.22443710883,12.6685824306,8.73262063811,13.1502160528,8.22618541075,13.1534358278,8.22279983427,13.6202588922,7.73193783075,13.116696013,8.26143155682,13.153247958,8.22299737836,13.6216140595,7.73051287937,14.1031562518,7.22417379014,14.1102235999,7.21674251065,14.701911028,6.59458628368,14.0591458764,7.27045046903,14.1056602429,7.22154085664,14.7021940852,6.59428865059,15.5695885612,5.68222790897,15.5685267838,5.68334436233,16.5159584842,4.6871248991,15.4953092325,5.76033223342,15.5683761748,5.68350272684,16.5148500524,4.68829040924,17.5035999543,3.64862507394,17.510803508,3.64105057499,18.3986328934,2.70750263329,17.4079473066,3.74920333121,17.5006585397,3.65171795593,18.3973603887,2.70884066527,19.2106086014,1.85371443553,19.2348726101,1.82820095762,19.9358291747,1.09114880687,19.1058693186,1.96384724203,19.209021728,1.85538302463,19.9329109307,1.09421732509,20.6327490438,0.35834122016,20.6615100289,0.328099195179,21.2723185304,-0.31416274019,20.5128154791,0.484450734307,20.6233893712,0.368182866803,21.2613444302,-0.30262353132,21.8794084627,-0.952514619507,21.901888961,-0.976152745506,22.3527188273,-1.45019798513,21.7592920381,-0.82621282911,21.8667472918,-0.939201464694,22.3432176261,-1.44020752193,22.644268934,-1.75676139302,22.6563389413,-1.76945294242,22.8239789063,-1.94572548622,22.5504542791,-1.65811577544,22.6401408086,-1.75242069084,22.8247905038,-1.9465788767,22.9736247034,-2.10307725694,22.9911116229,-2.12146466098,23.0716852155,-2.20618737098,22.8751383532,-1.99951937628,22.9775987756,-2.10725597295,23.0775655397,-2.21237050105,23.101376156,-2.23740723922,23.1439161373,-2.28213780635,23.0758571771,-2.21057416678,22.9693437773,-2.09857588557,23.1104089352,-2.24690515914,23.0867285753,-2.22200538488,23.0050690953,-2.13614087003,23.0597604941,-2.19364858901,22.8972230725,-2.02274134273,22.8590855065,-1.98263989214,23.0203516759,-2.1522104234,22.9095310482,-2.03568311465,22.7534726291,-1.87158850561,22.8044592358,-1.92520065511,22.58949362,-1.69916543767,22.6106552724,-1.72141680415,22.7649477155,-1.88365449873,22.598030423,-1.70814184119,22.4240141576,-1.52516465092,22.47155398,-1.57515252482,22.2713110928,-1.36459817936,22.2874478547,-1.38156589987,22.4298644226,-1.53131617393,22.2711382526,-1.36441643879,22.1457026082,-1.23252151669,22.1879507651,-1.276945232,22.0342845546,-1.11536601773,22.0091601023,-1.08894778788,22.1403370472,-1.22687965743,22.0314139043,-1.11234754401,21.920217537,-0.995425147081,21.9868098604,-1.06544662578,21.7913300985,-0.859900681528,21.7476866954,-0.814009872092,21.9427882128,-1.01915809424,21.8516212693,-0.9232965314,21.637755318,-0.698417605381,21.7450778103,-0.81126664314,21.4723610231,-0.524506371951,21.4369400542,-0.487261408923,21.7384071805,-0.804252510929,21.5992019335,-0.657878923866,21.304672212,-0.348182466683,21.4161366069,-0.465386693182,21.1380141798,-0.172942419997,21.1124851812,-0.146098811872,21.4344589206,-0.484652509954,21.2551441011,-0.296103917818,20.9725879471,0.00100239592834,21.0668522371,-0.0981160105055,20.8090178679,0.172995476229,20.7989286343,0.183604252427,21.0720055052,-0.103534644938,20.8880484234,0.0898952617014,11.206186934,10.2703218318,10.7539444536,10.7458524277,11.2120809571,10.2641242974,11.6302286437,9.82444419839,11.1767142747,10.3013121785,11.2316311956,10.2435673243,10.7539553182,10.7458410037,11.6857951243,9.76601633549,12.0723906679,9.35951314929,12.1107759089,9.31915126974,12.4969261228,8.91311634535,12.0050822475,9.43028760023,12.1551258589,9.2725175299,12.6096669362,8.79456997137,12.9387750307,8.44851453641,13.009716383,8.37392007661,13.364108619,8.00127849932,12.8336380901,8.55906547791,13.0788822092,8.30119257309,13.5340150764,7.82262275067,13.8055730201,7.53708099729,13.9089925177,7.42833593803,14.346070629,6.96875059668,13.6625173819,7.68750325051,14.0029443176,7.32954611327,14.5822226334,6.72043800279,15.131156535,6.14323688475,15.276357333,5.99055900724,15.9899005468,5.24027206083,14.9200879647,6.36517437924,15.4222447951,5.83715910608,16.3390371257,4.8731567795,16.8867946493,4.29719261671,17.099657376,4.07336857614,17.7030706966,3.4388826347,16.5971251191,4.60177860825,17.2961760578,3.86673021306,18.1646423309,2.9535424824,18.443168678,2.66067348942,18.7208934474,2.36864735123,19.1027237522,1.96715478861,18.0924126616,3.02949160081,18.9524467126,2.12517030747,19.6555550123,1.38585561838,19.7366784372,1.30055476267,20.0635361647,0.956865576691,20.3196164564,0.687598493292,19.32994975,1.72822784375,20.3313363997,0.675275034378,20.9552632219,0.0192192535741,20.8733119176,0.105390620245,21.2496395164,-0.290315875934,21.3180811047,-0.36228184698,20.4155170922,0.58675947782,21.5548458777,-0.611238763842,22.0316406005,-1.11258591388,21.5995000202,-0.658192360491,22.0087430313,-1.08850924,21.7747549737,-0.842472024808,21.1104730958,-0.143983114651,22.3332768097,-1.42975480557,22.5179302622,-1.62391694231,21.8996583204,-0.973807238658,22.3195497908,-1.41532091728,21.9711114613,-1.04893984149,21.3989102002,-0.447273216944,22.650390984,-1.76319869648,22.7245507022,-1.84117725119,21.9783369332,-1.05653738725,22.4013182353,-1.5013000077,21.9440131238,-1.02044608172,21.4764014759,-0.528754886881,22.7311549513,-1.84812158449,22.693172691,-1.80818343702,21.8703907131,-0.943032503111,22.2912841557,-1.38559975022,21.7748313741,-0.842552359405,21.3731582628,-0.42019518983,22.617565123,-1.72868247584,22.5155555881,-1.62141998499,21.6467880971,-0.707915525304,22.0558808124,-1.13807436954,21.502833502,-0.556548023606,21.155699615,-0.191538562299,22.3777405775,-1.4765082242,22.220832987,-1.31152071587,21.355971935,-0.402123856331,21.7521805406,-0.818735126763,21.2058802603,-0.244303247642,20.8833917577,0.0947917212515,22.0621018072,-1.14461571289,21.9107200932,-0.985438634771,21.0390875881,-0.0689216276902,21.4431435145,-0.493784314828,20.8785240516,0.0999100886645,20.5740960975,0.420014485553,21.7699467598,-0.837416213024,21.629958722,-0.69021952558,20.7273076631,0.258913327982,21.13202176,-0.166641421956,20.5879439792,0.405453510562,20.2780584079,0.731296563311,21.476199829,-0.528542856222,21.320302978,-0.364618135103,20.4490474648,0.551502466834,20.8281254773,0.152903925154,20.3176375613,0.689679291057,20.0361610324,0.985650384756,21.1597951762,-0.195845023495,21.0043316782,-0.0323759707467,20.1870555374,0.826985604315,20.5373575351,0.458644891143,20.0641417317,0.956228826236,19.8111043043,1.22229635383,20.8488731899,0.131087814159,20.7008073777,0.286778239061,19.942471624,1.08416430627,20.2629987661,0.747131697693,19.8277414261,1.20480250756,19.6062755157,1.43767275057,20.5531135476,0.442077526662,20.4125913334,0.589835897807,11.1020163878,10.3798566147,11.1266769192,10.3539261953,11.4357377813,10.0289503199,11.0670913951,10.4165800613,11.1609502386,10.3178879797,11.5452906012,9.91375610457,11.7802350725,9.66671322533,11.8599323309,9.58291197621,12.1129411081,9.31687457409,11.6824321769,9.76955245704,11.9446496264,9.49383218434,12.328935311,9.08975780275,12.4581344568,8.95390557862,12.5933042609,8.81177523865,12.7903597806,8.60457239332,12.2977210596,9.12257942433,12.7283599341,8.66976490671,13.113019871,8.26529700083,13.1358673415,8.24127300537,13.3268548238,8.04045066958,13.5567708039,7.79869522258,12.9131383201,8.47547140315,13.5123104803,7.84544501957,14.0010865986,7.3314994951,14.1697996131,7.15409864529,14.4371890395,6.87294006606,14.8324836585,6.45728984763,13.8443142743,7.49634477168,14.7120159174,6.58396104548,15.4823775291,5.77392985173,15.5319015695,5.72185558298,15.9164794699,5.31747393802,16.163706398,5.05751611994,15.0810579261,6.19591530917,16.2933954143,4.92114879959,17.0298255513,4.14679637347,16.7442259069,4.44710290149,17.2388300589,3.92702923006,17.2557408443,3.90924762789,16.1866208755,5.03342166709,17.701074267,3.44098186991,18.2953496014,2.81610447308,17.7522324615,3.38718929681,18.3336255648,2.77585749834,18.205628629,2.9104456049,17.1041067587,4.06869007357,18.869727647,2.21214897099,19.3940584349,1.66081789794,18.6381543424,2.45564708612,19.2940860346,1.76593835236,18.9812934915,2.09483807068,17.910741955,3.22051739586,19.8911687698,1.13810898832,20.2914272216,0.717239325754,19.1992324598,1.86567638876,19.9081046045,1.12030104694,19.3387357936,1.71898936507,18.427591768,2.67705252853,20.5452731153,0.450321700084,20.7047632891,0.282618618973,19.4370900087,1.61557042376,20.1649144572,0.850266833989,19.49452869,1.55517395168,18.6468552183,2.44649816076,20.817864656,0.163693124956,20.8835464371,0.0946290766161,19.4984413913,1.55105976673,20.233677929,0.777962404067,19.4695745729,1.58141307489,18.7031040576,2.38735280126,20.8892720819,0.0886085911848,20.8592911957,0.120133335801,19.4047782847,1.64954603208,20.1366688615,0.879966929679,19.3227756292,1.73577139413,18.6102600632,2.48497777436,20.7899497111,0.193045543044,20.7001341776,0.28748610539,19.22416278,1.83946228781,19.9417245285,1.08494987327,19.1234013267,1.94541242741,18.4452465178,2.65848865177,20.5842886594,0.409297060104,20.4598430888,0.540150924851,19.0175404613,2.05672457213,19.710541993,1.3280370967,18.9175818382,2.16183053998,18.2668071715,2.84611668844,20.331208022,0.675410022841,20.1979532372,0.815526730043,18.8161935261,2.26843981837,19.4618318329,1.58955452538,18.7336404121,2.35524398462,18.1146771096,3.00608065052,20.0446715336,0.976701637408,19.9035531459,1.1250868818,18.6641254612,2.4283385909,19.2519042585,1.81029226876,18.609187953,2.48610509265,18.011820282,3.11423406522,19.7863831458,1.24829052236,19.6870682898,1.35271957246,18.550937048,2.54735561368,19.1003396846,1.96966162313,18.4993442481,2.60160517211,17.928728608,3.20160452453,19.5893904059,1.45542735504,19.4983775156,1.55112693173,18.4444468187,2.65932953112,18.9631296147,2.11393729194,18.3984932435,2.7076494744,17.844764592,3.2898922469,19.4093792157,1.64470817727,19.3294581574,1.72874475079,18.3533581544,2.75510878392,18.8542008357,2.22847533168,18.3200933043,2.79008659926,17.7621595008,3.37675106701,19.2565145829,1.80544453675,19.1905541283,1.87480160883,10.960775924,10.5283702216,10.9974461878,10.4898116315,11.1614836322,10.3173271191,10.9195988988,10.5716676475,11.0413696147,10.4436263785,11.3091110425,10.1620976716,11.3695876956,10.0985067881,11.4767844327,9.98578998139,11.5674023267,9.89050574116,11.2486001032,10.2257246069,11.5902439263,9.86648791895,11.8576524528,9.58530925607,11.7767482876,9.67037956136,11.9557429457,9.48216761728,11.9729291169,9.4640964484,11.5767617644,9.88066434144,12.138640442,9.28985185932,12.4064203244,9.00828271762,12.1826454944,9.24358077751,12.4345574253,8.97869670364,12.4312894304,8.98213298311,11.9045465511,9.53600035768,12.6870736706,8.71317719628,13.0274938743,8.3552271377,12.8011792014,8.59319582909,13.1591822948,8.21675745436,13.1929996385,8.18119869478,12.4012559406,9.01371304007,13.5247465206,7.83236858843,14.0615318226,7.26794165907,13.6084393779,7.74436598803,14.1181679868,7.2083890295,13.9816132693,7.35197559867,13.0576134711,8.3235565397,14.6260216553,6.674383561,15.1355645863,6.13860184188,14.3275544963,6.9882202131,14.9728123669,6.3097349469,14.6273116945,6.67302709157,13.6425048663,7.70854630562,15.6070779764,5.64280798549,16.016955048,5.21182439468,14.9227845223,6.36233896305,15.6823877708,5.5636201317,15.1919800035,6.07928132661,14.1260149946,7.20013794203,16.4181065076,4.7900157392,16.7855272,4.4036748084,15.4479369273,5.81014396384,16.3099924572,4.90369709606,15.6563183335,5.59103200833,14.5531810961,6.75097502695,17.1318889422,4.03947725331,17.4163707614,3.74034611262,15.7853056561,5.45540251517,16.7146232651,4.47822992401,15.8745982854,5.36151178388,14.8291787159,6.46076497744,17.5926095264,3.55503197575,17.711148471,3.43038889724,15.935082649,5.29791279283,16.8890766409,4.29479311448,15.969838872,5.26136680665,14.9480696033,6.335751833,17.7938318413,3.34344776709,17.8407210081,3.29414405423,15.9638336144,5.26768130354,16.9263143106,4.25563790009,15.9297308651,5.30354016552,14.9757055615,6.30669276789,17.843307975,3.29142387209,17.8093285935,3.32715301346,15.8786158807,5.35728730348,16.8375733923,4.34894851023,15.8245626129,5.41412403103,14.8796580742,6.40768619699,17.7509668454,3.38852008551,17.6787853959,3.46441850094,15.7751058925,5.46612751314,16.713104651,4.47982673875,15.7394096943,5.50366187826,14.8127855118,6.47800234563,17.6012058214,3.5459930166,17.5311441694,3.61966247619,15.6966896712,5.54858175849,16.5989029935,4.59990918266,15.6648726709,5.58203716736,14.7672095548,6.52592522529,17.454612282,3.7001353543,17.390844894,3.76718642835,15.6393073508,5.60891896734,16.5111496439,4.69218136936,15.6251247478,5.62383190006,14.740471301,6.55404035889,17.3381380263,3.82260742324,17.3008433694,3.86182255934,15.6064855604,5.64343090786,16.4576386936,4.74844785297,15.5936938199,5.65688135582,14.7295754798,6.56549725772,17.2643371394,3.90020866874,17.2358310309,3.93018269224,15.5748273101,5.67671939198,16.4097863811,4.79876430853,15.5606049412,5.69167413819,14.7143132518,6.58154541048,17.2013287452,3.96646166466,17.171113648,3.99823268091,15.5405855371,5.71272443659,16.3590640446,4.85209857934,15.5249535187,5.72916142197,14.6967577599,6.60000491812,17.1351466042,4.03605183876,17.1032525774,4.06958824071,15.503809714,5.75139402176,16.3055274187,4.90839206064,15.4893866376,5.76655981091,14.6769321748,6.62085141686,17.065859602,4.10890675822,17.0349268422,4.1414323929,10.7980346734,10.6994917929,10.8384301895,10.6570161196,10.8380942647,10.6573693428,10.881924471,10.6112821107,11.0042273281,10.4826812981,10.8816498093,10.6115709161,11.0051776165,10.4816820748,10.9210138519,10.5701798318,11.1332746712,10.3469886937,11.2527936307,10.2213151347,10.964771425,10.5241689732,11.1713808081,10.3069202906,11.0042556455,10.4826515224,11.38228601,10.0851545772,11.500886482,9.96044680295,11.0480592663,10.4365922449,11.3375668175,10.1321765734,11.0990658538,10.3829590858,11.6303951433,9.82426912494,11.7818556059,9.66500924292,11.1776373416,10.3003415785,11.5909293379,9.86576721226,11.259160616,10.2146202831,12.0109336868,9.42413484256,12.2500703941,9.17268384924,11.3477768749,10.1214407517,11.9266243035,9.51278571683,11.4259991597,10.0391904295,12.5073851467,8.90211873653,12.735275734,8.66249297946,11.500487337,9.96086650184,12.226578217,9.19738575017,11.5641103784,9.8939672075,12.9497165668,8.43700956852,13.1321005524,8.24523376441,11.6282121747,9.82656450497,12.4752612925,8.93589680076,11.686755452,9.76500655594,13.313829029,8.05414722455,13.4777812666,7.88175230665,11.7444194205,9.70437319557,12.6970799283,8.70265566872,11.7861521879,9.66049140955,13.6356995965,7.7157020111,13.7633370748,7.58149187224,11.7999840224,9.64594730811,12.8372429981,8.55527493603,11.847325877,9.5961675963,13.841954943,7.49882559623,13.8972240414,7.44071042917,11.8866110143,9.55485948055,12.9141654981,8.47439133083,11.8678063449,9.57463249178,13.926147847,7.41029719931,13.9651245647,7.36931338511,11.8151874629,9.62996097019,12.9018393616,8.48735219868,11.7899097401,9.65654036309,13.9801926606,7.35346936124,13.9091334201,7.42818777996,11.7932518653,9.65302613601,12.8266685908,8.56639386984,11.7786629155,9.66836634014,13.8397246155,7.50117077384,13.8297174184,7.51169328912,11.7857804406,9.66088229992,12.8128427838,8.5809316334,11.8149543478,9.63020608948,13.8217720922,7.52004775799,13.8174006754,7.52464427976,11.8393565974,9.60454725205,12.835473891,8.55713514289,11.875605211,9.56643202499,13.8071204409,7.53545389245,13.8095978171,7.53284894437,11.9055124366,9.53498473412,12.8700002867,8.52083081898,11.940076641,9.49864065446,13.8115328759,7.53081424022,13.8222953095,7.5194975977,11.9602558127,9.47742236127,12.902104258,8.48707366151,11.9803387012,9.45630530943,13.823384328,7.51835250045,13.8268192139,7.51474073597,11.9953909848,9.44047791219,12.9203631657,8.46787451587,12.0145705326,9.42031071819,13.824945839,7.5167105798,13.8272841916,7.51425181434,12.0286852677,9.40546914828,12.9368409113,8.45054825284,12.0469792444,9.38623312774,13.8245409797,7.51713628732,13.825774971,7.51583875188,12.0611721021,9.37130941241,12.9517936239,8.43482555397,12.081516286,9.34991760967,13.8221666187,7.5196329154" style="fill:none; stroke:#00C; stroke-width:1.5px"/>
</svg>