<?xml version="1.0" standalone="no"?>
<!DOCTYPE svg PUBLIC "-//W3C//DTD SVG 1.1//EN"
"http://www.w3.org/Graphics/SVG/1.1/DTD/svg11.dtd">
<svg height="150" version="1.1" width="150" xmlns="http://www.w3.org/2000/svg">
<polygon points="1.64812898636,0.123827658594,1.39476144314,1.07416033745,1.37698686123,1.1971616745,1.39522194862,0.165546432137,1.55856478214,1.40647888184,1.42751502991,-0.919102370739,2.29677721286e-09,1.35128390789,1.63643229008,-1.02417087555,1.44640231133,-0.863118886948,-1.64812898636,0.123827651143,-1.39476144314,1.07416033745,-1.37698686123,1.1971616745,-1.39522194862,0.165546432137,-1.55856502056,1.40647912025,-1.63643229008,-1.02417087555,-1.47790241241,-0.919102370739,-1.44640231133,-0.863118946552,2.36468622461e-09,-1.04758787155,1.64812898636,0.123827658594,1.39476144314,1.07416033745,1.37698686123,1.1971616745,1.39522194862,0.165546432137,1.55856478214,1.40647888184,1.42751502991,-0.919102370739,2.29677721286e-09,1.35128390789,1.63643229008,-1.02417087555,1.44640231133,-0.863118886948,-1.64812898636,0.123827651143,-1.39476144314,1.07416033745,-1.37698686123,1.1971616745,-1.39522194862,0.165546432137,-1.55856502056,1.40647912025,-1.63643229008,-1.02417087555,-1.47790241241,-0.919102370739,-1.44640231133,-0.863118946552,2.36468622461e-09,-1.04758787155,-1.56804645061,-0.369645565748,-1.56804645061,-0.369645565748,1.56804645061,-0.369645535946,1.56804645061,-0.369645535946,1.56069862843,0.598994076252,-1.5410721302,0.598994076252" style="fill:none; stroke:#00C; stroke-width:1.5px"/>
</svg>