<?xml version="1.0" standalone="no"?>
<!DOCTYPE svg PUBLIC "-//W3C//DTD SVG 1.1//EN"
"http://www.w3.org/Graphics/SVG/1.1/DTD/svg11.dtd">
<svg height="150" version="1.1" width="150" xmlns="http://www.w3.org/2000/svg">
<polygon points="4.94438695908,0.371482975781,4.18428432941,3.22248101234,4.13096058369,3.5914850235,4.18566584587,0.496639296412,4.67569434643,4.21943664551,4.28254508972,-2.75730711222,6.89033163859e-09,4.05385172367,4.90929687023,-3.07251262665,4.33920693398,-2.58935666084,-4.94438695908,0.371482953429,-4.18428432941,3.22248101234,-4.13096058369,3.5914850235,-4.18566584587,0.496639296412,-4.67569506168,4.21943736076,-4.90929687023,-3.07251262665,-4.43370723724,-2.75730711222,-4.33920693398,-2.58935683966,7.09405867383e-09,-3.14276361465,4.94438695908,0.371482975781,4.18428432941,3.22248101234,4.13096058369,3.5914850235,4.18566584587,0.496639296412,4.67569434643,4.21943664551,4.28254508972,-2.75730711222,6.89033163859e-09,4.05385172367,4.90929687023,-3.07251262665,4.33920693398,-2.58935666084,-4.94438695908,0.371482953429,-4.18428432941,3.22248101234,-4.13096058369,3.5914850235,-4.18566584587,0.496639296412,-4.67569506168,4.21943736076,-4.90929687023,-3.07251262665,-4.43370723724,-2.75730711222,-4.33920693398,-2.58935683966,7.09405867383e-09,-3.14276361465,-4.70413935184,-1.10893669724,-4.70413935184,-1.10893669724,4.70413935184,-1.10893660784,4.70413935184,-1.10893660784,4.68209588528,1.79698222876,-4.62321639061,1.79698222876" style="fill:none; stroke:#00C; stroke-width:1.5px"/>
</svg>