<?xml version="1.0" standalone="no"?>
<!DOCTYPE svg PUBLIC "-//W3C//DTD SVG 1.1//EN"
"http://www.w3.org/Graphics/SVG/1.1/DTD/svg11.dtd">
<svg height="150" version="1.1" width="150" xmlns="http://www.w3.org/2000/svg">
<polygon points="2.59739519083,-2.73114741858,2.19809656571,-2.31128700878,2.17008442955,-2.28183239455,2.19882230668,-2.31205012161,2.45624505317,-2.58272878924,2.24971510373,-2.36556363075,3.61964272e-09,-3.80603533333e-09,2.57896159557,-2.71176458986,2.27948081645,-2.39686212153,-2.59739519083,2.73114741858,-2.19809656571,2.31128700878,-2.17008442955,2.28183239455,-2.19882230668,2.31205012161,-2.45624542891,2.58272918432,-2.57896159557,2.71176458986,-2.3291239037,2.44906156738,-2.27948081645,2.39686212153,3.72666501133e-09,-3.91856871128e-09,2.59739519083,-2.73114741858,2.19809656571,-2.31128700878,2.17008442955,-2.28183239455,2.19882230668,-2.31205012161,2.45624505317,-2.58272878924,2.24971510373,-2.36556363075,3.61964272e-09,-3.80603533333e-09,2.57896159557,-2.71176458986,2.27948081645,-2.39686212153,-2.59739519083,2.73114741858,-2.19809656571,2.31128700878,-2.17008442955,2.28183239455,-2.19882230668,2.31205012161,-2.45624542891,2.58272918432,-2.57896159557,2.71176458986,-2.3291239037,2.44906156738,-2.27948081645,2.39686212153,3.72666501133e-09,-3.91856871128e-09,-2.47118783999,2.59844105119,-2.47118783999,2.59844105119,2.47118783999,-2.59844105119,2.47118783999,-2.59844105119,2.45960792229,-2.58626482847,-2.42867722905,2.55374136678" style="fill:none; stroke:#00C; stroke-width:1.5px"/>
</svg>