<?xml version="1.0" standalone="no"?>
<!DOCTYPE svg PUBLIC "-//W3C//DTD SVG 1.1//EN"
"http://www.w3.org/Graphics/SVG/1.1/DTD/svg11.dtd">
<svg height="150" version="1.1" width="150" xmlns="http://www.w3.org/2000/svg">
<polygon points="15.0789919847,6.1980876357,14.4134942762,6.89785498537,14.3668073826,6.94694600909,14.4147038445,6.89658313066,14.8437417553,6.44545201794,14.4995251729,6.80739394875,10.750000006,10.7499999937,15.0482693259,6.23039235023,14.5491346941,6.75522979744,6.42100801529,15.3019123643,7.08650572382,14.6021450146,7.13319261742,14.5530539909,7.08529615553,14.6034168693,6.65625761849,15.0545486405,6.45173067406,15.2696076498,6.86812682716,14.831769279,6.95086530592,14.7447702026,10.7500000062,10.7499999935,15.0789919847,6.1980876357,14.4134942762,6.89785498537,14.3668073826,6.94694600909,14.4147038445,6.89658313066,14.8437417553,6.44545201794,14.4995251729,6.80739394875,10.750000006,10.7499999937,15.0482693259,6.23039235023,14.5491346941,6.75522979744,6.42100801529,15.3019123643,7.08650572382,14.6021450146,7.13319261742,14.5530539909,7.08529615553,14.6034168693,6.65625761849,15.0545486405,6.45173067406,15.2696076498,6.86812682716,14.831769279,6.95086530592,14.7447702026,10.7500000062,10.7499999935,6.63135360002,15.0807350853,6.63135360002,15.0807350853,14.8686464,6.41926491468,14.8686464,6.41926491468,14.8493465371,6.43955861921,6.70220461825,15.0062356113" style="fill:none; stroke:#00C; stroke-width:1.5px"/>
</svg>