<?xml version="1.0" standalone="no"?>
<!DOCTYPE svg PUBLIC "-//W3C//DTD SVG 1.1//EN"
"http://www.w3.org/Graphics/SVG/1.1/DTD/svg11.dtd">
<svg height="150" version="1.1" width="150" xmlns="http://www.w3.org/2000/svg">
<polygon points="-1.75705003738,7.20349979401,3.15974998474,5.20989990234,3.26110005379,6.00509977341,-1.80645000935,7.99914979935,4.08505010605,-0.611199975014,4.18975019455,0.082000002265,3.32625007629,-1.3982000351,2.85649991035,-1.75049996376,5.6591501236,1.96959996223,5.085750103,2.31424999237,2.02119994164,3.39170002937,-1.84955000877,5.10489988327,2.1072499752,-3.40884995461,2.98405003548,-0.984350025654,1.11129999161,0.892949998379,-1.89619994164,2.25994992256,0.11874999851,-5.43970012665,1.11485004425,-2.88680005074,-0.15625,-0.749599993229,-1.90775001049,-1.73014998436,-1.91519999504,0.0287999995053,-1.86644995213,-6.54664993286,-0.331600010395,-3.9007499218,-1.88240003586,-4.41804981232,-1.16935002804,-1.65310001373,-2.14039993286,-1.72574996948,-0.716949999332,-1.36670005322,-2.49924993515,-2.67919993401,-3.51609992981,-2.33874988556,-0.20640000701,-2.37249994278,0.184149995446,-0.580799996853,0.452149987221,-0.745050013065,0.643700003624,1.1400500536,0.643149971962,1.01045000553,1.19264996052,-1.5217499733,-0.731050014496,-3.45519995689,-2.82240009308,-1.6426500082,-0.780600011349,2.09349989891,-0.753600001335,2.32699990273,-2.15639996529,-1.98919999599,2.35104990005,-0.948300004005,3.75574994087,0.409000009298,1.26604998112,0.437849998474,-1.44675004482,-2.68930006027,1.24915003777,-0.872099995613,3.9892001152,1.90769994259,1.83045005798,3.52309989929,-0.850899994373,4.02250003815,-1.73854994774,3.79384994507,-1.7419500351,4.90194988251,1.34739995003,-0.400200009346,1.53040003777,2.48335003853,0.851899981499,1.40925002098,-0.482749998569,2.57069993019,0.135100007057,3.67764997482,2.96674990654,3.60284996033,3.85794997215,0.89200001955,2.72694993019,0.0294499993324,1.18029999733,5.24945020676,2.45814990997,-0.243900001049,1.82544994354,-0.159199997783,9.24650001526,-0.609449982643,6.03770017624,0.371300011873,4.51520013809,4.34245014191,6.56785011292,5.56059980392,2.17470002174,6.8220500946,3.55769991875,9.03094959259,2.42164993286,-3.97059988976,1.07474994659,-4.10099983215,0.326499998569,-3.57645010948,1.58770000935,-3.90805006027,2.82925009727,-3.15295004845,3.64019989967,-2.70619988441,2.36884999275,-1.09350001812,2.48300004005,-0.582799971104,3.43694996834,-0.964749991894,-0.186350002885,-3.52010011673,0.788250029087,-3.3085000515,2.19239997864,-2.52909994125,3.02504992485,-1.81029999256,4.82140016556,-3.10774993896,6.07095003128,-3.52679991722,4.69999980927,-5.36135005951,3.64634990692,-4.70020008087,3.01355004311,-5.97480010986,2.26399993896,-5.19385004044,6.07674980164,-1.44830000401,9.32104969025,-2.10185003281,9.33959960938,-4.91354990005,7.5908498764,-7.35769987106,5.59259986877,-8.18375015259,5.01429986954,-1.29844999313,2.03845000267,1.12384998798,2.11380004883,0.44525000453,7.01550006866,2.00889992714,4.31309986115,1.97609996796,2.94589996338,1.92910003662,-0.863049983978,-3.52449989319,-0.54834997654,-3.78259992599,-0.499850004911,-3.82214999199,0.901499986649,-5.28319978714,2.09185004234,-6.22765016556,2.91880011559,-7.50614976883,-0.382299989462,-4.90544986725,-0.820900022984,-5.03224992752,-2.11284995079,-5.62874984741,-1.86465001106,-5.84444999695,-4.12220001221,-5.27855014801,-3.8858499527,-5.32375001907,-3.29745006561,-4.37314987183,-1.49175000191,-5.00754976273,-0.303299993277,-4.31505012512,-4.76030015945,-4.32919979095,-4.22704982758,-3.47985005379,-5.04804992676,-4.77110004425,-5.21479988098,-5.0000500679,-0.856999993324,-4.87430000305,-3.12435007095,-5.43435001373,-2.22110009193,-6.36985015869,0.560750007629,-4.94005012512,2.04029989243,-5.09409999847,-1.56739997864,-6.59310007095,-5.5829000473,-6.00860023499,-5.64020013809,-7.85349988937,2.20210003853,0.371950000525,-1.87520003319,0.255499988794,1.77195000648,0.260199993849,-1.46864998341,-0.907450020313,-1.56809997559,0.837350010872,2.58505010605,0.289400011301,-1.78454995155,2.21630001068,-2.43260002136,-1.33245003223,-6.86124992371,6.01329994202,-5.70594978333,5.98799991608,-7.1126499176,-0.439749985933,-7.69280004501,1.17299997807,-8.19620037079,0.530099987984,-6.68244981766,-0.874650001526,-8.42770004272,3.56434988976,-9.18340015411,3.00979995728,-5.71315002441,3.39794993401,-6.64274978638,-0.976549983025,-5.58500003815,-3.40265011787,-4.88320016861,0.897750020027,-4.83414983749,-2.88199996948,-3.80474996567,-5.43650007248,-3.64295005798,-0.746800005436,-3.41689991951,-3.898250103,-3.44020009041,-1.05474996567,-3.96455001831,0.0602499991655,-3.91370010376,0.550999999046,-4.28399991989,-1.58519995213,-5.04199981689,0.591499984264,-3.68105006218,1.66830003262,-3.88870000839,1.91334998608,-2.4444000721,2.92144989967,-2.41919994354,2.88755011559,-4.91634988785,2.2228500843,-5.85655021667,-0.317250013351,-2.63255000114,-1.87290000916,-7.22615003586,1.41729998589,-5.80345010757,-0.941699981689,-4.74895000458,0.442699998617,-3.68939995766,-2.0556499958,-4.35970020294,2.56550002098,-7.18424987793,2.93359994888,-4.77670001984,4.12974977493,-2.05419993401,4.132999897,-3.99175000191,2.87249994278,-2.17645001411,3.26550006866,-1.41879999638,4.66069984436,-4.12319993973,4.85830020905,-3.77349996567,6.3548002243,-0.933650016785,6.64809989929,-4.17374992371,4.62884998322,-4.21140003204,3.30990004539,-0.751900017262,8.54084968567,-4.95615005493,8.63930034637,-6.60510015488,11.9291000366,-0.152950003743,11.039899826,-6.3408498764,0.191650003195,-6.99230003357,0.746800005436,-7.65885019302,1.87425005436,-7.36110019684,1.0134999752,-7.29524993896,3.53104996681,-7.4388999939,2.42505002022,-5.33890008926,3.22219991684,-5.01754999161,3.59805011749,-5.69659996033,4.36070013046,-6.09434986115,-0.0926499962807,-6.43114995956,0.795849978924,-6.47485017776,2.36675000191,-6.45039987564,3.28150010109,-9.86699962616,3.53110003471,-9.09724998474,5.57254981995,-8.25514984131,4.63889980316,-8.91584968567,2.8302500248,-8.46275043488,1.50310003757,-9.40289974213,1.89024996758,-11.2459497452,7.85029983521,-8.90275001526,9.30924987793,-7.29190015793,6.68060016632,-12.2815504074,5.10624980927,-11.8650999069,3.03605008125,-6.75019979477,5.76609992981,-3.12884998322,4.42624998093,-3.89599990845,3.90175008774,-4.65864992142,9.37854957581,-3.42175006866,7.17145013809,-2.96655011177,5.92164993286,-5.48519992828,-0.666350007057,-5.78254985809,-0.33860000968,-6.69299983978,-0.202999994159,-7.70114994049,0.470200002193,-8.92154979706,1.17394995689,-10.0532999039,1.43449997902,-7.19379997253,-1.12590003014,-7.25985002518,-0.689800024033,-7.14144992828,-2.54644989967,-5.92014980316,-4.1764497757,-7.42640018463,-2.43530011177,-6.04374980927,-4.00104999542,-6.8326997757,-1.73374998569,-5.44449996948,-3.05714988708,-6.75890016556,-0.358000010252,-7.12545013428,-1.2200499773,-6.38864994049,-3.42344999313,-9.32164955139,-0.155650004745,-8.03754997253,-0.464049994946,-7.19164991379,-3.44849991798,-8.03409957886,-3.93954992294,-6.68959999084,-7.41699981689,-5.88990020752,0.378500014544,-5.28035020828,0.907700002193,-3.16090011597,0.12309999764,-6.05574989319,1.08280003071,2.83664989471,-7.31874990463,3.01075005531,-7.4201002121,2.94974994659,-7.59184980392,2.96630001068,-7.76364994049,3.69805002213,-7.57425022125,3.38494992256,-7.18954992294,3.35120010376,-6.89414978027,2.61945009232,-7.08360004425,3.06664991379,-7.46460008621,3.22930002213,-7.40815019608,3.16280007362,-7.24744987488,3.00014996529,-7.30389976501,3.22615003586,-7.49595022202,3.11310005188,-7.22284984589,3.28209996223,-7.73094987869,2.89584994316,-7.5858001709,2.93109989166,-7.47984981537,3.42560005188,-7.6656498909,3.24110007286,-7.56459999084,2.96315002441,-7.46014976501,3.38464999199,-7.49930000305,2.99839997292,-7.35419988632,3.33920001984,-7.69575023651,3.49869990349,-7.62060022354,3.28220009804,-7.5392999649,3.44175004959,-7.46414995193,3.01005005836,-7.51545000076,3.0773499012,-7.38980007172,3.04535007477,-7.40950012207,3.11260008812,-7.28385019302,2.62385010719,-7.37034988403,2.5828499794,-7.20399999619,2.76734995842,-7.30504989624,2.72635006905,-7.13870000839,2.56675004959,-7.40549993515,2.50974988937,-7.24900007248,2.72624993324,-7.33034992218,2.66925001144,-7.17390012741,-10.0031003952,1.58235001564,-9.80214977264,1.51020002365,-10.0887002945,1.45200002193,-10.3934497833,2.15790009499,-10.1244497299,1.45685005188,-9.70030021667,2.26710009575,-9.64220046997,2.24955010414,-9.37320041656,1.54849994183,-10.0273504257,1.83739995956,-9.97914981842,1.67369997501,-9.85875034332,1.87164998055,-9.81054973602,1.7079000473,-10.1705999374,1.73025000095,-9.88405036926,1.78840005398,-10.0846996307,1.42435002327,-10.1359996796,1.34804999828,-10.4512500763,1.60239994526,-10.4883003235,1.74995005131,-10.0587997437,1.48290002346,-10.2856998444,1.66594994068,-10.0075502396,1.55920004845,-10.3227996826,1.81354999542,-10.4050502777,1.70685005188,-10.4291496277,1.88374996185,-10.2524499893,1.74115002155,-10.276599884,1.91805005074,-10.0436000824,1.55700004101,-9.96640014648,1.69190001488,-9.99230003357,1.63329994678,-9.91510009766,1.76820003986,-9.72834968567,1.30270004272,-9.56280040741,1.36625003815,-9.76539993286,1.45025002956,-9.59984970093,1.51384997368,-9.77455043793,1.19819998741,-9.62195014954,1.23249995708,-9.7986497879,1.37504994869,-9.64605045319,1.40935003757,-2.79924988747,-3.75180006027,-2.34305000305,-4.24545001984,-2.70989990234,-3.59805011749,-2.15689992905,-4.07369995117,-3.16525006294,-4.34884977341,-3.2594499588,-3.77679991722,-3.68584990501,-3.54369997978,-3.88144993782,-3.92094993591,-3.86135005951,-3.33925008774,-4.31470012665,-2.89234995842,-3.88140010834,-3.25755000114,-4.3655500412,-2.51445007324,-3.0000500679,-3.54854989052,-3.75425004959,-3.29019999504,-3.11595010757,-3.56305003166,-3.60774993896,-3.37144994736,-4.27799987793,-2.34319996834,-1.79725003242,-4.24630022049,-1.78334999084,-4.57625007629,-2.33780002594,-3.92639994621,-1.77684998512,-4.05459976196,-2.60489988327,-3.56625008583,-3.4360499382,-3.00285005569,-3.49189996719,-4.11800003052,-1.81375002861,-4.51195001602,-1.82729995251,-4.61665010452,-4.50624990463,-2.66065001488,-3.8654999733,-3.60800004005,-3.05865001678,-3.89324998856,-2.43024992943,-3.66205000877,-1.77470004559,-3.97609996796,-2.86995005608,-2.44245004654,-2.2716999054,-3.01510000229,-2.49084997177,-3.44455003738,-4.73999977112,-0.564350008965,-3.96355009079,-0.39359998703,-3.82655000687,-1.89869999886,-3.39400005341,-1.22475004196,-2.20985007286,-2.37150001526,-1.75475001335,-3.27705001831,-1.75250005722,-2.85004997253,-4.62599992752,-1.71019995213,-3.12205004692,-0.9333999753,-3.11914992332,-0.0636499971151,-3.58750009537,2.4400498867,-2.73484992981,0.889649987221,-1.808349967,2.83389997482,-1.77705001831,1.42394995689,-4.58605003357,0.586399972439,-2.39650011063,1.42299997807,-1.44799995422,1.55190002918,-2.80749988556,0.869149982929,-1.75905001163,-0.848800003529,-2.38175010681,-0.656199991703,-2.17065000534,-0.501649975777,-2.61234998703,-0.130649998784,-1.7634999752,-3.78705000877,-1.76520001888,-3.64155006409,-2.48489999771,-3.56145000458,-4.87449979782,0.431400001049,-4.86439990997,-0.0974000021815,-4.70594978333,-1.29910004139,-1.76820003986,-3.94580006599,-1.85434997082,-4.15504980087,-4.53765010834,0.199750006199,-5.38264989853,-0.0175999999046,-5.570499897,0.511900007725,-0.884850025177,-3.59949994087,-1.27075004578,-4.24630022049,-0.805450022221,-3.75340008736,-1.43795001507,-4.07429981232,-0.354050010443,-3.77915000916,-0.470849990845,-4.35099983215,0.241400003433,-3.92424988747,0.0737999975681,-3.54670000076,0.693000018597,-2.89634990692,0.257299989462,-3.34255003929,0.282550007105,-3.2609000206,0.76289999485,-2.51859998703,-0.476449996233,-3.56515002251,0.186399996281,-3.29334998131,-0.565949976444,-3.55049991608,0.0142999999225,-3.37435007095,0.70165002346,-2.34719991684,-1.22669994831,-3.92729997635,-0.940850019455,-3.56754994392,-0.106700003147,-3.00554990768,-0.182400003076,-4.12064981461,0.154750004411,-3.61474990845,0.752200007439,-2.66549992561,-0.644500017166,-3.89514994621,-1.11619997025,-3.6631000042,-1.24004995823,-3.01594996452,-0.650749981403,-2.44425010681,-1.04285001755,-3.44574999809,1.12460005283,-0.569100022316,0.277949988842,-1.90199995041,0.406399995089,-0.397100001574,-0.140699997544,-1.22734999657,-1.30005002022,-2.37225008011,0.984549999237,-1.7147500515,-0.407150000334,-0.935599982738,-0.436349987984,-0.0658000037074,-0.816500008106,0.888100028038,-0.0318999998271,2.43720006943,0.985949993134,0.581900000572,-0.730750024319,0.896250009537,-0.727550029755,0.175200000405,-1.14390003681,-0.657199978828,-1.55474996567,-0.521399974823,-1.05480003357,-3.56259989738,1.24000000954,0.426499992609,1.24170005322,-0.102300003171,1.05330002308,-1.30375003815,0.972699999809,0.195299997926,1.75555002689,-0.0233500003815,1.96300005913,0.505800008774,-2.40564990044,1.47395002842,-1.26300001144,1.33035004139,-3.07669997215,0.95064997673,-2.55439996719,-0.763100028038,-3.01014995575,-0.225350007415,-0.614799976349,0.368099987507,-0.76985001564,-0.432850003242,-1.87030005455,-0.933600008488,-1.7621999979,-3.79439997673,4.36604976654,-2.12785005569,4.90490007401,-2.84750008583,3.42729997635,-3.63790011406,3.08010005951,-2.81835007668,2.42580008507,-2.88790011406,2.47044992447,-2.49515008926,2.94490003586,-1.58245003223,2.81865000725,-1.35514998436,4.02680015564,-1.02415001392,3.76274991035,-1.26479995251,4.14895009995,-1.08229994774,4.89270019531,-3.32710003853,4.98029994965,-3.8219499588,4.24550008774,-4.37855005264,3.76379990578,-4.19325017929,3.65914988518,-3.63709998131,4.31629991531,-3.1849501133,4.05399990082,-2.14809989929,2.97510004044,-1.27869999409,1.93260002136,-1.36384999752,1.74625003338,-2.47664999962,2.57224988937,-2.96495008469,3.43055009842,-2.29489994049,3.56570005417,-3.5857000351,4.49940013885,-2.88870000839,4.50699996948,-2.55345010757,3.26664996147,-3.4919500351,4.93720006943,-2.74270009995,5.36665010452,-3.6751999855,4.10949993134,-4.64914989471,3.41595005989,-4.13959980011,3.15024995804,-3.27349996567,2.86829996109,-3.31824994087,2.81640005112,-3.59255003929,3.12689995766,-3.5271499157,3.55819988251,-3.8601500988,2.73329997063,-3.82540011406,2.51999998093,-3.39525008202,3.09139990807,-3.50554990768,3.12249994278,-3.92610001564,4.82035017014,-2.68775010109,5.02815008163,-3.28419995308,3.860049963,-4.27054977417,3.34564995766,-3.91494989395,-8.16969966888,3.83365011215,-7.91305017471,5.48239994049,-6.93160009384,5.11630010605,-7.16050004959,3.68630003929,-6.68190002441,3.26504993439,-7.1437997818,3.15829992294,-6.0921998024,4.08914995193,-5.71649980545,3.95490002632,-5.78369998932,5.16629981995,-5.91039991379,4.81319999695,-9.29654979706,5.27915000916,-8.84864997864,5.49209976196,-5.94035005569,5.32840013504,-9.27624988556,4.33610010147,-8.83224964142,4.10869979858,-8.36305046082,4.39984989166,-8.45650005341,5.17105007172,-6.82770013809,4.77689981461,-5.60029983521,3.87240004539,-5.36100006104,2.90365004539,-7.07700014114,2.97604990005,-6.3611497879,2.38724994659,-6.70679998398,3.96884989738,-8.38825035095,6.25500011444,-8.59200000763,6.0029501915,-8.28439998627,4.88754987717,-7.9875497818,4.76410007477,-9.71214962006,5.70914983749,-8.79699993134,6.16524982452,-9.31834983826,4.17290019989,-8.44880008698,4.10944986343,-7.65654993057,4.24655008316,-7.53025007248,4.49949979782,-7.72345018387,4.69960021973,-7.85974979401,4.48099994659,-8.39344978333,4.43405008316,-7.27764987946,4.11714982986,-7.70749998093,3.89739990234,-7.80835008621,4.43225002289,-8.08940029144,4.11245012283,-9.22875022888,5.91344976425,-8.69404983521,6.23694992065,-8.91205024719,4.41879987717,-8.28470039368,4.37085008621,1.89979994297,-3.26465010643,0.525499999523,-2.61805009842,0.0322499983013,-2.64890003204,0.852450013161,-3.37700009346,2.44390010834,-3.10404992104,3.02495002747,-2.21600008011,0.49715000391,-1.34154999256,1.33220005035,-0.400299996138,1.53125,-0.79650002718,2.4945499897,-2.08060002327,1.81439995766,-0.95459997654,0.558550000191,-1.73115003109,-0.133100003004,-2.76710009575,-0.206900000572,-2.40444993973,0.386299997568,-3.23900008202,1.21290004253,-1.61364996433,1.94885003567,-3.0897500515,3.02055001259,-2.21504998207,-0.280800014734,-0.752250015736,0.330449998379,0.575950026512,-1.01900005341,1.75919997692,-1.19679999352,0.659900009632,-3.92190003395,-4.08790016174,-3.81564998627,-4.0501999855,-2.73845005035,-4.37534999847,-1.4564499855,-4.07864999771,-2.48350000381,-4.34565019608,-4.12814998627,-4.72065019608,-2.92645001411,-5.42969989777,-3.69889998436,-4.36590003967,-2.46440005302,-5.18055009842,-0.801050007343,-4.30200004578,-4.57690000534,-3.29139995575,-3.81500005722,-2.80815005302,-4.63485002518,-3.35509991646,-1.32770001888,-1.8151999712,-0.931649982929,-2.64249992371,0.243900001049,-2.21285009384,-2.01279997826,-0.386200010777,-1.03814995289,-3.26414990425,-0.985000014305,-3.44195008278,0.177699998021,-2.85509991646,-4.90205001831,-3.06054997444,-5.2813000679,-2.98014998436,-3.39689993858,-4.08169984818,-1.60765004158,-3.64350008965,-0.551949977875,-1.65509998798,-0.987450003624,-3.36529994011,-1.84049999714,-4.28329992294,-3.45860004425,-4.70440006256,-5.71630001068,-3.16505002975,-0.921949982643,0.212750002742,-3.51609992981,-2.33874988556,0.643199980259,1.01065003872,-0.778249979019,2.12789988518,0.00304999994114,0.818300008774,0.862950026989,-1.35025000572,-2.80599999428,-6.1125497818,-4.66919994354,-4.89200019836,0.221100002527,-3.87479996681,-0.85664999485,-5.32399988174,5.03905010223,0.761600017548,5.36595010757,-1.73940002918,3.94335007668,-1.78620004654,3.11139988899,0.857349991798,-3.39404988289,-6.95685005188,-1.15690004826,-7.5297498703,-0.375349998474,-8.58080005646,-3.2813000679,-7.85865020752,4.47795009613,-5.54710006714,2.40190005302,-7.73880004883,1.297549963,-6.71344995499,3.07804989815,-4.73010015488,1.52065002918,0.664349973202,2.36735010147,-1.7948499918,-1.89209997654,-7.11245012283,-3.53095006943,-6.13980007172,1.90190005302,-4.40320014954,0.313600003719,-5.91890001297,7.4876999855,0.406599998474,7.27549982071,-1.77324998379,0.18805000186,-9.76214981079,-3.14510011673,-9.01875019073,5.66765022278,-6.02510023117,3.29889988899,-8.99145030975,-5.85885000229,0.410250008106,-6.01469993591,0.955950021744,-7.08484983444,2.08559989929,-6.81045007706,0.944500029087,-6.43959999084,3.44539999962,-7.05714988708,2.51425004005,-4.76560020447,1.25594997406,-4.5001001358,2.59004998207,-3.98565006256,2.85905003548,-6.04979991913,2.74499988556,-4.81354999542,2.59684991837,-4.99655008316,1.35070002079,-5.06930017471,0.391750007868,-5.60494995117,0.278100013733,-6.49249982834,0.449400007725,-5.08790016174,2.07174992561,-6.84060001373,1.93484997749,-6.38889980316,3.31180000305,-2.68519997597,2.42444992065,-2.66770005226,1.44050002098,-5.48290014267,-2.68784999847,-5.86054992676,-2.00900006294,-6.01789999008,-1.69560003281,-6.01824998856,-0.555199980736,-5.98215007782,-0.380549997091,-7.00589990616,-2.09625005722,-6.07019996643,-3.13374996185,-5.79759979248,-2.65105009079,-6.84425020218,-1.60164999962,-6.31965017319,0.207450002432,-3.96685004234,1.92365002632,-4.19799995422,0.901000022888,-3.34100008011,0.504299998283,-5.47324991226,-0.545599997044,-5.0108499527,0.87524998188,-5.09905004501,1.45665001869,-5.87884998322,-1.17900002003,-5.25250005722,0.299650013447,-4.33935022354,1.4754999876,-2.56555008888,1.25294995308,-5.5015001297,1.00380003452,-6.41925001144,-0.428700000048,-2.41915011406,2.88765001297,-1.77935004234,2.47690010071,-6.91585016251,-1.64365005493,-7.37669992447,0.487250000238,-4.22189998627,2.57625007629,-5.95819997787,2.05369997025,-1.35905003548,5.88205003738,-1.1413500309,7.64484977722,1.08334994316,6.40694999695,0.589450001717,4.50505018234,-9.55539989471,4.61000013351,-8.52540016174,3.08100008965,-9.00580024719,1.09769999981,-9.91329956055,1.59839999676,-6.90364980698,5.08330011368,-7.78830003738,6.89064979553,-5.01359987259,8.0873003006,-4.42194986343,6.06794977188,-1.7173500061,4.10865020752,0.280950009823,2.47239995003,-8.18649959564,1.97195005417,-7.86219978333,0.118649996817,-6.2922501564,3.61389994621,-4.31664991379,4.57210016251,1.98889994621,8.30255031586,-0.281399995089,9.14904975891,-10.5220003128,1.5109000206,-10.2324495316,5.24625015259,-5.10629987717,9.50069999695,-8.70604991913,8.26560020447,3.28609991074,-3.39214992523,4.71960020065,-3.82279992104,4.7798500061,-3.96289992332,3.45709991455,-3.55200004578,3.56415009499,-3.62129998207,4.97214984894,-4.05740022659,5.00864982605,-4.17035007477,3.66845011711,-3.73760008812,3.74670004845,-3.78730010986,5.19770002365,-4.23974990845,5.28200006485,-4.31605005264,3.86500000954,-3.89249992371,-8.97039985657,5.02600002289,-8.75749969482,4.9702501297,-7.87529993057,3.77200007439,-8.14430046082,3.92540001869,-9.32590007782,5.23465013504,-9.14554977417,5.19134998322,-8.2672996521,4.01924991608,-8.47340011597,4.1250500679,-9.64099979401,5.50815010071,-9.47879981995,5.40729999542,-8.5702495575,4.20004987717,-8.77064990997,4.32275009155,-7.24560022354,-1.10434997082,-7.39750003815,-0.887950003147,-6.98649978638,-1.22630000114,-6.95120000839,-1.5243999958,-6.80865001678,-1.72804999352,-6.96054983139,-1.51164996624,-7.25495004654,-1.09159994125,-7.55919981003,-1.32414996624,-7.71110010147,-1.10769999027,-7.26480007172,-1.74419999123,-7.12225008011,-1.94784998894,-7.27414989471,-1.73140001297,-7.56855010986,-1.31134998798,-7.55544996262,-1.62504994869,-0.829649984837,1.44169998169,-1.34769999981,1.66904997826,-2.01405000687,3.78990006447,-1.60134994984,3.78189992905,-7.27250003815,-1.41215002537,-7.3516998291,-1.53559994698,-8.09360027313,0.420700013638,-7.89370012283,0.404449999332,-4.46409988403,4.99415016174,-4.57224988937,4.73479986191,-7.06704998016,4.04554986954,-7.19014978409,4.22480010986,-8.09885025024,2.23565006256,-8.34099960327,2.41090011597,-4.12039995193,-5.62295007706,-4.28399991989,-5.38425016403,-4.29335021973,-5.11880016327,-4.57434988022,-4.96059989929,-4.70109987259,-4.77565002441,-4.53749990463,-5.01434993744,-4.24714994431,-5.43800020218,-4.43629980087,-5.83944988251,-4.59989976883,-5.60074996948,-4.89025020599,-5.17710018158,-5.01700019836,-4.99214982986,-4.85340023041,-5.23085021973,-4.56304979324,-5.65450000763,-4.86644983292,-5.51160001755,1.99300003052,-2.00180006027,0.291949987411,-0.709450006485,0.262250006199,-0.147349998355,2.12210011482,-1.60160005093,-3.30964994431,-6.48944997787,-4.70120000839,-5.36654996872,-4.5749502182,-5.3109998703,-3.24504995346,-6.31090021133,0.442200005054,-6.78770017624,1.96619999409,-4.70100021362,2.2349998951,-4.67280006409,0.556999981403,-6.95090007782,-1.60944998264,-7.12949991226,-1.54124999046,-7.40100002289,1.16694998741,-2.33664989471,1.30540001392,-3.4280500412,1.4470000267,-3.77410006523,1.14555001259,-2.0583999157,0.222350001335,-4.76014995575,-0.459100008011,-5.78459978104,-3.12820005417,-2.40424990654,-1.67355000973,-2.15794992447,-0.0944000035524,-1.60860002041,-0.56685000658,-1.07190001011,-2.72655010223,-4.93275022507,-1.43865001202,-4.2157998085,3.67709994316,-1.43920004368,3.34334993362,-1.24220001698,3.15774989128,-1.52705001831,3.50500011444,-1.72529995441,1.71589994431,-3.45184993744,1.71870005131,-2.02489995956,2.40884995461,-1.37345004082,2.95215010643,-2.89019989967,0.631600022316,-4.25509977341,1.62705004215,-3.7593998909,-0.922399997711,-4.09005022049,-0.287849992514,-3.67825007439,-0.866349995136,-2.00524997711,-0.216100007296,-1.56299996376,1.06424999237,-0.423750013113,0.304699987173,-1.53824996948,-1.24349999428,-4.24135017395,3.08839988708,-1.05340003967,3.05130004883,-1.10800004005,3.00755000114,-2.83800005913,2.92304992676,-2.57544994354,2.3343000412,-3.20504999161,3.55485010147,-2.2077999115,2.13925004005,-2.56200003624,1.15775001049,-2.78859996796,0.231450006366,-3.35899996758,0.96565002203,-1.57134997845,2.32730007172,-1.01080000401,1.73874998093,-0.799449980259,1.81885004044,-1.59625005722,-1.1507999897,-4.15385007858,-1.62715005875,-4.39295005798,0.416350007057,-5.12540006638,0.522800028324,-4.72004985809,-1.55505001545,-1.87070000172,3.67424988747,-1.05324995518,4.12914991379,-1.78499996662,3.85500001907,-0.559800028801,3.80885004997,-0.47214999795,3.42604994774,-1.06445002556,-0.0692500025034,-5.4701499939,0.991249978542,-5.99779987335,0.94754999876,-6.05865001678,-0.119199998677,-5.52990007401,0.506349980831,-5.52995014191,2.71429991722,-3.83045005798,1.78050005436,-3.64590001106,1.22839999199,-2.75985002518,2.01655006409,-1.56704998016,1.75475001335,-2.24534988403,2.73289990425,-1.50849997997,3.55774998665,-2.04504990578,3.67479991913,-2.66724991798,3.37945008278,-3.24285006523,2.61754989624,-0.652899980545,3.78754997253,-1.60109996796,3.66365003586,-0.889299988747,3.00915002823,-1.07805001736,2.53465008736,-4.91505002975,1.36345005035,-4.51634979248,0.646399974823,-3.65825009346,1.11319994926,-2.94724988937,3.25755000114,-4.1810002327,1.5515999794,-2.00985002518,1.62489998341,-3.48254990578,1.53559994698,-3.47779989243,1.48245000839,-2.13019990921,0.111249998212,-1.30344998837,1.71455001831,-1.89754998684,1.69770002365,-3.48720002174,1.88479995728,-1.75199997425,0.515900015831,-5.4795999527,-1.13440001011,-5.22889995575,-2.60100007057,-5.03970003128,-2.2390999794,-3.44260001183,-0.156749993563,-1.13230001926,-2.37849998474,-1.68449997902,-0.0776500031352,-1.37699997425,-1.93289995193,-1.93704998493,1.78110003471,-3.53909993172,0.107249997556,-1.45595002174,0.563799977303,-4.87200021744,-1.4239000082,-1.97224998474,1.89979994297,-3.55399990082,1.95724999905,-1.67149996758,0.663299977779,-5.1265501976,-2.13794994354,-4.86835002899,-0.872550010681,-4.8968000412,-1.76614999771,-1.78120005131,-1.80209994316,-3.5202999115,0.0668999999762,-1.15415000916,3.89844989777,-4.43475008011,2.16155004501,-3.29224991798,1.68959999084,-3.52069997787,3.5829501152,-4.68249988556,4.59544992447,-3.87555003166,2.85855007172,-2.73305010796,2.45665001869,-3.0420498848,4.35004997253,-4.20389986038,-5.72475004196,-3.29710006714,-4.02580022812,-4.82425022125,-4.45590019226,-2.21534991264,-3.99079990387,-2.75815010071,-1.54505002499,-0.106849998236,-1.19120001793,0.116099998355,-0.507650017738,-0.309700012207,0.453500002623,-0.462949991226,-0.0802000015974,0.624249994755,-0.944100022316,-0.612950026989,1.17890000343,-4.0451002121,0.818050026894,-4.29909992218,1.13650000095,-1.86275005341,1.21805000305,-1.94805002213,-1.53600001335,-6.34404993057,-3.63350009918,-5.18015003204,-3.29259991646,-5.22730016708,1.16100001335,-1.9919500351,-0.83235001564,-6.32119989395,1.35099995136,-3.98924994469,-4.50909996033,4.03219985962,-4.70015001297,4.05670022964,-3.71350002289,3.59019994736,-2.95709991455,3.20414996147,-6.30775022507,3.44394993782,-7.03964996338,2.86065006256,-3.46204996109,2.19225001335,-4.49970006943,0.875899970531,-4.62080001831,-0.746699988842,-2.54660010338,1.26715004444,-6.33650016785,1.71280002594,-6.94054985046,0.444000005722,-4.03704977036,6.45370006561,-3.70510005951,6.52720022202,-3.77209997177,6.90894985199,-4.10045003891,6.84849977493,-3.21374988556,4.97049999237,-3.78679990768,4.31045007706,-5.18835020065,4.78789997101,-4.61205005646,6.07105016708,-6.28714990616,4.00860023499,-5.88269996643,5.11049985886,-6.61289978027,2.47909998894,-6.1999502182,3.09640002251,-4.67635011673,1.91954994202,-3.83104991913,2.86069989204,-2.87765002251,3.51005005836,-4.3029999733,2.60575008392,-6.59000015259,2.06850004196,-4.89034986496,6.38920021057,-3.27495002747,5.91765022278,-2.93989992142,5.71385002136,-5.45609998703,5.87025022507,-5.14134979248,6.61289978027,-4.58610010147,7.09070014954,-5.46264982224,4.64734983444,-5.36329984665,5.86199998856,-4.41960000992,4.12305021286,-5.9376502037,3.65549993515,-3.43374991417,4.60545015335,-3.85544991493,5.53324985504,-4.585750103,5.25834989548,-6.62235021591,3.75740003586,-6.58655023575,1.60164999962,-6.4576997757,2.11800003052,-6.4716501236,3.88210010529,-4.50769996643,1.07710003853,-3.41179990768,6.7704501152,-2.90499997139,6.78770017624,-3.93709993362,7.45405006409,-2.8205499649,6.69204998016,-3.51134991646,6.56145000458,-9.05655002594,5.97919988632,-8.98419952393,5.99875020981,-8.86345005035,4.82040023804,-8.93694972992,4.79465007782,-8.71685028076,5.38024997711,-6.50500011444,5.91004991531,-6.34919977188,6.84905004501,-5.86985015869,5.0814499855,-4.47599983215,5.39954996109,-5.20305013657,5.39314985275,-4.38119983673,7.01039981842,-4.16914987564,6.04949998856,-4.92245006561,7.33885002136,-5.56510019302,7.26494979858,-3.40890002251,5.64050006866,-3.88479995728,7.06930017471,-3.26204991341,6.70289993286,-3.66904997826,6.15659999847,-7.42764997482,7.0624499321,-7.46654987335,5.82590007782,-6.915599823,4.85279989243,-6.0858001709,5.03959989548,-6.4861998558,7.48089981079,-4.69404983521,4.30114984512,-4.95319986343,4.54414987564,-3.57030010223,4.01480007172,-3.44714999199,3.84155011177,-3.4186000824,2.46624994278,-3.45405006409,4.15754985809,-4.57585000992,4.41510009766,-2.91615009308,4.08039999008,-6.80520009995,3.89330005646,-7.04029989243,2.22469997406,-5.70424985886,0.629899978638,-7.19175004959,0.702199995518,-2.97804999352,1.95659995079,-4.18200016022,0.0100499996915,-3.26370000839,2.15124988556,-4.40199995041,0.578450024128,-4.97779989243,4.72079992294,-3.54115009308,2.49659991264,-6.62260007858,3.97915005684,-4.53725004196,1.21870005131,-4.89550018311,4.80649995804,-3.12590003014,4.29720020294,-6.75435018539,4.10879993439,-6.97310018539,2.55504989624,-7.23775005341,1.28659999371,-5.97725009918,1.25695002079,-4.40600013733,0.80269998312,-3.23819994926,2.34890007973,-5.44080018997,4.93475008011,-5.25694990158,5.45905017853,-5.76004981995,7.44054985046,-5.91144990921,7.06969976425,-5.06729984283,5.77524995804,-4.83020019531,6.20844984055,-5.33325004578,8.18999958038,-5.53795003891,7.91020011902,-6.54155015945,-1.19005000591,-4.6889500618,-1.80470001698,-0.926599979401,1.53729999065,-1.31099998951,0.770049989223,-1.78610002995,0.505349993706,-2.14980006218,2.78520011902,-4.55760002136,3.23585009575,-4.33704996109,3.57435011864,-2.40054988861,2.99839997292,-7.26370000839,1.65114998817,-6.94119977951,-0.61905002594,-7.08514976501,-0.156200006604,-2.56154990196,3.01475000381,-7.33914995193,2.48974990845,-4.40850019455,3.82030010223,5.14004993439,-3.44779992104,3.35980010033,-2.34314990044,3.00125002861,-2.61430001259,4.89464998245,-3.77609992027,-4.80520009995,6.41489982605,-4.64865016937,6.80324983597,-5.07114982605,8.82964992523,-5.27584981918,8.54985046387,0.082800000906,-1.53684997559,-0.601649999619,0.262149989605,-0.454899996519,-1.79100000858,-0.841250002384,0.0960500016809,-5.65789985657,-3.24950003624,-3.36840009689,-4.82835006714,-1.72774994373,-4.43835020065,-0.877449989319,-3.51699995995,-0.357050001621,-4.07854986191,-2.60540008545,-5.66370010376,0.311800003052,1.04314994812,1.01740002632,0.0192499998957,-3.4712998867,-5.25099992752,-5.77615022659,-3.03804993629,-5.77580022812,-3.20775008202,-3.86314988136,-5.18989992142,2.2282500267,-2.08605003357,1.66989994049,-4.44285011292,-0.886250019073,-6.64114999771,-2.0705499649,1.56840002537,-2.47469997406,1.11710000038,-6.33815002441,-0.552500009537,-4.23964977264,1.32400000095,-5.39995002747,0.848950028419,-4.5625500679,1.99399995804,-6.8124499321,0.415600001812,-0.509500026703,2.0803000927,-7.24720001221,-0.292250007391,-7.00985002518,-0.827049970627,-2.36645007133,4.08475017548,-4.77694988251,4.28480005264,-7.69379997253,2.55690002441,-5.0872502327,-4.87230014801,-5.23029994965,-3.53780007362,-4.69675016403,-4.25400018692,-4.09060001373,-3.27244997025,-4.476749897,-2.88744997978,-4.14440011978,-2.66090011597,-5.58914995193,-3.78990006447,-5.48374986649,-3.16669988632,-5.62879991531,-2.5257499218,-5.12685012817,-2.92770004272,-5.89610004425,-2.7499499321,-6.17754983902,-2.2337501049,-5.89624977112,-3.62895011902,-6.30459976196,-3.27099990845,-5.86310005188,-4.39414978027,-6.42185020447,-4.07800006866,-5.55284976959,-4.46124982834,-5.84145021439,-3.29235005379,-5.82210016251,-4.05124998093,-5.24074983597,-5.10850000381,-5.37480020523,-4.52334976196,-4.70170021057,-2.44429993629,-4.52299976349,-2.12295007706,-4.3327498436,-2.39065003395,-4.94315004349,-3.00469994545,-4.95289993286,-2.51119995117,-4.5500497818,-2.75379991531,-5.31220006943,-2.67685008049,-5.42320013046,-2.1031498909,-5.49634981155,-3.89739990234,-3.83275008202,-2.85194993019,-3.52110004425,-3.04294991493,-3.54605007172,-2.39210009575,-5.01375007629,-4.74464988708,-4.43165016174,-3.81159996986,-3.82045006752,-4.40199995041,-3.5720000267,-3.44199991226,-3.37949991226,-4.45650005341,-3.88969993591,-4.83155012131,-2.73620009422,-4.29874992371,-3.32325005531,-4.03324985504,-2.22749996185,-4.65495014191,-2.81909990311,-4.6360001564,-3.10689997673,-5.2310500145,-3.61244988441,-5.02885007858,-3.78294992447,-5.6955499649,-4.31790018082,-5.34130001068,-4.51109981537,-5.09980010986,-3.33310008049,-4.82985019684,-4.02675008774,-5.15175008774,-4.65264987946,-4.96600008011,-2.86665010452,-3.13820004463,-3.07690000534,-3.44024991989,-3.19324994087,-3.08909988403,-3.02504992485,-3.6928999424,-3.46994996071,-3.9077000618,-3.4240000248,-3.44405007362,-2.44659996033,-3.92764997482,-3.01399993896,-4.08549976349,-4.03340005875,-4.79414987564,-5.57280015945,-2.0474998951,-4.75454998016,-1.98300004005,-4.24590015411,-3.10435009003,-4.94964981079,-3.19654989243,-4.6357998848,1.5719499588,-4.95830011368,-0.303900003433,-5.75164985657,-0.316300004721,-5.22189998627,1.93050003052,-3.91770005226,2.92204999924,-3.6373500824,2.48790001869,-0.33575001359,2.76670002937,-2.1031999588,2.91895008087,-2.16525006294,3.23064994812,-0.194100007415,3.04310011864,-3.87744998932,-3.33019995689,-2.63660001755,-3.2811999321,-2.32760000229,-4.03669977188,-3.6454000473,-3.9960000515,-0.694199979305,-3.41634988785,-1.03840005398,-2.70665001869,0.491549998522,-1.57089996338,1.07175004482,-1.92725002766,0.850849986076,-0.263150006533,1.35860002041,-0.312150001526,0.832899987698,1.39295005798,0.534550011158,1.30209994316,-0.406150013208,2.80984997749,-0.233099997044,3.06704998016,-0.65474998951,1.46679997444,-2.39155006409,1.50664997101,-2.57150006294,3.72740006447,0.392500013113,3.06975007057,-2.5123000145,-1.1466499567,-3.0748500824,-1.08920001984,-2.99020004272,1.55924999714,1.77530002594,1.40339994431,1.81054997444,-1.59029996395,0.667349994183,-1.40725004673,0.693149983883,1.37430000305,2.52935004234,0.932150006294,2.21250009537,-2.15024995804,0.80655002594,3.35789990425,2.83949995041,-3.81850004196,3.29800009727,-1.56564998627,1.16949999332,-4.91239976883,0.305949985981,-4.57124996185,1.80830001831,-5.02960014343,0.948300004005,-6.46605014801,1.87779998779,-6.56645011902,0.992950022221,-6.92159986496,0.528550028801,-6.61619997025,1.98959994316,-3.70810008049,2.86474990845,-4.77715015411,1.57829999924,0.252400010824,2.26309990883,-5.94084978104,2.2798500061,-6.17899990082,2.42155003548,-5.73409986496,1.55830001831,-6.60750007629,1.36625003815,-6.02685022354,-2.51915001869,3.9335000515,-2.43484997749,2.35770010948,0.65625,-0.369249999523,-2.69884991646,-3.48410010338,-3.01824998856,-3.42449998856,0.733600020409,-5.54769992828,0.552999973297,-5.75869989395,-0.245199993253,-5.56694984436,-1.37010002136,-5.39764976501,-2.88750004768,-4.20464992523,-2.02344989777,-4.69035005569,-2.69615006447,-4.28429985046,-1.01164996624,-5.08069992065,-1.96774995327,-4.90654993057,-0.00359999993816,-5.44054985046,-0.784449994564,-4.03915023804,-2.42175006866,-4.89419984818,-1.55390000343,-3.59260010719,-0.729149997234,-1.18805003166,-3.73125004768,1.49950003624,-4.57999992371,1.41124999523,-4.84695005417,2.95825004578,-5.52334976196,1.50464999676,-4.82515001297,-1.07500004768,-5.61024999619,-0.978850007057,-6.17759990692,-0.891799986362,-5.98385000229,1.32019996643,-4.88789987564,3.23685002327,-6.30964994431,-1.06914997101,-5.414249897,0.307200014591,-4.78985023499,-3.46344995499,-5.07940006256,-3.0827999115,-5.67329978943,-2.68764996529,-7.40539979935,-3.492000103,-7.76440000534,-3.07929992676,-8.05500030518,-3.34730005264,-8.03839969635,-3.58695006371,-4.26200008392,0.0197000000626,-4.29769992828,1.69885003567,-7.1358499527,-1.90184998512,-7.33090019226,-2.40310001373,-8.16009998322,-3.34220004082,-8.18904972076,-3.16744995117,-7.1454000473,-3.05695009232,-5.03259992599,-3.34809994698,-6.70825004578,-3.02649998665,-4.0936498642,-3.81839990616,-3.75495004654,-4.37659978867,-3.98145008087,-3.66245007515,-3.42560005188,-4.48864984512,-3.36334991455,-3.47460007668,-3.83229994774,-1.21220004559,1.48195004463,-7.10249996185,1.28324997425,-6.7013001442,1.9348000288,-6.88280010223,2.64755010605,-7.23015022278,2.82450008392,-6.94624996185,2.58555006981,-6.94199991226,-0.450450003147,-5.37400007248,0.261849999428,-5.71525001526,0.629149973392,-6.40735006332,-2.65590000153,-4.46355009079,-1.3464499712,-5.02820014954,-2.31745004654,-4.84434986115,-7.12984991074,-3.47270011902,-3.4156498909,-4.53175020218,-3.7990000248,-3.79815006256,-4.89419984818,-3.40659999847,-6.65705013275,-3.0053999424,3.72525000572,-6.89575004578,3.54084992409,-7.0296998024,3.40599989891,-6.85550022125,-8.57264995575,-3.12859988213,-8.4311504364,-2.82249999046,-8.6561498642,-2.96510004997,-9.11964988708,-2.9702000618,-9.14000034332,-2.6944000721,-9.08990001678,-2.86675000191,-2.54509997368,3.57944989204,-2.77734994888,1.49275004864,0.554350018501,2.03169989586,-2.89074993134,-2.46204996109,0.584749996662,-2.71985006332,1.1385999918,1.71710002422,1.41779994965,-3.42280006409,2.16199994087,-3.34404993057,1.04764997959,-6.83514976501,1.94749999046,-6.05319976807,2.02104997635,-4.76114988327,-4.72504997253,1.88394999504,-5.06059980392,-2.38054990768,-4.99364995956,2.12339997292,-5.31155014038,-1.68840003014,-4.52860021591,0.537150025368,-5.68349981308,-1.87425005436,-8.03814983368,-3.25734996796,-7.95664978027,-3.47525000572,-7.10020017624,-2.6467499733,3.98024988174,8.77404975891,2.78320002556,6.79645013809,3.33874988556,8.01039981842,4.28844976425,9.81359958649,2.93175005913,9.2843503952,3.77235007286,10.7256002426,1.25975000858,9.19849967957,2.37415003777,10.2607498169,1.16919994354,5.42904996872,-0.562900006771,4.32035017014,-0.20870000124,5.09240007401,1.70469999313,6.4781999588,-0.182850003242,5.98454999924,1.53194999695,8.00545024872,-1.46564996243,6.4091501236,-0.152300000191,8.39194965363,-1.1222499609,4.23484992981,-2.35649991035,4.23584985733,3.73029994965,11.8692998886,3.63424992561,11.1864995956,3.37374997139,12.3379497528,2.37875008583,11.8783998489,0.683799982071,13.6049995422,0.336400002241,13.1239995956,0.413850009441,12.9798498154,-1.82305002213,13.0735998154,-2.03279995918,12.8920001984,-1.71064996719,12.698800087,2.54699993134,8.33294963837,3.63074994087,9.8606004715,-1.36275005341,5.10570001602,0.782949984074,7.01060009003" style="fill:none; stroke:#00C; stroke-width:1.5px"/>
</svg>