<?xml version="1.0" standalone="no"?>
<!DOCTYPE svg PUBLIC "-//W3C//DTD SVG 1.1//EN"
"http://www.w3.org/Graphics/SVG/1.1/DTD/svg11.dtd">
<svg height="150" version="1.1" width="150" xmlns="http://www.w3.org/2000/svg">
<polygon points="-2.76905106027,2.91164266489,4.97965843845,-5.23608472736,5.13938269797,-5.40403394841,-2.84690373483,2.99350434381,6.43789993839,-6.76941801537,6.60290371455,-6.94291862048,5.24205691615,-5.51199535025,4.5017466419,-4.73356298015,8.91862799384,-9.37789055308,8.01496907621,-8.42769794131,3.18534231941,-3.34937074023,-2.91482786708,3.06492621258,3.32095424373,-3.4919659673,4.7027612981,-4.94492883674,1.75137096529,-1.84155738323,-2.98834657361,3.14223074685,0.187145956168,-0.196782991241,1.75696572744,-1.84744024628,-0.246244682258,0.258924991724,-3.00654908903,3.16137059634,-3.01829001114,3.17371611434,-2.94146160264,3.09293144581,-0.522590330858,0.549500991663,-2.96659839176,3.11936264772,-1.84285584706,1.93775325653,-3.37319744879,3.54689942338,-1.1298887986,1.18807214492,-3.93873283946,4.14155692016,-5.54125382403,5.82659932946,-0.325279386523,0.342029568684,0.290214125546,-0.3051586307,0.712572991592,-0.749266762875,1.01444929832,-1.06668811591,1.01358246714,-1.06577664747,1.87957574767,-1.97636403941,-1.15210994262,1.2114375613,-4.44800649041,4.67705549276,-1.2301990513,1.29354784946,-1.18764795442,1.2488055943,-3.39841295535,3.57341339626,3.70517462792,-3.89597168586,5.91893408532,-6.2237281431,1.99525168207,-2.09799667765,-2.28002883261,2.39743835765,1.96861794651,-2.06999144442,6.28684361493,-6.61058308362,2.88472699467,-3.03327530314,-1.34098943199,1.41004335361,-2.73989554862,2.88098579732,-2.74525397057,2.8866201499,2.12345646444,-2.23280333383,2.41185837458,-2.53605642952,1.34256537766,-1.41170045222,-0.760797568051,0.799974652061,0.21291301319,-0.223876916539,4.67549688369,-4.91626044799,6.07999785639,-6.39308585352,4.2975802822,-4.51888312389,1.860112626,-1.95589866906,3.87396059856,-4.07344924862,2.87684698449,-3.02498951376,14.5721693329,-15.3225596155,9.5152099934,-10.0051933963,7.11580174936,-7.48222821369,10.3507082507,-10.8837154313,3.42725322151,-3.60373878485,5.6068139908,-5.89553550092,3.81643787685,-4.01296440848,1.69376933828,-1.78098957458,0.514552885793,-0.541049660337,2.50216117967,-2.6310093554,4.45880186389,-4.68840677135,5.73683115297,-6.03224786495,3.73322696821,-3.92546857452,3.91312355783,-4.11462889486,5.4165161785,-5.6954383495,-0.293681262395,0.308804306911,1.2422552189,-1.30622484645,3.45514775119,-3.63306973648,4.76737572839,-5.01287057125,7.59836257157,-7.98963838699,9.56761063334,-10.0602923943,7.40703974174,-7.788463435,5.74652335509,-6.04243916463,4.74925230614,-4.99381388782,3.56798685186,-3.75171945895,9.57675087403,-10.0699033094,14.6896570834,-15.446097369,14.7188911247,-15.47683681,11.9629210617,-12.5789487451,8.81374705718,-9.26760879833,7.90236593998,-8.30929633423,3.21252782852,-3.37795616046,3.33127693684,-3.50282022496,11.0561893459,-11.6255251022,6.79729859108,-7.14732381346,4.64263808286,-4.88170959129,-1.3601374021,1.43017734374,-0.864180900732,0.90868168408,-0.787746596072,0.828311413664,1.42073329772,-1.49389361013,3.29668447366,-3.46644643137,4.59992964504,-4.83680189295,-0.602491772367,0.633516938289,-1.29371049808,1.36032980261,-3.32977961467,3.50124579855,-2.93862495678,3.08994872757,-6.49644692615,6.8309798659,-6.1239672762,6.4393194678,-5.19666907948,5.46427027808,-2.35094723346,2.47200868415,-0.477990467029,0.502604468794,-7.5020710414,7.88838834811,-6.66168666676,7.00472858639,-7.95555488153,8.36522422726,-8.21834713429,8.64154890257,-1.35060282273,1.42015178355,-4.92386937911,5.1774228241,-3.50037815297,3.68062926671,0.883722927712,-0.929230022943,3.21544319182,-3.38102164967,-2.47016902215,2.59736976958,-8.79846046866,9.25153503069,-8.88876346162,9.3464881541,3.47043471545,-3.64914389921,-2.9552514326,3.10743137968,2.79253290448,-2.9363337009,-2.31454239048,2.43372918272,-2.47127219352,2.59852974849,4.07395098871,-4.28373809482,-2.81238998908,2.9572133212,-3.83369484366,4.03111001856,-10.8130963671,11.3699141102,-8.99238266481,9.45544320273,-11.2092942014,11.7865140547,-12.1235910577,12.7478924031,-12.9169328386,13.5820871243,-10.5313134852,11.0736208879,-13.2817684428,13.9657098484,-14.4727260992,15.217995577,-9.00372999972,9.46737486586,-10.468747587,11.0078331742,-8.80176998276,9.25501496741,-7.69575727311,8.09204840477,-7.61845562063,8.01076612267,-5.99615645676,6.30492706159,-5.74116530887,6.03680520714,-5.38491798392,5.66221301364,-5.42163826027,5.70082419161,-6.24799590116,6.56973491636,-6.16785816643,6.48547050865,-6.75143807404,7.09910172035,-7.94602011429,8.35519846952,-5.80120961881,6.09994148407,-6.12845886697,6.44404235194,-3.85229132202,4.05066411801,-3.81257677707,4.00890448231,-7.74800010242,8.14698146576,-9.2297238223,9.70500618487,-4.14880920679,4.36245111846,-11.388166525,11.9745973647,-9.14603985755,9.61701293489,-7.4841835836,7.86957978006,-5.8143687699,6.11377826242,-6.87073914378,7.22454616939,-11.3221333021,11.9051637772,-7.52791666322,7.91556488388,-3.23734918428,3.40405568584,-6.2908621496,6.61480855174,-3.43001114993,3.60663873211,-2.23598050749,2.35112177485,-6.49802277789,6.83263686574,-5.9469075203,6.25314206325,-1.47140065103,1.54717006636,-6.57768783225,6.91640425251,-6.63702312162,6.97879499804,-1.18496883738,1.24598851678,-7.81072381121,8.21293511653,-10.4094130491,10.9454432188,-0.241044000468,0.253456502102,-9.9929636036,10.5075488113,-11.0196268801,11.5870798613,-12.0700872464,12.6916334262,-11.6008433859,12.1982259683,-11.4970656206,12.0891041925,-11.7234532182,12.3271495639,-8.41392483897,8.84719783315,-7.90748802175,8.31468217634,-8.97764766197,9.43994942454,-9.60448796882,10.0990687191,-10.1352734614,10.6571868804,-10.204143518,10.7296033836,-10.165610674,10.6890863003,-15.5500556018,16.3508018979,-14.3369563643,15.0752344129,-13.0098351979,13.6797734678,-14.0510756666,14.7746323589,-13.337006668,14.0237925524,-14.8186499796,15.5817327227,-17.7232340588,18.6358876461,-14.0304310319,14.7529246338,-11.4917864797,12.0835532035,-19.3553054574,20.3520021606,-18.6989936419,19.6618937293,-10.6380851433,11.1858907264,-4.93096108768,5.18487971847,-6.13996326102,6.45613916194,-7.34187372577,7.71994171104,-5.39256165392,5.67025029255,-4.67518201393,4.9159293641,-8.64448840617,9.08963421464,-9.11310177567,9.58237871457,-10.547939961,11.09110354,-12.1367502088,12.7617291815,-14.0600588482,14.7840781272,-15.843658499,16.6595238042,-11.3371839262,11.9209894295,-11.4412765612,12.0304422892,-11.2546820381,11.8342391269,-9.32995460609,9.81039832826,-11.7037539442,12.3064358806,-9.52474400916,10.0152183638,-10.7681023055,11.3226030904,-8.58034665626,9.02218950106,-10.6517966316,11.2003082844,-11.2294669073,11.8077255491,-10.0682948778,10.586759251,-14.6906024442,15.4470914109,-12.6669052104,13.3191843848,-11.3337955068,11.9174265242,-12.6614675074,13.3134666686,-10.5425819148,11.0854695825,-9.28228227286,9.76027111993,-8.32165221921,8.75017365748,-4.98147100612,5.23799063276,-9.54365573302,10.0351039423,4.47046369281,-4.70066912329,4.74483962067,-4.9891739722,4.64870552538,-4.88808947527,4.67478786312,-4.91551491659,5.82800097711,-6.1281124568,5.33456587611,-5.60926803639,5.2813773103,-5.55334053845,4.12816419631,-4.34074299824,4.83293589516,-5.08180674271,5.08926693034,-5.35133748163,4.98446527473,-5.24113909049,4.72813423955,-4.97160835157,5.08430265918,-5.34611757655,4.90613973193,-5.15878019309,5.17247783898,-5.43883331558,4.56376095438,-4.79877070443,4.61931367353,-4.85718409723,5.39862909644,-5.67663017654,5.1078634087,-5.37089158108,4.66982359197,-4.91029501152,5.33409319573,-5.60877101546,4.72537631113,-4.96870840431,5.26246558644,-5.53345496001,5.51383197473,-5.79776539876,5.1726356496,-5.43899925262,5.42408094319,-5.70339265989,4.7437364493,-4.98801399329,4.84979871116,-5.09953790528,4.79936807377,-5.0465103546,4.90535180606,-5.15795169317,4.13509847001,-4.34803435066,4.07048366399,-4.28009222106,4.36124935174,-4.58583081653,4.29663492145,-4.51788908202,4.04511072255,-4.25341270623,3.95528040996,-4.15895660375,4.29647711084,-4.51772314498,4.20664717399,-4.42326743759,-15.7645457819,16.5763371971,-15.4478544398,16.2433379121,-15.8994483099,16.7181864977,-16.3797231326,17.2231929545,-15.9557882034,16.7774276002,-15.2873430059,16.0745609813,-15.1957797824,15.9782827321,-14.7718448533,15.5325173779,-15.8027630046,16.6165224064,-15.726800488,16.5366482186,-15.5370550128,16.3371318468,-15.4610924962,16.2572576589,-16.0285193598,16.8539040296,-15.5769269927,16.3790570244,-15.8931433999,16.711556918,-15.973990531,16.7965672522,-16.4708144271,17.3189749729,-16.5292043558,17.3803716765,-15.8523260594,16.6686376984,-16.2099128959,17.0446383813,-15.7715585851,16.5837111229,-16.2683809783,17.1061172633,-16.3980051169,17.2424163651,-16.4359848723,17.2823518787,-16.1575122559,16.9895393833,-16.1955716681,17.0295586555,-15.8283719105,16.6434500366,-15.7067074389,16.5155204829,-15.7475247795,16.5584397024,-15.6258603079,16.4305101487,-15.3315480144,16.1210423159,-15.0706479861,15.8467073046,-15.389937943,16.1824390195,-15.1290364117,15.9081024279,-15.4043588276,16.197602504,-15.1638659666,15.9447255222,-15.4423385829,16.2375380175,-15.2018472249,15.9846626161,-4.41152255425,4.63869282526,-3.69256706251,3.88271489696,-4.27071001859,4.49062918264,-3.39920088122,3.57424189618,-4.98832637451,5.24519901666,-5.13678220443,5.40129954309,-5.80877400776,6.10789539938,-6.1170330025,6.43202811538,-6.08535627835,6.3987202061,-6.79982055505,7.14997564534,-6.11695447293,6.43194554195,-6.87995828978,7.23424005305,-4.72797680467,4.97144280962,-5.91657030771,6.22124264334,-4.9106313227,5.16350307723,-5.68569111928,5.97847438777,-6.74198221211,7.08915893113,-2.83240488431,2.97825887854,-2.81049889185,2.95522484237,-3.68429327725,3.87401505516,-2.80025510405,2.94445355324,-4.10523356205,4.3166315566,-5.41509776164,5.6939468916,-5.50311550656,5.78649708869,-2.85840831674,3.00560135135,-2.87976253565,3.02805520052,-7.10169648603,7.46739660329,-6.09189640124,6.40559711102,-4.82032832974,5.06854995381,-3.82999117875,4.02721563434,-2.79686687251,2.94089084554,-4.5229436138,4.75585148492,-3.5801217369,3.76447922691,-3.92549478305,4.12763717329,-7.47007832028,7.85474816966,-6.24642004942,6.56807791652,-6.03051257975,6.34105234471,-5.34882857431,5.62426518874,-3.48264850579,3.6619866357,-2.76542630068,2.90783124919,-2.76188044639,2.904102802,-7.29041844659,7.66583675488,-4.92024461951,5.1736114084,-4.91567412342,5.16880555574,-5.65377805495,5.94491796802,-4.31003041274,4.53197437084,-2.84989800343,2.99665280154,-2.80057034954,2.94478503222,-7.22745877336,7.59963498873,-3.77680261295,3.97128813639,-2.28199864728,2.39950960745,-4.42452427046,4.65236406166,-2.77220295163,2.91495686211,-3.75355710893,3.94684561085,-3.4208705335,3.59702742188,-4.11697467202,4.32897727215,-2.77921594276,2.92233098551,-2.78189515374,2.9251481618,-3.91611782643,4.1177773526,-7.68204578485,8.07763084679,-7.66612870534,8.06089412117,-7.41641669836,7.7983232557,-2.78662308471,2.93011955641,-2.9223924439,3.07288032543,-7.15118213841,7.51943050719,-8.48287304941,8.91969651476,-8.77891825381,9.23098649428,-1.39449352509,1.46630262686,-2.00265882401,2.10578524855,-1.2693618227,1.33472729816,-2.26616028521,2.38285565281,-0.55797076688,0.586703334553,-0.742043560876,0.78025491189,0.380438189712,-0.400028760904,0.116306284492,-0.122295448061,1.09214444406,-1.14838415411,0.405496026561,-0.426376944909,0.445289195018,-0.468219252808,1.20230442769,-1.26421679906,-0.75086897878,0.789534792523,0.293760050285,-0.308887151964,-0.891917901591,0.93784699499,0.0225363131982,-0.0236968151142,1.10577655733,-1.16271824971,-1.93323736959,2.03278895337,-1.4827476102,1.55910133441,-0.16815557358,0.176814703564,-0.287456197128,0.302258683436,0.24388074026,-0.256439319113,1.18544161169,-1.24648563649,-1.01571009243,1.06801383431,-1.75909316486,1.84967723557,-1.95427653087,2.0549115211,-1.02555982336,1.07837077472,-1.64349613577,1.72812756584,1.77233140914,-1.86359717999,0.438039722791,-0.460596470788,0.640472561026,-0.673453538336,-0.22173840761,0.233156772478,-2.04883458655,2.15433882065,1.55161729107,-1.63151744259,-0.641654543767,0.674696386989,-0.687672730525,0.723084268976,-1.28677622438,1.35303845019,-0.0502733140574,0.052862126024,1.5538236338,-1.6338374004,-1.15163716831,1.2109404416,-1.14659408579,1.20563766677,-1.80274752704,1.89557956842,-2.45023303224,2.57640718076,-1.66232895432,1.74793017576,1.95419781343,-2.05482875013,1.95687702441,-2.05764592642,1.65996498884,-1.74544447846,1.53294209527,-1.61188057217,2.76668709479,-2.90915696758,3.09362128533,-3.25292655401,-3.79122237029,3.9864504356,-1.99044503367,2.09294251207,-4.8487744451,5.0984608949,-4.02564741301,4.23294713834,-4.74389388418,4.98817953524,-0.968903838902,1.01879730424,-1.21325742392,1.27573381714,-2.94752923303,3.09931152734,-2.77716722278,2.92017676719,6.88074583991,-7.23506815788,7.72995558549,-8.12800775085,5.40130811955,-5.67944715528,4.85413286706,-5.10409524748,3.82297837549,-4.01984170849,3.89334500279,-4.09383184799,4.64106223112,-4.88005259145,4.44209648277,-4.67084115072,6.346099999,-6.67289086064,5.92996579899,-6.23532793215,6.53860415403,-6.87530796987,7.71072899187,-8.10779108852,7.84878322337,-8.25295438878,6.69076364885,-7.03530288053,5.93162055604,-6.23706790051,5.76669568519,-6.06365026392,6.80234176754,-7.15262668705,6.38896587169,-6.71796410092,4.68865641052,-4.93009762143,3.04571186043,-3.20255004504,2.75203062152,-2.89374576282,4.05377828287,-4.26252660044,5.40643020132,-5.68483299739,5.61942193195,-5.90879268491,7.09090148829,-7.45604571979,7.10287856271,-7.46863955072,5.14812916359,-5.41323081114,7.78085927899,-8.18153271755,8.45765791859,-8.89318293696,6.47643203093,-6.80993430856,5.38342103749,-5.66063898232,4.96468671969,-5.22034204361,4.52034312026,-4.7531170796,4.43855062848,-4.66711270354,4.92788791377,-5.18164829222,5.60760191667,-5.89636400084,4.30758772982,-4.52940590256,3.9714342054,-4.17594223492,4.87194104381,-5.12282045192,4.92095364007,-5.1743569398,7.59670781452,-7.98789841863,7.92419340287,-8.33224779696,6.08330737049,-6.39656579024,5.27263046893,-5.54414328063,-12.8751686343,13.5381722826,-12.4706977662,13.1128732864,-10.923965841,11.4864927804,-11.2847043809,11.8658074629,-10.5304470297,11.0727098146,-11.2583853273,11.838133116,-9.60109954941,10.0955058139,-9.00900914063,9.47292585484,-9.11491434334,9.58428461997,-9.31458911226,9.79424159209,-14.6510460856,15.4054981073,-13.9451712154,14.6632743839,-9.36178951659,9.84387256966,-14.619054116,15.371858719,-13.9193248421,14.636097058,-13.179882902,13.8585777367,-13.3271562795,14.0134349206,-10.7602230468,11.3143180912,-8.82588194222,9.2803685663,-8.44875364234,8.8838201372,-11.153111367,11.7274380991,-10.0249555732,10.5411881996,-10.5696885186,11.1139720342,-13.2195970712,13.9003369773,-13.5406995958,14.2379745976,-13.0559324308,13.7282444665,-12.5881066115,13.2363280714,-15.3060172623,16.094196864,-13.8637724987,14.5776840603,-14.6854022086,15.4416233904,-13.3150213944,14.0006751526,-12.066462111,12.6878216154,-11.8674178331,12.4785276013,-12.1718946334,12.7986833596,-12.3866981802,13.0245481624,-13.2277911997,13.9089530604,-11.4693285258,12.0599387828,-12.1467576564,12.7722519602,-12.30569399,12.9393726813,-12.7486195483,13.4051065825,-14.5441962736,15.2931460905,-13.7015266509,14.4070834024,-14.0450878809,14.7683362336,-13.0564058627,13.7287422776,2.99402005319,-3.14819638087,0.82817011462,-0.870816531377,0.050824899741,-0.0534421154769,1.34343220884,-1.41261192066,3.85150339615,-4.04983561809,4.76721829351,-5.0127050293,0.783491486384,-0.823837188148,2.09950193987,-2.20761527688,2.41319788613,-2.5374649189,3.93132588538,-4.13376854681,2.8594325828,-3.00667836173,0.880255790863,-0.925584346733,-0.209761074869,0.220562669929,-0.326067359361,0.34285811799,0.608795649008,-0.64014543151,1.91148918774,-2.00992085424,3.07132132993,-3.22947826789,4.76028401981,-5.00541367688,-0.442531266601,0.465319305544,0.520777951059,-0.547595283811,-1.60590940398,1.68860531453,-1.88611605843,1.98324114187,-6.18078097734,6.49905877654,-6.01333451825,6.32298970315,-4.31570408019,4.5379402024,-2.295315609,2.41351232284,-3.9139114837,4.11545739478,-6.50582388277,6.8408396866,-4.61198562477,4.84947869239,-5.82934048867,6.12952094617,-3.88381061129,4.08380648534,-1.262427549,1.32743594574,-7.21303864028,7.58447229444,-6.0123102522,6.32191269276,-7.30436589929,7.68050242824,-2.09241004342,2.20015818497,-1.46824866574,1.54385577037,0.384378100871,-0.40417155682,-3.17210426301,3.33545099336,-1.63608899383,1.72033899495,-1.5523264995,1.63226317154,0.28004914912,-0.294470211309,-7.72546399471,8.12328486671,-8.32314916564,8.7517476888,-5.35339869465,5.62907064631,-2.5336017515,2.66406895175,-0.869854380315,0.914647318102,-1.55618759929,1.63632309771,-2.90056535675,3.04992925778,-5.45063596131,5.73131512215,-9.00869427087,9.47259477094,-1.45296179542,1.52778170641,-5.54125382403,5.82659932946,1.01366127851,-1.06585951722,-1.22649548033,1.28965356401,0.00480669610492,-0.00505421574092,1.35997987328,-1.43001170302,-4.42216049285,4.6498785619,-7.35850020159,7.73742436314,0.348446079166,-0.366389224477,-1.35005123705,1.41957179409,7.94137146437,-8.35031043852,8.45655474722,-8.89202295806,6.21458551465,-6.5346040702,4.90346033308,-5.15596281925,-5.34890710388,5.62434776217,-1.82323510264,1.91712214669,-0.591538823103,0.621999969591,-5.17121723273,5.43750779473,7.05709695098,-7.42050042613,3.78531273839,-3.98023648865,2.04489458146,-2.15019592596,4.85090188253,-5.10069788419,2.39649269288,-2.51989949582,3.7308631906,-3.92298307476,-2.98188516815,3.13543661291,-5.56465713866,5.85120779203,2.99732975516,-3.15167651513,0.494222932941,-0.519672821554,11.8003603442,-12.4080170034,11.4659401064,-12.0563758775,0.296360402922,-0.311621409122,-4.95657074505,5.21180813886,8.93202386086,-9.39197623699,5.19895395179,-5.46667280932,-9.23334820616,9.70881720548,-9.47896239743,9.96707923923,-11.1654822165,11.7404459824,-10.7330375377,11.285732671,-10.1485904231,10.6711895958,-11.1218280422,11.6945438471,-7.51042373196,7.89717115842,-7.09200465966,7.4572056987,-6.28124885279,6.60470022057,-9.5342787764,10.0252441216,-7.58599097061,7.97662971347,-7.87439288074,8.27988280917,-7.98904454908,8.40043843703,-8.83321036672,9.28807436622,-10.2319587667,10.7588509717,-8.01835749562,8.43126084655,-10.7805528118,11.3356947324,-10.0686886529,10.5871733034,-4.23178377525,4.44969844195,-4.20420449107,4.42069896931,-8.64086402231,9.08582319402,-9.23602722927,9.71163418423,-9.48400557389,9.97238211283,-9.48455715957,9.97296210228,-9.42766492886,9.91314022011,-11.0410598165,11.6096164814,-9.56642855666,10.0590494469,-9.13681996007,9.60731826105,-10.7863053845,11.3417435325,-9.95955359283,10.4724183603,-6.25162066076,6.57354633207,-6.61590505503,6.9565894618,-5.26530242017,5.53643787579,-8.62565558762,9.06983160472,-7.89692898846,8.30357940822,-8.03592933218,8.44973754052,-9.26486749543,9.74195957281,-8.27776132897,8.70402261662,-6.83866826882,7.1908238126,-4.04321962531,4.25142422741,-8.67017696884,9.11664560354,-10.1165195482,10.637467239,-3.8124982475,4.00882190888,-2.80419510914,2.94859644793,-10.8991444852,11.460393255,-11.6254280257,12.2240765881,-6.65357069213,6.99619468163,-9.38992038645,9.87345203176,-2.14181660262,2.25210892281,-1.79872880451,1.89135390275,1.70732264018,-1.79524080043,0.928953141631,-0.976789355625,-15.0589850299,15.8344437674,-13.4357405053,14.1276106645,-14.1928346903,14.9236912286,-15.6230227227,16.4275264427,-10.8799171401,11.4401758025,-12.2740957954,12.9061473454,-7.90126276861,8.30813635532,-6.96884249013,7.32770132349,-2.70648516211,2.84585495116,0.442767653755,-0.465567865397,-12.9016447471,13.5660117763,-12.39055928,13.0286080885,-9.9163720989,10.4270132459,-6.80289335322,7.15320667651,3.13443862591,-3.29584577353,-0.44347681522,0.466313544957,-16.582314392,17.4362166011,-16.1259922152,16.9563962258,-8.04735482092,8.461751382,-13.7204383748,14.4269689809,5.17878162168,-5.44546171003,7.43792929149,-7.82094363453,7.53288093437,-7.92078478895,5.44827180796,-5.7288292273,5.61697924903,-5.90622421663,7.83593894203,-8.23944869432,7.89346166374,-8.29993353446,5.7813525342,-6.07906186377,5.90467176286,-6.20873138584,8.19139834111,-8.6132123879,8.32425233701,-8.75290766771,6.09110847537,-6.4047686111,-14.1370448794,14.8650285352,-13.8015214703,14.5122274304,-12.4112046662,13.0503166038,-12.8351403468,13.4960827483,-14.6973011292,15.454135043,-14.4130751886,15.1552729574,-13.0289828862,13.6999071616,-13.3537902029,14.0414403514,-15.1938875579,15.976293068,-14.9382659191,15.7075082556,-13.5064216266,14.2019314928,-13.8222457618,14.5340189143,-11.4188193588,12.0068286587,-11.658208297,12.2585448714,-11.010485888,11.577468156,-10.9548546392,11.5189721897,-10.7302007039,11.2827497552,-10.9695896421,11.5344659679,-11.4335543617,12.0223224369,-11.9130416342,12.5265007888,-12.1524313238,12.7782177917,-11.4490776661,12.0386451101,-11.2244237308,11.8024226755,-11.4638126689,12.0541388883,-11.9277773885,12.5419953572,-11.9071320023,12.5202868419,-1.30750014017,1.37482953893,-2.12392933269,2.2333005523,-3.17407426556,3.33752244071,-2.52367302132,2.65362894406,-11.4612125511,12.051404878,-11.5860287262,12.1826484314,-12.7552385765,13.4120664559,-12.440202743,13.0808079295,-7.03526948808,7.39754896339,-7.20571021577,7.57676649451,-11.137430252,11.7109494888,-11.3314313534,11.9149406294,-12.7635123618,13.4207662977,-13.145131501,13.8220368208,-6.49361009242,6.82799695011,-6.75143807404,7.09910172035,-6.76617382835,7.11459628872,-7.20901972987,7.58024643123,-7.4087734041,7.79028637187,-7.15094542249,7.51918160164,-6.69336376665,7.03803689076,-6.99145750316,7.35148089106,-7.24928548477,7.62258566129,-7.70686789209,8.10373116235,-7.90662156631,8.31377110299,-7.6487935847,8.04266633275,-7.19121117738,7.5615208317,-7.66935931413,8.06429108937,3.14090021924,-3.30264010501,0.460103244067,-0.483796147676,0.413297084472,-0.434579716382,3.34435755837,-3.51657442988,-5.2158956731,5.48448694041,-7.40893121472,7.79045230891,-7.2099658421,7.58124126327,-5.11408828609,5.37743700701,0.696892158331,-0.732778448955,3.09866427392,-3.25822923006,3.5222837697,-3.70366290779,0.877813014007,-0.923015779682,-2.53643839735,2.66705166999,-2.42895753077,2.55403610256,1.83907346471,-1.93377610133,2.05726599455,-2.16320440193,2.28042279554,-2.39785260761,1.80534783271,-1.89831377619,0.350416034745,-0.368460622436,-0.723525987824,0.760783780959,-4.92993682163,5.18380270808,-2.63745785849,2.77327310348,-0.148771192832,0.156432128887,-0.893336318454,0.939338452881,-4.29695016695,4.518220561,-2.26726345658,2.38401563171,5.79498436567,-6.09339566305,5.26900570934,-5.54033186493,4.97650635923,-5.23277033259,5.52376089277,-5.808205604,2.70419991406,-2.84345202483,2.7086127874,-2.84809213799,3.79626554675,-3.99175330919,4.65248809559,-4.89206682801,0.995380139581,-1.04663699553,2.56417549215,-2.69621707968,-1.45367100385,1.52852743535,-0.453641791645,0.477001964348,-1.36533810737,1.43564585805,-0.340566256848,0.358103632644,1.67722176777,-1.76358989099,0.480196809763,-0.504924426606,-1.95971367027,2.06062864466,4.86721311284,-5.11784905731,4.80874503039,-5.0563701753,4.73979644421,-4.9838710986,4.60662720281,-4.84384433981,3.67877742042,-3.86821516064,5.60232277576,-5.89081301187,3.37138525686,-3.54499391307,1.82457461419,-1.91853063606,0.364757332968,-0.38354042229,1.52183157022,-1.60019791336,3.66774570675,-3.85661537158,2.74021079411,-2.8813172763,2.86644576181,-3.01405268267,-1.81362161796,1.90701361798,-2.5643331149,2.69638281917,0.656153441255,-0.689941901643,0.8239150519,-0.866342355247,-2.45070590048,2.57690439924,5.79049277489,-6.08867277891,6.50739973451,-6.84249668644,6.07534883074,-6.38819742743,6.00261805008,-6.31172139308,5.399338117,-5.67737570794,-0.109135647122,0.114755560481,1.56217623043,-1.64262011194,1.49330654956,-1.57020400376,-0.187855141116,0.197528695494,0.797990336904,-0.839082653416,4.27764429229,-4.49792053506,2.80600748894,-2.95050215578,1.93591658057,-2.03560612966,3.17801427065,-3.34166533539,2.76542630068,-2.90783124919,4.30695723882,-4.52874294459,5.60689289611,-5.89561846944,5.79135960607,-6.08958424735,5.32589831579,-5.60015414218,4.12516955197,-4.33759414542,5.96904985295,-6.27642460988,5.77378776951,-6.07110755338,4.74231803244,-4.9865225354,3.99452227454,-4.20021921851,2.14875087632,-2.25940027523,1.01870436104,-1.07116229204,1.7543652339,-1.84470584097,5.13378793582,-5.39815108536,2.44526876108,-2.57118727568,2.56078707274,-2.69265417444,2.42005325452,-2.5446733028,2.33629076019,-2.45659747939,0.17532621095,-0.184354591145,2.70207247664,-2.84121503553,2.67551745852,-2.81329257327,2.97038058624,-3.12333960537,0.813040867042,-0.854908206909,-1.78777580828,1.87983688467,-4.09908758996,4.31016909919,-3.52874536302,3.71045723927,-0.247032655097,0.25975354103,-3.74843502716,3.94145976874,-0.122373762236,0.128675369083,-3.04618454081,3.20304706597,2.80695303756,-2.95149639519,0.169022346051,-0.17772611027,0.888529576116,-0.934284188526,-2.24401795256,2.35957310617,2.99402005319,-3.14819638087,3.08455938634,-3.24339801475,1.04533819053,-1.09916762405,-3.369336349,3.54283949721,-1.37510912086,1.44592002749,-2.78339228804,2.92672239066,-2.84004817857,2.98629576236,0.105432123118,-0.110861324417,6.1438243608,-6.46019908811,3.40652930573,-3.58194769611,2.66275208249,-2.79986984734,5.64660744106,-5.93737810514,7.2422726815,-7.61521173544,4.50497762643,-4.73696034344,3.87159682095,-4.07096374886,6.85553070908,-7.20855458009,-9.02201123258,9.48659748633,-6.34452414725,6.6712338608,-7.02234705292,7.38396109059,-6.28936482742,6.61323412533,-2.43494625585,2.56033321557,-1.87729068749,1.97396131062,-0.800039150825,0.841236970507,0.71470056992,-0.751503900327,-0.126392473027,0.132901022399,-1.4878695041,1.56448697898,1.85790628326,-1.95357871125,1.28921900124,-1.35560701724,1.79108532238,-1.88331682139,1.91960535025,-2.01845495654,-2.42068374551,2.54533626077,-5.72627249542,6.02114549191,-5.18902540948,5.45623299917,1.82969650809,-1.92391628063,-1.31175529683,1.37930381383,2.12912994403,-2.23876896785,-7.10618807681,7.47211948743,-7.40727645767,7.78871234055,-5.85234965249,6.15371496124,-4.66028882473,4.90026925378,-9.94079967959,10.4526987189,-11.094248758,11.6655443745,-5.45607291284,5.73703204816,-7.09137416866,7.45654274072,-7.28222356664,7.6572198816,-4.01335509309,4.22002182843,-9.98610861095,10.5003408225,-10.9380703528,11.5013236006,-6.36225304296,6.68987570163,-5.83911159609,6.13979521437,-5.94470117757,6.25082210543,-6.46216970846,6.7949375513,-5.06476044433,5.32556904014,-5.96786777628,6.27518166246,-8.17666333827,8.59771860971,-7.26843392456,7.64272014528,-9.9083342781,10.4185615195,-9.27093493795,9.7483394568,-10.4217049933,10.9583681336,-9.77091053759,10.2740611772,-7.36976863119,7.74927305775,-6.03760428833,6.34850923908,-4.53507849883,4.76861125288,-6.78138151157,7.13058708784,-10.3856159594,10.9204207038,-7.70702495123,8.10389630921,-5.16120978512,5.42698501606,-4.63318222093,4.87176680207,-8.59862788913,9.04141212153,-8.10259229458,8.51983329581,-7.22753767867,7.59971795725,-8.60895020649,9.0522659841,-8.4523780262,8.88763115781,-6.96513920097,7.32380733435,-9.35753464174,9.83939859108,-5.41147300204,5.6901354759,-6.0760578513,6.38894295883,-7.22698609298,7.5991379678,-10.4365985582,10.974028639,-10.3801790079,10.9147037778,-10.1771150681,10.7011831103,-10.1991003416,10.72430051,-7.10398173408,7.46979952962,-5.37688053886,5.65376168232,-4.57818108746,4.81393339873,-6.20473550192,6.52424683348,-4.44509075137,4.67398960845,-5.53376796465,5.81872798758,-14.2728146144,15.0077896993,-14.1587926855,14.8878962392,-13.9684956247,14.687799878,-14.0843286183,14.8095976631,-13.7374593771,14.4448664756,-10.2516587921,10.7795654451,-10.0061227547,10.5213855897,-9.25068407828,9.72704578408,-7.05402340132,7.41726860479,-8.19982993698,8.62207816673,-6.90462183492,7.2601736414,-6.57043831305,6.9087814211,-7.75761377497,8.15709019201,-8.77040850411,9.22203853711,-5.37231041851,5.64895622475,-6.12231251914,6.43757949944,-5.1408796444,5.40560797973,-5.78229789495,6.08005590564,-11.705723571,12.3085069329,-11.7670284872,12.3729687307,-10.8987499587,11.4599784124,-9.59101394797,10.0849008569,-10.2220302244,10.7484111615,-7.39766278512,7.7786036143,-7.80607440981,8.20804629535,-5.62667145114,5.91641551631,-5.43259106863,5.71234101215,-5.38759738277,5.66503038748,-5.44346534743,5.72377525926,-7.21138388323,7.58273232608,-4.59575329976,4.83241048779,-10.7247637524,11.2770328292,-11.0952730241,11.6666213848,-8.9897036417,9.45262622398,-11.3339533174,11.9175924613,-4.69330543618,4.93498604752,-6.5906899242,6.930075884,-5.14348013794,5.40834238505,-6.93740210617,7.29464192467,-7.84484321828,8.24881149409,-5.58073202879,5.86811045469,-10.4369923333,10.9744426915,-7.15055164742,7.51876754922,-7.71514167734,8.11243100414,-4.92631206203,5.17999129238,-10.6446260177,11.1927684215,-10.9893685728,11.5552634099,-11.4064477579,11.9938199852,-9.41994272929,9.90502036777,-6.94370626462,7.30127071421,-5.10329291261,5.36608572842,-8.57451592967,9.01605852264,-8.28477413224,8.71139654248,-9.07764248131,9.54509345255,-9.31624386931,9.79598156045,-7.98589209412,8.39712364717,-7.61223111897,8.00422109183,-8.40502056273,8.83783503338,-8.72762078524,9.17704747516,-10.3092604191,10.8401332538,-7.38962571579,7.77015267806,-1.46029003205,1.53548730879,-2.06609136549,2.17248423318,-2.81483285987,2.95978198702,-3.38801173267,3.56247656518,-7.18262252237,7.55248990601,-6.83504313349,7.18701200181,-3.78318492522,3.97799910427,-11.4473440038,12.0368221732,-10.9390946189,11.502400611,-11.1659548969,11.7409430033,-4.03691546686,4.24479543787,-11.5662505469,12.1618517796,-6.94764626971,7.3054136089,8.10054376246,-8.51767927503,5.2949306122,-5.5675917643,4.72986790191,-4.97343128845,7.71380179005,-8.11102211968,-7.57283181951,7.96279293512,-7.32611445688,7.70337092246,-7.99195953664,8.40350353115,-8.31455975915,8.74271597293,0.13048998345,-0.137209533116,-0.948179923115,0.997006215502,-0.716906912654,0.753823858138,-1.32578137304,1.39405215939,-8.91665761555,9.37581871065,-5.3084839141,5.58184299016,-2.72287510986,2.86308889525,-1.38283132043,1.45403987983,-0.562698650877,0.591674679776,-4.10602186366,4.31746045161,0.49138619315,-0.516690004543,1.60338781575,-1.68595387773,-5.4706504808,5.7523602844,-9.10301617423,9.57177375756,-9.10246458855,9.57119376811,-6.08819273634,6.40170272679,3.51164620683,-3.69247756623,2.6317054736,-2.76722450094,-1.39669986783,1.46862258467,-3.26311627653,3.43114964818,-3.9000429363,4.10087468994,-9.98870872875,10.5030748328,-6.68154375137,7.02560820669,-8.51013746383,8.94836490351,-7.19042362725,7.56069272687,-10.7361892412,11.2890466707,-0.802954701991,0.844302657264,-11.4213405713,12.0094797004,-11.0472850696,11.6161623024,-3.72944477373,3.92149161687,-7.52831043828,7.91597893629,-12.1251669094,12.749549403,-8.01733322956,8.43018383616,-8.24277471498,8.66723437554,-7.40191841145,7.78307838306,-6.44664640402,6.7786148781,-7.055205478,7.41851155221,-6.53143354014,6.86776810699,-8.80831010565,9.26189187232,-8.64220315812,9.08723128831,-8.87079709851,9.32759661754,-8.07974131711,8.49580561286,-9.29205300454,9.77054499304,-9.73560830236,10.236941062,-9.29228896899,9.77079310842,-9.93583465696,10.4474780236,-9.24004613967,9.71586004743,-10.1206173639,10.6417760707,-8.7511022537,9.20173811608,-9.2059267326,9.67998366987,-9.17543170939,9.64791831293,-8.25924338018,8.68455109061,-8.47050219993,8.90668863142,-7.40971951633,7.79128120392,-7.12809369353,7.49515312851,-6.82826629466,7.17988619134,-7.79023623561,8.19139253825,-7.80560172944,8.20754927441,-7.17072360178,7.53997825342,-8.37184651641,8.80295269769,-8.54677883487,8.98689311295,-8.66206024273,9.10811090861,-6.04028368718,6.35132661291,-5.54913383422,5.83488511883,-5.58845422836,5.87623030703,-7.90149948454,8.30838526088,-6.98412983013,7.34377588131,-6.02089928295,6.33094401354,-5.62935047425,5.91923249506,-5.32597684536,5.60023671561,-6.13003471871,6.44569935178,-4.3121582259,4.53421175522,-5.23732898519,5.50702395565,-3.51046413016,3.69123461881,-4.44280550333,4.67158668212,-4.8963686245,5.14850592488,-5.69309807336,5.98626276113,-5.96180033376,6.26880177847,-6.80486373151,7.15527851894,-7.10933978029,7.47543348712,-5.25285228963,5.52334662885,-6.34602109369,6.67280789212,-7.33241786384,7.70999892182,-4.51774300246,4.75038306938,-4.8490896906,5.09879237388,-5.03245322919,5.29159817289,-4.76737572839,5.01287057125,-5.46852304337,5.75012329511,-5.39610750821,5.67397873974,-3.855758271,4.05430959667,-4.7499613267,4.99455941922,-6.35650122167,6.68382769172,-8.78254338914,9.23479830507,-7.49300895454,7.87885961131,-6.69139413984,7.0359658385,-7.80047964767,8.2021634323,-7.30586284573,7.68207645956,-7.81411223062,8.21649802176,-9.06440442491,9.53117370568,-8.22953665858,8.65331462867,-6.17416194914,6.4920989031,-5.73233993793,6.02752537589,-0.529130594654,0.556378044737,-3.31457155572,3.48525460433,-3.41236040806,3.58807906962,-0.305895005774,0.321646994007,-6.11072921979,6.42539972093,-4.1551918948,4.36916248143,-3.66821838712,3.85711239251,-5.74502640866,6.04086513331,-1.0940355413,1.15037263294,-1.63648314463,1.72075344245,0.77466606848,-0.814557307516,1.68904159519,-1.77601837751,1.34091062061,-1.40996048386,2.14110739419,-2.25136319386,1.31262203407,-1.3802151835,0.842432624952,-0.885813486178,-0.640078598091,0.673039288376,-0.367357662121,0.386274654755,-1.0318637,1.08499926794,-3.76900150807,3.96308531553,-4.05259658193,4.2612840481,0.618566662499,-0.650419600941,-3.95929932037,4.16318246696,-4.8458590818,5.09539540568,-4.71245350022,4.95512013643,2.79781242112,-2.94188508496,2.85336514028,-3.00029847775,1.05172087854,-1.10587898701,1.09238078425,-1.14863266458,3.98616958398,-4.1914364082,3.48682485107,-3.66637804085,1.27109539112,-1.33655013627,4.47495528359,-4.70539200743,5.19753591066,-5.46518174652,1.84309218725,-1.938001767,0.482166765343,-0.506995824564,2.84981928599,-2.99657003057,1.4944885323,-1.57144685241,2.95934887257,-3.11173981631,1.56485544141,-1.64543728823,0.832976856958,-0.875870795732,3.13554179728,-3.29700575243,4.51474835811,-4.74723421656,2.48734708365,-2.61543241114,3.566568435,-3.75022800105,3.59296601824,-3.77798492136,3.81628044197,-4.01279886653,2.45582779438,-2.58229004381,2.15316356179,-2.26404019085,-3.97009469385,4.17453374555,-3.83724069795,4.03483846574,1.03422766548,-1.08748496524,-4.2532956169,4.47231803062,-4.75665926021,5.00160226118,1.15612866515,-1.21566322696,0.871509137366,-0.916387286461,-0.386426844341,0.406325799832,-2.1592310043,2.27042007483,-4.55060180328,4.78493392608,-3.1888881737,3.35309918741,-4.24904074205,4.46784405203,-1.59432591676,1.67642533847,-3.10110695684,3.26079769834,-0.00567347738177,0.00596563170685,-1.23626649382,1.29992773344,-3.81659568747,4.01313034552,-2.44889352068,2.57499869139,-1.14911558008,1.2082890048,-5.88032308748,6.18312888139,-7.21792400612,7.58960923099,-7.63862832647,8.03197761705,-8.70461124567,9.152853065,-7.60427220347,7.99585233393,-8.84156305728,9.29685717653,-9.73568720767,10.2370240306,-9.43034395197,9.91595719886,-7.70316385144,8.09983638304,-9.94379357246,10.4558467815,-8.53267357155,8.97206150256,-7.54864095474,7.93735636771,-8.0049616286,8.41717516264,-8.94092738563,9.40133824657,-11.6706580518,12.2716357233,-12.2364301583,12.8665421256,-12.6944063407,13.3481016791,-12.6682443462,13.3205924791,-6.71676708128,7.06264535334,-6.773028821,7.12180427753,-11.2458566672,11.8249592957,-11.5532492065,12.1481809383,-12.8600398564,13.522264452,-12.9056636575,13.5702376395,-11.2609072912,11.8407849479,-7.93120620614,8.33962172282,-10.5719737666,11.1163749606,-6.45145286455,6.78366884614,-5.91767347908,6.22240262224,-6.27462982459,6.59774034714,-5.39862909644,5.67663017654,-5.30052499861,5.57347423226,-6.03957429088,6.35058068642,2.33550283432,-2.45576897947,2.02235828587,-2.12649912936,3.04917899728,-3.20619572125,4.17244886161,-4.38730809151,4.45131600451,-4.68053542947,4.07473891458,-4.28456659474,-0.709893874549,0.746449685357,0.412666687414,-0.433916857183,0.991518945861,-1.04257697059,-4.18560801271,4.40114486986,-2.12195933014,2.23122910496,-3.6522224023,3.84029269838,-11.2364008052,11.8150165064,-5.38294798138,5.6601415663,-5.98709474563,6.29539871988,-7.71309239374,8.11027619319,-10.4912844462,11.0315305634,5.87086722555,-6.17318609218,5.58025897268,-5.86761303866,5.36773992243,-5.64415037209,-13.5102045726,14.2059092406,-13.2872061458,13.9714275646,-13.6417975865,14.3442786045,-14.372257848,15.1123537379,-14.4043294744,15.1460768848,-14.3253730649,15.0630546344,-4.01099093974,4.21753593358,-4.37700899637,4.60240200019,0.873636762661,-0.918624473298,-4.55572350931,4.79031937311,0.921546093623,-0.969000883498,1.79439483648,-1.8867967581,2.23440446788,-2.34946457746,3.40723832629,-3.58269322751,1.65106071259,-1.73608167869,3.06919370464,-3.22724108105,3.18510597923,-3.34912222976,-7.4465179465,7.82997456023,-7.97533306082,8.38602087905,-7.86982238465,8.27507695651,-8.37082225035,8.8018756873,-7.13691981595,7.50443374994,-8.95700227576,9.41824090923,-12.6678505711,13.3201784266,-12.5394092607,13.1851230625,-11.1896738328,11.76588334,6.27273835161,-6.59575147322,4.38622851811,-4.61209627894,5.26175619014,-5.53270903352,6.7584508773,-7.1064756462,4.62033831533,-4.8582615027,5.94509532838,-6.25123655294,1.98532313977,-2.0875568675,3.74157965877,-3.93425138484,1.842619319,-1.93750454852,-0.887111253188,0.932792829407,-0.328904099153,0.345840935001,2.68654917219,-2.82489236233,-0.288165382076,0.303004387689,2.4143010575,-2.5386248978,-2.30981445952,2.42875778811,-0.240019616991,0.25237936825,-1.76862774423,1.85970279577,-3.71376365867,3.90500300664,5.8788257653,-6.18155445498,5.72745419635,-6.02238804425,5.31691513423,-5.5907083739,3.74882917797,-3.94187421624,1.07764549961,-1.13313859007,0.530154954647,-0.557455153897,0.652213530096,-0.685799105726,-2.87306479001,3.02101255611,-3.20362355228,3.36859336069,-2.69592612881,2.83475218303,4.01398520834,-4.22068439131,5.72193833952,-6.01658814972,-2.14764770495,2.25824029632,1.23390252834,-1.29744203614" style="fill:none; stroke:#00C; stroke-width:1.5px"/>
</svg>