<?xml version="1.0" standalone="no"?>
<!DOCTYPE svg PUBLIC "-//W3C//DTD SVG 1.1//EN"
"http://www.w3.org/Graphics/SVG/1.1/DTD/svg11.dtd">
<svg height="150" version="1.1" width="150" xmlns="http://www.w3.org/2000/svg">
<polygon points="-5.27115011215,21.610499382,9.47924995422,15.629699707,9.78330016136,18.0152993202,-5.41935002804,23.997449398,12.2551503181,-1.83359992504,12.5692505836,0.246000006795,9.97875022888,-4.19460010529,8.56949973106,-5.25149989128,16.9774503708,5.9087998867,15.257250309,6.94274997711,6.06359982491,10.1751000881,-5.54865002632,15.3146996498,6.32174992561,-10.2265498638,8.95215010643,-2.95305007696,3.33389997482,2.67884999514,-5.68859982491,6.77984976768,0.35624999553,-16.3191003799,3.34455013275,-8.66040015221,-0.46875,-2.24879997969,-5.72325003147,-5.19044995308,-5.74559998512,0.0863999985158,-5.59934985638,-19.6399497986,-0.994800031185,-11.7022497654,-5.64720010757,-13.254149437,-3.50805008411,-4.9593000412,-6.42119979858,-5.17724990845,-2.150849998,-4.10010015965,-7.49774980545,-8.03759980202,-10.5482997894,-7.01624965668,-0.619200021029,-7.11749982834,0.552449986339,-1.74239999056,1.35644996166,-2.2351500392,1.93110001087,3.42015016079,1.92944991589,3.03135001659,3.57794988155,-4.56524991989,-2.19315004349,-10.3655998707,-8.46720027924,-4.9279500246,-2.34180003405,6.28049969673,-2.26080000401,6.98099970818,-6.46919989586,-5.96759998798,7.05314970016,-2.84490001202,11.2672498226,1.22700002789,3.79814994335,1.31354999542,-4.34025013447,-8.06790018082,3.7474501133,-2.61629998684,11.9676003456,5.72309982777,5.49135017395,10.5692996979,-2.55269998312,12.0675001144,-5.21564984322,11.3815498352,-5.22585010529,14.7058496475,4.04219985008,-1.20060002804,4.5912001133,7.45005011559,2.5556999445,4.22775006294,-1.44824999571,7.71209979057,0.405300021172,11.0329499245,8.90024971962,10.808549881,11.5738499165,2.67600005865,8.18084979057,0.0883499979973,3.54089999199,15.7483506203,7.37444972992,-0.731700003147,5.47634983063,-0.477599993348,27.7395000458,-1.82834994793,18.1131005287,1.11390003562,13.5456004143,13.0273504257,19.7035503387,16.6817994118,6.52410006523,20.4661502838,10.6730997562,27.0928487778,7.26494979858,-11.9117996693,3.22424983978,-12.3029994965,0.979499995708,-10.7293503284,4.76310002804,-11.7241501808,8.48775029182,-9.45885014534,10.920599699,-8.11859965324,7.10654997826,-3.28050005436,7.44900012016,-1.74839991331,10.310849905,-2.89424997568,-0.559050008655,-10.5603003502,2.36475008726,-9.9255001545,6.57719993591,-7.58729982376,9.07514977455,-5.43089997768,14.4642004967,-9.32324981689,18.2128500938,-10.5803997517,14.0999994278,-16.0840501785,10.9390497208,-14.1006002426,9.04065012932,-17.9244003296,6.79199981689,-15.5815501213,18.2302494049,-4.34490001202,27.9631490707,-6.30555009842,28.0187988281,-14.7406497002,22.7725496292,-22.0730996132,16.7777996063,-24.5512504578,15.0428996086,-3.8953499794,6.11535000801,3.37154996395,6.34140014648,1.33575001359,21.046500206,6.02669978142,12.9392995834,5.92829990387,8.83769989014,5.78730010986,-2.58914995193,-10.5734996796,-1.64504992962,-11.347799778,-1.49955001473,-11.466449976,2.70449995995,-15.8495993614,6.27555012703,-18.6829504967,8.75640034676,-22.5184493065,-1.14689996839,-14.7163496017,-2.46270006895,-15.0967497826,-6.33854985237,-16.8862495422,-5.59395003319,-17.5333499908,-12.3666000366,-15.835650444,-11.6575498581,-15.9712500572,-9.89235019684,-13.1194496155,-4.47525000572,-15.0226492882,-0.90989997983,-12.9451503754,-14.2809004784,-12.9875993729,-12.6811494827,-10.4395501614,-15.1441497803,-14.3133001328,-15.6443996429,-15.0001502037,-2.57099997997,-14.6229000092,-9.37305021286,-16.3030500412,-6.6633002758,-19.1095504761,1.68225002289,-14.8201503754,6.12089967728,-15.2822999954,-4.70219993591,-19.7793002129,-16.7487001419,-18.025800705,-16.9206004143,-23.5604996681,6.60630011559,1.11585000157,-5.62560009956,0.766499966383,5.31585001945,0.780599981546,-4.40594995022,-2.72235006094,-4.70429992676,2.51205003262,7.75515031815,0.868200033903,-5.35364985466,6.64890003204,-7.29780006409,-3.9973500967,-20.5837497711,18.039899826,-17.11784935,17.9639997482,-21.3379497528,-1.3192499578,-23.078400135,3.5189999342,-24.5886011124,1.59029996395,-20.047349453,-2.62395000458,-25.2831001282,10.6930496693,-27.5502004623,9.02939987183,-17.1394500732,10.193849802,-19.9282493591,-2.92964994907,-16.7550001144,-10.2079503536,-14.6496005058,2.69325006008,-14.5024495125,-8.64599990845,-11.414249897,-16.3095002174,-10.928850174,-2.24040001631,-10.2506997585,-11.694750309,-10.3206002712,-3.164249897,-11.8936500549,0.180749997497,-11.7411003113,1.65299999714,-12.8519997597,-4.75559985638,-15.1259994507,1.77449995279,-11.0431501865,5.00490009785,-11.6661000252,5.74004995823,-7.33320021629,8.76434969902,-7.25759983063,8.66265034676,-14.7490496635,6.66855025291,-17.56965065,-0.951750040054,-7.89765000343,-5.61870002747,-21.6784501076,4.25189995766,-17.4103503227,-2.82509994507,-14.2468500137,1.32809999585,-11.068199873,-6.16694998741,-13.0791006088,7.69650006294,-21.5527496338,8.80079984665,-14.3301000595,12.3892493248,-6.16259980202,12.398999691,-11.9752500057,8.61749982834,-6.52935004234,9.79650020599,-4.25639998913,13.9820995331,-12.3695998192,14.5749006271,-11.320499897,19.0644006729,-2.80095005035,19.9442996979,-12.5212497711,13.8865499496,-12.6342000961,9.92970013618,-2.25570005178,25.622549057,-14.8684501648,25.9179010391,-19.8153004646,35.7873001099,-0.45885001123,33.1196994781,-19.0225496292,0.574950009584,-20.9769001007,2.24040001631,-22.9765505791,5.62275016308,-22.0833005905,3.04049992561,-21.8857498169,10.5931499004,-22.3166999817,7.27515006065,-16.0167002678,9.66659975052,-15.0526499748,10.7941503525,-17.089799881,13.0821003914,-18.2830495834,-0.277949988842,-19.2934498787,2.38754993677,-19.4245505333,7.10025000572,-19.3511996269,9.84450030327,-29.6009988785,10.5933001041,-27.2917499542,16.7176494598,-24.7654495239,13.9166994095,-26.747549057,8.49075007439,-25.3882513046,4.50930011272,-28.2086992264,5.67074990273,-33.7378492355,23.5508995056,-26.7082500458,27.9277496338,-21.8757004738,20.041800499,-36.8446512222,15.3187494278,-35.5952997208,9.10815024376,-20.2505993843,17.2982997894,-9.38654994965,13.2787499428,-11.6879997253,11.7052502632,-13.9759497643,28.1356487274,-10.265250206,21.5143504143,-8.89965033531,17.7649497986,-16.4555997849,-1.99905002117,-17.3476495743,-1.01580002904,-20.0789995193,-0.608999982476,-23.1034498215,1.41060000658,-26.7646493912,3.52184987068,-30.1598997116,4.30349993706,-21.5813999176,-3.37770009041,-21.7795500755,-2.0694000721,-21.4243497849,-7.63934969902,-17.7604494095,-12.5293493271,-22.2792005539,-7.30590033531,-18.1312494278,-12.0031499863,-20.4980993271,-5.20124995708,-16.3334999084,-9.17144966125,-20.2767004967,-1.07400003076,-21.3763504028,-3.66014993191,-19.1659498215,-10.2703499794,-27.9649486542,-0.466950014234,-24.1126499176,-1.39214998484,-21.5749497414,-10.345499754,-24.1022987366,-11.8186497688,-20.0687999725,-22.2509994507,-17.6697006226,1.13550004363,-15.8410506248,2.72310000658,-9.4827003479,0.369299992919,-18.1672496796,3.24840009212,8.50994968414,-21.9562497139,9.03225016594,-22.2603006363,8.84924983978,-22.7755494118,8.89890003204,-23.2909498215,11.0941500664,-22.7227506638,10.1548497677,-21.5686497688,10.0536003113,-20.6824493408,7.85835027695,-21.2508001328,9.19994974136,-22.3938002586,9.68790006638,-22.2244505882,9.48840022087,-21.7423496246,9.00044989586,-21.911699295,9.67845010757,-22.487850666,9.33930015564,-21.6685495377,9.8462998867,-23.1928496361,8.68754982948,-22.7574005127,8.79329967499,-22.4395494461,10.2768001556,-22.9969496727,9.72330021858,-22.6937999725,8.88945007324,-22.380449295,10.153949976,-22.4979000092,8.99519991875,-22.062599659,10.0176000595,-23.0872507095,10.4960997105,-22.8618006706,9.84660029411,-22.6178998947,10.3252501488,-22.3924498558,9.03015017509,-22.5463500023,9.2320497036,-22.1694002151,9.1360502243,-22.2285003662,9.33780026436,-21.8515505791,7.87155032158,-22.1110496521,7.7485499382,-21.6119999886,8.30204987526,-21.9151496887,8.17905020714,-21.4161000252,7.70025014877,-22.2164998055,7.52924966812,-21.7470002174,8.17874979973,-21.9910497665,8.00775003433,-21.5217003822,-30.0093011856,4.74705004692,-29.4064493179,4.53060007095,-30.2661008835,4.3560000658,-31.18034935,6.47370028496,-30.3733491898,4.37055015564,-29.10090065,6.80130028725,-28.9266014099,6.74865031242,-28.1196012497,4.64549982548,-30.0820512772,5.51219987869,-29.9374494553,5.02109992504,-29.57625103,5.61494994164,-29.4316492081,5.12370014191,-30.5117998123,5.19075000286,-29.6521511078,5.36520016193,-30.2540988922,4.27305006981,-30.4079990387,4.04414999485,-31.3537502289,4.80719983578,-31.4649009705,5.24985015392,-30.176399231,4.44870007038,-30.8570995331,4.99784982204,-30.0226507187,4.67760014534,-30.9683990479,5.44064998627,-31.2151508331,5.12055015564,-31.2874488831,5.65124988556,-30.757349968,5.22345006466,-30.8297996521,5.75415015221,-30.1308002472,4.67100012302,-29.8992004395,5.07570004463,-29.9769001007,4.89989984035,-29.745300293,5.30460011959,-29.185049057,3.90810012817,-28.6884012222,4.09875011444,-29.2961997986,4.35075008869,-28.7995491028,4.54154992104,-29.3236513138,3.59459996223,-28.8658504486,3.69749987125,-29.3959493637,4.12514984608,-28.9381513596,4.22805011272,-8.3977496624,-11.2554001808,-7.02915000916,-12.7363500595,-8.12969970703,-10.7941503525,-6.47069978714,-12.2210998535,-9.49575018883,-13.0465493202,-9.7783498764,-11.3303997517,-11.057549715,-10.6310999393,-11.6443498135,-11.7628498077,-11.5840501785,-10.0177502632,-12.9441003799,-8.67704987526,-11.644200325,-9.77265000343,-13.0966501236,-7.54335021973,-9.0001502037,-10.6456496716,-11.2627501488,-9.87059998512,-9.34785032272,-10.689150095,-10.8232498169,-10.1143498421,-12.8339996338,-7.02959990501,-5.39175009727,-12.7389006615,-5.35004997253,-13.7287502289,-7.01340007782,-11.7791998386,-5.33054995537,-12.1637992859,-7.81469964981,-10.6987502575,-10.3081498146,-9.00855016708,-10.4756999016,-12.3540000916,-5.44125008583,-13.5358500481,-5.48189985752,-13.8499503136,-13.5187497139,-7.98195004463,-11.5964999199,-10.8240001202,-9.17595005035,-11.6797499657,-7.29074978828,-10.9861500263,-5.32410013676,-11.9282999039,-8.60985016823,-7.32735013962,-6.81509971619,-9.04530000687,-7.47254991531,-10.3336501122,-14.2199993134,-1.69305002689,-11.8906502724,-1.18079996109,-11.4796500206,-5.69609999657,-10.1820001602,-3.67425012589,-6.62955021858,-7.11450004578,-5.26425004005,-9.83115005493,-5.25750017166,-8.5501499176,-13.8779997826,-5.13059985638,-9.36615014076,-2.8001999259,-9.35744976997,-0.190949991345,-10.7625002861,7.32014966011,-8.20454978943,2.66894996166,-5.42504990101,8.50169992447,-5.33115005493,4.27184987068,-13.7581501007,1.75919991732,-7.18950033188,4.2689999342,-4.34399986267,4.65570008755,-8.42249965668,2.60744994879,-5.2771500349,-2.54640001059,-7.14525032043,-1.96859997511,-6.51195001602,-1.50494992733,-7.83704996109,-0.391949996352,-5.29049992561,-11.3611500263,-5.29560005665,-10.9246501923,-7.45469999313,-10.6843500137,-14.6234993935,1.29420000315,-14.5931997299,-0.292200006545,-14.11784935,-3.89730012417,-5.30460011959,-11.837400198,-5.56304991245,-12.4651494026,-13.612950325,0.599250018597,-16.1479496956,-0.0527999997139,-16.711499691,1.53570002317,-2.65455007553,-10.7984998226,-3.81225013733,-12.7389006615,-2.41635006666,-11.2602002621,-4.3138500452,-12.222899437,-1.06215003133,-11.3374500275,-1.41254997253,-13.0529994965,0.7242000103,-11.7727496624,0.221399992704,-10.6401000023,2.07900005579,-8.68904972076,0.771899968386,-10.0276501179,0.847650021315,-9.7827000618,2.28869998455,-7.55579996109,-1.4293499887,-10.6954500675,0.559199988842,-9.88004994392,-1.69784992933,-10.6514997482,0.0428999997675,-10.1230502129,2.10495007038,-7.04159975052,-3.68009984493,-11.781899929,-2.82255005836,-10.7026498318,-0.320100009441,-9.01664972305,-0.547200009227,-12.3619494438,0.464250013232,-10.8442497253,2.25660002232,-7.99649977684,-1.9335000515,-11.6854498386,-3.34859991074,-10.9893000126,-3.72014987469,-9.04784989357,-1.95224994421,-7.33275032043,-3.12855005264,-10.3372499943,3.3738001585,-1.70730006695,0.833849966526,-5.70599985123,1.21919998527,-1.19130000472,-0.422099992633,-3.6820499897,-3.90015006065,-7.11675024033,2.95364999771,-5.1442501545,-1.221450001,-2.80679994822,-1.30904996395,-0.197400011122,-2.44950002432,2.66430008411,-0.0956999994814,7.31160020828,2.9578499794,1.74570000172,-2.19225007296,2.68875002861,-2.18265008926,0.525600001216,-3.43170011044,-1.97159993649,-4.664249897,-1.56419992447,-3.16440010071,-10.6877996922,3.72000002861,1.27949997783,3.72510015965,-0.306900009513,3.15990006924,-3.91125011444,2.91809999943,0.585899993777,5.26665008068,-0.0700500011444,5.88900017738,1.51740002632,-7.21694970131,4.42185008526,-3.78900003433,3.99105012417,-9.23009991646,2.85194993019,-7.66319990158,-2.28930008411,-9.03044986725,-0.676050022244,-1.84439992905,1.10429996252,-2.30955004692,-1.29855000973,-5.61090016365,-2.80080002546,-5.28659999371,-11.3831999302,13.0981492996,-6.38355016708,14.714700222,-8.54250025749,10.281899929,-10.9137003422,9.24030017853,-8.45505023003,7.2774002552,-8.66370034218,7.41134977341,-7.48545026779,8.83470010757,-4.7473500967,8.45595002174,-4.06544995308,12.0804004669,-3.07245004177,11.2882497311,-3.79439985752,12.4468502998,-3.24689984322,14.6781005859,-9.98130011559,14.9408998489,-11.4658498764,12.7365002632,-13.1356501579,11.2913997173,-12.5797505379,10.9774496555,-10.9112999439,12.9488997459,-9.55485033989,12.1619997025,-6.44429969788,8.92530012131,-3.83609998226,5.79780006409,-4.09154999256,5.23875010014,-7.42994999886,7.71674966812,-8.89485025406,10.2916502953,-6.88469982147,10.6971001625,-10.7571001053,13.4982004166,-8.66610002518,13.5209999084,-7.66035032272,9.79994988441,-10.4758501053,14.8116002083,-8.22810029984,16.0999503136,-11.0255999565,12.328499794,-13.9474496841,10.2478501797,-12.4187994003,9.45074987411,-9.820499897,8.60489988327,-9.95474982262,8.44920015335,-10.7776501179,9.38069987297,-10.5814497471,10.6745996475,-11.5804502964,8.19989991188,-11.4762003422,7.55999994278,-10.185750246,9.2741997242,-10.5166497231,9.36749982834,-11.7783000469,14.4610505104,-8.06325030327,15.0844502449,-9.85259985924,11.580149889,-12.8116493225,10.036949873,-11.7448496819,-24.5090990067,11.5009503365,-23.7391505241,16.4471998215,-20.7948002815,15.3489003181,-21.4815001488,11.0589001179,-20.0457000732,9.79514980316,-21.4313993454,9.47489976883,-18.2765994072,12.2674498558,-17.1494994164,11.864700079,-17.351099968,15.4988994598,-17.7311997414,14.4395999908,-27.8896493912,15.8374500275,-26.5459499359,16.4762992859,-17.8210501671,15.9852004051,-27.8287496567,13.0083003044,-26.4967489243,12.3260993958,-25.0891513824,13.199549675,-25.3695001602,15.5131502151,-20.4831004143,14.3306994438,-16.8008995056,11.6172001362,-16.0830001831,8.71095013618,-21.2310004234,8.92814970016,-19.0834493637,7.16174983978,-20.1203999519,11.9065496922,-25.1647510529,18.7650003433,-25.7760000229,18.0088505745,-24.8531999588,14.6626496315,-23.9626493454,14.2923002243,-29.1364488602,17.1274495125,-26.390999794,18.4957494736,-27.9550495148,12.5187005997,-25.3464002609,12.3283495903,-22.9696497917,12.7396502495,-22.5907502174,13.4984993935,-23.1703505516,14.0988006592,-23.579249382,13.4429998398,-25.18034935,13.3021502495,-21.8329496384,12.3514494896,-23.1224999428,11.692199707,-23.4250502586,13.2967500687,-24.2682008743,12.3373503685,-27.6862506866,17.7403492928,-26.0821495056,18.710849762,-26.7361507416,13.2563996315,-24.854101181,13.1125502586,5.69939982891,-9.79395031929,1.57649999857,-7.85415029526,0.0967499949038,-7.94670009613,2.55735003948,-10.1310002804,7.33170032501,-9.31214976311,9.0748500824,-6.64800024033,1.49145001173,-4.02464997768,3.99660015106,-1.20089998841,4.59375,-2.38950008154,7.4836499691,-6.24180006981,5.44319987297,-2.86379992962,1.67565000057,-5.19345009327,-0.399300009012,-8.30130028725,-0.620700001717,-7.21334981918,1.1588999927,-9.71700024605,3.6387001276,-4.840949893,5.846550107,-9.2692501545,9.06165003777,-6.64514994621,-0.842400044203,-2.25675004721,0.991349995136,1.72785007954,-3.05700016022,5.27759993076,-3.59039998055,1.9797000289,-11.7657001019,-12.2637004852,-11.4469499588,-12.1505999565,-8.21535015106,-13.1260499954,-4.36934995651,-12.2359499931,-7.45050001144,-13.0369505882,-12.3844499588,-14.1619505882,-8.77935004234,-16.2890996933,-11.0966999531,-13.097700119,-7.39320015907,-15.5416502953,-2.40315002203,-12.9060001373,-13.730700016,-9.87419986725,-11.4450001717,-8.42445015907,-13.9045500755,-10.0652997494,-3.98310005665,-5.4455999136,-2.79494994879,-7.92749977112,0.731700003147,-6.63855028152,-6.03839993477,-1.15860003233,-3.11444985867,-9.79244971275,-2.95500004292,-10.3258502483,0.533099994063,-8.56529974937,-14.7061500549,-9.18164992332,-15.8439002037,-8.94044995308,-10.1906998158,-12.2450995445,-4.82295012474,-10.9305002689,-1.65584993362,-4.96529996395,-2.96235001087,-10.0958998203,-5.52149999142,-12.8498997688,-10.3758001328,-14.1132001877,-17.148900032,-9.49515008926,-2.76584994793,0.638250008225,-10.5482997894,-7.01624965668,1.92959994078,3.03195011616,-2.33474993706,6.38369965553,0.00914999982342,2.45490002632,2.58885008097,-4.05075001717,-8.41799998283,-18.3376493454,-14.0075998306,-14.6760005951,0.663300007582,-11.6243999004,-2.56994998455,-15.9719996452,15.1171503067,2.28480005264,16.0978503227,-5.21820008755,11.83005023,-5.35860013962,9.33419966698,2.5720499754,-10.1821496487,-20.8705501556,-3.47070014477,-22.5892496109,-1.12604999542,-25.7424001694,-9.8439002037,-23.5759506226,13.4338502884,-16.6413002014,7.20570015907,-23.2164001465,3.89264988899,-20.140349865,9.23414969444,-14.1903004646,4.56195008755,1.99304991961,7.10205030441,-5.3845499754,-5.67629992962,-21.3373503685,-10.5928502083,-18.4194002151,5.70570015907,-13.2096004486,0.940800011158,-17.7567000389,22.4630999565,1.21979999542,21.8264994621,-5.31974995136,0.564150005579,-29.2864494324,-9.43530035019,-27.0562505722,17.0029506683,-18.0753006935,9.89669966698,-26.9743509293,-17.5765500069,1.23075002432,-18.0440998077,2.86785006523,-21.2545495033,6.25679969788,-20.4313502312,2.83350008726,-19.3187999725,10.3361999989,-21.1714496613,7.54275012016,-14.2968006134,3.76784992218,-13.5003004074,7.77014994621,-11.9569501877,8.57715010643,-18.1493997574,8.23499965668,-14.4406499863,7.7905497551,-14.9896502495,4.05210006237,-15.2079005241,1.1752500236,-16.8148498535,0.834300041199,-19.477499485,1.34820002317,-15.2637004852,6.21524977684,-20.5218000412,5.80454993248,-19.1666994095,9.93540000916,-8.0555999279,7.27334976196,-8.00310015678,4.32150006294,-16.448700428,-8.06354999542,-17.5816497803,-6.02700018883,-18.0536999702,-5.08680009842,-18.0547499657,-1.66559994221,-17.9464502335,-1.14164999127,-21.0176997185,-6.28875017166,-18.2105998993,-9.40124988556,-17.3927993774,-7.95315027237,-20.5327506065,-4.80494999886,-18.9589505196,0.622350007296,-11.900550127,5.77095007896,-12.5939998627,2.70300006866,-10.0230002403,1.51289999485,-16.4197497368,-1.63679999113,-15.0325498581,2.62574994564,-15.297150135,4.36995005608,-17.6365499496,-3.53700006008,-15.7575001717,0.89895004034,-13.0180506706,4.42649996281,-7.69665026665,3.75884985924,-16.5045003891,3.01140010357,-19.2577500343,-1.28610000014,-7.25745034218,8.66295003891,-5.33805012703,7.43070030212,-20.7475504875,-4.93095016479,-22.1300997734,1.46175000072,-12.6656999588,7.72875022888,-17.8745999336,6.16109991074,-4.07715010643,17.6461501122,-3.4240500927,22.9345493317,3.25004982948,19.2208499908,1.76835000515,13.515150547,-28.6661996841,13.8300004005,-25.5762004852,9.24300026894,-27.0174007416,3.29309999943,-29.7398986816,4.79519999027,-20.7109494209,15.249900341,-23.3649001122,20.6719493866,-15.0407996178,24.2619009018,-13.2658495903,18.2038493156,-5.15205001831,12.3259506226,0.842850029469,7.41719985008,-24.5594987869,5.91585016251,-23.58659935,0.355949990451,-18.8767504692,10.8416998386,-12.9499497414,13.7163004875,5.96669983864,24.9076509476,-0.844199985266,27.4471492767,-31.5660009384,4.5327000618,-30.6973485947,15.7387504578,-15.3188996315,28.5020999908,-26.1181497574,24.7968006134,9.85829973221,-10.1764497757,14.158800602,-11.4683997631,14.3395500183,-11.88869977,10.3712997437,-10.6560001373,10.692450285,-10.8638999462,14.9164495468,-12.1722006798,15.0259494781,-12.5110502243,11.0053503513,-11.2128002644,11.2401001453,-11.3619003296,15.593100071,-12.7192497253,15.8460001945,-12.9481501579,11.5950000286,-11.6774997711,-26.9111995697,15.0780000687,-26.2724990845,14.9107503891,-23.6258997917,11.3160002232,-24.4329013824,11.7762000561,-27.9777002335,15.7039504051,-27.4366493225,15.5740499496,-24.8018989563,12.0577497482,-25.4202003479,12.3751502037,-28.922999382,16.5244503021,-28.4363994598,16.2218999863,-25.7107486725,12.6001496315,-26.3119497299,12.9682502747,-21.7368006706,-3.31304991245,-22.1925001144,-2.66385000944,-20.9594993591,-3.67890000343,-20.8536000252,-4.57319998741,-20.4259500504,-5.18414998055,-20.8816494942,-4.53494989872,-21.7648501396,-3.27479982376,-22.6775994301,-3.97244989872,-23.1333003044,-3.32309997082,-21.7944002151,-5.23259997368,-21.3667502403,-5.84354996681,-21.8224496841,-5.19420003891,-22.7056503296,-3.93404996395,-22.6663498878,-4.87514984608,-2.48894995451,4.32509994507,-4.04309999943,5.00714993477,-6.0421500206,11.3697001934,-4.80404984951,11.3456997871,-21.8175001144,-4.2364500761,-22.0550994873,-4.60679984093,-24.2808008194,1.26210004091,-23.6811003685,1.213349998,-13.3922996521,14.9824504852,-13.7167496681,14.2043995857,-21.2011499405,12.1366496086,-21.5704493523,12.6744003296,-24.2965507507,6.70695018768,-25.0229988098,7.2327003479,-12.3611998558,-16.8688502312,-12.8519997597,-16.1527504921,-12.8800506592,-15.3564004898,-13.7230496407,-14.8817996979,-14.1032996178,-14.3269500732,-13.6124997139,-15.0430498123,-12.7414498329,-16.3140006065,-13.3088994026,-17.5183496475,-13.7996993065,-16.8022499084,-14.670750618,-15.5313005447,-15.0510005951,-14.9764494896,-14.5602006912,-15.6925506592,-13.6891493797,-16.9635000229,-14.5993494987,-16.5348000526,5.97900009155,-6.00540018082,0.875849962234,-2.12835001945,0.786750018597,-0.442049995065,6.36630034447,-4.80480015278,-9.92894983292,-19.4683499336,-14.1036000252,-16.0996499062,-13.7248506546,-15.9329996109,-9.73514986038,-18.932700634,1.32660001516,-20.3631005287,5.89859998226,-14.1030006409,6.70499968529,-14.0184001923,1.67099994421,-20.8527002335,-4.82834994793,-21.3884997368,-4.62374997139,-22.2030000687,3.50084996223,-7.00994968414,3.91620004177,-10.2841501236,4.34100008011,-11.3223001957,3.43665003777,-6.17519974709,0.667050004005,-14.2804498672,-1.37730002403,-17.3537993431,-9.38460016251,-7.21274971962,-5.02065002918,-6.47384977341,-0.283200010657,-4.82580006123,-1.70055001974,-3.21570003033,-8.1796503067,-14.7982506752,-4.31595003605,-12.6473994255,11.0312998295,-4.31760013103,10.0300498009,-3.72660005093,9.47324967384,-4.58115005493,10.5150003433,-5.17589986324,5.14769983292,-10.3555498123,5.15610015392,-6.07469987869,7.22654986382,-4.12035012245,8.85645031929,-8.67059969902,1.89480006695,-12.7652993202,4.88115012646,-11.2781996727,-2.76719999313,-12.2701506615,-0.863549977541,-11.0347502232,-2.59904998541,-6.01574993134,-0.648300021887,-4.68899989128,3.19274997711,-1.27125003934,0.914099961519,-4.61474990845,-3.73049998283,-12.7240505219,9.26519966125,-3.16020011902,9.15390014648,-3.32400012016,9.02265000343,-8.51400017738,8.76914978027,-7.72634983063,7.0029001236,-9.61514997482,10.6645503044,-6.6233997345,6.41775012016,-7.68600010872,3.47325003147,-8.36579990387,0.694350019097,-10.0769999027,2.89695006609,-4.71404993534,6.98190021515,-3.03240001202,5.21624994278,-2.39834994078,5.45655012131,-4.78875017166,-3.4523999691,-12.4615502357,-4.88145017624,-13.178850174,1.24905002117,-15.3762001991,1.56840008497,-14.1601495743,-4.66515004635,-5.61210000515,11.0227496624,-3.15974986553,12.3874497414,-5.35499989986,11.5650000572,-1.6794000864,11.4265501499,-1.41644999385,10.2781498432,-3.19335007668,-0.20775000751,-16.4104499817,2.97374993563,-17.9933996201,2.84264999628,-18.1759500504,-0.35759999603,-16.589700222,1.51904994249,-16.5898504257,8.14289975166,-11.491350174,5.34150016308,-10.9377000332,3.68519997597,-8.27955007553,6.04965019226,-4.70114994049,5.26425004005,-6.7360496521,8.19869971275,-4.52549993992,10.6732499599,-6.13514971733,11.0243997574,-8.00174975395,10.1383502483,-9.72855019569,7.85264968872,-1.95869994164,11.3626499176,-4.80329990387,10.9909501076,-2.66789996624,9.02745008469,-3.23415005207,7.60395026207,-14.7451500893,4.09035015106,-13.5490493774,1.93919992447,-10.9747502804,3.33959984779,-8.84174966812,9.77265000343,-12.5430006981,4.6547999382,-6.02955007553,4.87469995022,-10.4476497173,4.60679984093,-10.4333996773,4.44735002518,-6.39059972763,0.333749994636,-3.9103499651,5.14365005493,-5.69264996052,5.09310007095,-10.4616000652,5.65439987183,-5.25599992275,1.54770004749,-16.4387998581,-3.40320003033,-15.6866998672,-7.80300021172,-15.1191000938,-6.7172999382,-10.3278000355,-0.470249980688,-3.39690005779,-7.13549995422,-5.05349993706,-0.232950009406,-4.13099992275,-5.7986998558,-5.8111499548,5.34330010414,-10.6172997952,0.321749992669,-4.36785006523,1.69139993191,-14.6160006523,-4.2717000246,-5.91674995422,5.69939982891,-10.6619997025,5.87174999714,-5.01449990273,1.98989993334,-15.3796505928,-6.41384983063,-14.605050087,-2.61765003204,-14.6904001236,-5.29844999313,-5.34360015392,-5.40629982948,-10.5608997345,0.200699999928,-3.46245002747,11.6953496933,-13.3042502403,6.48465013504,-9.87674975395,5.06879997253,-10.5620999336,10.7488503456,-14.0474996567,13.7863497734,-11.626650095,8.57565021515,-8.19915032387,7.36995005608,-9.12614965439,13.0501499176,-12.6116995811,-17.1742501259,-9.89130020142,-12.0774006844,-14.4727506638,-13.3677005768,-6.64604973793,-11.9723997116,-8.27445030212,-4.63515007496,-0.320549994707,-3.57360005379,0.348299995065,-1.52295005322,-0.929100036621,1.36050000787,-1.38884997368,-0.240600004792,1.87274998426,-2.83230006695,-1.83885008097,3.5367000103,-12.1353006363,2.45415008068,-12.8972997665,3.40950000286,-5.58825016022,3.65415000916,-5.84415006638,-4.60800004005,-19.0321497917,-10.9005002975,-15.5404500961,-9.87779974937,-15.6819005013,3.48300004005,-5.97585010529,-2.49705004692,-18.9635996819,4.05299985409,-11.9677498341,-13.527299881,12.0965995789,-14.1004500389,12.1701006889,-11.1405000687,10.7705998421,-8.87129974365,9.61244988441,-18.9232506752,10.3318498135,-21.1189498901,8.58195018768,-10.3861498833,6.57675004005,-13.4991002083,2.62769991159,-13.8624000549,-2.24009996653,-7.63980031013,3.80145013332,-19.0095005035,5.13840007782,-20.8216495514,1.33200001717,-12.1111493111,19.3611001968,-11.1153001785,19.581600666,-11.3162999153,20.726849556,-12.3013501167,20.5454993248,-9.64124965668,14.9114999771,-11.3603997231,12.9313502312,-15.565050602,14.363699913,-13.8361501694,18.2131505013,-18.8614497185,12.025800705,-17.6480998993,15.3314995766,-19.8386993408,7.43729996681,-18.5998506546,9.28920006752,-14.0290503502,5.75864982605,-11.4931497574,8.58209967613,-8.63295006752,10.5301501751,-12.9089999199,7.81725025177,-19.7700004578,6.20550012589,-14.6710495949,19.1676006317,-9.8248500824,17.7529506683,-8.81969976425,17.1415500641,-16.3682999611,17.6107506752,-15.4240493774,19.8386993408,-13.7583003044,21.2721004486,-16.3879494667,13.9420495033,-16.0898995399,17.5859999657,-13.2588000298,12.3691506386,-17.8129506111,10.9664998055,-10.3012497425,13.8163504601,-11.5663497448,16.5997495651,-13.757250309,15.7750496864,-19.8670506477,11.2722001076,-19.7596507072,4.80494999886,-19.3730993271,6.35400009155,-19.4149503708,11.6463003159,-13.5230998993,3.23130011559,-10.2353997231,20.3113503456,-8.71499991417,20.3631005287,-11.8112998009,22.3621501923,-8.46164989471,20.0761499405,-10.5340497494,19.6843500137,-27.1696500778,17.937599659,-26.9525985718,17.9962506294,-26.5903501511,14.4612007141,-26.8108491898,14.3839502335,-26.1505508423,16.1407499313,-19.5150003433,17.7301497459,-19.0475993156,20.547150135,-17.6095504761,15.2443499565,-13.4279994965,16.1986498833,-15.6091504097,16.1794495583,-13.1435995102,21.0311994553,-12.5074496269,18.1484999657,-14.7673501968,22.0165500641,-16.6953005791,21.7948493958,-10.2267000675,16.921500206,-11.6543998718,21.2079005241,-9.78614974022,20.1086997986,-11.0071499348,18.4697999954,-22.2829499245,21.1873497963,-22.3996496201,17.4777002335,-20.746799469,14.5583996773,-18.2574005127,15.1187996864,-19.4585995674,22.4426994324,-14.0821495056,12.9034495354,-14.8595995903,13.6324496269,-10.7109003067,12.0444002151,-10.341449976,11.5246503353,-10.2558002472,7.39874982834,-10.3621501923,12.4726495743,-13.7275500298,13.245300293,-8.74845027924,12.2411999702,-20.4156002998,11.6799001694,-21.1208996773,6.67409992218,-17.1127495766,1.88969993591,-21.5752501488,2.10659998655,-8.93414998055,5.86979985237,-12.5460004807,0.0301499990746,-9.79110002518,6.45374965668,-13.2059998512,1.73535007238,-14.9333996773,14.1623997688,-10.6234502792,7.48979973793,-19.8678002357,11.9374501705,-13.6117501259,3.65610015392,-14.6865005493,14.4194998741,-9.37770009041,12.8916006088,-20.2630505562,12.3263998032,-20.9193005562,7.66514968872,-21.7132501602,3.85979998112,-17.9317502975,3.77085006237,-13.218000412,2.40809994936,-9.71459984779,7.04670023918,-16.3224005699,14.8042502403,-15.7708497047,16.3771505356,-17.2801494598,22.3216495514,-17.7343497276,21.2090992928,-15.2018995285,17.3257498741,-14.4906005859,18.6253495216,-15.9997501373,24.5699987411,-16.6138501167,23.7306003571,-19.6246504784,-3.57015001774,-14.0668501854,-5.41410005093,-2.7797999382,4.61189997196,-3.93299996853,2.31014996767,-5.35830008984,1.51604998112,-6.44940018654,8.35560035706,-13.6728000641,9.70755028725,-13.0111498833,10.7230503559,-7.20164966583,8.99519991875,-21.7911000252,4.95344996452,-20.8235993385,-1.85715007782,-21.255449295,-0.468600019813,-7.68464970589,9.04425001144,-22.0174498558,7.46924972534,-13.2255005836,11.4609003067,15.4201498032,-10.3433997631,10.079400301,-7.02944970131,9.00375008583,-7.84290003777,14.6839499474,-11.3282997608,-14.4156002998,19.2446994781,-13.9459505081,20.4097495079,-15.2134494781,26.4889497757,-15.8275494576,25.6495513916,0.248400002718,-4.61054992676,-1.80494999886,0.786449968815,-1.36469998956,-5.37300002575,-2.52375000715,0.288150005043,-16.9736995697,-9.74850010872,-10.1052002907,-14.4850502014,-5.1832498312,-13.315050602,-2.63234996796,-10.5509998798,-1.07115000486,-12.2356495857,-7.81620025635,-16.9911003113,0.935400009155,3.12944984436,3.05220007896,0.0577499996871,-10.4138996601,-15.7529997826,-17.3284506798,-9.11414980888,-17.3274006844,-9.62325024605,-11.5894496441,-15.5696997643,6.68475008011,-6.25815010071,5.00969982147,-13.3285503387,-2.65875005722,-19.9234499931,-6.21164989471,4.7052000761,-7.42409992218,3.35130000114,-19.0144500732,-1.65750002861,-12.7189493179,3.97200000286,-16.1998500824,2.54685008526,-13.6876502037,5.98199987411,-20.4373497963,1.24680000544,-1.52850008011,6.24090027809,-21.7416000366,-0.876750022173,-21.0295500755,-2.48114991188,-7.099350214,12.2542505264,-14.3308496475,12.8544001579,-23.0813999176,7.67070007324,-15.2617506981,-14.616900444,-15.6908998489,-10.6134002209,-14.0902504921,-12.7620005608,-12.2718000412,-9.81734991074,-13.430249691,-8.66234993935,-12.4332003593,-7.9827003479,-16.7674498558,-11.3697001934,-16.4512495995,-9.50009965897,-16.8863997459,-7.5772497654,-15.3805503845,-8.78310012817,-17.6883001328,-8.2498497963,-18.5326495171,-6.70125031471,-17.6887493134,-10.8868503571,-18.9137992859,-9.81299972534,-17.5893001556,-13.1824493408,-19.2655506134,-12.234000206,-16.6585493088,-13.383749485,-17.5243506432,-9.87705016136,-17.4663004875,-12.1537499428,-15.7222495079,-15.3255000114,-16.1244006157,-13.5700492859,-14.1051006317,-7.33289980888,-13.5689992905,-6.36885023117,-12.9982495308,-7.17195010185,-14.8294501305,-9.01409983635,-14.8586997986,-7.53359985352,-13.6501493454,-8.26139974594,-15.9366002083,-8.03055024147,-16.2696003914,-6.3094496727,-16.4890494347,-11.692199707,-11.498250246,-8.55584979057,-10.5633001328,-9.1288497448,-10.6381502151,-7.17630028725,-15.0412502289,-14.2339496613,-13.2949504852,-11.4347999096,-11.4613502026,-13.2059998512,-10.7160000801,-10.3259997368,-10.1384997368,-13.3695001602,-11.6690998077,-14.4946503639,-8.20860028267,-12.8962497711,-9.96975016594,-12.0997495651,-6.68249988556,-13.9648504257,-8.45729970932,-13.9080004692,-9.32069993019,-15.6931500435,-10.8373496532,-15.0865502357,-11.3488497734,-17.0866498947,-12.9537005424,-16.023900032,-13.5332994461,-15.2994003296,-9.99930024147,-14.4895505905,-12.0802502632,-15.4552502632,-13.9579496384,-14.8980002403,-8.59995031357,-9.4146001339,-9.23070001602,-10.3207497597,-9.57974982262,-9.2672996521,-9.07514977455,-11.0786998272,-10.4098498821,-11.7231001854,-10.2720000744,-10.3321502209,-7.33979988098,-11.7829499245,-9.04199981689,-12.2564992905,-12.1002001762,-14.3824496269,-16.7184004784,-6.14249968529,-14.2636499405,-5.94900012016,-12.7377004623,-9.31305027008,-14.8489494324,-9.58964967728,-13.9073996544,4.7158498764,-14.874900341,-0.9117000103,-17.2549495697,-0.948900014162,-15.6656999588,5.79150009155,-11.7531001568,8.76614999771,-10.9120502472,7.46370005608,-1.00725004077,8.30010008812,-6.3095998764,8.75685024261,-6.49575018883,9.69194984436,-0.582300022244,9.12930035591,-11.632349968,-9.99059987068,-7.90980005264,-9.8435997963,-6.98280000687,-12.1100993156,-10.9362001419,-11.9880001545,-2.08259993792,-10.2490496635,-3.11520016193,-8.11995005608,1.47464999557,-4.71269989014,3.21525013447,-5.78175008297,2.55254995823,-0.789450019598,4.07580006123,-0.936450004578,2.49869996309,4.17885017395,1.60365003347,3.90629982948,-1.21845003963,8.42954993248,-0.699299991131,9.20114994049,-1.96424996853,4.40039992332,-7.17465019226,4.51994991302,-7.71450018883,11.1822001934,1.17750003934,9.20925021172,-7.53690004349,-3.43994987011,-9.22455024719,-3.26760005951,-8.97060012817,4.67774999142,5.32590007782,4.21019983292,5.43164992332,-4.77089989185,2.00204998255,-4.22175014019,2.07944995165,4.12290000916,7.58805012703,2.79645001888,6.6375002861,-6.45074987411,2.41965007782,10.0736997128,8.51849985123,-11.4555001259,9.89400029182,-4.6969499588,3.50849997997,-14.7371993065,0.917849957943,-13.7137498856,5.42490005493,-15.0888004303,2.84490001202,-19.398150444,5.63339996338,-19.6993503571,2.97885006666,-20.7647995949,1.5856500864,-19.8485999107,5.96879982948,-11.1243002415,8.59424972534,-14.3314504623,4.73489999771,0.757200032473,6.78929972649,-17.8225493431,6.83955001831,-18.5369997025,7.26465010643,-17.2022995949,4.67490005493,-19.8225002289,4.09875011444,-18.0805506706,-7.55745005608,11.8005001545,-7.30454993248,7.07310032845,1.96875,-1.10774999857,-8.09654974937,-10.4523003101,-9.05474996567,-10.2734999657,2.20080006123,-16.6430997849,1.65899991989,-17.2760996819,-0.735599979758,-16.7008495331,-4.11030006409,-16.192949295,-8.66250014305,-12.6139497757,-6.0703496933,-14.0710501671,-8.08845019341,-12.8528995514,-3.03494989872,-15.242099762,-5.90324985981,-14.7196497917,-0.0107999998145,-16.3216495514,-2.35334998369,-12.1174507141,-7.26525020599,-14.6825995445,-4.6617000103,-10.7778003216,-2.1874499917,-3.56415009499,-11.1937501431,4.49850010872,-13.7399997711,4.23374998569,-14.5408501625,8.87475013733,-16.5700492859,4.51394999027,-14.4754500389,-3.22500014305,-16.8307499886,-2.93655002117,-18.5327997208,-2.67539995909,-17.9515500069,3.96059989929,-14.6636996269,9.71055006981,-18.9289498329,-3.20744991302,-16.242749691,0.921600043774,-14.369550705,-10.390349865,-15.2382001877,-9.2483997345,-17.0198993683,-8.06294989586,-22.216199398,-10.476000309,-23.293200016,-9.23789978027,-24.1650009155,-10.0419001579,-24.1151990891,-10.7608501911,-12.7860002518,0.0591000001878,-12.8930997849,5.096550107,-21.4075498581,-5.70554995537,-21.9927005768,-7.2093000412,-24.4802999496,-10.0266001225,-24.5671491623,-9.50234985352,-21.4362001419,-9.17085027695,-15.097799778,-10.0442998409,-20.1247501373,-9.07949995995,-12.2809495926,-11.4551997185,-11.2648501396,-13.129799366,-11.9443502426,-10.9873502254,-10.2768001556,-13.4659495354,-10.0900497437,-10.42380023,-11.4968998432,-3.63660013676,4.4458501339,-21.3074998856,3.84974992275,-20.1039004326,5.8044000864,-20.6484003067,7.94265031815,-21.6904506683,8.47350025177,-20.8387498856,7.75665020943,-20.8259997368,-1.35135000944,-16.1220002174,0.785549998283,-17.1457500458,1.88744992018,-19.22205019,-7.96770000458,-13.3906502724,-4.0393499136,-15.0846004486,-6.95235013962,-14.5330495834,-21.3895497322,-10.4181003571,-10.2469496727,-13.5952506065,-11.3970000744,-11.3944501877,-14.6825995445,-10.2197999954,-19.9711503983,-9.01619982719,11.1757500172,-20.6872501373,10.6225497723,-21.0890994072,10.2179996967,-20.5665006638,-25.7179498672,-9.38579964638,-25.2934513092,-8.46749997139,-25.9684495926,-8.89530014992,-27.3589496613,-8.91060018539,-27.42000103,-8.08320021629,-27.2697000504,-8.60025000572,-7.63529992104,10.7383496761,-8.33204984665,4.47825014591,1.6630500555,6.09509968758,-8.67224979401,-7.38614988327,1.75424998999,-8.15955018997,3.4157999754,5.15130007267,4.25339984894,-10.2684001923,6.48599982262,-10.0321497917,3.14294993877,-20.505449295,5.84249997139,-18.1595993042,6.06314992905,-14.2834496498,-14.1751499176,5.65184998512,-15.1817994118,-7.14164972305,-14.9809498787,6.37019991875,-15.9346504211,-5.06520009041,-13.5858006477,1.6114500761,-17.0504994392,-5.62275016308,-24.114449501,-9.77204990387,-23.8699493408,-10.4257500172,-21.3006005287,-7.94024991989,11.9407496452,26.3221492767,8.34960007668,20.3893504143,10.0162496567,24.0311994553,12.8653492928,29.4407987595,8.79525017738,27.8530511856,11.3170502186,32.1768007278,3.77925002575,27.5954990387,7.1224501133,30.7822494507,3.50759983063,16.2871499062,-1.68870002031,12.9610505104,-0.626100003719,15.277200222,5.1140999794,19.4345998764,-0.548550009727,17.9536499977,4.59584999084,24.0163507462,-4.39694988728,19.2274503708,-0.456900000572,25.1758489609,-3.3667498827,12.7045497894,-7.06949973106,12.707549572,11.1908998489,35.6078996658,10.9027497768,33.5594987869,10.1212499142,37.0138492584,7.13625025749,35.6351995468,2.05139994621,40.8149986267,1.00920000672,39.3719987869,1.24155002832,38.9395494461,-5.46915006638,39.2207994461,-6.09839987755,38.6760005951,-5.13194990158,38.0964002609,7.64099979401,24.9988489151,10.8922498226,29.5818014145,-4.08825016022,15.3171000481,2.34884995222,21.0318002701" style="fill:none; stroke:#00C; stroke-width:1.5px"/>
</svg>