<?xml version="1.0" standalone="no"?>
<!DOCTYPE svg PUBLIC "-//W3C//DTD SVG 1.1//EN"
"http://www.w3.org/Graphics/SVG/1.1/DTD/svg11.dtd">
<svg height="150" version="1.1" width="150" xmlns="http://www.w3.org/2000/svg">
<polygon points="6.13491489955,15.6027377748,19.0494307308,2.02319212107,19.3156378299,1.74327675265,6.00516044195,15.7391739063,21.4798332306,-0.532363358954,21.7548395243,-0.821531034139,19.4867615269,1.56334108291,18.2529110698,2.86072836641,25.6143799897,-4.87981758847,24.1082817937,-3.29616323552,16.0589038657,5.16771543295,5.89195355487,15.8582103543,16.2849237396,4.93005672116,18.5879354968,2.50845193877,13.6689516088,7.68073769461,5.76942237732,15.9870512448,11.0619099269,10.4220283479,13.6782762124,7.67093292287,10.3395921962,11.1815416529,5.73908485161,16.0189509939,5.71951664811,16.0395268572,5.8475639956,15.904885743,9.87901611524,11.6658349861,5.80566934706,15.9489377462,7.67857358823,13.9795887609,5.12800425202,16.661499039,8.86685200234,12.7301202415,4.18544526757,17.6525948669,1.51457695995,20.4609988824,10.2078676891,11.3200492811,11.2336902092,10.2414022822,11.9376216527,9.50122206187,12.4407488305,8.97218647348,12.4393041119,8.97370558754,13.8826262461,7.45605993432,8.8298167623,12.7690626022,3.33665584932,18.5450924879,8.69966824784,12.9059130824,8.77058674263,12.8313426572,5.08597840775,16.7056889938,16.9252910465,4.25671385691,20.6148901422,0.377119761506,14.0754194701,7.25333887058,6.94995194566,14.7457305961,14.0310299109,7.3000142593,21.2280726916,-0.2676384727,15.5578783245,5.69454116144,8.51501761335,13.100072256,6.18350741897,15.5516429955,6.17457671571,15.5610335832,14.2890941074,7.02866111029,14.7697639576,6.52323928413,12.9876089628,8.39716591297,9.48200405325,12.0832910868,11.104855022,10.3768718058,18.5424948061,2.55623258668,20.8833297607,0.0948569108017,17.9126338037,3.21852812686,13.85018771,7.4901688849,17.2066009976,3.96091791897,15.5447449741,5.7083508104,35.0369488881,-14.7875993592,26.6086833223,-5.92532232711,22.6096695823,-1.72038035615,28.0011804179,-7.38952571875,16.4620887025,4.74376869192,20.0946899847,0.924107498464,17.1107297948,4.06172598586,13.5729488971,7.78168404237,11.607588143,9.84825056611,14.9202686328,6.36498440767,18.1813364398,2.93598871442,20.311385255,0.696253558425,16.972044947,4.20755237579,17.2718725964,3.89228517523,19.7775269642,1.25760275084,10.2605312293,11.2646738449,12.8204253648,8.57295858925,16.5085795853,4.69488377253,18.695626214,2.39521571459,23.4139376193,-2.56606397831,26.6960177222,-6.01715399048,23.0950662362,-2.23077239166,20.3275389251,0.67926805895,18.6654205102,2.42697685363,16.6966447531,4.49713423509,26.7112514567,-6.03317218239,35.2327618057,-14.993495615,35.2814852078,-15.0447280167,30.6882017694,-10.2149145752,25.4395784286,-4.69601466389,23.9206099,-3.09882722371,16.1042130475,5.1200730659,16.3021282281,4.91196629174,29.1769822431,-8.62587517035,22.0788309851,-1.16220635577,18.4877301381,2.61381734786,8.48310432984,13.1336289062,9.30969849878,12.2644694735,9.43708900655,12.1305190228,13.1178888295,8.26017731645,16.2444741228,4.97258928104,18.4165494084,2.68866351176,9.74584704605,11.8058615638,8.59381583653,13.0172163377,5.20036730889,16.5854096642,5.8522917387,15.899914546,-0.0774115435853,22.1349664432,0.543387873008,21.482199113,2.08888486753,19.8571171301,6.8317546109,14.8700144736,9.95334922162,11.5876741147,-1.75345173567,23.8973139135,-0.352811111268,22.424547644,-2.50925813588,24.6920403788,-2.94724522382,25.1525815043,8.49899529545,13.1169196392,2.54355103482,19.3790380402,4.91603641171,16.8843821112,12.2228715462,9.2012832951,16.1090719864,5.11496391721,6.63305162975,15.078949616,-3.9141007811,26.1692250511,-4.06460576936,26.3274802568,16.5340578591,4.66809350131,5.82458094567,15.9290522995,15.4042215075,5.85611049851,6.8924293492,14.8062153045,6.6312130108,15.0808829141,17.5399183145,3.61043650863,6.06268335153,15.6786888687,4.3605085939,17.4685166976,-7.27182727848,29.6998568503,-4.23730444135,26.5090720046,-7.9321570024,30.3941900912,-9.45598509612,31.9964873386,-10.7782213977,33.3868118739,-6.80218914193,29.2060348132,-11.386280738,34.0261830807,-13.3712101653,36.1133259617,-4.2562166662,26.5289581098,-6.69791264499,29.0963886236,-3.91961663793,26.1750249457,-2.07626212185,24.2367473413,-1.94742603438,24.1012768711,0.756405905406,21.2582117693,1.18139115188,20.8113420119,1.77513669346,20.1870216894,1.71393623288,20.2513736527,0.336673498069,21.6995581939,0.470236389284,21.5591175144,-0.502396790062,22.5818362006,-2.49336685715,24.6753307825,1.08131730199,20.9165691401,0.535901888379,21.4900705866,4.3295144633,17.5011068633,4.39570537155,17.4315074705,-2.16333350404,24.3283024429,-4.63287303717,26.9250103081,3.83531798868,18.0207518641,-8.23027754166,30.7076622745,-4.49339976258,26.7783548915,-1.723639306,23.8659663001,1.0593853835,20.9396304374,-0.701231906292,22.7909102823,-8.12022217019,30.5919396287,-1.79652777203,23.9426081398,5.35441802619,16.4234261431,0.265229750674,21.7746809196,5.03331475012,16.7610645535,7.02336582085,14.6685362914,-0.0800379631547,22.1377281096,0.838487466159,21.1719034387,8.29766558161,13.3286167773,-0.212813053746,22.2773404209,-0.311705202701,22.3813249967,8.7750519377,12.826647528,-2.26787301868,24.4382251942,-6.5990217485,28.9924053647,10.3482599992,11.1724275035,-5.90493933934,28.2625813522,-7.61604480022,30.0617997688,-9.36681207728,31.902722377,-8.58473897645,31.0803766138,-8.4117760343,30.8985069874,-8.78908869705,31.2952492731,-3.27320806496,25.4953297219,-2.42914670292,24.6078036272,-4.21274610329,26.4832490409,-5.25747994804,27.5817811985,-6.14212243572,28.5119781339,-6.2569058634,28.6326723061,-6.19268445671,28.5651438338,-15.1667593364,38.0013364965,-13.1449272738,35.8753906881,-10.9330586631,33.5496224463,-12.6684594444,35.3743872648,-11.4783444466,34.1229875874,-13.9477499659,36.7195545378,-18.7887234314,41.8098127435,-12.6340517198,35.3382077229,-8.40297746612,30.8892553392,-21.5088424289,44.6700036011,-20.4149894031,43.5198228822,-6.98014190553,29.3931512106,2.53173152053,19.3914661974,0.516727898304,21.5102319366,-1.48645620962,23.6165695184,1.76239724346,20.2004171543,2.95802997679,18.9432156068,-3.65748067694,25.8993903577,-4.43850295946,26.720631191,-6.82989993496,29.2351725667,-9.47791701461,32.0195486358,-12.6834314136,35.390130212,-15.6560974984,38.5158730071,-8.14530654364,30.6183157158,-8.31879426872,30.8007371487,-8.00780339684,30.4737318782,-4.79992434348,27.1006638804,-8.75625657373,31.2607264677,-5.1245733486,27.4420306064,-7.19683717581,29.6210051507,-3.55057776043,25.7869825018,-7.00299438596,29.4171804739,-7.9657781788,30.4295425819,-6.03049146299,28.3945987517,-13.734337407,36.4951523515,-10.361508684,32.9486406413,-8.13965917796,30.6123775404,-10.3524458456,32.9391111143,-6.82096985793,29.2257826375,-4.72047045476,27.0171185332,-3.11942036535,25.3336227625,2.44754832313,19.4799843879,-5.15609288836,27.4751732371,18.2007728214,2.91555146119,18.6580660345,2.43471004634,18.4978425423,2.60318420789,18.5413131052,2.55747513901,20.4633349619,0.536479238669,19.6409431268,1.40121993935,19.5522955172,1.49443243592,17.6302736605,3.51542833627,18.8048931586,2.28032209548,19.2321115506,1.83110419729,19.0574421245,2.01476818252,18.6302237326,2.46398608071,19.2238377653,1.83980403908,18.9268995532,2.15203301152,19.3707963983,1.68527780736,18.3562682573,2.75204882594,18.4488561226,2.65469317129,19.7477151607,1.28894970577,19.2631056812,1.79851403154,18.53303932,2.56617498081,19.6401553262,1.40204830757,18.6256271852,2.46881932615,19.5207759774,1.52757506665,19.9397199579,1.08705766873,19.371059416,1.68500124563,19.7901349053,1.24434556685,18.6562274155,2.43664334451,18.8329978519,2.25077015786,18.7489467896,2.33914940899,18.9255863434,2.15341384472,17.6418307834,3.50327608223,17.53413944,3.61651296489,18.0187489196,3.10694863912,17.9110582024,3.2201848633,17.4918512042,3.66097882295,17.3421340166,3.81840566041,17.9107951847,3.22046142503,17.7610786233,3.37788760402,-15.5242429698,38.3772286618,-14.9964240663,37.8222298535,-15.7490805164,38.6136441628,-16.5495385543,39.4553215908,-15.842980339,38.7123793337,-14.7289050098,37.5409349688,-14.5762996373,37.3804712202,-13.8697414221,36.6375289631,-15.5879383411,38.4442040106,-15.4613341466,38.3110803643,-15.1450916881,37.9785530779,-15.0184874936,37.8454294316,-15.964198933,38.8398400494,-15.2115449878,38.048428374,-15.7385723332,38.6025948633,-15.8733175516,38.7442787536,-16.7013573786,39.6149582881,-16.7986739263,39.7172861276,-15.6705434323,38.5310628307,-16.2665214931,39.1577306355,-15.5359309752,38.3895185382,-16.3639682972,39.2601954389,-16.5800085282,39.4873606085,-16.6433081205,39.5539197978,-16.1791870932,39.0658989721,-16.2426194468,39.1325977592,-15.6306198509,38.4890833943,-15.4278457315,38.2758674715,-15.4958746325,38.347399504,-15.2931005131,38.1341835811,-14.8025800239,37.6184038598,-14.3677466434,37.1611788411,-14.8998965717,37.7207316992,-14.4650606862,37.2635040466,-14.9239313793,37.7460041733,-14.5231099443,37.324542537,-14.9872309715,37.8125633626,-14.5864120415,37.3911043601,3.39746240959,18.4811547088,4.59572156249,17.2211914949,3.63214996902,18.2343819711,5.08466519796,16.707069827,2.43612270915,19.4919983611,2.18869632595,19.7521659052,1.06870998707,20.9298256656,0.554944995839,21.470046859,0.607739536086,21.4145336768,-0.583034258414,22.6666260756,0.555075878454,21.4699092366,-0.716597149629,22.8070667551,2.87003865889,19.035738016,0.889049487149,21.1187377389,2.56561446216,19.355838462,1.27384813453,20.7141239796,-0.48663702018,22.5652648852,6.02932519282,15.7137647976,6.06583518026,15.6753747373,4.60951120458,17.2066917586,6.08290815992,15.6574225887,3.90794406325,17.9443859277,1.72483706393,20.239911486,1.57814082241,20.3941618145,5.98598613876,15.7593355856,5.95039577391,15.7967586675,-1.08616081006,23.1956610055,0.596839331263,21.425995185,2.71611945043,19.1975832564,4.36668136874,17.4620260572,6.08855521249,15.6514847426,3.21176064367,18.6764191415,4.7831304385,17.0241320448,4.20750869491,17.6293952888,-1.7001305338,23.8412469494,0.339299917638,21.6967965275,0.699145700412,21.3184205745,1.83528570949,20.1237753146,4.94558582368,16.8533110595,6.14095616554,15.5963854153,6.14686592269,15.5901713367,-1.40069741098,23.5263945915,2.54959230082,19.3726856807,2.55720979429,19.3646759262,1.32703657509,20.6581966134,3.56661597877,18.3032906181,6.00016999428,15.7444213359,6.08238275076,15.6579750537,-1.29576462226,23.4160583146,4.45532897842,17.3688135607,6.9466689212,14.7491826791,3.37579288256,18.5039401028,6.12966174729,15.6082614369,4.49407148511,17.3280760181,5.04854911084,16.7450457031,3.88837554663,17.9649621202,6.11797342873,15.6205516425,6.1135080771,15.6252469363,4.22313695595,17.6129622543,-2.05340964141,24.212718078,-2.02688117556,24.1848235353,-1.61069449726,23.7472054262,6.10562819216,15.633532594,5.87934592683,15.871467209,-1.16863689735,23.2823841787,-3.38812174902,25.6161608579,-3.88153042301,26.1349774905,8.42584412484,13.1938377114,7.41223529331,14.2596420809,8.63439696217,12.9745454969,6.97306619132,14.721426088,9.82004872187,11.7278388909,9.51326073187,12.0504248532,11.3840636495,10.0832853985,10.9438438075,10.5461742532,12.5702407401,8.83602640981,11.4258267109,10.0393717585,11.4921486584,9.96963457865,12.7538407128,8.64297200157,9.49855170203,12.0658913209,11.2396000838,10.2351880801,9.26347016401,12.313078325,10.787560522,10.7105053081,12.5929609289,8.81213625048,7.52793771735,14.137981589,8.278753983,13.348502224,10.4697407107,11.0446911726,10.2709063381,11.2537644724,11.1564679004,10.3226011348,12.7257360195,8.67252393919,9.05714984595,12.5300230572,7.81817805856,13.8327953926,7.49287244855,14.1748525352,9.04073362773,12.5472846245,8.01083977372,13.6302126097,13.7038856819,7.64400470002,11.4800662047,9.98233921535,11.8174542684,9.62757743611,10.3804359873,11.1385946208,7.33527568908,14.3405647011,13.3360288184,8.03080426235,9.68057576039,11.8744939783,9.60387878246,11.9551404483,8.60537295936,13.0050640836,10.6662111432,10.8381035434,13.3397060563,8.026937666,8.83060471948,12.7682340693,8.83900985702,12.7593961113,7.74542078827,13.9092992807,6.66627827961,15.0440119679,7.9794517428,13.6632169596,14.0069963557,7.32528541645,14.0114617073,7.32059012264,13.5166083147,7.84092586924,13.3049034921,8.06353237972,15.361145158,5.90140505403,15.9060354756,5.32845574331,4.43129604952,17.3940840593,7.43259161056,14.2382375201,2.66870925817,19.2474348248,4.04058764499,17.8049118972,2.84351019303,19.0636325587,9.1351602685,12.4479955071,8.72790429346,12.8762230286,5.83745127829,15.9155192122,6.12138796204,15.6169612786,22.2179097332,-1.30844692981,23.6332593091,-2.79667958475,19.7521801993,1.2842547412,18.8402214451,2.24317458754,17.1216306258,4.05026381919,17.238908338,3.92694692002,18.4851037185,2.61657901426,18.1534941379,2.9652647488,21.3268333317,-0.371484767726,20.6332763317,0.357786779743,21.64767359,-0.708846616456,23.6012149865,-2.76298514753,23.8313053723,-3.0049239813,21.9012727481,-0.975504800886,20.6360342601,0.354886832478,20.3611594753,0.6439162268,22.0872362792,-1.17104447842,21.3982764528,-0.446606834875,18.5644273509,2.53317063095,15.8261864341,5.4124165916,15.3367177025,5.9270903953,17.5062971381,3.64578899927,19.7607170022,1.27527833768,20.1157032199,0.90201219182,22.5681691472,-1.67674286632,22.5881309378,-1.69773258453,19.3302152727,1.72794864811,23.7180987983,-2.88588786259,24.846096531,-4.07197156161,21.5440533849,-0.599890514261,19.7223683958,1.31560169613,19.0244778661,2.04942992731,18.2839052004,2.82813820066,18.1475843808,2.97147882744,18.963146523,2.11391951297,20.0960031944,0.922726665263,17.929312883,3.2009901624,17.369057009,3.79009627513,18.8699017397,2.21196591347,18.9515894001,2.12607176701,23.4111796909,-2.56316403105,23.9569890048,-3.13707966161,20.8888456175,0.0890570162727,19.5377174482,1.50976119895,-10.7086143905,33.313620471,-10.034496277,32.6047888107,-7.45660973493,29.894154634,-8.0578406349,30.5263457715,-6.80074504953,29.2045163576,-8.01397554545,30.4802218601,-5.25183258236,27.5758430231,-4.26501523438,26.5382097581,-4.44152390557,26.7238076999,-4.7743151871,27.0737359868,-13.6684101427,36.4258301789,-12.4919520256,35.1887906399,-4.85298252765,27.1564542828,-13.6150901933,36.3697645317,-12.4488747368,35.1434950967,-11.2164715033,33.8476295611,-11.4619271325,34.1057248677,-7.18370507797,29.6071968187,-3.95980323703,26.2172809438,-3.33125607057,25.5563668953,-7.83851894505,30.2957301651,-5.95825928874,28.3186469994,-6.86614753093,29.2732867237,-11.2826617853,33.9172282955,-11.8178326596,34.4799576626,-11.0098873847,33.6304074441,-10.2301776858,32.8105467856,-14.7600287705,37.57366144,-12.3562874978,35.0461401005,-13.7256703477,36.486038984,-11.4417023241,34.0844585877,-9.36077018505,31.896369359,-9.02902972185,31.5475460021,-9.53649105562,32.0811389327,-9.89449696699,32.4575802706,-11.2963186661,33.931588434,-8.36554754297,30.8498979713,-9.49459609396,32.0370866003,-9.75948998337,32.3156211355,-10.4976992472,33.0918443042,-13.4903271227,36.2385768175,-12.0858777516,34.7618056707,-12.6584798015,35.3638937227,-11.0106764378,33.6312371293,15.740033422,5.50300603188,12.1302835244,9.29863911437,10.8347081662,10.6609298075,12.9890536814,8.3956467989,17.1691723269,4.00027396985,18.6953638225,2.39549161784,12.055819144,9.37693801975,14.2491698998,7.07064120519,14.7719964769,6.52089180184,17.302209809,3.86038575532,15.5157209713,5.73886939711,12.2170929848,9.20735942211,10.4003982086,11.1176044499,10.2065544011,11.3214301966,11.764659415,9.68309094748,13.9358153129,7.4001319096,15.8688688832,5.36753622019,18.6838066997,2.40764387187,10.012447889,11.5255321759,11.6179632518,9.83734119365,8.0734843267,13.5643421909,7.60647323595,14.0554019031,0.448698371103,21.5817646276,0.727775802909,21.2883161719,3.55715986635,18.3132336707,6.92447398501,14.7725205381,4.22681419384,17.609095658,-0.0930398046186,22.1513994777,3.06335729205,18.8324644873,1.03443251889,20.9658682436,4.27698231451,17.5563441422,8.645954085,12.9623932429,-1.27173106713,23.3907871574,0.729482913006,21.2865211546,-1.42394316549,23.5508373804,7.26264992764,14.4169303083,8.30291889043,13.3230929506,11.3906301681,10.0763807386,5.46315956165,16.3090849889,8.02318501029,13.6172316582,8.1627891675,13.4704386192,11.2167485819,10.2592163145,-2.12577332451,24.2888081112,-3.12191527607,25.336246148,1.82766884224,20.1317844105,6.52733041417,15.1901149196,9.30024269947,12.2744121968,8.15635400119,13.4772051628,5.91572440542,15.8332154296,1.66560673115,20.3021918702,-4.26449045145,26.5376579516,8.32839700764,13.296302844,1.51457695995,20.4609988824,12.4394354642,8.9735674713,8.70584086612,12.8994226067,10.7580111602,10.7415763071,13.0166331221,8.36664716164,3.37973251192,18.4997976032,-1.51416700265,23.6457072719,11.3307434653,10.1393512925,8.49991460492,13.1159529902,23.9856191073,-3.1671840642,24.844257912,-4.07003826343,21.1076425244,-0.141006783671,18.9224338885,2.15672863458,1.83515482687,20.1239129369,7.71127482893,13.9452035778,9.76410196149,11.786666616,2.13130461211,19.8125129912,22.5118282516,-1.61750071021,17.058854564,4.11627251891,14.1581576358,7.1663401234,18.8348364709,2.24883685968,14.7441544881,6.55016750697,16.9681053177,4.21169487539,5.78019138641,15.9757276882,1.47557143556,20.5020129867,15.7455495919,5.49720580811,11.5737048882,9.88387863074,30.4172672403,-9.93002833899,29.8599001773,-9.34395979592,11.2439340049,10.2306309848,2.48904875824,19.4363468981,25.6367064348,-4.90329372831,19.414923253,1.63887865113,-4.63891367694,26.9313620091,-5.04827066238,27.3617987321,-7.85913702752,30.3174099707,-7.13839589612,29.5595544516,-6.16431737191,28.5353159929,-7.78638007034,30.2409064118,-1.76737288661,23.9119519307,-1.0700077661,23.1786761645,0.28125191202,21.757833701,-5.14046462733,27.4587402026,-1.89331828434,24.0443828558,-2.37398813457,24.5498046819,-2.56507424847,24.7507307284,-3.97201727787,26.2301239437,-6.30326461111,28.6814182861,-2.61392915936,24.8021014109,-7.2175880196,29.6428245541,-6.03114775477,28.395288839,3.69702704126,18.1661640699,3.74299251488,18.1178316155,-3.65144003718,25.8930386567,-4.64337871545,26.9360569737,-5.05667595648,27.3706368547,-5.05759526595,27.3716035038,-4.96277488143,27.2719003669,-7.65176636081,30.0993608024,-5.19404759443,27.5150824114,-4.47803326678,26.7621971017,-7.22717564087,29.6529058876,-5.84925598806,28.2040306005,0.330632232073,21.7059105534,-0.276508425047,22.3443157697,1.97449596639,19.9773964597,-3.62609264603,25.8663860079,-2.41154831409,24.5892990137,-2.64321555364,24.8328959009,-4.69144582572,26.986599288,-3.04626888162,25.256704361,-0.647780448037,22.7347063543,4.01130062448,17.8357070457,-3.70029494807,25.9444093392,-6.11086591365,28.479112065,4.39583625417,17.4313698481,6.07634148477,15.6643274132,-7.41524080867,29.850655425,-8.62571337617,31.1234609802,-0.339284486877,22.4103244694,-4.89986731075,27.2057533863,7.1803056623,14.5035148713,7.75211865915,13.9022565046,13.5955377336,7.75793199928,12.2982552361,9.12201774063,-14.3483083832,37.1407396124,-11.6429008422,34.2960177741,-12.9047244838,35.6228187144,-15.2883712045,38.1292107379,-7.38319523351,29.8169596708,-9.70682632574,32.2602455757,-2.41877128102,24.5968939255,-0.864737483557,22.9628355391,6.23919139649,15.4930915853,11.4879460896,9.97405355767,-10.7527412452,33.3600196272,-9.90093213329,32.4643468142,-5.7772868315,28.1283554099,-0.588155588705,22.6720111275,15.9740643765,5.25692371079,10.0108719746,11.5271892416,-16.8871906533,39.8103610018,-16.126653692,39.0106603763,-2.66225803486,24.85291897,-12.1173972913,34.7949483015,19.3813027028,1.67423048328,23.1465488192,-2.28490605756,23.3048015573,-2.45130798159,19.8304530133,1.20195128784,20.1116320817,0.906292972284,23.8098982367,-2.98241449054,23.9057694396,-3.08322255744,20.385587557,0.618230227051,20.5911196048,0.402114356934,24.4023305685,-3.60535397983,24.623753895,-3.83817944618,20.901847459,0.0753856481743,-12.8117414657,35.5250475587,-12.2525357838,34.9370457174,-9.93534111032,32.5005276731,-10.641900578,33.2434712471,-13.745501882,36.5068917384,-13.271791981,36.0087882623,-10.964971477,33.5831786027,-11.5063170048,34.1524005856,-14.5731459299,37.3771551134,-14.1471098651,36.929180426,-11.760702711,34.4198858213,-12.2870762697,34.9733648571,-8.28136559804,30.7613810978,-8.68034716159,31.180908119,-7.60080981327,30.0457802599,-7.50809106539,29.9482869829,-7.13366783991,29.5545829253,-7.53264940345,29.9741099466,-8.30592393611,30.7872040614,-9.10506939037,31.6275013147,-9.50405220639,32.0470296529,-8.33179611019,30.8144085168,-7.9573728847,30.4207044592,-8.35635444825,30.8402314804,-9.1296289809,31.6533255953,-9.09522000387,31.6171447365,8.57083309972,13.0413825649,7.21011777885,14.4721675872,5.45987622407,16.3125374012,6.54387829779,15.1727149068,-8.35202091858,30.8356747967,-8.56004787707,31.0544140524,-10.5087309609,33.1034440932,-9.98367123829,32.5513465491,-0.975449146807,23.0792482723,-1.25951702629,23.3779441575,-7.81238375327,30.268249148,-8.13571892237,30.6082343823,-10.522520603,33.1179438296,-11.1585525016,33.7867280347,-0.0726834873744,22.1299949169,-0.502396790062,22.5818362006,-0.526956380589,22.6076604812,-1.26503288312,23.383744052,-1.5979556735,23.7338106198,-1.16824237081,23.2819693361,-0.405606277748,22.4800614846,-0.902429171931,23.0024681518,-1.33214247462,23.4543094355,-2.09477982014,24.2562186039,-2.42770261052,24.6062851717,-1.99798930783,24.1544438879,-1.2353519623,23.3525347195,-2.03226552355,24.190485149,15.9848336987,5.24559982498,11.5168387401,9.94367308721,11.4388284741,10.0257004727,16.3239292639,4.88904261687,2.05684054483,19.8908115674,-1.59821869119,23.7340871815,-1.26660973684,23.3854021055,2.22651952318,19.7123950117,11.9114869306,9.52870258508,15.9144404565,5.3196179499,16.6204729495,4.57722848702,12.21302169,9.2116403672,6.52260267108,15.1950861167,6.70173744872,15.0067268376,13.8151224412,7.52703983111,14.1787766576,7.14465933011,14.5507046592,6.75357898732,13.7589130545,7.58614370635,11.3340267246,10.1358989626,9.54412335363,12.0179729683,2.53343863062,19.3896711801,6.35423690252,15.3721218391,10.5020480119,11.0107202148,9.26110613591,12.3155640881,3.58841638842,18.2803676017,6.97122757237,14.7233593862,20.4083072761,0.594340561575,19.5316761822,1.51611355845,19.0441772654,2.02871611235,19.9562681546,1.06965732666,15.2569998568,6.01091329196,15.2643546457,6.00317977001,17.0771092446,4.09707781801,18.504146826,2.59655528665,12.4089668993,9.00560500745,15.0236258202,6.25630486721,8.32721499358,13.2975457256,9.99393034726,11.5450032739,8.47443648771,13.1427430968,10.1823895719,11.3468393877,13.545369613,7.81068351502,11.5503280163,9.90845928899,7.48381054956,14.1843810744,18.8620218547,2.22025157115,18.7645750507,2.32271637449,18.6496607403,2.443548169,18.4277120047,2.67692610032,16.8812957007,4.30297473227,20.0872046263,0.931978313553,16.3689754281,4.84167681155,13.7909576903,7.55244893989,11.3579288883,10.1107659628,13.2863859504,8.08300347773,16.8629095112,4.32230771404,15.3170179902,5.9478045395,15.527409603,5.72657886221,7.7272973034,13.92835603,6.47611147517,15.2439713653,11.8435890688,9.6000968306,12.1231917532,9.30609607459,6.66549016587,15.0448406654,20.4008212915,0.602212035145,21.5956662242,-0.654161144062,20.8755813846,0.103004287619,20.7543634168,0.230464344873,19.7488968617,1.28770715344,10.5681072548,10.9412592675,13.3536270507,8.01229981343,13.2388442493,8.13299332707,10.4369080981,11.0792144925,12.0799838948,9.35152891097,17.8794071538,3.25346577489,15.4266791482,5.83249640704,13.9765276343,7.35732311723,16.0466904511,5.18055777434,15.3590438345,5.90361458469,17.9282620647,3.20209509236,20.0948214935,0.923969217599,20.4022660101,0.60069292108,19.626497193,1.41640976303,17.6252825866,3.5206764243,20.6984164216,0.289292316867,20.3729796158,0.631487411037,18.6538633874,2.43912910767,17.4075371242,3.74963463581,14.3312514605,6.98433287462,12.4478406017,8.96472951326,13.6739420565,7.67549026506,19.3063132264,1.7530815244,14.8254479351,6.46468787386,15.0179784546,6.2622430426,14.7834220909,6.50887782867,14.6438179337,6.65567086768,11.0422103516,10.4427423481,15.2534541277,6.01464160745,15.2091957642,6.06117904454,15.7006343104,5.54443399105,12.1050681117,9.32515298848,7.77037365287,13.8830614744,3.91818735006,17.9336151653,4.8687577283,16.9340953988,10.3382789082,11.1829225684,4.50260828806,17.3190996146,10.5460437296,10.9644589485,5.67302576532,16.0884117766,15.4282550626,5.83083934135,11.0317039101,10.4537898162,12.2308826269,9.19285968579,7.00997007907,14.6826218436,15.740033422,5.50300603188,15.8909323106,5.34433664208,12.4922303175,8.91805395992,5.13443941833,16.6547324953,8.45815146523,13.1598667125,6.11101285326,15.6278706511,6.01658636905,15.7271596039,10.9257202052,10.565231126,20.989707268,-0.0169984801773,16.4275488429,4.78008717315,15.1879201375,6.08355025443,20.1610124018,0.854369824771,22.8204544692,-1.94201955907,18.258296044,2.85506609427,17.2026613682,3.96506041857,22.1758845151,-1.26425763348,-4.28668538764,26.5609958105,0.175793087909,21.8687231013,-0.953911754859,23.0566018177,0.267725287628,21.7720568755,6.69175624026,15.017222026,7.62118218751,14.0399355177,9.41660141529,12.1520616175,11.9411676165,9.49749349946,10.5393458783,10.971501704,8.27021749317,13.3574782983,13.8465104721,7.49403548125,12.8986983354,8.49065497127,13.735142204,7.61113863102,13.9493422504,7.38590840576,6.71552709081,14.9922271013,1.20621250764,20.7852424865,2.10162431753,19.8437216653,13.7994941802,7.54347286561,8.56374117196,13.0488396897,14.2985499067,7.01871838692,-1.09364679469,23.2035324791,-1.59546076278,23.7311872343,0.996083912508,21.0061916021,2.98285195878,18.917115423,-5.81799946599,28.1711645315,-7.74041459671,30.1925739574,1.65654514527,20.3117200803,-1.06895694777,23.1775712345,-1.38703927774,23.512033136,4.06107484485,17.7833697141,-5.89351435159,28.2505680376,-7.48011725467,29.9188726677,0.146244928404,21.8997928361,1.01814733985,20.982992024,0.842164704049,21.1680368424,-0.0202828474395,22.0748959188,2.30873259278,19.6259484002,0.803553706202,21.2086361041,-2.87777223045,25.0795310162,-1.36405654093,23.4878669088,-5.76389046349,28.1142691992,-4.70155822992,26.997232428,-6.61950832213,29.0139468894,-5.53485089598,27.8734352953,-1.53294771864,23.6654550963,0.687326186117,21.3308487318,3.19153583528,18.6976854215,-0.552302519275,22.6343118131,-6.55935993233,28.950701173,-2.09504158538,24.2564938487,2.14798369146,19.7949750268,3.02802963178,18.8696113368,-3.58104648188,25.8190202025,-2.75432049097,24.9497221597,-1.29589613111,23.4161965954,-3.59825034416,25.8371099735,-3.33729671034,25.5627185964,-0.858565334945,22.9563455573,-4.84589106957,27.1489976518,1.73087832993,20.2335591265,0.623236914503,21.3982382647,-1.29497682164,23.4152299463,-6.64433093035,29.0400477317,-6.55029834646,28.941172963,-6.21185844678,28.5853051838,-6.2485005693,28.6238341834,-1.08996955679,23.1996658827,1.78853243524,20.1729361372,3.11969818757,18.7732223312,0.408774163472,21.6237447225,3.34151541438,18.5399826808,1.52705339226,20.4478799793,-13.0380243573,35.7629828322,-12.8479878092,35.5631603987,-12.5308260412,35.2296664633,-12.7238810304,35.4326627718,-12.1457656286,34.8247774593,-6.33609798689,28.7159424085,-5.92687125783,28.2856426495,-4.66780679713,26.9617429735,-1.00670566887,23.1121143413,-2.9163832283,25.1201302779,-0.757703058197,22.8502894023,-0.200730521754,22.2646357018,-2.17935629162,24.34515032,-3.86734750685,26.1200642285,1.79614930248,20.1649270412,0.546145801425,21.4792991657,2.18186725933,19.7593466329,1.11283684175,20.8834265094,-8.75953928508,31.2641782215,-8.86171414538,31.3716145511,-7.41458326442,29.8499640207,-5.23502324662,27.5581680948,-6.2867170406,28.6640186025,-1.5794379752,23.7143393572,-2.26012401635,24.4300771589,1.37221424809,20.6106925272,1.69568155228,20.2705683536,1.77067102871,20.1917173125,1.67755775429,20.2896254321,-1.26897313871,23.3878872101,3.09041116706,18.8040174796,-7.12460625403,29.5450547153,-7.74212170681,30.1943689747,-4.23283940284,26.50437704,-8.13992219566,30.6126541021,2.92782427304,18.9749767459,-0.234483207007,22.3001264733,2.17753310343,19.7639039751,-0.812336843622,22.9077365411,-2.32473869713,24.4980191568,1.44877995201,20.5301840911,-6.64498722213,29.0407378191,-1.16758607903,23.2812792487,-2.10856946223,24.2707183402,2.53947989662,19.3833188206,-6.99104336281,29.4046140358,-7.56561428808,30.0087723498,-8.2607462631,30.7396999753,-4.94990454882,27.2583672796,-0.822843774365,22.9187845237,2.24451181231,19.693476214,-3.54085988278,25.7767642044,-3.05795688707,25.2689942375,-4.37940413552,26.6584890876,-4.77707311551,27.0766359341,-2.55982015687,24.7452060786,-1.93705186495,24.0903684864,-3.25836760455,25.4797250556,-3.79603464207,26.0450791253,-6.43210069858,28.8168887563,-1.56604285965,23.7002544634,8.31618327991,13.3091455146,7.30651439085,14.3708070553,6.05861190021,15.6829699784,5.10331377888,16.687460942,-1.22103753729,23.3374831767,-0.641738555809,22.7283533364,4.44469179129,17.3799985071,-8.32890667292,30.8113702886,-7.48182436477,29.920667685,-7.85992482814,30.3182383389,4.02180755523,17.8246590631,-8.52708424491,31.0197529661,-0.829410449521,22.9256893482,24.2509062708,-3.44613212505,19.5748843537,1.47068039283,18.6331131698,2.46094785258,23.6063363167,-2.76837019946,-1.87138636585,24.0213215585,-1.46019076146,23.5889515374,-2.56993256107,24.7558392186,-3.10759959859,25.3211932882,10.9674833058,10.5213174448,9.16970012814,12.4116770258,9.55515514558,12.0063730969,8.54036437827,13.0734202657,-4.11109602592,26.3763645177,1.90252680983,20.0530716503,6.21187481689,15.5218148254,8.44528113261,13.1733997997,9.8121689152,11.7361244663,3.90663022723,17.9457674193,11.5689769886,9.88884999243,13.4223130263,7.94007687045,1.63224919867,20.3372671407,-4.42169362372,26.7029562626,-4.42077431425,26.7019896135,0.603012106107,21.4195045447,16.6027436781,4.59587072295,15.1361757893,6.1379591651,8.42216688695,13.1977043078,5.31147287245,16.468582747,4.2499284395,17.5847911499,-5.89784788125,28.2551247213,-0.38590625228,22.4593470112,-3.43356243972,25.6639415058,-1.23403937875,23.3511545448,-7.14364873526,29.5650777844,9.41174216335,12.1571710954,-8.28556761886,30.7657995006,-7.6621417827,30.1102705041,4.53425871044,17.2858193615,-1.79718406381,23.9432982272,-9.45861151569,31.999249005,-2.61222204927,24.8003063936,-2.98795785831,25.1953906259,-1.58653068575,23.7217973051,0.00558932663997,22.0476914635,-1.00867579667,23.1141859204,-0.1357225669,22.1962801783,-3.93051684275,26.1864864539,-3.65367193021,25.8953854805,-4.03466183085,26.2959943626,-2.71623552851,24.9096760214,-4.73675500757,27.0342416551,-5.47601383727,27.8115684367,-4.73714828165,27.0346551807,-5.80972442827,28.1624633727,-4.65007689945,26.9431000791,-6.1176956065,28.4862934512,-3.83517042284,26.0862301935,-4.593211221,26.8833061165,-4.54238618232,26.8298638549,-3.01540563363,25.2242518177,-3.36750366655,25.5944810524,-1.59953252721,23.7354686732,-1.13015615589,23.2419218809,-0.630443824441,22.7164769856,-2.23372705935,24.4023208971,-2.25933621573,24.4292487907,-1.20120600297,23.3166304224,-3.20307752735,25.4215878295,-3.49463139146,25.7281551883,-3.68676707122,25.9301848477,0.68286052137,21.3355443549,1.50144360964,20.4748085314,1.43590961939,20.5437171784,-2.41916580757,24.5973087681,-0.890216383557,22.9896264688,0.715167861757,21.3015733559,1.36774920958,20.6153874918,1.87337192441,20.0837278594,0.53327546881,21.492832253,3.5630696235,18.307019592,2.02111835802,19.9283732594,4.89922644974,16.902057698,3.34532416112,18.5359778035,2.58938562583,19.3308432081,1.26150321107,20.7271046019,0.8136661104,21.1980029641,-0.591439552515,22.6754641982,-1.09889963382,23.2090558119,1.99524618394,19.9555777147,0.173298177187,21.8713464869,-1.47069643974,23.599998203,3.22042832924,18.6673051156,2.66818384901,19.2479872898,2.36257795134,19.5693302881,2.80437378602,19.1047842854,1.63579492771,20.3335388252,1.75648748631,20.2066312329,4.323736215,17.5071826611,2.83339778883,19.0742656987,0.155831297209,21.8897128195,-3.88757231524,26.1413305085,-1.73834825756,23.8814326855,-0.402323566403,22.4766097308,-2.25079941278,24.4202723872,-1.42643807621,23.5534607659,-2.27352038436,24.4441633696,-4.35734070818,26.6352895095,-2.96589443097,25.1721910478,0.459730084774,21.5701648385,1.19610010344,20.7958756265,9.86811567558,11.6772967412,5.22571407381,16.5587576739,5.06273265324,16.7301317827,10.2401749904,11.2860783233,0.565451300349,21.4589995349,3.82468017533,18.0319374691,4.63630268813,17.1785206542,1.17495598557,20.8181085555,8.92660743117,12.6672877216,8.02252809228,13.6179224041,12.0411101141,9.39240448747,13.5650693253,7.78996937081,12.9848510344,8.40006586023,14.3185123236,6.99772801023,12.9377033901,8.44964136083,12.1540543749,9.2736441897,9.68320233652,11.8717321473,10.1377372298,11.3937910913,9.03022716666,12.5583321132,4.46833081988,17.3551421926,3.99567236345,17.8521400802,11.7809444375,9.66596733176,4.15116779939,17.6886374449,2.67356819699,19.2423256761,2.89591083297,19.0085335607,15.4130207019,5.84685819174,15.5056085671,5.74950253708,12.5028681309,8.90686835498,12.5706346404,8.8356122257,17.3936159733,3.764272653,16.5613747518,4.63936993191,12.8684923185,8.52241643955,18.208258806,2.90767998762,19.4125598511,1.6413637558,13.8218203121,7.51999705501,11.5536112756,9.90500695906,15.49969881,5.75571661572,13.2408142205,8.13092191265,15.6822481209,5.56376697281,13.3580924023,8.00760451961,12.1382947616,9.29021534045,15.9759029955,5.25499041261,18.2745805969,2.83794297241,14.8955784728,6.39094598143,16.694280725,4.49961999824,16.7382766971,4.4533584644,17.1104674033,4.06200188911,14.843046324,6.44618326032,14.3386059363,6.97659968191,4.13317551025,17.7075562426,4.35459883675,17.4747307762,12.4737127758,8.93752505793,3.66117397183,18.2038633844,2.82223456631,19.0860037686,12.6768811086,8.72389462173,12.2025152289,9.2226878559,10.1059552594,11.4272096664,7.15128165949,14.5340334581,3.1656636612,18.7248898768,5.43518637716,16.3384986457,3.66826542991,18.1964067534,8.09279013874,13.5440422308,5.58148840526,16.1846628306,10.7405442044,10.7599427195,8.68955584364,12.9165462224,4.38900718755,17.4385505759,6.66851079886,15.0416644856,8.83480736653,12.763815008,0.949461520873,21.0552148023,-1.27987334353,23.3993487183,-1.98104721078,24.1366293617,-3.75768540945,26.0047551083,-1.92378700579,24.0764205566,-3.9859384288,26.2447619609,-5.47614534612,27.8117067176,-4.96723991995,27.2765953314,-2.08860641907,24.2497273051,-5.82298928743,28.1764113025,-3.47112261925,25.7034358376,-1.83106825791,23.9789272795,-2.59160271433,24.7786252711,-4.15154564271,26.4188970776,-8.70109675292,31.2027262054,-9.64405026391,32.194236876,-10.4073439012,32.9968361318,-10.363740577,32.9509874651,-0.44461180214,22.5210755889,-0.538381368339,22.6196737959,-7.99309444528,30.4582654928,-8.50541534411,30.9969682305,-10.6833997607,33.28710742,-10.7594394292,33.3670627326,-8.01817881874,30.4846415799,-2.46867701024,24.649369538,-6.86995627767,29.2772916009,-0.0024214409164,22.0561147436,0.887210868204,21.1206710371,0.29228362569,21.7462339119,1.75228483926,20.2110502942,1.91579166899,20.0391237204,0.684042848539,21.334301144,14.6425047239,6.65705170088,14.1205971431,7.20583478439,15.8319649955,5.40634046458,17.704081436,3.43781984749,18.1688600075,2.94910761755,17.5412315243,3.60905567543,9.56684354242,11.9940828089,11.4377778124,10.026805238,12.4025315764,9.01237171569,3.77398664549,18.0852414498,7.21340111643,14.4687151749,4.66296266283,17.1504878306,-7.9773346754,30.4416941774,1.77842003104,20.1835692772,0.771508757279,21.2423311998,-2.10515398957,24.2671269886,-6.73547407698,29.1358842723,20.5347787092,0.46135651304,20.0504316211,0.97064493556,19.696233204,1.34308271319,-11.767007621,34.426515401,-11.3953435764,34.0357126077,-11.9863293108,34.6571310075,-13.20376308,35.9372562298,-13.2572157907,35.9934614747,-13.1256217749,35.8550910573,4.06501510044,17.779226556,3.45498500605,18.4206700003,12.2060612711,9.21895921117,3.15712748448,18.7338656218,12.285910156,9.1349985275,13.7406580608,7.60533873649,14.4740074465,6.83422570423,16.4287305438,4.77884462082,13.5017678543,7.85653053551,15.8653228411,5.37126486492,16.0585099654,5.16812961706,-1.66086324417,23.7999576004,-2.54222176804,24.7267014651,-2.36637064109,24.5417949275,-3.20137041725,25.4197928122,-1.14486635992,23.2573895832,-4.17833712626,26.447068182,-10.3630842852,32.9502973777,-10.1490154345,32.7252051041,-7.89945638793,30.3598055667,21.2045639193,-0.24291912204,18.0603808635,3.06317286843,19.5195936502,1.52881827746,22.0140847955,-1.094126077,18.4505638589,2.6528974955,20.658492214,0.33127241177,14.0588718996,7.27073855416,16.985966098,4.19291435861,13.8210321983,7.52082575247,9.27148124469,12.3046547157,10.2018265014,11.3264015583,15.2275819537,6.04184606278,10.2697243632,11.2550073128,14.7738350958,6.51895850366,6.90030923414,14.7979296468,10.349967305,11.1706322804,7.80228709295,13.8495046596,4.56039390222,17.2583383444,20.5480429422,0.447409241694,20.2957569939,0.712686592923,19.6115252237,1.43215271017,16.9980486299,4.1802096396,12.5460758327,8.86143568321,11.6335915911,9.82090807684,11.8370225502,9.60700149046,5.96155868331,15.7850209268,5.41062741287,16.3643222678,6.25678978531,15.4745869717,17.4399753472,3.71552601448,20.2865638992,0.722353083805,7.17058715842,14.5137338272,12.8065042139,8.58759660643" style="fill:none; stroke:#00C; stroke-width:1.5px"/>
</svg>